<svg xmlns="http://www.w3.org/2000/svg" width="24" height="20" viewBox="0 0 24 20">
    <g fill="none" fill-rule="evenodd">
        <g fill="#7986CB">
            <g>
                <g>
                    <g>
                        <g>
                            <g>
                                <g>
                                    <g>
                                        <path d="M11.334 6.647V0l6.305 1.517V5.13l-6.305 1.517zM7.174 1.28L10.955 0v6.647L7.173 5.368V1.28zM4.982 6.705v6.647L1.2 12.072V7.984l3.783-1.28zm.378 0l6.305 1.517v3.613L5.36 13.352V6.705zm11.947 6.647V6.704l6.305 1.518v3.613l-6.305 1.517zm-4.161-5.368l3.783-1.28v6.648l-3.783-1.28V7.985zM11.334 20v-6.648l6.305 1.518v3.613L11.334 20zm-4.16-5.368l3.782-1.28V20l-3.783-1.28v-4.088z" transform="translate(-64 -334) translate(0 64) translate(45 179) translate(3 74) translate(16 17)"/>
                                    </g>
                                </g>
                            </g>
                        </g>
                    </g>
                </g>
            </g>
        </g>
    </g>
</svg>
