<svg width="16" height="18" viewBox="0 0 16 18" fill="none" xmlns="http://www.w3.org/2000/svg">
<g clip-path="url(#clip0_218_2)">
<path d="M3.33591 0C1.49421 0 0 1.51172 0 3.375V14.625C0 16.4883 1.49421 18 3.33591 18H13.3436H14.4556C15.0707 18 15.5676 17.4973 15.5676 16.875C15.5676 16.2527 15.0707 15.75 14.4556 15.75V13.5C15.0707 13.5 15.5676 12.9973 15.5676 12.375V1.125C15.5676 0.502734 15.0707 0 14.4556 0H13.3436H3.33591ZM3.33591 13.5H12.2317V15.75H3.33591C2.72085 15.75 2.22394 15.2473 2.22394 14.625C2.22394 14.0027 2.72085 13.5 3.33591 13.5ZM4.44788 5.0625C4.44788 4.75312 4.69807 4.5 5.00386 4.5H11.6757C11.9815 4.5 12.2317 4.75312 12.2317 5.0625C12.2317 5.37188 11.9815 5.625 11.6757 5.625H5.00386C4.69807 5.625 4.44788 5.37188 4.44788 5.0625ZM5.00386 6.75H11.6757C11.9815 6.75 12.2317 7.00312 12.2317 7.3125C12.2317 7.62188 11.9815 7.875 11.6757 7.875H5.00386C4.69807 7.875 4.44788 7.62188 4.44788 7.3125C4.44788 7.00312 4.69807 6.75 5.00386 6.75Z" fill="#3F51B5"/>
</g>
<defs>
<clipPath id="clip0_218_2">
<rect width="15.5676" height="18" fill="white"/>
</clipPath>
</defs>
</svg>
