<svg xmlns="http://www.w3.org/2000/svg" width="18" height="18" viewBox="0 0 18 18"><g fill="none" fill-rule="evenodd"><g fill="#596684"><g><g><g><g><path d="M8.326 12.828v4.154l-1.758-.8v-2.554l1.758-.8zm.176 0l2.93.948v2.258l-2.93.948v-4.154zm6.392 0v4.154l-1.759-.8v-2.554l1.759-.8zm.175 0l2.931.948v2.258l-2.93.948v-4.154zm-13.31 0v4.154L0 16.182v-2.554l1.758-.8zm.175 0l2.93.948v2.258l-2.93.948v-4.154zm13.623-.88h-.77v-1.923H9.02v1.922H8.25v-1.922H2.483v1.922h-.769V9.498c0-.134.109-.242.243-.242H8.25V6.564h.769v2.692h6.294c.134 0 .243.108.243.242v2.45zm-4.67-8.797c0 1.244-1.008 2.252-2.252 2.252-1.243 0-2.251-1.008-2.251-2.252C6.384 1.908 7.392.9 8.635.9c1.244 0 2.252 1.008 2.252 2.251z" transform="translate(-23 -74) translate(0 64) translate(23 9.872)"/></g></g></g></g></g></g></svg>