<?xml version="1.0" encoding="UTF-8"?>
<svg width="32px" height="32px" viewBox="0 0 32 32" version="1.1" xmlns="http://www.w3.org/2000/svg" xmlns:xlink="http://www.w3.org/1999/xlink">
    <!-- Generator: Sketch 54.1 (76490) - https://sketchapp.com -->
    <title>Group 17</title>
    <desc>Created with Sketch.</desc>
    <g id="Symbols" stroke="none" stroke-width="1" fill="none" fill-rule="evenodd">
        <g id="icons/brand/services" transform="translate(-9.000000, -9.000000)" fill="#FF6E40">
            <g id="Group-17" transform="translate(9.000000, 9.000000)">
                <path d="M18.8487981,25.4625962 C19.1723558,25.4356731 19.5329327,25.5308654 19.6930288,25.8419231 C19.9699519,26.2861538 19.6295673,26.9318269 19.1064904,26.9544231 C17.6935096,26.9616346 16.2800481,26.9577885 14.8670673,26.9577885 L15.3550481,27.44625 C15.6040865,27.6563462 15.7930288,27.9799038 15.6848558,28.3140385 C15.565625,28.8236538 14.8680288,29.0380769 14.4829327,28.6832692 C13.8540865,28.0625962 13.2329327,27.4347115 12.6074519,26.8116346 C12.2949519,26.5659615 12.2151442,26.0746154 12.4685096,25.7592308 C12.9814904,25.2222115 13.5175481,24.7068269 14.0396635,24.1779808 C14.3146635,23.9294231 14.5473558,23.5525 14.9637019,23.5616346 L14.9637019,23.5606731 C15.515625,23.5409615 15.9021635,24.1928846 15.6199519,24.6674038 C15.4060096,24.9630769 15.1165865,25.19625 14.8670673,25.4625962 L18.8487981,25.4625962 Z M7.84134615,13.9489904 C8.09038462,14.2239904 8.46682692,14.4566827 8.45721154,14.8735096 C8.47692308,15.4249519 7.82548077,15.8114904 7.35048077,15.5297596 C7.05528846,15.3158173 6.82163462,15.0263942 6.55528846,14.776875 L6.55528846,18.758125 C6.58269231,19.0816827 6.4875,19.4427404 6.17644231,19.6023558 C5.73221154,19.8792788 5.08701923,19.539375 5.06394231,19.0158173 C5.05769231,17.6033173 5.06346154,16.1898558 5.06153846,14.776875 C4.89855769,14.939375 4.73605769,15.101875 4.57307692,15.264375 C4.36298077,15.5134135 4.03942308,15.7023558 3.70528846,15.5941827 C3.19567308,15.4749519 2.98125,14.7773558 3.33605769,14.3922596 C3.95625,13.7634135 4.58461538,13.1422596 5.20769231,12.5167788 C5.45336538,12.2042788 5.94471154,12.1249519 6.25961538,12.3778365 C6.79663462,12.8908173 7.31201923,13.4273558 7.84134615,13.9489904 Z M24.7495192,17.9796635 C24.5,17.7046635 24.1240385,17.4719712 24.1331731,17.055625 C24.1134615,16.5037019 24.7653846,16.1171635 25.2399038,16.3988942 C25.5355769,16.6133173 25.76875,16.9027404 26.0350962,17.1517788 L26.0350962,13.1705288 C26.0081731,12.8469712 26.1028846,12.4859135 26.4139423,12.3262981 C26.8586538,12.049375 27.5038462,12.3892788 27.5264423,12.9128365 C27.5326923,14.3253365 27.5274038,15.7387981 27.5293269,17.1517788 L28.0173077,16.6642788 C28.2278846,16.4152404 28.5509615,16.2262981 28.8855769,16.3344712 C29.3951923,16.4537019 29.6091346,17.1512981 29.2543269,17.5363942 C28.6341346,18.1652404 28.0057692,18.7863942 27.3826923,19.411875 C27.1370192,19.724375 26.6456731,19.8037019 26.3307692,19.5508173 C25.79375,19.0378365 25.2783654,18.5012981 24.7495192,17.9796635 Z M13.2608173,6.94591346 C12.9372596,6.97283654 12.5766827,6.87716346 12.4170673,6.56658654 C12.1396635,6.12235577 12.4800481,5.47668269 13.003125,5.45408654 C14.4161058,5.44783654 15.8295673,5.45360577 17.2425481,5.45168269 C17.0795673,5.28918269 16.9170673,5.12620192 16.7545673,4.96370192 C16.5060096,4.75264423 16.3165865,4.42956731 16.4247596,4.09543269 C16.5444712,3.58581731 17.2415865,3.37139423 17.6271635,3.72668269 C18.2560096,4.346875 18.8766827,4.97475962 19.5021635,5.59783654 C19.8146635,5.84399038 19.8944712,6.33485577 19.6411058,6.65024038 C19.1286058,7.18725962 18.5920673,7.70264423 18.0704327,8.23149038 C17.7954327,8.48052885 17.5622596,8.85697115 17.1459135,8.84783654 C16.5944712,8.86754808 16.2074519,8.215625 16.4896635,7.740625 C16.7036058,7.44543269 16.9930288,7.21225962 17.2425481,6.94591346 L13.2608173,6.94591346 Z M2.95336538,4.32548077 L8.52163462,4.32548077 L8.52163462,3.21682692 L2.95336538,3.21682692 L2.95336538,4.32548077 Z M2.95336538,6.54230769 L8.52163462,6.54230769 L8.52163462,5.43413462 L2.95336538,5.43413462 L2.95336538,6.54230769 Z M2.95336538,8.77211538 L6.29134615,8.77211538 L6.29134615,7.66346154 L2.95336538,7.66346154 L2.95336538,8.77211538 Z M9.06923077,0.987019231 C9.99086538,0.987019231 10.7379808,1.73509615 10.7379808,2.65673077 L10.7379808,9.33317308 C10.7379808,10.2543269 9.99086538,11.0024038 9.06923077,11.0024038 L2.39230769,11.0024038 C1.47115385,11.0024038 0.723076923,10.2543269 0.723076923,9.33317308 L0.723076923,2.65673077 C0.723076923,1.73509615 1.47115385,0.987019231 2.39230769,0.987019231 L9.06923077,0.987019231 Z M23.4918269,4.32548077 L29.0600962,4.32548077 L29.0600962,3.21682692 L23.4918269,3.21682692 L23.4918269,4.32548077 Z M23.4918269,6.54230769 L29.0600962,6.54230769 L29.0600962,5.43413462 L23.4918269,5.43413462 L23.4918269,6.54230769 Z M23.4918269,8.77211538 L26.8298077,8.77211538 L26.8298077,7.66346154 L23.4918269,7.66346154 L23.4918269,8.77211538 Z M29.6072115,0.987019231 C30.5288462,0.987019231 31.2769231,1.73509615 31.2769231,2.65673077 L31.2769231,9.33317308 C31.2769231,10.2543269 30.5288462,11.0024038 29.6072115,11.0024038 L22.9307692,11.0024038 C22.0096154,11.0024038 21.2615385,10.2543269 21.2615385,9.33317308 L21.2615385,2.65673077 C21.2615385,1.73509615 22.0096154,0.987019231 22.9307692,0.987019231 L29.6072115,0.987019231 Z M2.95336538,24.3355769 L8.52163462,24.3355769 L8.52163462,23.2274038 L2.95336538,23.2274038 L2.95336538,24.3355769 Z M2.95336538,26.5528846 L8.52163462,26.5528846 L8.52163462,25.4442308 L2.95336538,25.4442308 L2.95336538,26.5528846 Z M2.95336538,28.7826923 L6.29134615,28.7826923 L6.29134615,27.6740385 L2.95336538,27.6740385 L2.95336538,28.7826923 Z M9.06923077,20.9975962 C9.99086538,20.9975962 10.7379808,21.7456731 10.7379808,22.6668269 L10.7379808,29.3432692 C10.7379808,30.2649038 9.99086538,31.0125 9.06923077,31.0125 L2.39230769,31.0125 C1.47115385,31.0125 0.723076923,30.2649038 0.723076923,29.3432692 L0.723076923,22.6668269 C0.723076923,21.7456731 1.47115385,20.9975962 2.39230769,20.9975962 L9.06923077,20.9975962 Z M23.4918269,24.3355769 L29.0600962,24.3355769 L29.0600962,23.2274038 L23.4918269,23.2274038 L23.4918269,24.3355769 Z M23.4918269,26.5528846 L29.0600962,26.5528846 L29.0600962,25.4442308 L23.4918269,25.4442308 L23.4918269,26.5528846 Z M23.4918269,28.7826923 L26.8298077,28.7826923 L26.8298077,27.6740385 L23.4918269,27.6740385 L23.4918269,28.7826923 Z M29.6072115,20.9975962 C30.5288462,20.9975962 31.2769231,21.7456731 31.2769231,22.6668269 L31.2769231,29.3432692 C31.2769231,30.2649038 30.5288462,31.0125 29.6072115,31.0125 L22.9307692,31.0125 C22.0096154,31.0125 21.2615385,30.2649038 21.2615385,29.3432692 L21.2615385,22.6668269 C21.2615385,21.7456731 22.0096154,20.9975962 22.9307692,20.9975962 L29.6072115,20.9975962 Z" id="Combined-Shape"></path>
            </g>
        </g>
    </g>
</svg>