<svg xmlns="http://www.w3.org/2000/svg" width="20" height="20" viewBox="0 0 20 20"><g fill="none" fill-rule="evenodd"><g fill="#29B6F6"><g><path d="M18.302 6.316l1.461-1.462-.439-.438-1.022 1.022-.401-.401-.44.438.84.84zM7.132 3.659h5.713V2.522H7.132v1.137zm0 2.275h5.713V4.797H7.132v1.137zm0 2.288h3.425V7.085H7.132v1.137zm11.537-5.211C19.957 3.01 21 4.054 21 5.34c0 1.288-1.043 2.331-2.33 2.331-1.1 0-2.019-.762-2.265-1.785H15.12v2.91c0 .946-.767 1.713-1.713 1.713h-6.85c-.946 0-1.713-.767-1.713-1.712V7.447c.037-.028.074-.055.107-.089l1.28-1.279c.188-.188.3-.451.3-.704 0-.29-.112-.545-.316-.72L4.951 3.393c-.033-.033-.07-.06-.107-.089V1.947C4.844 1 5.61.234 6.557.234h6.85c.946 0 1.713.767 1.713 1.713v2.87h1.28c.238-1.034 1.163-1.806 2.27-1.806zM6.023 5.375c0 .14-.07.279-.162.372l-1.28 1.28c-.209.208-.535.208-.744 0-.21-.21-.21-.536 0-.745l.395-.395h-3.21c-.302 0-.534-.256-.534-.535 0-.303.256-.535.535-.535h3.21l-.396-.396c-.186-.209-.186-.534 0-.697.093-.117.233-.163.372-.163.14 0 .28.07.372.163l1.28 1.279c.116.093.162.232.162.372z" transform="translate(-1 5)"/></g></g></g></svg>