<svg xmlns="http://www.w3.org/2000/svg" width="22" height="24" viewBox="0 0 22 24">
    <g fill="none" fill-rule="evenodd">
        <g fill="#00BFA5">
            <g>
                <g>
                    <g>
                        <g>
                            <g>
                                <g>
                                    <g>
                                        <g>
                                            <g>
                                                <path d="M14.371 14.186l.013-1.055-5.07-.066-.013 1.056 5.07.065zm-.025 2.11l.013-1.055-5.07-.066-.013 1.056 5.07.065zm-2.055 2.097l.012-1.055-3.04-.04-.012 1.055 3.04.04zm-9.73-1.327l1.685-1.763-.506-.53-1.18 1.234-.463-.484-.507.529.97 1.014zM9.366 3.33h5.07V2.275h-5.07V3.33zm0 2.11h5.07V4.385h-5.07V5.44zm0 2.123h3.04V6.508h-3.04v1.055zm7.089-3.431c3.21.43 5.449 2.943 5.449 6.29 0 3.38-2.283 5.908-5.545 6.302l-.027 2.255c-.01.877-.7 1.58-1.538 1.57l-6.08-.08c-.839-.01-1.511-.73-1.5-1.608l.027-2.319H5.6c-.272 1.194-1.272 2.104-2.502 2.159-1.484.065-2.739-1.14-2.802-2.692-.062-1.552 1.09-2.863 2.575-2.929 1.245-.055 2.326.786 2.68 1.974H7.26l.03-2.549c.01-.877.7-1.58 1.538-1.569l6.08.079c.839.01 1.511.731 1.5 1.609l-.033 2.803c2.412-.288 4.274-2.443 4.274-5.005 0-2.536-1.824-4.672-4.193-4.995v2.67c0 .877-.681 1.589-1.52 1.589h-6.08c-.839 0-1.52-.712-1.52-1.59V6.102l.638-.667c.124-.13.217-.324.217-.518s-.062-.388-.217-.518l-.638-.667v-1.99c0-.878.681-1.59 1.52-1.59h6.08c.839 0 1.52.712 1.52 1.59v2.39zM.807 5.616c-.402 0-.712-.357-.712-.745 0-.42.34-.744.712-.744H5.08l-.526-.55c-.248-.292-.248-.745 0-.972.124-.161.31-.226.495-.226.186 0 .372.097.496.226l1.703 1.78c.154.13.216.324.216.519 0 .194-.093.388-.216.517l-1.703 1.78c-.279.292-.712.292-.99 0-.28-.29-.28-.744 0-1.035l.525-.55H.807z" transform="translate(-70 -954) translate(0 64) translate(48 67) translate(0 125) translate(0 52) translate(0 633) translate(22 10.293) translate(0 3) translate(0 1.15)"/>
                                            </g>
                                        </g>
                                    </g>
                                </g>
                            </g>
                        </g>
                    </g>
                </g>
            </g>
        </g>
    </g>
</svg>
