<svg xmlns="http://www.w3.org/2000/svg" width="16" height="16" viewBox="0 0 16 16"><g fill="none" fill-rule="evenodd"><g fill="#C5CAE9"><g><g><g><g><g><g><path d="M8.04 3.2H8c-2.122 0-4.123.817-5.628 2.307C.854 7.005.012 9.01 0 11.143c-.004.58.057 1.176.165 1.667l15.654.073c.112-.491.177-1.083.18-1.663.025-4.4-3.55-8-7.959-8.02zm-.358.733c0-.177.145-.322.322-.322.177 0 .322.145.322.322v1.369c0 .177-.145.322-.322.322-.177 0-.322-.145-.322-.322v-1.37zM2.327 11.42H1c-.177 0-.322-.145-.322-.322 0-.177.145-.322.322-.322h1.328c.177 0 .322.145.322.322 0 .177-.145.322-.322.322zm1.047-3.043c-.06.104-.169.16-.278.16-.056 0-.108-.011-.16-.044l-1.18-.68c-.153-.089-.206-.286-.117-.439.088-.153.286-.205.439-.117l1.18.68c.152.085.205.283.116.44zm1.949-1.993c-.053.028-.105.044-.161.044-.113 0-.222-.056-.278-.161l-.68-1.18c-.09-.153-.037-.35.116-.439.153-.088.35-.036.439.117l.68 1.18c.089.153.037.35-.116.439zm5.616 1.642L9.007 10c.16.213.257.475.257.761 0 .692-.563 1.256-1.256 1.256-.692 0-1.256-.564-1.256-1.256 0-.692.564-1.256 1.256-1.256.173 0 .334.036.487.096l1.985-2.029c.125-.128.33-.128.455-.004.125.125.129.33.004.46zm.91-3.02l-.68 1.18c-.06.105-.17.161-.278.161-.057 0-.109-.012-.161-.044-.153-.088-.206-.286-.117-.439l.68-1.18c.089-.152.286-.205.44-.116.152.088.205.286.116.439zm3.644 5.971c0 .178-.145.322-.322.322H13.8c-.177 0-.321-.144-.321-.322 0-.177.144-.322.322-.322h1.369c.177 0 .322.145.322.322zm-1.031-3.712c.088.153.036.35-.117.44l-1.18.68c-.052.028-.104.044-.16.044-.113 0-.222-.056-.278-.161-.089-.153-.037-.35.116-.439l1.18-.68c.153-.093.35-.04.439.116z" transform="translate(-1020 -74) translate(0 50) translate(1005) translate(15 24)"/></g></g></g></g></g></g></g></g></svg>