<svg xmlns="http://www.w3.org/2000/svg" width="16" height="16" viewBox="0 0 16 16"><g fill="none" fill-rule="evenodd"><g fill="#C5CAE9"><g><g><g><g><g><path d="M13.717.39V13.66c0 .214-.176.39-.39.39h-.78V5.073c0-.097-.04-.195-.118-.273L8.917 1.288c-.078-.078-.176-.117-.273-.117H4.35V.39c0-.215.176-.391.39-.391h8.586c.214 0 .39.176.39.39zM11.22 4.683L9.034 2.498v1.795c0 .214.176.39.39.39h1.796zm-2.966-.39V1.95H2.79c-.214 0-.39.176-.39.39V15.61c0 .214.176.39.39.39h8.586c.214 0 .39-.176.39-.39V5.463H9.424c-.644 0-1.17-.526-1.17-1.17z" transform="translate(-582 -24) translate(16) translate(551) translate(15 24)"/></g></g></g></g></g></g></g></svg>