<svg xmlns="http://www.w3.org/2000/svg" width="16" height="16" viewBox="0 0 16 16">
    <g fill="none" fill-rule="evenodd">
        <g fill="#C5CAE9">
            <g>
                <g>
                    <g>
                        <g>
                            <g>
                                <path d="M7.4 11.403v3.692l-1.562-.71v-2.271l1.563-.71zm.157 0l2.605.843v2.007l-2.605.842v-3.692zm5.682 0v3.692l-1.563-.71v-2.271l1.563-.71zm.156 0l2.605.843v2.007l-2.605.842v-3.692zm-11.832 0v3.692L0 14.385v-2.271l1.563-.71zm.156 0l2.605.843v2.007l-2.605.842v-3.692zm12.109-.783h-.683V8.91H8.018v1.71h-.684V8.91H2.207v1.71h-.683V8.443c0-.12.096-.216.215-.216h5.595V5.835h.684v2.392h5.594c.12 0 .216.097.216.216v2.177zM9.677 2.8c0 1.106-.896 2.002-2.001 2.002S5.675 3.907 5.675 2.8C5.675 1.696 6.57.8 7.676.8s2.001.896 2.001 2.001z" transform="translate(-350 -24) translate(16) translate(319) translate(15 24)"/>
                            </g>
                        </g>
                    </g>
                </g>
            </g>
        </g>
    </g>
</svg>
