<svg xmlns="http://www.w3.org/2000/svg" width="16" height="16" viewBox="0 0 16 16">
    <g fill="none" fill-rule="evenodd">
        <g fill="#C5CAE9">
            <g>
                <g>
                    <g>
                        <g>
                            <g>
                                <path d="M6.402 10.693c-2.342 0-4.24-1.898-4.24-4.24 0-2.343 1.898-4.241 4.24-4.241 2.338 0 4.235 1.893 4.241 4.23.005 2.339-1.883 4.24-4.221 4.251h-.02zm9.174 2.294L12.079 9.48c.51-.939.773-1.99.765-3.058C12.844 2.876 9.969 0 6.422 0 2.876 0 0 2.876 0 6.422s2.876 6.422 6.422 6.422c1.161.001 2.3-.316 3.293-.917l3.455 3.455c.544.563 1.44.58 2.004.036l.035-.036.409-.408c.525-.564.507-1.445-.042-1.987z" transform="translate(-252 -24) translate(16) translate(221) translate(15 24)"/>
                            </g>
                        </g>
                    </g>
                </g>
            </g>
        </g>
    </g>
</svg>
