<svg width="21" height="21" viewBox="0 0 21 21" fill="none" xmlns="http://www.w3.org/2000/svg">
<g clip-path="url(#clip0_19_16)">
<path d="M0.755031 1.12579C0.657562 1.12453 0.560998 1.14462 0.472122 1.18466C0.383246 1.22469 0.304213 1.2837 0.240573 1.35753C0.176932 1.43137 0.130228 1.51824 0.10374 1.61205C0.0772525 1.70586 0.0716231 1.80433 0.0872476 1.90054L2.92211 19.1097C2.95742 19.3203 3.06581 19.5117 3.22824 19.6503C3.39067 19.7889 3.59676 19.8659 3.81029 19.8677H17.4102C17.5703 19.8697 17.7257 19.8142 17.8483 19.7112C17.9708 19.6083 18.0523 19.4647 18.0779 19.3067L20.9128 1.90388C20.9284 1.80767 20.9228 1.70921 20.8963 1.61542C20.8698 1.52162 20.8231 1.43477 20.7594 1.36095C20.6958 1.28713 20.6167 1.22814 20.5279 1.18812C20.439 1.1481 20.3424 1.12802 20.245 1.12929L0.755031 1.12579ZM12.6921 13.5635H8.35133L7.17599 7.42315H13.7439L12.6921 13.5635Z" fill="white"/>
</g>
<defs>
<clipPath id="clip0_19_16">
<rect width="21" height="19" fill="white" transform="translate(0 1)"/>
</clipPath>
</defs>
</svg>
