<svg xmlns="http://www.w3.org/2000/svg" width="21" height="19" fill="none" viewBox="0 0 21 19"><path fill="#596684" d="M0.755031 0.125788C0.657562 0.124528 0.560998 0.144621 0.472122 0.184657C0.383246 0.224692 0.304213 0.2837 0.240573 0.357534C0.176932 0.431369 0.130228 0.518241 0.10374 0.612049C0.0772525 0.705857 0.0716231 0.804327 0.0872476 0.900543L2.92211 18.1097C2.95742 18.3203 3.06581 18.5117 3.22824 18.6503C3.39067 18.7889 3.59676 18.8659 3.81029 18.8677H17.4102C17.5703 18.8697 17.7257 18.8142 17.8483 18.7112C17.9708 18.6083 18.0523 18.4647 18.0779 18.3067L20.9128 0.903881C20.9284 0.80767 20.9228 0.709211 20.8963 0.615418C20.8698 0.521624 20.8231 0.434769 20.7594 0.360952C20.6958 0.287134 20.6167 0.228144 20.5279 0.188123C20.439 0.148102 20.3424 0.128021 20.245 0.129289L0.755031 0.125788ZM12.6921 12.5635H8.35133L7.17599 6.42315H13.7439L12.6921 12.5635Z"/></svg>