<svg xmlns="http://www.w3.org/2000/svg" width="16" height="16" viewBox="0 0 16 16"><g fill="none" fill-rule="evenodd"><g fill="#FFF"><g><g><g><g><g><path d="M6.004 15.59v-1.395c-2.217.493-2.689-1.1-2.689-1.1-.138-.49-.444-.914-.864-1.2-.722-.506.056-.498.056-.498.517.076.968.388 1.223.845.427.823 1.439 1.144 2.261.717l.06-.033c.037-.414.216-.802.506-1.1-1.772-.203-3.635-.91-3.635-4.049-.014-.81.28-1.597.821-2.2-.24-.707-.21-1.478.082-2.165 0 0 .67-.22 2.192.84 1.306-.37 2.69-.37 3.997 0 1.521-1.06 2.191-.84 2.191-.84.295.687.322 1.46.078 2.165.542.603.835 1.39.821 2.2 0 3.148-1.867 3.841-3.643 4.045.386.407.583.96.54 1.52v2.247c0 .269.143.472.55.394 3.291-1.164 5.482-4.296 5.448-7.794C16.052 3.719 12.48.053 8.02 0h-.04C3.517.057-.055 3.727 0 8.197c-.033 3.501 2.161 6.635 5.458 7.795.398.056.545-.195.545-.403" transform="translate(-570 -1181) translate(0 1106) translate(32 40) translate(55) translate(483) translate(0 35)"/></g></g></g></g></g></g></g></svg>