<svg width="21" height="21" viewBox="0 0 21 21" fill="none" xmlns="http://www.w3.org/2000/svg">
<g clip-path="url(#clip0_18_13)">
<path fill-rule="evenodd" clip-rule="evenodd" d="M10.5061 19.3655L14.3701 7.47339H6.64209L10.5061 19.3655Z" fill="white"/>
<path fill-rule="evenodd" clip-rule="evenodd" d="M10.5061 19.3655L6.64211 7.47339H1.22681L10.5061 19.3655Z" fill="white"/>
<path fill-rule="evenodd" clip-rule="evenodd" d="M1.22684 7.47339L0.0526413 11.0873C-0.0544587 11.4169 0.0628413 11.778 0.343241 11.9817L10.5061 19.3655L1.22684 7.47339Z" fill="white"/>
<path fill-rule="evenodd" clip-rule="evenodd" d="M1.22681 7.47346H6.64211L4.31481 0.310958C4.19511 -0.0576415 3.67371 -0.0575415 3.55401 0.310958L1.22681 7.47346Z" fill="white"/>
<path fill-rule="evenodd" clip-rule="evenodd" d="M10.5061 19.3655L14.3701 7.47339H19.7854L10.5061 19.3655Z" fill="white"/>
<path fill-rule="evenodd" clip-rule="evenodd" d="M19.7854 7.47339L20.9596 11.0873C21.0667 11.4169 20.9494 11.778 20.669 11.9817L10.5061 19.3655L19.7854 7.47339Z" fill="white"/>
<path fill-rule="evenodd" clip-rule="evenodd" d="M19.7854 7.47346H14.3701L16.6974 0.310958C16.8171 -0.0576415 17.3385 -0.0575415 17.4582 0.310958L19.7854 7.47346Z" fill="white"/>
</g>
<defs>
<clipPath id="clip0_18_13">
<rect width="21" height="20" fill="white"/>
</clipPath>
</defs>
</svg>
