<svg xmlns="http://www.w3.org/2000/svg" width="33" height="32" viewBox="0 0 33 32">
    <g fill="none" fill-rule="evenodd">
        <g fill="#B3B6BE">
            <g>
                <g>
                    <g>
                        <g>
                            <g>
                                <g>
                                    <path d="M26.41 14.121l-1.722-.313c-.939-.234-1.487-1.565-.939-2.348l.94-1.409c.156-.235.156-.626-.079-.783l-1.8-1.8c-.235-.235-.548-.313-.861-.078l-1.33.94c-.862.469-2.193-.08-2.35-1.018l-.312-1.644c-.078-.313-.392-.548-.626-.548h-2.583c-.313 0-.548.235-.627.548l-.313 1.644c-.234.939-1.565 1.487-2.348 1.017l-1.409-.94c-.235-.234-.626-.156-.783.08l-1.8 1.8c-.235.156-.313.547-.078.782l.94 1.41c.469.782-.08 2.113-1.018 2.347l-1.644.313c-.313.079-.548.314-.548.627v2.583c0 .234.235.548.548.626l1.644.313c.939.156 1.487 1.487 1.017 2.348l-.94 1.33c-.234.314-.156.627.08.862l1.8 1.8c.156.235.547.235.782.078l1.41-.939c.782-.548 2.113 0 2.347.94l.313 1.721c.079.313.314.47.627.47h2.583c.234 0 .548-.157.626-.47l.313-1.722c.156-.939 1.487-1.487 2.348-.939l1.33.94c.314.156.627.156.862-.079l1.8-1.8c.235-.235.235-.548.078-.861l-.939-1.33c-.548-.862 0-2.193.94-2.35l1.721-.312c.313-.078.47-.392.47-.626v-2.583c0-.313-.157-.548-.47-.627zM16 11.147c2.74 0 4.931 2.192 4.931 4.853 0 2.74-2.191 4.931-4.931 4.931-2.661 0-4.853-2.191-4.853-4.931 0-2.661 2.192-4.853 4.853-4.853z" transform="translate(-29 -556) translate(0 62) translate(.687) translate(0 480) translate(29 14)"/>
                                </g>
                            </g>
                        </g>
                    </g>
                </g>
            </g>
        </g>
    </g>
</svg>
