<svg xmlns="http://www.w3.org/2000/svg" width="33" height="32" viewBox="0 0 33 32"><path fill="#B3B6BE" fill-rule="evenodd" d="M16.745 5.811h-.064c-3.39 0-6.587 1.306-8.992 3.686A12.672 12.672 0 0 0 3.9 18.502c-.006.926.09 1.878.264 2.663l25.008.116c.18-.785.283-1.73.29-2.657.038-7.03-5.674-12.78-12.717-12.813zm-.572 1.171c0-.283.231-.514.514-.514.283 0 .515.231.515.514V9.17a.516.516 0 0 1-.515.515.516.516 0 0 1-.514-.515V6.982zM7.618 18.946H5.495a.516.516 0 0 1-.514-.515c0-.283.231-.514.514-.514h2.123c.283 0 .515.231.515.514a.516.516 0 0 1-.515.515zm1.672-4.863a.512.512 0 0 1-.7.187l-1.885-1.087a.514.514 0 0 1 .514-.888l1.885 1.087c.244.135.328.45.186.701zm3.114-3.184a.534.534 0 0 1-.258.071.498.498 0 0 1-.444-.257l-1.087-1.885a.514.514 0 0 1 .888-.514l1.087 1.884a.514.514 0 0 1-.186.701zm8.972 2.625-3.087 3.151c.257.341.412.76.412 1.216a2.01 2.01 0 0 1-2.007 2.007 2.01 2.01 0 0 1-2.007-2.007 2.01 2.01 0 0 1 2.785-1.852l3.171-3.242a.51.51 0 0 1 .727-.007c.2.2.206.528.006.734zm1.454-4.825-1.087 1.885a.512.512 0 1 1-.888-.514l1.087-1.885a.514.514 0 0 1 .888.514zm5.821 9.54a.516.516 0 0 1-.514.514H25.95a.516.516 0 0 1-.515-.515c0-.283.232-.514.515-.514h2.187c.283 0 .514.231.514.514zm-1.646-5.931a.514.514 0 0 1-.187.701l-1.885 1.087a.534.534 0 0 1-.257.07.498.498 0 0 1-.444-.256.514.514 0 0 1 .187-.702l1.884-1.087a.503.503 0 0 1 .702.187z"/></svg>