<svg width="20" height="25" viewBox="0 0 20 25" fill="none" xmlns="http://www.w3.org/2000/svg">
<path d="M5.42857 5C3.53571 5 2 6.51172 2 8.375V19.625C2 21.4883 3.53571 23 5.42857 23H15.7143H16.8571C17.4893 23 18 22.4973 18 21.875C18 21.2527 17.4893 20.75 16.8571 20.75V18.5C17.4893 18.5 18 17.9973 18 17.375V6.125C18 5.50273 17.4893 5 16.8571 5H15.7143H5.42857ZM5.42857 18.5H14.5714V20.75H5.42857C4.79643 20.75 4.28571 20.2473 4.28571 19.625C4.28571 19.0027 4.79643 18.5 5.42857 18.5ZM6.57143 10.0625C6.57143 9.75312 6.82857 9.5 7.14286 9.5H14C14.3143 9.5 14.5714 9.75312 14.5714 10.0625C14.5714 10.3719 14.3143 10.625 14 10.625H7.14286C6.82857 10.625 6.57143 10.3719 6.57143 10.0625ZM7.14286 11.75H14C14.3143 11.75 14.5714 12.0031 14.5714 12.3125C14.5714 12.6219 14.3143 12.875 14 12.875H7.14286C6.82857 12.875 6.57143 12.6219 6.57143 12.3125C6.57143 12.0031 6.82857 11.75 7.14286 11.75Z" fill="#B3B6BE"/>
</svg>
