<svg xmlns="http://www.w3.org/2000/svg" width="33" height="32" viewBox="0 0 33 32"><g fill="none" fill-rule="evenodd"><g fill="#B3B6BE"><g><g><g><g><g><g><path d="M15.337 21.869v6.055l-2.563-1.165v-3.724l2.563-1.166zm.257 0l4.272 1.382v3.292l-4.272 1.381V21.87zm9.317 0v6.055l-2.563-1.165v-3.724l2.563-1.166zm.257 0l4.272 1.382v3.292l-4.272 1.381V21.87zm-19.405 0v6.055L3.2 26.76v-3.724l2.563-1.166zm.257 0l4.272 1.382v3.292L6.02 27.924V21.87zm19.858-1.285h-1.12v-2.802h-8.41v2.802h-1.12v-2.802H6.82v2.802H5.7v-3.57c0-.195.158-.353.354-.353h9.175v-3.924h1.12v3.924h9.176c.196 0 .354.158.354.353v3.57zM19.07 7.762c0 1.813-1.47 3.282-3.281 3.282-1.813 0-3.283-1.47-3.283-3.282s1.47-3.282 3.283-3.282c1.812 0 3.281 1.47 3.281 3.282z" transform="translate(-29 -396) translate(0 62) translate(.687) translate(0 320) translate(29 14)"/></g></g></g></g></g></g></g></g></svg>