<svg xmlns="http://www.w3.org/2000/svg" width="33" height="32" viewBox="0 0 33 32">
    <g fill="none" fill-rule="evenodd">
        <g fill="#B3B6BE">
            <g>
                <g>
                    <g>
                        <g>
                            <g>
                                <g>
                                    <g>
                                        <path d="M12.063 16.296c.207-.017.438.044.54.243.178.284-.04.697-.375.712-.904.004-1.809.002-2.713.002l.312.313c.16.134.28.341.211.555-.076.326-.522.463-.769.236-.402-.397-.8-.799-1.2-1.198-.2-.157-.251-.471-.09-.673.33-.344.672-.674 1.006-1.012.176-.16.325-.4.592-.395.353-.013.6.404.42.708-.137.19-.322.339-.482.51h2.548zM5.018 8.927c.16.176.4.325.395.592.012.353-.405.6-.709.42-.189-.137-.338-.322-.509-.482v2.548c.018.207-.043.438-.242.54-.284.178-.697-.04-.712-.375-.004-.904 0-1.808-.002-2.713l-.312.312c-.135.16-.342.28-.556.211-.326-.076-.463-.522-.236-.769.397-.402.8-.8 1.198-1.2.157-.2.472-.251.673-.09.344.33.674.673 1.012 1.006zm10.822 2.58c-.16-.176-.4-.325-.395-.591-.012-.354.405-.601.709-.42.189.137.338.322.508.481V8.43c-.017-.207.044-.438.243-.54.285-.177.697.04.712.375.004.904 0 1.809.002 2.713l.312-.312c.135-.16.342-.28.556-.21.326.075.463.522.236.768-.397.403-.8.8-1.198 1.2-.157.2-.472.251-.673.09-.344-.329-.674-.672-1.012-1.006zM8.487 4.445c-.207.018-.438-.044-.54-.242-.178-.285.04-.698.375-.712.904-.004 1.809 0 2.713-.002l-.312-.312c-.16-.135-.28-.342-.211-.556.076-.326.523-.463.77-.236.402.397.8.799 1.2 1.198.2.157.25.471.088.673-.328.344-.671.674-1.005 1.012-.176.16-.325.4-.592.395-.353.012-.6-.405-.42-.709.137-.189.323-.338.482-.509H8.487zM1.89 2.768h3.564v-.71H1.89v.71zm0 1.42h3.564v-.71H1.89v.71zm0 1.426h2.136v-.71H1.89v.71zM5.804.632c.59 0 1.068.478 1.068 1.068v4.273c0 .59-.478 1.069-1.068 1.069H1.531c-.59 0-1.068-.48-1.068-1.069V1.7C.463 1.11.942.632 1.53.632h4.273zm9.23 2.136h3.564v-.71h-3.563v.71zm0 1.42h3.564v-.71h-3.563v.71zm0 1.426h2.137v-.71h-2.136v.71zM18.95.632c.59 0 1.068.478 1.068 1.068v4.273c0 .59-.479 1.069-1.068 1.069h-4.273c-.59 0-1.069-.48-1.069-1.069V1.7c0-.59.48-1.068 1.069-1.068h4.273zM1.89 15.575h3.564v-.71H1.89v.71zm0 1.419h3.564v-.71H1.89v.71zm0 1.427h2.136v-.71H1.89v.71zm3.914-4.983c.59 0 1.068.48 1.068 1.069v4.273c0 .59-.478 1.068-1.068 1.068H1.531c-.59 0-1.068-.478-1.068-1.068v-4.273c0-.59.479-1.069 1.068-1.069h4.273zm9.23 2.137h3.564v-.71h-3.563v.71zm0 1.419h3.564v-.71h-3.563v.71zm0 1.427h2.137v-.71h-2.136v.71zm3.915-4.983c.59 0 1.068.48 1.068 1.069v4.273c0 .59-.479 1.068-1.068 1.068h-4.273c-.59 0-1.069-.478-1.069-1.068v-4.273c0-.59.48-1.069 1.069-1.069h4.273z" transform="translate(-29 -316) translate(0 62) translate(.687) translate(0 240) translate(29 14) translate(5.76 5.76)"/>
                                    </g>
                                </g>
                            </g>
                        </g>
                    </g>
                </g>
            </g>
        </g>
    </g>
</svg>
