<svg xmlns="http://www.w3.org/2000/svg" width="33" height="32" viewBox="0 0 33 32">
    <g fill="none" fill-rule="evenodd">
        <g fill="#B3B6BE">
            <g>
                <g>
                    <g>
                        <g>
                            <g>
                                <g>
                                    <g>
                                        <path d="M23.984 8.276L25.9 6.362l-.575-.576-1.34 1.34-.526-.526-.575.575 1.101 1.101zM9.346 4.796h7.488V3.304H9.346v1.49zm0 2.98h7.488v-1.49H9.346v1.49zm0 2.999h4.49v-1.49h-4.49v1.49zm15.12-6.83c1.687 0 3.054 1.368 3.054 3.055s-1.367 3.054-3.054 3.054c-1.44 0-2.645-.998-2.967-2.34h-1.685v3.815c0 1.239-1.005 2.244-2.244 2.244H8.592c-1.239 0-2.244-1.005-2.244-2.244v-1.77c.048-.037.097-.072.14-.116l1.677-1.677c.247-.246.394-.59.394-.922 0-.38-.147-.714-.414-.943L6.49 4.445c-.044-.043-.093-.08-.141-.116V2.551c0-1.239 1.005-2.245 2.244-2.245h8.978c1.24 0 2.244 1.006 2.244 2.245v3.761h1.678c.312-1.355 1.524-2.367 2.974-2.367zM7.893 7.044c0 .183-.091.365-.213.487L6.004 9.208c-.275.274-.701.274-.976 0-.274-.274-.274-.701 0-.976l.518-.517H1.34c-.396 0-.7-.336-.7-.702 0-.396.335-.7.7-.7h4.206l-.518-.52c-.244-.273-.244-.7 0-.913.122-.153.305-.213.488-.213s.366.09.488.213L7.68 6.556c.152.122.213.305.213.488z" transform="translate(-29 -236) translate(0 62) translate(.687) translate(0 160) translate(29 14) translate(1.92 8.96)"/>
                                    </g>
                                </g>
                            </g>
                        </g>
                    </g>
                </g>
            </g>
        </g>
    </g>
</svg>
