<svg xmlns="http://www.w3.org/2000/svg" width="33" height="32" viewBox="0 0 33 32">
    <g fill="none" fill-rule="evenodd">
        <g fill="#B3B6BE">
            <g>
                <g>
                    <g>
                        <g>
                            <g>
                                <g>
                                    <g>
                                        <path d="M16.723 15.79l.015-1.174-5.9-.074-.015 1.175 5.9.073zm-.03 2.349l.016-1.175-5.9-.073-.015 1.175 5.9.073zm-2.391 2.333l.015-1.174-3.537-.044-.015 1.174 3.537.044zM2.979 18.995l1.962-1.962-.59-.59-1.372 1.373-.539-.539-.59.59 1.13 1.128zM10.9 3.706h5.9V2.532h-5.9v1.174zm0 2.349h5.9V4.88h-5.9v1.175zm0 2.363h3.538V7.243h-3.538v1.175zm8.25-3.82c3.735.48 6.34 3.276 6.34 7.002 0 3.763-2.657 6.576-6.452 7.014l-.031 2.51c-.012.977-.815 1.76-1.79 1.747l-7.075-.087c-.976-.013-1.758-.815-1.746-1.79l.032-2.582h-1.91c-.317 1.328-1.48 2.342-2.912 2.403-1.727.073-3.187-1.268-3.26-2.996-.073-1.727 1.268-3.187 2.996-3.26 1.449-.061 2.706.874 3.118 2.196h1.988l.036-2.836c.012-.976.814-1.759 1.79-1.747l7.074.088c.976.012 1.759.814 1.747 1.79l-.04 3.12c2.807-.32 4.973-2.718 4.973-5.57 0-2.823-2.121-5.2-4.878-5.56v2.972c0 .976-.793 1.768-1.769 1.768h-7.074c-.977 0-1.769-.792-1.769-1.768V6.79l.742-.743c.144-.144.252-.36.252-.576 0-.216-.072-.432-.252-.576l-.742-.743V1.937c0-.976.792-1.769 1.769-1.769h7.074c.976 0 1.769.793 1.769 1.77v2.66zM.939 6.25c-.468 0-.828-.396-.828-.828 0-.469.396-.829.828-.829h4.972l-.613-.612c-.288-.325-.288-.829 0-1.081.145-.18.36-.252.577-.252.216 0 .432.108.576.252L8.433 4.88c.18.145.252.36.252.577 0 .216-.109.432-.252.576L6.45 8.016c-.324.324-.828.324-1.153 0-.324-.324-.324-.829 0-1.153l.613-.613H.939z" transform="translate(-29 -156) translate(0 62) translate(.687) translate(0 80) translate(29 14) translate(3.2 4.48)"/>
                                    </g>
                                </g>
                            </g>
                        </g>
                    </g>
                </g>
            </g>
        </g>
    </g>
</svg>
