<svg xmlns="http://www.w3.org/2000/svg" width="16" height="16" viewBox="0 0 16 16">
    <g fill="none" fill-rule="evenodd">
        <g fill="#FFF">
            <g>
                <g>
                    <g>
                        <g>
                            <g>
                                <path d="M2.748 0C2.556 0 2.4.156 2.4.348v9.391c0 .192.156.348.348.348h1.391c.192 0 .348-.156.348-.348V.348C4.487.156 4.331 0 4.139 0H2.748zm3.13 2.435c-.192 0-.348.156-.348.348v12.87c0 .191.156.347.348.347H7.27c.192 0 .347-.156.347-.348V2.782c0-.191-.155-.347-.347-.347H5.878zm3.13 0c-.191 0-.347.156-.347.348v12.87c0 .191.156.347.348.347H10.4c.192 0 .348-.156.348-.348V2.782c0-.191-.156-.347-.348-.347H9.009zm3.131 0c-.192 0-.348.156-.348.348v6.956c0 .192.156.348.348.348h1.391c.193 0 .348-.156.348-.348V2.783c0-.192-.155-.348-.348-.348h-1.39z" transform="translate(-570 -1207) translate(0 1106) translate(32 40) translate(55) translate(483) translate(0 61)"/>
                            </g>
                        </g>
                    </g>
                </g>
            </g>
        </g>
    </g>
</svg>
