<svg xmlns="http://www.w3.org/2000/svg" width="14" height="14" viewBox="0 0 14 14">
    <g fill="none" fill-rule="evenodd">
        <g fill="#FFF">
            <g>
                <g>
                    <g>
                        <g>
                            <g>
                                <path d="M1.961 14C.878 14 0 13.122 0 12.039c0-1.084.878-1.962 1.961-1.962 1.084 0 1.962.878 1.962 1.962C3.923 13.122 3.045 14 1.96 14zM0 0c7.729 0 14 6.271 14 14h-2.546C11.454 7.675 6.325 2.546 0 2.546V0zm0 5.093c4.922 0 8.907 3.985 8.907 8.907H6.361c0-3.509-2.852-6.361-6.361-6.361V5.093z" transform="translate(-571 -1260) translate(0 1106) translate(32 40) translate(55) translate(483) translate(1 114)"/>
                            </g>
                        </g>
                    </g>
                </g>
            </g>
        </g>
    </g>
</svg>
