<svg xmlns="http://www.w3.org/2000/svg" width="20" height="20" viewBox="0 0 20 20">
    <g fill="none" fill-rule="evenodd">
        <g fill="#D8D8D8">
            <g>
                <g>
                    <g>
                        <g>
                            <g>
                                <g>
                                    <g>
                                        <g>
                                            <path fill="#21335B" d="M16.367 5.833c.869.013 1.697.373 2.301.998.604.626.933 1.466.915 2.336.038 1.802-1.393 3.294-3.195 3.333h-.496l-5-5H7.5C6.12 7.5 5 8.62 5 10v2.5H3.612C1.81 12.461.38 10.97.417 9.167.393 7.603 1.47 6.237 2.996 5.896 2.154 3 4.233 0 7.204 0c1.817.018 3.435 1.152 4.071 2.854 2.175-1.083 4.82.404 5.092 2.98zm-5.838 2.5l5.892 5.875c.156.157.244.369.244.59 0 .221-.088.433-.244.59l-3.534 3.533c-.156.156-.368.244-.59.244-.22 0-.432-.088-.589-.244l-5.875-5.88V10c0-.92.747-1.667 1.667-1.667h3.03zm-2.383 2.33v-.017c.19-.26.162-.619-.068-.844-.23-.225-.59-.247-.845-.052-.233.255-.225.649.02.893.244.245.638.253.893.02zm2.083 4.274l.004-.016c.238 0 .125.05 2.059-1.875.141-.165.132-.412-.022-.566-.154-.154-.4-.163-.566-.022l-1.767 1.767c-.12.119-.156.298-.092.454.064.156.216.258.384.258zm3.242-.712l.004-.017c.158-.169.148-.434-.02-.591-.17-.158-.435-.149-.592.02l-1.767 1.767c-.12.119-.156.298-.092.454.063.156.215.258.383.259.255 0 .146.05 2.084-1.892z" transform="translate(-1103 -220) translate(0 64) translate(45 57) translate(285 73) translate(25 18) translate(737) translate(11 8)"/>
                                        </g>
                                    </g>
                                </g>
                            </g>
                        </g>
                    </g>
                </g>
            </g>
        </g>
    </g>
</svg>
