<svg xmlns="http://www.w3.org/2000/svg" width="16" height="16" viewBox="0 0 16 16">
    <g fill="none" fill-rule="evenodd">
        <g fill="#FFF">
            <g>
                <g>
                    <g>
                        <g>
                            <g>
                                <path d="M16 3.305c-.589.261-1.221.437-1.885.516.678-.406 1.198-1.049 1.443-1.816-.634.376-1.337.65-2.085.797-.598-.638-1.452-1.037-2.396-1.037-2.119 0-3.676 1.978-3.198 4.03-2.727-.136-5.146-1.443-6.765-3.429-.86 1.475-.446 3.405 1.015 4.383-.537-.018-1.044-.165-1.486-.411-.036 1.52 1.054 2.943 2.633 3.26-.462.125-.968.155-1.483.056.418 1.304 1.63 2.253 3.067 2.28-1.38 1.081-3.119 1.565-4.86 1.36 1.453.93 3.179 1.474 5.032 1.474 6.095 0 9.538-5.147 9.33-9.764.641-.463 1.198-1.041 1.638-1.7z" transform="translate(-571 -1233) translate(0 1106) translate(32 40) translate(55) translate(483) translate(1 87)"/>
                            </g>
                        </g>
                    </g>
                </g>
            </g>
        </g>
    </g>
</svg>
