<svg xmlns="http://www.w3.org/2000/svg" width="20" height="20" viewBox="0 0 20 20">
    <g fill="none" fill-rule="evenodd">
        <g fill="#00BFA5">
            <g>
                <path d="M13.065 12.336l.012-.917-4.61-.058-.011.918 4.609.057zm-.023 1.835l.012-.918-4.61-.057-.011.918 4.61.057zm-1.869 1.823l.012-.918-2.763-.034-.012.917 2.763.035zM2.327 14.84l1.533-1.533-.46-.46-1.073 1.072-.42-.421-.461.46.881.882zM8.515 2.895h4.61v-.917h-4.61v.917zm0 1.835h4.61v-.917h-4.61v.917zm0 1.846h2.764V5.66H8.515v.917zm6.445-2.983c2.918.374 4.954 2.559 4.954 5.47 0 2.939-2.076 5.137-5.041 5.48l-.025 1.96c-.009.763-.636 1.375-1.398 1.365L7.923 17.8c-.763-.01-1.374-.636-1.365-1.4l.025-2.016H5.091c-.247 1.038-1.156 1.83-2.275 1.877-1.35.057-2.49-.99-2.546-2.34-.058-1.35.99-2.49 2.34-2.547 1.132-.048 2.114.683 2.436 1.716H6.6l.027-2.216c.01-.763.636-1.374 1.399-1.364l5.526.068c.763.01 1.375.636 1.365 1.399l-.03 2.438c2.192-.25 3.884-2.124 3.884-4.352 0-2.206-1.657-4.063-3.811-4.344v2.322c0 .762-.62 1.381-1.382 1.381H8.051c-.763 0-1.381-.619-1.381-1.381V5.305l.58-.58c.112-.112.196-.281.196-.45 0-.169-.056-.338-.197-.45l-.58-.58V1.514C6.67.75 7.29.132 8.052.132h5.527c.763 0 1.382.619 1.382 1.382v2.079zM.734 4.883c-.366 0-.647-.31-.647-.647 0-.366.31-.648.647-.648h3.884l-.479-.478c-.225-.253-.225-.647 0-.844.113-.141.282-.197.45-.197.17 0 .338.084.451.197l1.548 1.548c.14.112.197.281.197.45 0 .169-.085.338-.197.45L5.04 6.262c-.253.254-.647.254-.9 0-.254-.253-.254-.647 0-.9l.478-.479H.734z" transform="translate(0 1)"/>
            </g>
        </g>
    </g>
</svg>
