<svg xmlns="http://www.w3.org/2000/svg" width="756" height="756" fill="none" viewBox="0 0 756 756"><g clip-path="url(#clip0_3_2)"><path fill="#fff" fill-rule="evenodd" d="M674.243 126.923C706.818 135.684 732.466 161.5 741.172 194.281L741.169 194.284C756.989 253.7 756.989 377.672 756.989 377.672C756.989 377.672 756.989 501.636 741.169 561.059C732.463 593.84 706.814 619.653 674.24 628.42C615.211 644.337 378.491 644.337 378.491 644.337C378.491 644.337 141.774 644.337 82.7421 628.42C50.1711 619.649 24.5162 593.84 15.8162 561.056C0 501.633 0 377.668 0 377.668C0 377.668 0 253.697 15.8162 194.281C24.5162 161.5 50.1711 135.684 82.7453 126.923C141.778 111 378.494 111 378.494 111C378.494 111 615.214 111 674.243 126.923ZM300.996 490.277V265.167L498.996 377.667L300.996 490.277Z" clip-rule="evenodd"/></g><defs><clipPath id="clip0_3_2"><rect width="756" height="756" fill="#fff"/></clipPath></defs></svg>