<svg xmlns="http://www.w3.org/2000/svg" xmlns:xlink="http://www.w3.org/1999/xlink" width="112" height="28" viewBox="0 0 112 28">
    <defs>
        <path id="z46dn48uca" d="M0 35.636L111.486 35.636 111.486 0.598 0 0.598z"/>
        <path id="9nynvmfjrc" d="M0.619 0.013L25.851 0.013 25.851 27.34 0.619 27.34z"/>
    </defs>
    <g fill="none" fill-rule="evenodd">
        <g>
            <g>
                <g>
                    <g>
                        <g>
                            <path fill="#000" d="M34.529 31.77L31.978 31.77 31.978 31.388 32.67 31.388 32.67 26.14 31.978 26.14 31.978 25.759 34.529 25.759 34.529 26.14 33.846 26.14 33.846 31.388 34.529 31.388zM44.468 31.87L43.831 31.87 40.66 27.406 40.66 31.388 41.38 31.388 41.38 31.77 39.322 31.77 39.322 31.388 40.077 31.388 40.077 26.606 39.786 26.14 39.13 26.14 39.13 25.759 40.943 25.759 43.895 29.958 43.895 26.14 43.175 26.14 43.175 25.759 45.234 25.759 45.234 26.14 44.468 26.14z" transform="translate(-610 -2320) translate(0 93) translate(47 1925) translate(0 285) translate(563 13)"/>
                            <g transform="translate(-610 -2320) translate(0 93) translate(47 1925) translate(0 285) translate(563 13) translate(0 .039)">
                                <path fill="#000" d="M50.718 31.814h-.5v-1.64h.5v.674c.41.328.72.447 1.167.447.564 0 .975-.338.975-.811 0-.41-.265-.701-1.113-1.249-.893-.564-1.002-.656-1.237-.93-.229-.264-.347-.628-.347-1.028 0-1.001.738-1.667 1.85-1.667.354 0 .637.054.983.2v-.273h.492v1.558h-.492v-.629c-.383-.246-.629-.338-.966-.338-.474 0-.838.338-.838.767 0 .363.21.592 1.085 1.146.418.273.683.439.783.512.21.145.401.346.555.593.174.28.255.582.255.937 0 1.04-.756 1.767-1.822 1.767-.528 0-.91-.11-1.33-.355v.319M62.626 31.731L59.693 31.731 59.693 31.349 60.576 31.349 60.576 26.257 59 26.257 59 27.013 58.499 27.013 58.499 25.464 59 25.464 59 25.72 63.318 25.72 63.318 25.464 63.819 25.464 63.819 27.013 63.318 27.013 63.318 26.257 61.751 26.257 61.751 31.349 62.626 31.349zM70.302 31.731L67.751 31.731 67.751 31.349 68.444 31.349 68.444 26.101 67.751 26.101 67.751 25.72 70.302 25.72 70.302 26.101 69.618 26.101 69.618 31.349 70.302 31.349zM78.188 31.731L75.255 31.731 75.255 31.349 76.138 31.349 76.138 26.257 74.563 26.257 74.563 27.013 74.06 27.013 74.06 25.464 74.563 25.464 74.563 25.72 78.88 25.72 78.88 25.464 79.382 25.464 79.382 27.013 78.88 27.013 78.88 26.257 77.313 26.257 77.313 31.349 78.188 31.349zM90.132 26.101h-.765v3.426c0 1.03-.356 1.677-1.13 2.04-.4.182-.847.283-1.322.283-1.475 0-2.432-.812-2.432-2.068v-3.68h-.692v-.382h2.55v.381h-.683V29.5c0 .92.165 1.339.63 1.585.217.108.482.173.755.173 1.093 0 1.73-.647 1.73-1.758v-3.39h-.755v-.39h2.114v.381M98.522 31.731L95.589 31.731 95.589 31.349 96.472 31.349 96.472 26.257 94.896 26.257 94.896 27.013 94.396 27.013 94.396 25.464 94.896 25.464 94.896 25.72 99.215 25.72 99.215 25.464 99.716 25.464 99.716 27.013 99.215 27.013 99.215 26.257 97.647 26.257 97.647 31.349 98.522 31.349zM108.462 31.731L104.126 31.731 104.126 31.349 104.818 31.349 104.818 26.101 104.126 26.101 104.126 25.72 107.878 25.72 107.878 25.464 108.37 25.464 108.37 26.913 107.888 26.913 107.888 26.257 105.993 26.257 105.993 28.406 107.451 28.406 107.451 27.787 107.943 27.778 107.943 29.572 107.451 29.582 107.451 28.944 105.993 28.944 105.993 31.193 107.97 31.193 107.97 30.52 108.462 30.52zM35.064 20.056h2.832c2.125 0 3.415-1.264 3.415-3.338 0-2.1-1.442-3.617-3.415-3.617h-2.832v6.955zm0-8.094h2.579c1.644 0 2.809-1.34 2.809-3.212 0-1.77-1.089-3.086-2.58-3.086h-2.808v6.298zm-4.123 9.232v-.936h1.897V5.436H30.94V4.5h7.689c2.302 0 4.173 1.847 4.173 4.15 0 1.896-1.669 3.565-3.718 3.743 1.037.126 1.416.227 2.049.53 1.568.734 2.479 2.201 2.479 3.921 0 2.48-1.922 4.35-4.502 4.35h-8.17zM50.316 12.544h2.427c1.922 0 3.263-1.416 3.263-3.49 0-2.176-1.188-3.39-3.313-3.39h-2.377v6.88zm10.496 8.65h-2.15c-1.492 0-1.77-.151-2.606-1.492l-3.768-5.994h-1.972v6.55h1.896v.936h-6.02v-.936h1.897V5.437h-1.896V4.5h7.031c2.453 0 3.844.683 4.605 2.251.327.684.504 1.443.504 2.252 0 2.454-1.366 4.022-3.794 4.376l3.643 5.615c.607.936 1.01 1.24 1.645 1.24h.985v.96zM63.999 12.848c0 4.274 2.377 7.36 5.665 7.36 3.238 0 5.59-3.111 5.59-7.36 0-4.25-2.352-7.335-5.564-7.335-3.314 0-5.691 3.034-5.691 7.335m-2.505.025c0-4.756 3.693-8.676 8.17-8.676 4.401 0 8.095 3.946 8.095 8.65 0 4.705-3.694 8.676-8.095 8.676-4.452 0-8.17-3.945-8.17-8.65M88.217 14.492L85.51 7.385l-2.858 7.107h5.564zm5.944 6.702h-5.767v-.936h2.023l-1.77-4.552-6.474-.026-1.848 4.553h2.098v.96h-4.829v-.96h1.315l6.576-16.264h.91l6.324 16.264h1.442v.96zM99.876 19.93h3.036c3.465 0 6.095-3.061 6.07-7.082 0-3.895-2.68-7.058-6.02-7.058h-3.086v14.14zm-4.123 1.264v-.936h1.897V5.437h-1.897V4.5h7.463c4.553 0 8.27 3.744 8.27 8.322 0 4.68-3.642 8.372-8.296 8.372h-7.437z"/>
                                <mask id="fl19av212b" fill="#fff">
                                    <use xlink:href="#z46dn48uca"/>
                                </mask>
                                <path fill="#00609F" d="M0.619 31.794L25.851 31.794 25.851 4.468 0.619 4.468z" mask="url(#fl19av212b)"/>
                            </g>
                            <g transform="translate(-610 -2320) translate(0 93) translate(47 1925) translate(0 285) translate(563 13) translate(0 4.493)">
                                <mask id="m52k66a3ud" fill="#fff">
                                    <use xlink:href="#9nynvmfjrc"/>
                                </mask>
                                <path fill="#FFF" d="M75.687 19.325c-1.29-.938-2.616-1.823-3.978-2.653 1.366-.84 2.697-1.733 3.99-2.68 1.284.84 2.532 1.725 3.74 2.655-1.209.942-2.465 1.83-3.752 2.678M41.79 29.374c-12.363 0-23.838-3.573-33.33-9.676 1.389-.888 2.823-1.714 4.292-2.49 8.578 5.064 18.484 7.957 29.038 7.957 10.567 0 20.483-2.9 29.066-7.976 1.47.776 2.903 1.607 4.291 2.494-9.496 6.114-20.977 9.691-33.357 9.691M4.162 16.66c1.207-.93 2.461-1.806 3.744-2.647 1.294.948 2.625 1.841 3.993 2.68-1.36.831-2.688 1.717-3.977 2.654-1.291-.85-2.547-1.744-3.76-2.687m-3.59-3.03c1.076-.977 2.185-1.918 3.336-2.816 1.137.993 2.31 1.943 3.517 2.846-1.2.892-2.367 1.832-3.499 2.813-1.156-.908-2.274-1.857-3.353-2.844M7.88 7.98c1.293.947 2.624 1.84 3.99 2.68-1.36.832-2.685 1.718-3.973 2.656-1.29-.85-2.545-1.746-3.757-2.689 1.205-.93 2.458-1.807 3.74-2.647M41.818-2.038c12.376 0 23.866 3.562 33.382 9.653-1.39.897-2.827 1.736-4.3 2.522-8.597-5.055-18.516-7.941-29.082-7.941-10.579 0-20.507 2.892-29.11 7.96-1.476-.785-2.91-1.629-4.303-2.526 9.523-6.102 21.02-9.668 33.413-9.668m24.325 15.714c1.622-.768 3.205-1.61 4.745-2.522 1.468.777 2.898 1.608 4.286 2.495-1.393.898-2.83 1.736-4.305 2.52-1.535-.9-3.11-1.735-4.726-2.493m-47.213.683c7.032 3.084 14.755 4.79 22.86 4.79 8.111 0 15.84-1.707 22.877-4.798 1.788.702 3.533 1.484 5.229 2.34-8.36 4.254-17.931 6.666-28.107 6.666-10.162 0-19.726-2.412-28.08-6.661 1.693-.856 3.435-1.636 5.22-2.337m-1.468-.668c-1.614.76-3.189 1.595-4.722 2.498-1.476-.785-2.913-1.628-4.307-2.525 1.387-.888 2.82-1.715 4.287-2.492 1.54.91 3.12 1.754 4.742 2.52m45.426-.006C56.333 16.04 49.225 17.34 41.79 17.34c-7.423 0-14.524-1.29-21.07-3.639 6.558-2.342 13.665-3.636 21.099-3.636 7.42 0 14.52 1.284 21.07 3.621m-21.07-5.44c-8.115 0-15.847 1.703-22.893 4.782-1.797-.71-3.55-1.5-5.252-2.366 8.377-4.244 17.96-6.648 28.145-6.648 10.17 0 19.742 2.405 28.112 6.643-1.698.864-3.443 1.655-5.236 2.364-7.042-3.074-14.768-4.774-22.876-4.774m37.645 2.366c-1.21.94-2.464 1.83-3.75 2.679-1.289-.938-2.615-1.823-3.975-2.654 1.364-.84 2.696-1.733 3.987-2.681 1.283.84 2.53 1.725 3.738 2.656m3.575 2.992c-1.077.987-2.195 1.933-3.35 2.841-1.134-.982-2.303-1.922-3.506-2.814 1.204-.903 2.375-1.85 3.51-2.843 1.152.899 2.268 1.84 3.346 2.816m.788 6.775c-1.256-1.31-2.569-2.562-3.932-3.752 1.09-.961 2.146-1.963 3.167-3.003.256.233.513.465.765.702-.24-.25-.483-.495-.727-.74.097-.1.196-.196.291-.295-.1.094-.208.182-.31.275-1.02-1.03-2.077-2.022-3.165-2.974 1.2-1.059 2.361-2.164 3.475-3.318-1.176 1.096-2.41 2.137-3.68 3.137-1.134-.982-2.301-1.922-3.504-2.815 2.554-1.914 4.957-4.033 7.184-6.338-2.36 2.198-4.927 4.199-7.652 5.999-9.62-7.005-21.31-11.115-33.92-11.115-12.624 0-24.323 4.119-33.947 11.138C5.058 5.426 2.424 3.348 0 1.071 2.289 3.46 4.765 5.651 7.402 7.625c-1.2.893-2.365 1.832-3.497 2.814C2.551 9.376 1.247 8.259 0 7.087 1.182 8.321 2.416 9.5 3.693 10.625c-1.086.951-2.138 1.942-3.157 2.97-.178-.163-.36-.325-.536-.492.168.176.34.347.51.52-.17.172-.342.34-.51.515.176-.165.363-.32.542-.482 1.022 1.04 2.08 2.042 3.171 3.003C2.43 17.783 1.19 18.96 0 20.19c1.254-1.169 2.568-2.28 3.928-3.34 1.139.993 2.312 1.943 3.52 2.845-2.651 1.97-5.142 4.16-7.448 6.548 2.442-2.276 5.102-4.342 7.931-6.193 9.592 7.014 21.265 11.133 33.858 11.133 12.607 0 24.288-4.127 33.885-11.155 2.916 1.907 5.647 4.05 8.152 6.405-2.367-2.473-4.932-4.736-7.668-6.766 1.205-.901 2.377-1.85 3.512-2.842 1.443 1.125 2.831 2.31 4.156 3.556" mask="url(#m52k66a3ud)"/>
                            </g>
                        </g>
                    </g>
                </g>
            </g>
        </g>
    </g>
</svg>
