<svg xmlns="http://www.w3.org/2000/svg" xmlns:xlink="http://www.w3.org/1999/xlink" width="130" height="53" viewBox="0 0 130 53">
    <defs>
        <path id="q3bjzwdtna" d="M0 52.075L130 52.075 130 0.322 0 0.322z"/>
        <path id="kunj4fmqdc" d="M5.229 5.752C1.885 9.214.039 13.82.039 18.722c0 4.902 1.838 9.508 5.182 12.97 3.303 3.42 7.704 5.321 12.374 5.367v-4.783c-7.142-.096-12.934-6.137-12.934-13.554 0-7.415 5.794-13.455 12.934-13.553V.386C12.925.431 8.532 2.332 5.23 5.752"/>
        <linearGradient id="t6cwz3gb9d" x1="0%" x2="102.698%" y1="50%" y2="50%">
            <stop offset="0%" stop-color="#666"/>
            <stop offset="100%" stop-color="#B3B3B3"/>
        </linearGradient>
    </defs>
    <g fill="none" fill-rule="evenodd">
        <g>
            <g>
                <g>
                    <g>
                        <g>
                            <g transform="translate(-166 -2308) translate(0 93) translate(47 1925) translate(0 285) translate(119 5)">
                                <path fill="#000" d="M37.292 49.981v-.008c0-.813.61-1.486 1.461-1.486.525 0 .838.185 1.127.456l-.223.238c-.243-.23-.515-.394-.908-.394-.64 0-1.119.517-1.119 1.178v.008c0 .665.484 1.186 1.12 1.186.396 0 .656-.151.932-.414l.215.209c-.302.304-.632.505-1.156.505-.834 0-1.449-.653-1.449-1.478"/>
                                <mask id="gokcsjwbcb" fill="#fff">
                                    <use xlink:href="#q3bjzwdtna"/>
                                </mask>
                                <path fill="#000" d="M40.523 51.41L40.84 51.41 40.84 48.413 40.523 48.413zM43.428 50.359v-.009c0-.455-.342-.829-.792-.829-.462 0-.78.374-.78.822v.007c0 .457.338.826.788.826.462 0 .784-.37.784-.817m-1.898 0v-.009c0-.599.47-1.107 1.114-1.107.64 0 1.11.5 1.11 1.1v.007c0 .6-.474 1.109-1.118 1.109-.64 0-1.106-.501-1.106-1.1M44.377 50.605v-1.317h.318v1.24c0 .393.214.64.59.64.363 0 .64-.267.64-.665v-1.215h.313v2.122h-.313v-.37c-.145.23-.364.415-.73.415-.517 0-.818-.345-.818-.85M48.76 50.35v-.008c0-.488-.377-.816-.773-.816-.412 0-.75.303-.75.816v.009c0 .5.346.82.75.82.396 0 .773-.332.773-.82m-1.85.004v-.009c0-.693.508-1.104 1.02-1.104.396 0 .652.214.817.452v-1.28h.318v2.996h-.318v-.427c-.173.255-.425.472-.817.472-.512 0-1.02-.402-1.02-1.1M50.88 50.359v-.009c0-.599.47-1.107 1.093-1.107.405 0 .657.168.855.377l-.21.222c-.17-.177-.36-.32-.648-.32-.434 0-.764.365-.764.82v.008c0 .46.338.826.784.826.273 0 .483-.135.652-.316l.203.188c-.215.239-.471.411-.872.411-.623 0-1.093-.505-1.093-1.1M55.155 50.359v-.009c0-.455-.343-.829-.793-.829-.461 0-.78.374-.78.822v.007c0 .457.34.826.789.826.462 0 .784-.37.784-.817m-1.899 0v-.009c0-.599.47-1.107 1.115-1.107.64 0 1.11.5 1.11 1.1v.007c0 .6-.475 1.109-1.119 1.109-.64 0-1.106-.501-1.106-1.1M56.136 49.288h.318v.356c.14-.208.33-.402.69-.402.347 0 .57.185.685.423.152-.234.38-.423.751-.423.491 0 .793.329.793.854v1.314h-.318v-1.24c0-.41-.207-.64-.553-.64-.322 0-.59.238-.59.657v1.223h-.314v-1.248c0-.398-.211-.632-.55-.632-.337 0-.594.279-.594.669v1.21h-.318v-2.121zM61.971 50.355v-.008c0-.501-.346-.822-.75-.822-.397 0-.772.333-.772.817v.009c0 .492.375.821.771.821.413 0 .751-.304.751-.817zm-1.828-1.067h.318v.427c.173-.255.425-.473.817-.473.512 0 1.02.403 1.02 1.1v.009c0 .694-.503 1.104-1.02 1.104-.396 0-.652-.213-.817-.452v1.064h-.318v-2.78zM62.932 50.605v-1.317h.318v1.24c0 .393.215.64.59.64.363 0 .64-.267.64-.665v-1.215h.314v2.122h-.314v-.37c-.144.23-.363.415-.73.415-.516 0-.818-.345-.818-.85M65.701 50.847v-1.28h-.297v-.279h.297v-.641h.318v.641h.677v.279h-.677v1.24c0 .258.144.352.36.352.106 0 .197-.02.308-.074v.272c-.11.057-.23.09-.384.09-.342 0-.602-.169-.602-.6M67.381 51.41h.528v-2.122h-.528v2.122zm-.034-2.587h.604v-.348h-.604v.348zM68.507 49.288h.317v.369c.14-.23.363-.415.731-.415.516 0 .817.345.817.85v1.318h-.317v-1.24c0-.394-.215-.64-.59-.64-.368 0-.64.266-.64.665v1.215h-.318v-2.122zM72.856 50.248v-.008c0-.435-.38-.719-.784-.719s-.738.28-.738.715v.008c0 .427.342.722.738.722.405 0 .784-.291.784-.718m-1.75 1.532l.145-.247c.243.177.515.27.821.27.47 0 .776-.258.776-.755v-.25c-.186.247-.446.448-.838.448-.512 0-1.003-.382-1.003-.994v-.008c0-.62.496-1.002 1.003-1.002.4 0 .66.197.834.427v-.381h.318v1.753c0 .328-.1.578-.273.75-.19.19-.474.284-.813.284-.355 0-.685-.099-.97-.295M75.228 49.567h-.293v-.275h.293v-.186c0-.241.067-.426.186-.545.108-.107.265-.164.458-.164.15 0 .248.016.351.053v.275c-.115-.033-.202-.054-.31-.054-.247 0-.371.148-.371.452v.173h.677v.27h-.673v1.844h-.318v-1.843zM78.431 50.359v-.009c0-.455-.342-.829-.792-.829-.463 0-.78.374-.78.822v.007c0 .457.338.826.788.826.462 0 .784-.37.784-.817m-1.899 0v-.009c0-.599.47-1.107 1.115-1.107.64 0 1.11.5 1.11 1.1v.007c0 .6-.475 1.109-1.118 1.109-.64 0-1.107-.501-1.107-1.1M79.413 49.288h.317v.554c.157-.353.467-.608.871-.591v.34h-.024c-.467 0-.847.333-.847.973v.846h-.317v-2.122zM82.19 50.359v-.009c0-.599.47-1.107 1.093-1.107.405 0 .656.168.854.377l-.21.222c-.17-.177-.36-.32-.648-.32-.434 0-.764.365-.764.82v.008c0 .46.339.826.784.826.273 0 .483-.135.653-.316l.202.188c-.215.239-.47.411-.871.411-.623 0-1.094-.505-1.094-1.1M86.465 50.359v-.009c0-.455-.343-.829-.793-.829-.462 0-.78.374-.78.822v.007c0 .457.339.826.789.826.462 0 .784-.37.784-.817m-1.899 0v-.009c0-.599.47-1.107 1.115-1.107.64 0 1.11.5 1.11 1.1v.007c0 .6-.475 1.109-1.119 1.109-.64 0-1.106-.501-1.106-1.1M87.475 51.41L87.792 51.41 87.792 48.413 87.475 48.413zM88.643 51.41L88.96 51.41 88.96 48.413 88.643 48.413zM91.19 50.63v-.197c-.158-.045-.364-.09-.624-.09-.396 0-.623.172-.623.427v.008c0 .266.247.423.536.423.392 0 .71-.235.71-.57m-1.568.163v-.008c0-.456.371-.693.912-.693.272 0 .462.036.652.09v-.066c0-.378-.231-.575-.632-.575-.252 0-.45.062-.648.152l-.095-.259c.236-.107.463-.18.776-.18.302 0 .537.082.69.234.149.147.223.353.223.623v1.298h-.314v-.317c-.149.19-.392.362-.768.362-.4 0-.796-.226-.796-.66M94.082 50.355v-.008c0-.501-.347-.822-.751-.822-.396 0-.772.333-.772.817v.009c0 .492.376.821.772.821.413 0 .75-.304.75-.817m-1.51.648v.407h-.318v-2.997h.318v1.302c.174-.255.425-.473.818-.473.511 0 1.019.403 1.019 1.1v.009c0 .694-.504 1.104-1.02 1.104-.396 0-.652-.213-.817-.452M96.842 50.359v-.009c0-.455-.342-.829-.792-.829-.462 0-.78.374-.78.822v.007c0 .457.338.826.788.826.462 0 .784-.37.784-.817m-1.898 0v-.009c0-.599.47-1.107 1.114-1.107.64 0 1.11.5 1.11 1.1v.007c0 .6-.474 1.109-1.118 1.109-.64 0-1.106-.501-1.106-1.1M97.824 49.288h.318v.554c.157-.353.466-.608.87-.591v.34h-.024c-.467 0-.846.333-.846.973v.846h-.318v-2.122zM100.881 50.63v-.197c-.157-.045-.363-.09-.623-.09-.396 0-.624.172-.624.427v.008c0 .266.248.423.537.423.393 0 .71-.235.71-.57m-1.568.163v-.008c0-.456.371-.693.912-.693.272 0 .462.036.652.09v-.066c0-.378-.23-.575-.632-.575-.251 0-.45.062-.647.152l-.095-.259c.235-.107.462-.18.775-.18.302 0 .537.082.69.234.149.147.223.353.223.623v1.298h-.314v-.317c-.148.19-.392.362-.768.362-.4 0-.796-.226-.796-.66M102.036 50.847v-1.28h-.297v-.279h.297v-.641h.318v.641h.677v.279h-.677v1.24c0 .258.145.352.36.352.107 0 .197-.02.309-.074v.272c-.112.057-.231.09-.384.09-.343 0-.603-.169-.603-.6M103.717 51.41h.528v-2.122h-.528v2.122zm-.034-2.587h.604v-.348h-.604v.348zM104.632 49.288L104.983 49.288 105.701 51.049 106.424 49.288 106.766 49.288 105.837 51.426 105.556 51.426zM108.788 50.224c-.038-.387-.26-.715-.682-.715-.367 0-.647.304-.693.715h1.375zm-.624.96c.293 0 .5-.119.674-.3l.198.177c-.215.238-.475.398-.88.398-.586 0-1.065-.448-1.065-1.109 0-.615.433-1.108 1.024-1.108.631 0 .995.5.995 1.125 0 .029 0 .062-.005.11h-1.692c.046.449.375.707.751.707zM110.904 49.288h.318v.554c.157-.353.466-.608.87-.591v.34h-.024c-.467 0-.846.333-.846.973v.846h-.318v-2.122zM114.131 50.224c-.037-.387-.26-.715-.68-.715-.368 0-.649.304-.695.715h1.375zm-.623.96c.293 0 .5-.119.673-.3l.198.177c-.215.238-.475.398-.88.398-.586 0-1.065-.448-1.065-1.109 0-.615.434-1.108 1.024-1.108.632 0 .995.5.995 1.125 0 .029 0 .062-.004.11h-1.693c.046.449.376.707.752.707zM114.914 51.139l.161-.226c.231.173.487.271.74.271.255 0 .441-.131.441-.337v-.007c0-.214-.252-.297-.533-.374-.334-.094-.706-.21-.706-.6v-.008c0-.365.306-.608.727-.608.26 0 .55.09.768.234l-.145.239c-.198-.128-.425-.206-.631-.206-.252 0-.413.132-.413.308v.008c0 .202.264.28.549.366.33.098.685.226.685.607v.008c0 .403-.334.637-.76.637-.305 0-.644-.12-.883-.312M118.794 50.224c-.038-.387-.26-.715-.682-.715-.367 0-.647.304-.693.715h1.375zm-.624.96c.293 0 .5-.119.674-.3l.198.177c-.215.238-.475.398-.88.398-.586 0-1.065-.448-1.065-1.109 0-.615.433-1.108 1.024-1.108.631 0 .995.5.995 1.125 0 .029 0 .062-.005.11h-1.692c.046.449.376.707.751.707zM121.162 50.63v-.197c-.157-.045-.363-.09-.623-.09-.396 0-.624.172-.624.427v.008c0 .266.248.423.537.423.392 0 .71-.235.71-.57m-1.568.163v-.008c0-.456.371-.693.912-.693.272 0 .462.036.652.09v-.066c0-.378-.231-.575-.632-.575-.252 0-.45.062-.648.152l-.095-.259c.236-.107.463-.18.776-.18.302 0 .537.082.69.234.149.147.223.353.223.623v1.298h-.314v-.317c-.149.19-.392.362-.768.362-.4 0-.796-.226-.796-.66M122.226 49.288h.318v.554c.157-.353.467-.608.871-.591v.34h-.025c-.466 0-.846.333-.846.973v.846h-.318v-2.122zM123.757 50.359v-.009c0-.599.47-1.107 1.094-1.107.405 0 .656.168.854.377l-.21.222c-.17-.177-.359-.32-.648-.32-.434 0-.764.365-.764.82v.008c0 .46.339.826.785.826.272 0 .482-.135.652-.316l.202.188c-.215.239-.47.411-.871.411-.623 0-1.094-.505-1.094-1.1M126.328 48.413h.317v1.244c.141-.23.364-.414.732-.414.515 0 .817.344.817.85v1.317h-.318v-1.24c0-.394-.215-.64-.59-.64-.368 0-.64.267-.64.665v1.215h-.318v-2.997z" mask="url(#gokcsjwbcb)"/>
                                <path fill="#999" d="M28.713 44.261L33.447 44.261 33.447 26.335 28.713 26.335z" mask="url(#gokcsjwbcb)"/>
                                <path fill="#C1272D" d="M36.915 30.108v-.02c0-2.126 1.645-3.793 3.865-3.793 1.498 0 2.462.625 3.111 1.521l-1.529 1.178c-.42-.521-.9-.855-1.603-.855-1.026 0-1.75.865-1.75 1.928v.02c0 1.094.724 1.948 1.75 1.948.765 0 1.215-.354 1.655-.885l1.53 1.083c-.692.948-1.624 1.647-3.248 1.647-2.095 0-3.781-1.594-3.781-3.772M47.808 31.692v-.26c-.199-.084-.482-.147-.775-.147-.576 0-.911.281-.911.699v.02c0 .386.293.615.702.615.576 0 .984-.365.984-.927m-3.603.426v-.02c0-1.167.89-1.771 2.22-1.771.524 0 1.037.104 1.362.218v-.093c0-.583-.366-.917-1.131-.917-.597 0-1.058.115-1.56.312l-.41-1.395c.64-.26 1.32-.438 2.295-.438 1.016 0 1.707.24 2.157.688.43.416.608 1 .608 1.792v3.24h-1.969v-.584c-.388.427-.922.708-1.665.708-1.08 0-1.907-.614-1.907-1.74M50.552 28.098h1.99v.791c.367-.468.89-.917 1.697-.917 1.205 0 1.928.792 1.928 2.073v3.689h-1.99V30.68c0-.614-.325-.948-.796-.948-.482 0-.838.334-.838.948v3.053h-1.99v-5.636zM56.753 30.942v-.021c0-1.594 1.246-2.938 3.037-2.938 1.163 0 1.938.5 2.42 1.26l-1.35 1c-.273-.374-.577-.593-1.059-.593-.639 0-1.11.562-1.11 1.25v.02c0 .73.46 1.282 1.131 1.282.472 0 .776-.218 1.09-.584l1.33.959c-.524.771-1.278 1.292-2.525 1.292-1.707 0-2.964-1.334-2.964-2.927M66.2 30.452c-.073-.625-.439-1.02-.984-1.02-.524 0-.88.406-.984 1.02h1.969zm-3.854.49v-.022c0-1.645 1.184-2.948 2.86-2.948 1.959 0 2.86 1.427 2.86 3.084 0 .125 0 .27-.011.406h-3.792c.157.615.608.928 1.226.928.47 0 .848-.177 1.256-.574l1.1.907c-.544.687-1.33 1.146-2.461 1.146-1.781 0-3.038-1.177-3.038-2.928zM68.704 28.098h1.99v1.135c.325-.771.849-1.271 1.791-1.23v2.084h-.167c-1.037 0-1.624.594-1.624 1.896v1.75h-1.99v-5.635z" mask="url(#gokcsjwbcb)"/>
                                <path fill="#4D4D4D" d="M75.114 30.108v-.02c0-2.126 1.677-3.793 3.95-3.793 1.288 0 2.199.396 2.974 1.063l-1.194 1.427c-.524-.437-1.048-.688-1.77-.688-1.058 0-1.875.886-1.875 2v.022c0 1.177.827 2.02 1.99 2.02.492 0 .869-.104 1.174-.302v-.885h-1.446v-1.48h3.373v3.282c-.775.636-1.855 1.126-3.185 1.126-2.283 0-3.99-1.563-3.99-3.772M86.72 30.452c-.073-.625-.44-1.02-.985-1.02-.523 0-.88.406-.984 1.02h1.969zm-3.855.49v-.022c0-1.645 1.184-2.948 2.86-2.948 1.96 0 2.86 1.427 2.86 3.084 0 .125 0 .27-.01.406h-3.793c.158.615.608.928 1.226.928.471 0 .848-.177 1.257-.574l1.1.907c-.545.687-1.33 1.146-2.462 1.146-1.78 0-3.038-1.177-3.038-2.928zM89.223 28.098h1.99v.791c.368-.468.891-.917 1.697-.917 1.205 0 1.928.792 1.928 2.073v3.689h-1.99V30.68c0-.614-.325-.948-.797-.948-.481 0-.837.334-.837.948v3.053h-1.99v-5.636zM99.75 30.942v-.021c0-.688-.503-1.271-1.205-1.271-.722 0-1.183.573-1.183 1.25v.02c0 .688.503 1.271 1.205 1.271.722 0 1.183-.573 1.183-1.25m-4.326 0v-.02c0-1.605 1.32-2.948 3.143-2.948 1.811 0 3.12 1.322 3.12 2.927v.02c0 1.605-1.32 2.95-3.142 2.95-1.812 0-3.121-1.324-3.121-2.928M102.106 28.098h1.99v.77c.368-.468.891-.896 1.687-.896.754 0 1.33.334 1.634.917.492-.562 1.069-.917 1.897-.917 1.204 0 1.937.75 1.937 2.063v3.699h-1.99V30.67c0-.615-.304-.938-.775-.938-.472 0-.817.323-.817.938v3.063h-1.99V30.67c0-.615-.305-.938-.776-.938-.471 0-.806.323-.806.938v3.063h-1.99v-5.636zM115.692 30.452c-.074-.625-.44-1.02-.985-1.02-.523 0-.88.406-.985 1.02h1.97zm-3.855.49v-.022c0-1.645 1.184-2.948 2.86-2.948 1.959 0 2.86 1.427 2.86 3.084 0 .125 0 .27-.01.406h-3.793c.157.615.608.928 1.226.928.471 0 .848-.177 1.256-.574l1.1.907c-.545.687-1.33 1.146-2.461 1.146-1.78 0-3.038-1.177-3.038-2.928zM36.915 40.336v-.021c0-2.125 1.645-3.792 3.865-3.792 1.498 0 2.462.625 3.111 1.52l-1.529 1.178c-.42-.52-.9-.855-1.603-.855-1.026 0-1.75.865-1.75 1.928v.02c0 1.094.724 1.949 1.75 1.949.765 0 1.215-.354 1.655-.886l1.53 1.084c-.692.948-1.624 1.646-3.248 1.646-2.095 0-3.781-1.594-3.781-3.771M49.757 40.336v-.021c0-1.052-.765-1.969-1.886-1.969-1.11 0-1.854.896-1.854 1.948v.02c0 1.053.765 1.97 1.875 1.97 1.12 0 1.865-.896 1.865-1.948m-5.824 0v-.021c0-2.094 1.697-3.792 3.96-3.792 2.262 0 3.938 1.677 3.938 3.771v.02c0 2.094-1.698 3.793-3.96 3.793s-3.938-1.677-3.938-3.771M52.469 36.669L54.501 36.669 54.501 42.19 58.052 42.19 58.052 43.961 52.469 43.961zM58.712 36.669L60.744 36.669 60.744 42.19 64.295 42.19 64.295 43.961 58.712 43.961z" mask="url(#gokcsjwbcb)"/>
                                <path fill="#4D4D4D" d="M69.06 41.086l-.816-2.073-.828 2.073h1.645zm-1.78-4.47h1.958l3.122 7.345h-2.178l-.535-1.302H66.82l-.524 1.302h-2.137l3.122-7.344zM76.414 42.336c.617 0 .974-.24.974-.667v-.02c0-.397-.314-.657-.995-.657h-1.55v1.344h1.57zm-.293-2.76c.618 0 .963-.209.963-.636v-.02c0-.397-.314-.626-.922-.626h-1.32v1.281h1.279zm-3.258-2.907h3.76c.922 0 1.572.229 2 .656.295.292.473.677.473 1.177v.021c0 .844-.482 1.344-1.132 1.625.89.292 1.456.791 1.456 1.781v.021c0 1.25-1.026 2.011-2.776 2.011h-3.781v-7.292zM85.505 40.336v-.021c0-1.052-.764-1.969-1.885-1.969-1.11 0-1.854.896-1.854 1.948v.02c0 1.053.764 1.97 1.875 1.97 1.12 0 1.864-.896 1.864-1.948m-5.824 0v-.021c0-2.094 1.698-3.792 3.96-3.792 2.263 0 3.938 1.677 3.938 3.771v.02c0 2.094-1.697 3.793-3.96 3.793-2.262 0-3.938-1.677-3.938-3.771M91.381 40.169c.692 0 1.09-.333 1.09-.865v-.02c0-.574-.42-.865-1.1-.865h-1.33v1.75h1.34zm-3.372-3.5h3.467c1.12 0 1.896.291 2.388.792.43.416.65.979.65 1.698v.02c0 1.115-.598 1.854-1.509 2.24l1.75 2.542h-2.347l-1.477-2.209h-.89v2.209h-2.032v-7.292z" mask="url(#gokcsjwbcb)"/>
                                <path fill="#4D4D4D" d="M99.3 41.086l-.817-2.073-.827 2.073H99.3zm-1.78-4.47h1.958l3.121 7.345h-2.179l-.533-1.302h-2.83l-.523 1.302h-2.136l3.122-7.344zM103.741 38.44L101.541 38.44 101.541 36.669 107.973 36.669 107.973 38.44 105.773 38.44 105.773 43.961 103.741 43.961zM113.493 40.336v-.021c0-1.052-.765-1.969-1.886-1.969-1.11 0-1.854.896-1.854 1.948v.02c0 1.053.765 1.97 1.875 1.97 1.12 0 1.865-.896 1.865-1.948m-5.824 0v-.021c0-2.094 1.697-3.792 3.96-3.792 2.262 0 3.938 1.677 3.938 3.771v.02c0 2.094-1.698 3.793-3.96 3.793s-3.938-1.677-3.938-3.771M119.578 40.169c.691 0 1.09-.333 1.09-.865v-.02c0-.574-.42-.865-1.1-.865h-1.331v1.75h1.341zm-3.373-3.5h3.467c1.121 0 1.896.291 2.389.792.429.416.649.979.649 1.698v.02c0 1.115-.597 1.854-1.508 2.24l1.749 2.542h-2.346l-1.478-2.209h-.89v2.209h-2.032v-7.292zM125.171 41.231L122.384 36.669 124.7 36.669 126.208 39.325 127.727 36.669 130 36.669 127.214 41.2 127.214 43.961 125.171 43.961z" mask="url(#gokcsjwbcb)"/>
                                <path fill="#C1272D" d="M7.596 7.95C2.944 12.578.268 18.589 0 25.218h4.73c.265-5.367 2.443-10.205 6.201-13.944 3.977-3.954 9.275-6.177 14.9-6.222V.32C18.944.368 12.464 3.11 7.596 7.951" mask="url(#gokcsjwbcb)"/>
                                <path fill="#ED1C24" d="M10.935 41.133c-3.72-3.699-5.892-8.498-6.194-13.706H.006c.306 6.47 2.971 12.46 7.584 17.047 4.874 4.847 11.346 7.533 18.241 7.573v-4.735c-5.632-.04-10.915-2.22-14.896-6.179" mask="url(#gokcsjwbcb)"/>
                            </g>
                            <g transform="translate(-166 -2308) translate(0 93) translate(47 1925) translate(0 285) translate(119 5) translate(7.429 7.429)">
                                <mask id="dvrrkoy02e" fill="#fff">
                                    <use xlink:href="#kunj4fmqdc"/>
                                </mask>
                                <path fill="url(#t6cwz3gb9d)" d="M5.229 5.752C1.885 9.214.039 13.82.039 18.722c0 4.902 1.838 9.508 5.182 12.97 3.303 3.42 7.704 5.321 12.374 5.367v-4.783c-7.142-.096-12.934-6.137-12.934-13.554 0-7.415 5.794-13.455 12.934-13.553V.386C12.925.431 8.532 2.332 5.23 5.752" mask="url(#dvrrkoy02e)"/>
                            </g>
                            <g>
                                <path fill="#29ABE2" d="M4.96 12.095H.17c.617 5.098 4.85 9.09 9.995 9.167v-4.845c-2.53-.077-4.648-1.806-5.207-4.322" transform="translate(-166 -2308) translate(0 93) translate(47 1925) translate(0 285) translate(119 5) translate(15.786 15.786)"/>
                                <path fill="#3FA9F5" d="M.15 9.842h4.772c.498-2.675 2.657-4.466 5.244-4.544V.508C4.973.595.692 4.59.15 9.842" transform="translate(-166 -2308) translate(0 93) translate(47 1925) translate(0 285) translate(119 5) translate(15.786 15.786)"/>
                            </g>
                        </g>
                    </g>
                </g>
            </g>
        </g>
    </g>
</svg>
