<svg xmlns="http://www.w3.org/2000/svg" width="128" height="29" viewBox="0 0 128 29"><g fill="none" fill-rule="evenodd"><g fill-rule="nonzero"><g><g><g><g><g><path fill="#4FAEDD" d="M14.47 5.541c.483.436.992.847 1.524 1.234.653-.073 1.307-.194 1.96-.339-.024-.072-.049-.17-.073-.242-.847-.508-1.67-1.089-2.444-1.693-.314.363-.629.701-.967 1.04z" transform="translate(-747 -2320) translate(0 93) translate(47 1925) translate(0 285) translate(700 17)"/><path fill="#E34A3B" d="M7.96 21.946c-.628-.314-1.282-.605-1.935-.847-.29.75-.653 1.5-1.04 2.202.967-.532 1.96-.992 2.976-1.355z" transform="translate(-747 -2320) translate(0 93) translate(47 1925) translate(0 285) translate(700 17)"/><path fill="#4FAEDD" d="M17.64 5.25c-.218-1.088-.34-2.225-.364-3.363-.435.726-.895 1.428-1.427 2.081.58.436 1.185.871 1.79 1.283z" transform="translate(-747 -2320) translate(0 93) translate(47 1925) translate(0 285) translate(700 17)"/><path fill="#E34A3B" d="M9.025 21.608c.073-.025.146-.049.218-.049-.193-.605-.411-1.21-.677-1.79-.605-.267-1.234-.484-1.864-.702-.12.46-.266.92-.41 1.38.894.338 1.765.75 2.612 1.209.049-.024.073-.024.121-.048zM7.55 17.76c-.146-.242-.291-.46-.436-.701-.073.435-.145.895-.242 1.33.435.121.847.267 1.258.436-.17-.339-.363-.702-.58-1.065zM4.331 15.655c-.822.726-1.718 1.355-2.661 1.936.822 0 1.645.073 2.443.193.121-.701.194-1.403.218-2.129zM6.05 18.873c-.436-.12-.896-.217-1.332-.314-.072.411-.145.822-.242 1.234.388.12.799.242 1.186.387.121-.411.266-.847.387-1.307z" transform="translate(-747 -2320) translate(0 93) translate(47 1925) translate(0 285) translate(700 17)"/><path fill="#A07AB0" d="M6.848 10.163c.096.41.169.846.242 1.282.363-.557.701-1.113.992-1.694-.412.145-.823.266-1.234.412z" transform="translate(-747 -2320) translate(0 93) translate(47 1925) translate(0 285) translate(700 17)"/><path fill="#4FAEDD" d="M14.953 6.848c-.338-.267-.677-.557-.992-.847-.314.29-.629.58-.967.847.653.048 1.306.048 1.96 0z" transform="translate(-747 -2320) translate(0 93) translate(47 1925) translate(0 285) translate(700 17)"/><path fill="#1C75BC" d="M19.986 6.581c.654.315 1.307.605 1.96.872.29-.75.654-1.5 1.04-2.227-.967.533-1.96.993-3 1.355z" transform="translate(-747 -2320) translate(0 93) translate(47 1925) translate(0 285) translate(700 17)"/><path fill="#A07AB0" d="M6.025 7.477c.677-.266 1.33-.581 1.984-.896-1.065-.362-2.08-.822-3.073-1.355.411.726.774 1.476 1.089 2.25z" transform="translate(-747 -2320) translate(0 93) translate(47 1925) translate(0 285) translate(700 17)"/><path fill="#4FAEDD" d="M13.961 3.218c-.29.29-.604.557-.919.823.29.339.605.677.944.992.314-.315.629-.653.92-.992-.34-.242-.654-.532-.945-.823zM13.478 5.541c-.34-.339-.654-.677-.968-1.04-.75.604-1.549 1.161-2.372 1.67l-.072.29c.629.145 1.282.241 1.936.314.508-.387.992-.798 1.476-1.234z" transform="translate(-747 -2320) translate(0 93) translate(47 1925) translate(0 285) translate(700 17)"/><path fill="#FAA634" d="M12.994 21.656c.338.266.677.556 1.016.871.314-.29.653-.605.992-.871-.653-.048-1.33-.048-2.008 0zM10.405 23.35c.193 1.064.314 2.129.338 3.194.412-.678.871-1.355 1.355-1.984-.532-.412-1.113-.823-1.693-1.21zM14.01 25.31c.314-.29.605-.557.943-.847-.29-.339-.604-.678-.919-.992-.315.314-.63.653-.944 1.016.315.266.605.532.92.823zM13.526 22.987c-.484-.46-.992-.871-1.549-1.258-.629.072-1.258.169-1.863.314.024.121.073.242.097.339.798.508 1.597 1.04 2.347 1.645.29-.339.63-.701.968-1.04z" transform="translate(-747 -2320) translate(0 93) translate(47 1925) translate(0 285) translate(700 17)"/><path fill="#1C75BC" d="M23.52 8.735c-.388-.121-.775-.242-1.162-.387-.146.435-.29.87-.387 1.306.435.121.87.218 1.33.29.049-.41.121-.822.218-1.209zM23.955 10.066c1.161.17 2.347.218 3.532.17-.072-.219-.145-.46-.217-.678-1.04-.146-2.057-.34-3.073-.63-.097.363-.17.75-.242 1.138z" transform="translate(-747 -2320) translate(0 93) translate(47 1925) translate(0 285) translate(700 17)"/><path fill="#8DC63F" d="M26.374 17.543c-.968-.581-1.887-1.234-2.734-1.985.048.726.121 1.452.218 2.178.823-.12 1.67-.193 2.516-.193z" transform="translate(-747 -2320) translate(0 93) translate(47 1925) translate(0 285) translate(700 17)"/><path fill="#A07AB0" d="M1.718 10.985c.92.557 1.79 1.186 2.613 1.888-.048-.702-.12-1.404-.218-2.081-.798.12-1.597.17-2.395.193z" transform="translate(-747 -2320) translate(0 93) translate(47 1925) translate(0 285) translate(700 17)"/><path fill="#1C75BC" d="M22.914 13.55c.024-.992.121-1.96.242-2.928-.46-.096-.92-.193-1.38-.314-.144.629-.241 1.258-.314 1.887.388.532.823 1.04 1.259 1.524.072-.048.145-.096.193-.169z" transform="translate(-747 -2320) translate(0 93) translate(47 1925) translate(0 285) translate(700 17)"/><path fill="#8DC63F" d="M21.97 21.027c-.677.266-1.306.556-1.96.87 1.041.364 2.057.8 3.001 1.332-.387-.702-.75-1.452-1.04-2.202z" transform="translate(-747 -2320) translate(0 93) translate(47 1925) translate(0 285) translate(700 17)"/><path fill="#FAA634" d="M14.518 22.987c.339.339.653.677.968 1.04.774-.629 1.573-1.185 2.42-1.718.024-.097.048-.17.072-.266-.629-.145-1.282-.242-1.936-.314-.532.387-1.04.822-1.524 1.258z" transform="translate(-747 -2320) translate(0 93) translate(47 1925) translate(0 285) translate(700 17)"/><path fill="#E34A3B" d="M6.533 16.236c-.387-.508-.798-1.016-1.234-1.476l-.242.242c-.024.968-.097 1.936-.242 2.903.46.097.944.194 1.404.315.12-.653.241-1.307.314-1.984z" transform="translate(-747 -2320) translate(0 93) translate(47 1925) translate(0 285) translate(700 17)"/><path fill="#8DC63F" d="M20.906 17.107c-.339.532-.678 1.089-.968 1.67.387-.146.798-.29 1.21-.412-.097-.411-.194-.822-.242-1.258zM21.729 20.398c-.17-.46-.29-.896-.412-1.355-.605.193-1.21.411-1.79.677-.267.605-.484 1.21-.678 1.84.097.023.17.048.266.072.823-.46 1.718-.896 2.614-1.234z" transform="translate(-747 -2320) translate(0 93) translate(47 1925) translate(0 285) translate(700 17)"/><path fill="#A07AB0" d="M9.195 6.944c-.097-.024-.17-.048-.266-.072-.872.46-1.743.895-2.662 1.258.17.436.29.895.435 1.355.63-.194 1.234-.435 1.84-.702.241-.58.46-1.21.653-1.839z" transform="translate(-747 -2320) translate(0 93) translate(47 1925) translate(0 285) translate(700 17)"/><path fill="#FAA634" d="M17.349 26.616c0-1.137.12-2.25.339-3.339-.605.411-1.186.823-1.767 1.283.508.653.992 1.33 1.428 2.056z" transform="translate(-747 -2320) translate(0 93) translate(47 1925) translate(0 285) translate(700 17)"/><path fill="#E34A3B" d="M4.38 14.034v-.194c-1.186-1.113-2.541-2.032-3.993-2.782-.484 2.08-.532 4.283 0 6.485 1.476-.775 2.807-1.718 3.993-2.831v-.678z" transform="translate(-747 -2320) translate(0 93) translate(47 1925) translate(0 285) translate(700 17)"/><path fill="#FAA634" d="M14.518 25.77c.726.725 1.428 1.5 2.08 2.322.243-.048.485-.097.703-.145-.533-1.065-1.186-2.057-1.912-2.952-.315.266-.605.508-.871.774zM8.832 22.406c-1.573.484-3.073 1.186-4.452 2.081 1.597 1.524 3.532 2.637 5.662 3.266.072-1.645-.073-3.29-.436-4.911-.266-.146-.532-.29-.774-.436zM12.243 28.213c1.162.145 2.348.145 3.533 0-.556-.701-1.161-1.355-1.79-1.96-.605.63-1.186 1.283-1.743 1.96z" transform="translate(-747 -2320) translate(0 93) translate(47 1925) translate(0 285) translate(700 17)"/><path fill="#E34A3B" d="M4.283 20.47c-.266.992-.58 1.936-.968 2.88.17.193.314.363.484.556.629-.968 1.161-2.008 1.573-3.073-.34-.12-.702-.242-1.09-.363zM4.017 18.462c-1.113-.17-2.275-.218-3.436-.17.072.243.145.485.242.702.992.146 1.984.34 2.952.605.096-.363.169-.75.242-1.137zM1.113 19.744c.46 1.09 1.04 2.081 1.718 3 .315-.798.58-1.62.798-2.467-.822-.218-1.67-.387-2.516-.533z" transform="translate(-747 -2320) translate(0 93) translate(47 1925) translate(0 285) translate(700 17)"/><path fill="#FAA634" d="M12.63 25.02c-.725.919-1.354 1.887-1.863 2.927.242.048.46.097.702.145.63-.822 1.307-1.597 2.033-2.323-.266-.242-.557-.508-.871-.75z" transform="translate(-747 -2320) translate(0 93) translate(47 1925) translate(0 285) translate(700 17)"/><path fill="#8DC63F" d="M18.486 22.769c-.387 1.621-.532 3.29-.435 4.984 2.202-.653 4.113-1.79 5.662-3.29-1.428-.92-2.952-1.621-4.55-2.105-.217.145-.435.266-.677.411z" transform="translate(-747 -2320) translate(0 93) translate(47 1925) translate(0 285) translate(700 17)"/><path fill="#1C75BC" d="M27.68 10.961c-1.523.774-2.878 1.766-4.088 2.904v.726c1.21 1.137 2.589 2.129 4.113 2.903.508-2.08.532-4.331-.024-6.533z" transform="translate(-747 -2320) translate(0 93) translate(47 1925) translate(0 285) translate(700 17)"/><path fill="#8DC63F" d="M25.213 22.793c.726-.968 1.33-2.008 1.79-3.145-.895.145-1.766.314-2.637.556.242.895.508 1.767.847 2.59zM23.979 18.414c.072.387.145.75.242 1.137 1.016-.29 2.057-.484 3.097-.63.073-.217.145-.435.218-.677-1.21-.048-2.396 0-3.557.17zM23.301 18.535c-.435.072-.895.193-1.33.314.12.436.241.871.41 1.307.388-.145.775-.266 1.162-.387-.096-.412-.17-.823-.242-1.234zM22.624 20.785c.435 1.089.968 2.153 1.621 3.145.17-.169.315-.338.46-.508-.412-.992-.726-1.984-.992-3l-1.09.363zM23.18 17.857c-.145-.992-.242-1.96-.266-2.952l-.17-.17c-.459.485-.87 1.017-1.257 1.55.072.628.193 1.282.314 1.887.46-.121.92-.218 1.38-.315z" transform="translate(-747 -2320) translate(0 93) translate(47 1925) translate(0 285) translate(700 17)"/><path fill="#4FAEDD" d="M13.453 2.758c-.726-.701-1.379-1.451-2.008-2.25-.242.049-.46.097-.702.145.533 1.017 1.162 1.984 1.863 2.88.29-.266.557-.533.847-.775z" transform="translate(-747 -2320) translate(0 93) translate(47 1925) translate(0 285) translate(700 17)"/><path fill="#1C75BC" d="M23.688 8.057c.267-.992.581-1.984.993-2.952-.146-.169-.315-.362-.484-.532-.654.992-1.186 2.033-1.597 3.122l1.088.362z" transform="translate(-747 -2320) translate(0 93) translate(47 1925) translate(0 285) translate(700 17)"/><path fill="#4FAEDD" d="M19.115 6.122c1.597-.484 3.122-1.186 4.525-2.105-1.597-1.476-3.533-2.59-5.638-3.194-.072 1.693.073 3.339.46 4.936.218.12.436.242.653.363z" transform="translate(-747 -2320) translate(0 93) translate(47 1925) translate(0 285) translate(700 17)"/><path fill="#1C75BC" d="M26.98 8.808c-.485-1.113-1.09-2.154-1.816-3.098-.314.823-.604 1.67-.822 2.541.87.242 1.742.411 2.637.557z" transform="translate(-747 -2320) translate(0 93) translate(47 1925) translate(0 285) translate(700 17)"/><path fill="#A07AB0" d="M3.992 10.114c-.072-.387-.145-.75-.242-1.137-.967.266-1.96.484-2.952.629-.072.218-.169.46-.217.702 1.137.024 2.298-.024 3.411-.194z" transform="translate(-747 -2320) translate(0 93) translate(47 1925) translate(0 285) translate(700 17)"/><path fill="#1C75BC" d="M23.64 12.897c.823-.726 1.718-1.38 2.686-1.96-.823 0-1.645-.073-2.468-.194-.121.702-.194 1.428-.218 2.154z" transform="translate(-747 -2320) translate(0 93) translate(47 1925) translate(0 285) translate(700 17)"/><path fill="#4FAEDD" d="M15.68.339c-1.138-.145-2.3-.121-3.46.024.556.677 1.112 1.307 1.741 1.911.605-.629 1.186-1.258 1.718-1.935z" transform="translate(-747 -2320) translate(0 93) translate(47 1925) translate(0 285) translate(700 17)"/><path fill="#1C75BC" d="M19.938 9.727c.29.557.605 1.113.944 1.645.072-.41.145-.822.242-1.234-.388-.145-.799-.266-1.186-.411z" transform="translate(-747 -2320) translate(0 93) translate(47 1925) translate(0 285) translate(700 17)"/><path fill="#4FAEDD" d="M15.34 3.533c.727-.896 1.331-1.888 1.864-2.928L16.478.46c-.63.798-1.307 1.573-2.033 2.298.29.242.581.509.896.775z" transform="translate(-747 -2320) translate(0 93) translate(47 1925) translate(0 285) translate(700 17)"/><path fill="#A07AB0" d="M5.372 7.719c-.412-1.065-.944-2.081-1.573-3.05-.17.17-.339.364-.484.557.387.944.702 1.888.944 2.88.387-.121.75-.242 1.113-.387zM6.509 12.268c-.073-.654-.194-1.283-.339-1.912-.46.121-.92.242-1.403.315.145.943.217 1.887.266 2.855.072.072.17.145.242.242.46-.484.87-.968 1.234-1.5zM2.807 5.856c-.678.919-1.258 1.935-1.694 2.976.847-.145 1.67-.315 2.492-.533-.217-.822-.484-1.645-.798-2.443zM9.533 5.735c.363-1.573.509-3.219.436-4.888-2.153.653-4.04 1.79-5.59 3.242 1.38.895 2.904 1.573 4.453 2.033.242-.121.484-.266.701-.387z" transform="translate(-747 -2320) translate(0 93) translate(47 1925) translate(0 285) translate(700 17)"/><path fill="#4FAEDD" d="M10.695 1.984c-.024 1.089-.121 2.178-.339 3.218.58-.387 1.162-.798 1.718-1.258-.508-.605-.968-1.258-1.38-1.96z" transform="translate(-747 -2320) translate(0 93) translate(47 1925) translate(0 285) translate(700 17)"/><path fill="#A07AB0" d="M4.67 9.993c.46-.097.895-.193 1.355-.314-.121-.436-.266-.871-.411-1.307-.388.145-.799.266-1.186.387.097.412.17.823.242 1.234z" transform="translate(-747 -2320) translate(0 93) translate(47 1925) translate(0 285) translate(700 17)"/><path fill="#1C75BC" d="M18.994 6.872c-.072.024-.145.024-.193.048.193.63.435 1.258.701 1.863.581.242 1.186.484 1.791.654.121-.46.266-.896.411-1.355-.92-.363-1.79-.775-2.661-1.234-.024.024-.024.024-.049.024z" transform="translate(-747 -2320) translate(0 93) translate(47 1925) translate(0 285) translate(700 17)"/></g><g><path fill="#1C75BC" d="M3.63 6.848C1.62 6.848.29 5.42.29 3.508.29 1.695 1.67.17 3.63.17c1.113 0 1.814.315 2.468.871l-.726.847c-.508-.435-.992-.701-1.815-.701-1.186 0-2.081 1.04-2.081 2.274 0 1.33.871 2.323 2.202 2.323.605 0 1.161-.194 1.548-.484V4.09H3.581v-.992H6.34v2.71c-.654.58-1.573 1.04-2.71 1.04zM7.743 6.727L7.743 0 8.856 0 8.856 6.727zM12.63 6.848c-1.475 0-2.588-1.138-2.588-2.517 0-1.403 1.113-2.565 2.589-2.565 1.5 0 2.589 1.138 2.589 2.541 0 1.38-1.09 2.54-2.59 2.54zm0-4.114c-.895 0-1.475.702-1.475 1.549 0 .87.629 1.573 1.476 1.573.895 0 1.476-.702 1.476-1.549s-.605-1.573-1.476-1.573zM19.14 6.848c-.799 0-1.307-.412-1.646-.847v.75h-1.113V0h1.113v2.662c.363-.509.871-.92 1.646-.92 1.16 0 2.274.92 2.274 2.54-.024 1.646-1.113 2.566-2.274 2.566zm-.267-4.114c-.75 0-1.427.63-1.427 1.573 0 .944.653 1.573 1.427 1.573.775 0 1.404-.605 1.404-1.573-.024-.968-.654-1.573-1.404-1.573zM25.527 6.727v-.605c-.338.387-.846.701-1.572.701-.92 0-1.743-.532-1.743-1.5 0-1.04.847-1.573 1.985-1.573.58 0 .967.073 1.355.194v-.12c0-.678-.436-1.041-1.21-1.041-.533 0-.944.12-1.404.314l-.314-.895c.532-.242 1.064-.411 1.863-.411 1.428 0 2.13.75 2.13 2.056v2.88h-1.09zm.025-2.057c-.29-.121-.678-.194-1.113-.194-.702 0-1.113.29-1.113.775v.024c0 .46.41.726.943.726.726 0 1.283-.412 1.283-1.017V4.67zM28.02 6.727L28.02 0 29.133 0 29.133 6.727zM39.658 6.727h-1.21l-.653-1.549h-3.049l-.653 1.549h-1.161l2.83-6.485h1.041l2.855 6.485zm-3.387-5.13l-1.113 2.589h2.226L36.27 1.597zM40.699 6.727L40.699 0 41.812 0 41.812 6.727zM43.336 6.727L43.336 0 44.449 0 44.449 6.727zM45.925 1.113V.048h1.28v1.065h-1.28zm.051 5.614V1.863h1.178v4.864h-1.178zM51.515 6.727v-.605c-.34.387-.847.701-1.573.701-.92 0-1.742-.532-1.742-1.5 0-1.04.847-1.573 1.984-1.573.58 0 .968.073 1.355.194v-.12c0-.678-.436-1.041-1.21-1.041-.532 0-.944.12-1.403.314l-.315-.895c.532-.242 1.065-.411 1.863-.411 1.428 0 2.13.75 2.13 2.056v2.88h-1.09zm.024-2.057c-.29-.121-.678-.194-1.113-.194-.702 0-1.113.29-1.113.775v.024c0 .46.411.726.943.726.726 0 1.283-.412 1.283-1.017V4.67zM55.071 6.727h-1.113V1.863h1.113v.75c.315-.46.775-.847 1.525-.847 1.089 0 1.742.726 1.742 1.863v3.098h-1.113V3.968c0-.75-.387-1.185-1.04-1.185-.654 0-1.09.46-1.09 1.21v2.734h-.024zM61.92 6.848c-1.453 0-2.517-1.138-2.517-2.517 0-1.403 1.064-2.565 2.516-2.565.92 0 1.5.34 1.936.847l-.702.75c-.339-.363-.702-.605-1.258-.605-.823 0-1.404.702-1.404 1.549 0 .871.605 1.573 1.452 1.573.533 0 .92-.242 1.259-.605l.677.653c-.46.532-1.016.92-1.96.92zM67.025 5.928c.532 0 .919-.193 1.33-.58l.654.58c-.46.557-1.09.92-1.984.92-1.404 0-2.493-1.017-2.493-2.541 0-1.403.992-2.54 2.372-2.54 1.548 0 2.322 1.21 2.322 2.637 0 .097 0 .193-.024.314h-3.58c.144.775.7 1.21 1.403 1.21zm1.088-1.96c-.072-.726-.508-1.282-1.234-1.282-.677 0-1.161.532-1.258 1.282h2.492z" transform="translate(-747 -2320) translate(0 93) translate(47 1925) translate(0 285) translate(700 17) translate(34.601 4.84)"/><path fill="#77787B" d="M2.734 12.534v.556H1.355v3.8h-.63v-3.8H.122v-.556h.605v-.387c0-.944.484-1.452 1.307-1.452.314 0 .508.024.725.12v.557c-.242-.072-.41-.12-.629-.12-.508 0-.75.314-.75.919v.363h1.355zM5.468 16.986c-1.306 0-2.274-1.04-2.274-2.274s.968-2.3 2.274-2.3c1.307 0 2.275 1.041 2.275 2.275.024 1.234-.944 2.299-2.275 2.299zm0-3.992c-.943 0-1.597.75-1.597 1.693 0 .944.702 1.718 1.622 1.718.943 0 1.597-.75 1.597-1.693.024-.968-.678-1.718-1.622-1.718zM9.606 16.865h-.653V12.51h.653v1.137c.315-.726.944-1.258 1.79-1.21v.702h-.048c-.943 0-1.742.677-1.742 2.008v1.718zM17.76 16.986c-1.863 0-3-1.355-3-3.049 0-1.62 1.186-3.073 2.976-3.073.992 0 1.621.29 2.202.775l-.436.508c-.46-.387-.967-.678-1.79-.678-1.307 0-2.25 1.113-2.25 2.444 0 1.428.895 2.468 2.347 2.468.677 0 1.306-.266 1.718-.58v-1.477h-1.79v-.605h2.443v2.348c-.605.483-1.428.919-2.42.919zM23.447 16.405c.604 0 1.016-.242 1.379-.605l.411.363c-.435.484-.968.823-1.79.823-1.21 0-2.178-.92-2.178-2.274 0-1.259.895-2.275 2.105-2.275 1.282 0 2.032 1.04 2.032 2.323v.193h-3.46c.049.92.726 1.452 1.5 1.452zm1.282-1.96c-.073-.798-.532-1.476-1.403-1.476-.75 0-1.331.63-1.428 1.476h2.83zM27.173 16.865h-.654V12.51h.654v.75c.29-.484.75-.847 1.5-.847 1.065 0 1.67.702 1.67 1.742v2.71h-.654v-2.54c0-.823-.435-1.307-1.21-1.307-.75 0-1.306.556-1.306 1.379v2.468zM33.73 16.986c-1.307 0-2.274-1.04-2.274-2.274s.967-2.3 2.274-2.3 2.275 1.041 2.275 2.275-.968 2.299-2.275 2.299zm0-3.992c-.944 0-1.597.75-1.597 1.693 0 .944.702 1.718 1.621 1.718.944 0 1.597-.75 1.597-1.693 0-.968-.701-1.718-1.62-1.718zM42.175 12.413c1.016 0 1.62.677 1.62 1.766v2.71h-.652v-2.565c0-.846-.412-1.306-1.138-1.306-.653 0-1.21.484-1.21 1.355v2.516h-.629V14.3c0-.822-.435-1.306-1.113-1.306-.701 0-1.21.58-1.21 1.379v2.492h-.653V12.51h.653v.726c.29-.436.678-.823 1.404-.823.702 0 1.161.387 1.403.87.315-.483.775-.87 1.525-.87zM45.248 11.542v-.726h1.28v.726h-1.28zm.04 5.323V12.51h1.116v4.355h-1.115zM49.41 16.986c-1.283 0-2.25-1.04-2.25-2.274s.967-2.3 2.25-2.3c.822 0 1.33.34 1.742.775l-.436.46c-.339-.363-.726-.653-1.33-.653-.896 0-1.574.75-1.574 1.693 0 .944.702 1.718 1.597 1.718.557 0 .993-.29 1.331-.653l.412.387c-.412.484-.92.847-1.743.847zM53.716 16.962c-.629 0-1.306-.242-1.814-.653l.338-.46c.484.363.993.556 1.5.556.533 0 .896-.266.896-.701v-.025c0-.435-.508-.605-1.089-.774-.677-.193-1.452-.435-1.452-1.234v-.024c0-.75.63-1.258 1.476-1.258.533 0 1.113.193 1.573.484l-.29.484c-.412-.267-.871-.412-1.283-.412-.508 0-.847.266-.847.63v.023c0 .412.533.581 1.113.75.678.194 1.404.46 1.404 1.259v.024c.024.847-.653 1.33-1.525 1.33zM68.186 14.203L68.186 16.865 67.509 16.865 67.509 10.961 68.186 10.961 68.186 13.598 71.598 13.598 71.598 10.961 72.275 10.961 72.275 16.865 71.598 16.865 71.598 14.203 68.186 14.203zM75.76 16.405c.604 0 1.016-.242 1.379-.605l.411.363c-.435.484-.968.823-1.79.823-1.21 0-2.178-.92-2.178-2.274 0-1.259.895-2.275 2.105-2.275 1.282 0 2.032 1.04 2.032 2.323v.193h-3.46c.073.92.75 1.452 1.5 1.452zm1.282-1.96c-.073-.798-.532-1.476-1.403-1.476-.75 0-1.331.63-1.428 1.476h2.831zM79.099 13.357l-.194-.533c.484-.218.944-.363 1.597-.363 1.186 0 1.863.605 1.863 1.767v2.661h-.629v-.677c-.314.387-.823.75-1.573.75-.798 0-1.62-.46-1.62-1.38 0-.919.75-1.427 1.862-1.427.557 0 .944.073 1.355.194v-.146c0-.774-.484-1.185-1.306-1.185-.557 0-.944.145-1.355.339zm.072 2.226c0 .556.508.87 1.09.87.798 0 1.45-.483 1.45-1.185v-.411c-.314-.097-.75-.194-1.282-.194-.798 0-1.258.363-1.258.92zM83.793 16.865L83.793 10.719 84.446 10.719 84.446 16.889 83.793 16.889zM86.842 15.631c0 .532.29.726.725.726.218 0 .412-.048.63-.145v.556c-.218.121-.484.194-.775.194-.701 0-1.234-.339-1.234-1.234V13.09h-.605v-.58h.605v-1.307h.654v1.307h1.379v.58h-1.38v2.541zM90.011 16.865h-.653v-6.146h.653v2.565c.29-.484.75-.847 1.5-.847 1.065 0 1.67.702 1.67 1.742v2.71h-.653v-2.565c0-.822-.436-1.306-1.21-1.306-.75 0-1.307.556-1.307 1.379v2.468zM62.839 13.816v-.726h-.654v.726H61.17c-.92 0-1.016-.605-1.016-.87 0-.509.387-.848.992-.848.145 0 .29.024.363.049l.17-.508c-.098-.025-.364-.073-.582-.073-.967 0-1.597.532-1.597 1.33 0 .872.654 1.114.678 1.114l.17.048-.17.049c-.532.169-.895.701-.895 1.33 0 .896.75 1.525 1.79 1.525 1.113 0 1.79-.678 1.79-1.815v-.75h.702v-.557h-.725v-.024zm-.726 1.307c0 .774-.387 1.186-1.09 1.186-.628 0-1.064-.388-1.064-.92 0-.58.436-.92 1.162-.944h1.016l-.024.678z" transform="translate(-747 -2320) translate(0 93) translate(47 1925) translate(0 285) translate(700 17) translate(34.601 4.84)"/></g></g></g></g></g></g></g></svg>