<svg xmlns="http://www.w3.org/2000/svg" width="86" height="63" viewBox="0 0 86 63"><g fill="none" fill-rule="evenodd"><g fill-rule="nonzero"><g><g><g><g><path fill="#65BC46" d="M37 6.743V0h-.106C35.258 0 33.623.103 32 .308L32.9 7c1.34-.171 2.688-.257 4.038-.257H37zM13.42 33.155l6.532.845c.17-1.352.523-2.675 1.048-3.935l-6.084-2.5L8.685 25c-.487 1.164-.896 2.358-1.223 3.576l-6.545-1.73C.51 28.349.205 29.874 0 31.415l6.723.872 6.698.87zM46.69 1L45 7.713c1.194.346 2.366.776 3.507 1.287L51 2.587C49.598 1.956 48.158 1.426 46.69 1zM23 54.865c-.782-.575-1.524-1.198-2.222-1.865L16 57.575c.903.868 1.864 1.678 2.878 2.425L23 54.865zM14.534 42.26L21 40.44c-.368-1.448-.557-2.94-.562-4.44h-6.69c.002 1.065.071 2.129.206 3.184l-6.8.937c-.169-1.357-.255-2.724-.257-4.093L0 36.021v.015c0 1.675.102 3.348.305 5.01.206 1.67.515 3.326.926 4.954l6.68-1.873 6.623-1.867z" transform="translate(-333 -2303) translate(0 93) translate(47 1925) translate(0 285) translate(286)"/><path fill="#65BC46" d="M24 46.69c-.43-.567-.824-1.163-1.18-1.782-.353-.614-.665-1.252-.936-1.908l-6.212 2.598c.385.93.829 1.832 1.33 2.703l-5.972 3.487L5 55.304C6.61 58.114 8.574 60.7 10.843 63l4.929-4.972c-.92-.931-1.78-1.922-2.573-2.966l5.47-4.236L24 46.69zM41 21.335c.741.179 1.469.4 2.178.665L46 15.943c-1.007-.375-2.04-.69-3.092-.943L41 21.335zM33.904 13.44l-.88-6.707c-1.277.169-2.54.42-3.784.753L27.497 1c-1.531.406-3.033.913-4.497 1.517l2.587 6.208 2.605 6.245c-.912.38-1.798.82-2.652 1.315L28.865 22c1.204-.7 2.497-1.239 3.844-1.6.674-.183 1.36-.32 2.054-.412.718-.099 1.442-.148 2.167-.15H37v-6.6h-.067c-1.013 0-2.025.068-3.03.203zM37.004 13.796c1.024.004 2.046.073 3.061.204L41 7.259c-1.326-.17-2.662-.256-4-.259l.004 6.796zM18.532 13.485L14.492 8c-1.23.982-2.396 2.048-3.492 3.19l4.696 4.898L20.397 21c1.375-1.435 2.922-2.679 4.603-3.7l-3.332-6.015c-1.09.66-2.138 1.396-3.136 2.2zM23.54 27c.45-.537.937-1.047 1.46-1.526L20.058 21c-.736.673-1.424 1.39-2.058 2.145L23.54 27z" transform="translate(-333 -2303) translate(0 93) translate(47 1925) translate(0 285) translate(286)"/><path fill="#65BC46" d="M7.754 14C6.748 15.282 5.828 16.627 5 18.026l6.147 3.487L17.29 25c.513-.88 1.084-1.724 1.711-2.53l-5.624-4.235L7.754 14zM54.972 5l-3.468 5.657L48 16.382c.88.486 1.727 1.026 2.532 1.618l4.258-5.24L59 7.575C57.718 6.634 56.372 5.774 54.972 5z" transform="translate(-333 -2303) translate(0 93) translate(47 1925) translate(0 285) translate(286)"/><path fill="#231F20" d="M51 10.81c-1.098-.683-2.237-1.287-3.409-1.81L45 15.606c.902.403 1.778.868 2.622 1.394L51 10.81zM39.93 14L39 20.59c.732.09 1.457.228 2.17.41L43 14.582c-1.009-.258-2.034-.453-3.07-.582zM36.933 7.002c-1.315 0-2.63.085-3.933.257L33.886 14c1.01-.136 2.028-.205 3.047-.208H37V7l-.067.002zM9 25.417L15.624 28c.397-.903.856-1.781 1.376-2.628L10.79 22c-.676 1.101-1.274 2.243-1.79 3.417zM15.418 58L20 53.225c-.665-.7-1.286-1.442-1.86-2.225L13 55.117c.745 1.014 1.553 1.978 2.418 2.883zM17 25.565L22.826 29c.35-.632.743-1.24 1.174-1.818L18.663 23c-.609.817-1.165 1.674-1.663 2.565zM14 36.964V37h6.855v-.032c.002-.701.05-1.402.145-2.097L14.202 34c-.132.983-.2 1.973-.202 2.964zM9.315 48L16 45.59c-.4-.843-.738-1.708-1.01-2.59L8 44.63c.354 1.147.793 2.273 1.315 3.37zM23 18.68L27.182 24c.579-.436 1.186-.834 1.818-1.192L25.55 17c-.886.504-1.738 1.066-2.55 1.68zM30.502 53c-.346.004-.69-.06-1.01-.19-.297-.12-.565-.3-.79-.527-.221-.23-.397-.499-.515-.795-.25-.636-.25-1.342 0-1.979.118-.296.293-.566.516-.794.224-.225.49-.403.785-.524.649-.255 1.371-.255 2.02 0 .297.122.566.302.791.53.223.228.398.498.516.794.247.637.247 1.342 0 1.98-.118.295-.294.565-.516.794-.225.227-.494.406-.79.527-.32.127-.663.19-1.007.184zm0-.605c.499.009.978-.195 1.316-.56.16-.174.285-.378.366-.6.171-.478.171-.998 0-1.476-.08-.223-.205-.428-.366-.603-.162-.171-.357-.31-.573-.405-.476-.202-1.015-.202-1.492 0-.216.096-.41.234-.573.405-.16.175-.285.38-.366.603-.171.478-.171.998 0 1.475.081.223.206.427.366.601.337.365.816.569 1.314.56h.008zM34 50.075h.64v.45h.02c.089-.163.237-.296.422-.379.212-.1.45-.15.69-.146.16 0 .318.022.469.066.146.041.28.11.391.2.118.098.209.216.267.348.07.16.105.332.1.504V53h-.642v-1.728c.004-.118-.018-.236-.064-.347-.035-.089-.094-.169-.17-.235-.07-.058-.154-.102-.246-.128-.093-.028-.19-.042-.289-.042-.126 0-.252.018-.371.056-.114.036-.217.096-.3.173-.09.088-.16.192-.2.304-.052.142-.076.29-.072.438v1.507h-.641L34 50.075zM38.99 50.363h-.794V52.007c.003.078.02.155.047.227.025.065.068.12.123.16.072.047.157.068.242.062.067 0 .135-.007.202-.02.067-.011.131-.035.19-.07v.529c-.08.043-.165.071-.254.082-.08.012-.161.02-.242.022-.17.008-.338-.023-.494-.093-.106-.054-.196-.138-.258-.242-.056-.102-.09-.216-.099-.333-.01-.122-.015-.243-.015-.364V50.37H37v-.511h.638V49h.558v.859h.792l.002.504z" transform="translate(-333 -2303) translate(0 93) translate(47 1925) translate(0 285) translate(286)"/><path fill="#231F20" d="M39.18 50.423c.183-.14.4-.249.635-.317.232-.069.476-.105.723-.106.22-.003.438.023.647.078.164.045.315.117.444.213.116.082.208.185.267.302.056.113.085.235.084.358v1.736c0 .085.012.17.02.241h-.578c-.015-.146-.02-.29-.02-.434h-.015c-.123.169-.301.305-.513.392-.217.08-.452.118-.689.114-.153 0-.306-.018-.454-.055-.14-.034-.269-.092-.38-.17-.11-.072-.197-.163-.257-.268-.142-.269-.122-.578.055-.833.103-.128.243-.233.407-.306.187-.083.39-.14.599-.17.243-.034.489-.051.735-.05h.477v-.12c0-.075-.018-.149-.051-.218-.072-.157-.22-.28-.408-.34-.115-.036-.237-.053-.36-.05-.111-.002-.222.008-.33.03-.088.018-.174.043-.257.075-.072.03-.14.065-.203.105l-.18.115-.399-.322zm1.832 1.132c-.158 0-.317.007-.474.022-.151.012-.3.04-.442.082-.123.034-.234.092-.324.17-.086.073-.131.173-.126.276-.014.14.064.277.203.357.164.078.351.116.54.108.156.004.312-.022.454-.076.118-.044.222-.111.304-.195.076-.08.133-.17.167-.269.033-.094.05-.193.05-.292v-.181l-.352-.002zM43 50.075h.658v.45h.014c.044-.078.103-.15.175-.212.073-.064.155-.119.244-.165.094-.046.193-.082.296-.108.105-.026.213-.04.321-.04.1-.001.198.012.292.038l-.029.598-.16-.031c-.053-.008-.107-.012-.16-.012-.273-.015-.541.067-.738.227-.19.201-.28.456-.255.711V53H43v-2.925zM45 49.372c0-.168.152-.316.37-.36.218-.043.449.028.562.173.114.146.082.33-.077.449-.093.071-.22.112-.353.112-.133 0-.26-.04-.352-.112-.097-.068-.151-.163-.15-.262zm.158.953h.684V53h-.684v-2.675zM47 51.5c-.002-.2.038-.4.116-.584.152-.362.438-.649.796-.8.377-.155.799-.155 1.176 0 .358.151.644.438.796.8.078.184.118.383.116.584.002.4-.155.783-.435 1.065-.138.136-.3.244-.477.319-.377.155-.799.155-1.176 0-.177-.075-.34-.183-.477-.32-.28-.28-.437-.664-.435-1.064zm.573 0c-.002.136.02.272.065.4.04.117.102.224.185.315.082.088.182.158.292.205.25.1.526.1.775 0 .11-.047.21-.117.292-.205.083-.09.146-.198.185-.314.087-.26.087-.542 0-.802-.04-.116-.102-.222-.185-.312-.082-.09-.181-.16-.292-.206-.249-.101-.526-.101-.775 0-.11.047-.21.117-.292.206-.083.09-.146.196-.185.312-.044.129-.067.265-.065.401zM52 49L53 49 53 53 52 53zM54 50.075h.642v.45h.014c.088-.163.236-.297.421-.379.212-.1.45-.15.69-.146.159 0 .316.022.466.066.15.04.287.108.401.2.116.099.207.217.267.348.07.16.103.332.099.504V53h-.64v-1.728c.002-.118-.02-.236-.065-.347-.036-.088-.094-.168-.17-.235-.07-.058-.155-.102-.247-.128-.092-.028-.19-.042-.287-.042-.126 0-.252.018-.371.056-.114.036-.217.095-.3.173-.09.088-.159.192-.2.304-.05.142-.073.29-.07.438v1.507h-.642L54 50.075z" transform="translate(-333 -2303) translate(0 93) translate(47 1925) translate(0 285) translate(286)"/><path fill="#231F20" d="M58.56 50.791c-.059-.081-.13-.15-.21-.202-.093-.055-.196-.083-.3-.08-.105-.005-.21.023-.3.08-.08.046-.13.139-.127.24-.003.075.023.15.072.202.05.054.108.097.171.128.068.033.138.056.21.07l.193.043c.098.027.195.062.29.103.085.036.164.089.233.156.065.065.116.144.15.234.041.107.06.222.058.339.004.144-.028.286-.092.411-.058.113-.138.208-.234.28-.1.074-.21.127-.327.157-.122.032-.246.048-.371.048-.188.004-.376-.033-.551-.109-.172-.083-.32-.22-.425-.396l.363-.339c.08.089.167.168.262.236.106.07.228.106.35.101.062 0 .124-.007.184-.022.058-.012.114-.033.167-.064.045-.03.085-.068.117-.115.03-.046.045-.102.045-.16.002-.073-.023-.145-.068-.198-.045-.053-.099-.095-.159-.123-.063-.031-.13-.056-.197-.073l-.184-.044c-.1-.03-.198-.062-.293-.097-.088-.033-.17-.082-.245-.144-.071-.06-.13-.139-.17-.228-.046-.106-.068-.222-.065-.34-.003-.134.026-.268.082-.387.054-.109.13-.203.22-.274.093-.077.197-.135.309-.17.113-.035.23-.054.348-.054.168 0 .335.037.49.108.156.072.287.199.373.361l-.37.322zM61.984 50.36h-.791V52c.002.08.019.16.048.236.027.064.069.12.123.16.073.046.158.068.244.061.067 0 .135-.007.202-.02.067-.011.131-.035.19-.07v.528c-.08.044-.165.071-.254.082-.08.012-.162.02-.244.022-.169.008-.337-.023-.492-.093-.107-.053-.197-.137-.26-.242-.055-.101-.088-.215-.097-.332-.01-.12-.015-.242-.015-.363v-1.593H60v-.519h.638V49h.551v.857h.792l.003.503zM62 49.377c-.002-.179.166-.334.4-.37.234-.035.47.058.561.223.092.165.016.356-.183.456-.198.1-.463.08-.632-.047-.094-.069-.147-.163-.146-.262zm.159.952h.676V53h-.685l.009-2.67zM65.988 50.363h-.791V52.007c.002.078.018.155.045.227.025.065.068.12.122.16.073.047.157.068.242.062.069 0 .137-.007.204-.02.067-.012.131-.036.19-.07v.529c-.08.044-.166.072-.256.082-.08.012-.16.02-.241.022-.17.008-.338-.023-.494-.093-.106-.054-.195-.138-.258-.242-.056-.102-.09-.216-.098-.333-.01-.124-.014-.248-.014-.364V50.37H64v-.51h.639V49h.551v.86h.791l.007.503zM69 52.927h-.644v-.452h-.014c-.088.163-.236.297-.42.38-.213.1-.453.149-.694.145-.16.001-.32-.02-.471-.065-.145-.041-.277-.11-.388-.2-.118-.098-.21-.216-.27-.347-.07-.16-.103-.332-.099-.503V50h.642v1.729c-.003.118.019.236.065.347.036.089.094.169.17.235.07.06.155.104.248.13.094.027.191.04.29.04.126.001.251-.018.37-.055.115-.036.217-.096.3-.174.091-.088.16-.193.2-.306.05-.142.074-.29.071-.438V50H69v2.927zM70.988 50.363h-.792V52.007c.004.078.02.154.047.227.025.065.068.12.123.16.072.047.157.068.242.062.067 0 .135-.007.202-.02.067-.012.131-.036.19-.07v.529c-.08.043-.165.071-.254.082-.08.012-.161.02-.242.022-.17.008-.338-.023-.494-.093-.106-.054-.196-.138-.258-.242-.056-.102-.09-.216-.099-.333-.01-.122-.015-.243-.015-.364V50.37H69v-.511h.638V49h.553v.859h.792l.005.504zM72.61 51.7c-.002.118.027.234.085.339.055.1.131.189.223.26.096.075.205.132.322.17.122.04.25.06.378.06.162.004.322-.037.46-.117.136-.084.256-.19.355-.31l.428.313c-.315.389-.808.606-1.323.583-.22.004-.437-.035-.64-.113-.184-.072-.35-.18-.486-.317-.134-.137-.238-.299-.305-.475-.073-.19-.109-.391-.107-.594-.002-.202.037-.403.116-.591.073-.177.182-.34.321-.477.14-.135.305-.242.488-.315.196-.078.407-.117.619-.115.231-.007.461.038.67.132.175.08.33.196.452.339.117.143.204.307.256.482.052.177.079.36.078.545v.192l-2.39.009zm1.791-.433c-.003-.115-.023-.23-.06-.339-.034-.097-.09-.186-.162-.261-.075-.075-.166-.133-.268-.17-.12-.044-.246-.065-.375-.062-.254-.003-.499.095-.674.271-.076.078-.137.169-.178.268-.043.092-.066.19-.068.292l1.785.001zM29.608 57.42H29v-.509h.616v-.69c-.022-.324.056-.647.221-.918.147-.202.4-.303.758-.303h.19c.073.005.145.018.215.039l-.06.521c-.049-.02-.1-.036-.151-.046-.052-.008-.104-.012-.157-.013-.083-.004-.166.013-.241.05-.06.03-.11.079-.143.14-.036.066-.06.14-.067.218-.01.096-.016.193-.015.29v.71h.647v.51h-.652V60h-.545l-.008-2.58zM31 58.501c-.002-.2.038-.4.117-.583.33-.768 1.21-1.123 1.971-.797.178.074.34.184.476.322.136.136.244.297.319.475.078.184.118.383.117.583 0 .202-.04.402-.117.588-.074.178-.183.34-.319.475-.44.429-1.089.554-1.654.319-.177-.075-.338-.184-.476-.319-.135-.136-.242-.297-.317-.475-.079-.185-.119-.386-.117-.588zm.572 0c-.002.136.02.272.065.4.076.235.25.425.476.519.249.1.525.1.774 0 .226-.094.4-.284.476-.519.045-.128.067-.264.065-.4.002-.136-.02-.271-.065-.4-.04-.116-.103-.222-.184-.312-.083-.088-.182-.157-.292-.205-.249-.1-.525-.1-.774 0-.11.048-.21.117-.292.205-.081.09-.144.196-.184.312-.044.129-.067.264-.065.4zM35 57.073h.656v.452h.014c.045-.078.104-.15.177-.212.072-.064.154-.119.244-.163.092-.047.191-.083.294-.108.105-.028.214-.042.323-.042.1 0 .198.013.292.038l-.03.599-.161-.032c-.053-.007-.107-.011-.16-.012-.272-.016-.539.067-.734.228-.19.2-.283.454-.257.71V60h-.656L35 57.073zM42.4 56.149c-.127-.175-.292-.314-.482-.403-.188-.093-.393-.142-.6-.142-.238-.003-.473.048-.689.151-.2.097-.378.238-.524.413-.149.18-.264.389-.338.615-.082.243-.123.499-.122.757 0 .243.038.484.114.713.073.218.185.418.33.59.146.173.324.31.524.404.222.101.462.152.704.147.235.006.468-.052.676-.168.196-.114.365-.275.494-.47l.513.41c-.054.075-.114.146-.178.211-.101.106-.214.2-.335.277-.159.1-.327.182-.503.242-.541.17-1.122.13-1.638-.112-.819-.41-1.342-1.283-1.346-2.244-.001-.348.06-.693.178-1.016.107-.3.27-.575.478-.807.208-.229.46-.409.738-.528.301-.128.624-.192.948-.189.299.003.594.067.87.19.277.114.52.307.7.558l-.513.4z" transform="translate(-333 -2303) translate(0 93) translate(47 1925) translate(0 285) translate(286)"/><path fill="#231F20" d="M43.177 57.418c.184-.141.4-.249.637-.316.235-.07.483-.104.733-.102.219-.003.437.024.645.08.165.044.316.115.446.21.11.085.198.189.256.304.055.114.083.235.084.358V59.688c0 .084.012.17.022.24h-.578c-.014-.144-.022-.29-.022-.434h-.015c-.122.169-.3.305-.513.392-.216.079-.45.118-.685.114-.155 0-.308-.017-.456-.055-.138-.032-.266-.087-.379-.16-.109-.073-.196-.164-.256-.269-.145-.269-.125-.58.053-.834.104-.128.243-.232.407-.304.19-.084.397-.142.61-.17.242-.035.487-.052.733-.05h.462v-.121c0-.074-.017-.148-.049-.217-.035-.073-.087-.14-.153-.195-.071-.06-.157-.108-.252-.14-.116-.035-.239-.053-.362-.05-.11-.002-.22.009-.328.03-.088.018-.174.043-.256.075-.072.029-.14.064-.204.105l-.181.115-.399-.342zm1.832 1.131c-.159 0-.317.008-.474.022-.15.012-.298.04-.44.082-.123.034-.235.092-.326.17-.084.074-.13.173-.126.276-.013.14.064.276.204.356.163.079.35.116.537.109.157.003.313-.023.456-.077.117-.045.221-.111.303-.195.077-.079.133-.17.167-.268.032-.095.049-.193.049-.292v-.181l-.35-.002zM47.002 57.073h.641v.452h.016c.088-.163.236-.296.42-.379.212-.1.45-.15.692-.146.16 0 .318.022.469.066.145.042.28.11.392.2.117.098.209.217.267.348.07.16.105.331.1.503V60h-.643v-1.729c.004-.118-.018-.236-.064-.347-.036-.088-.095-.169-.17-.235-.07-.059-.154-.103-.246-.129-.093-.027-.191-.04-.29-.04-.127-.001-.253.018-.372.056-.114.037-.216.096-.3.174-.09.088-.159.191-.2.304-.052.142-.076.291-.073.44V60H47l.002-2.927z" transform="translate(-333 -2303) translate(0 93) translate(47 1925) translate(0 285) translate(286)"/><path fill="#231F20" d="M52.526 57.818c-.105-.097-.229-.177-.365-.238-.144-.057-.3-.085-.458-.082-.156-.003-.31.025-.45.082-.126.053-.235.13-.321.224-.088.097-.155.207-.197.325-.044.127-.066.259-.064.391-.001.129.025.256.076.376.048.115.121.221.216.311.094.09.208.16.335.21.139.05.289.076.44.074.157.004.312-.024.454-.081.133-.059.251-.14.348-.238l.446.386c-.153.153-.348.27-.568.34-.22.068-.453.103-.688.102-.24.003-.477-.034-.7-.109-.205-.068-.392-.171-.548-.304-.155-.134-.277-.295-.356-.471-.087-.194-.13-.4-.126-.608-.003-.207.04-.414.126-.608.079-.178.198-.34.352-.476.154-.136.34-.242.544-.312.226-.077.466-.115.708-.112.238 0 .474.038.696.112.22.074.416.19.574.34l-.474.366zM53.609 58.698c-.002.118.027.235.085.339.055.1.13.19.222.263.097.073.206.13.323.17.122.04.25.06.378.059.162.003.321-.038.46-.117.135-.085.255-.19.355-.31l.428.313c-.315.39-.808.607-1.323.583-.219.004-.436-.035-.639-.113-.183-.072-.35-.18-.486-.316-.134-.138-.238-.3-.305-.476-.073-.19-.109-.391-.107-.594-.002-.202.038-.403.115-.591.075-.177.185-.34.324-.477.138-.136.304-.243.488-.315.195-.078.405-.117.617-.115.232-.007.462.04.671.134.174.08.328.195.45.339.119.142.206.306.255.481.053.177.08.36.08.544v.199h-2.391zm1.79-.434c-.004-.113-.025-.224-.061-.33-.066-.201-.223-.362-.428-.438-.12-.044-.248-.065-.376-.063-.254-.003-.498.096-.673.271-.075.079-.135.17-.178.268-.042.092-.065.191-.065.292h1.78zM57 57.073h.658v.452h.014c.044-.079.103-.15.175-.212.072-.064.155-.119.244-.164.093-.046.193-.082.296-.107.104-.028.212-.042.321-.042.1 0 .198.013.292.038l-.029.598-.16-.031c-.053-.008-.107-.012-.16-.012-.274-.016-.542.067-.738.23-.19.2-.281.453-.255.708V60H57v-2.927zM61.005 56.001h1.48c.23-.008.457.028.67.105.158.058.3.149.415.266.098.103.17.227.21.361.04.126.06.256.06.387 0 .127-.024.253-.071.371-.048.117-.117.225-.206.318-.093.1-.203.182-.327.244-.133.067-.28.108-.43.121L64 60h-.724l-1.07-1.764h-.635V60H61l.005-3.999zm.571 1.764h.749c.112 0 .224-.008.335-.026.102-.014.2-.046.291-.093.086-.046.157-.113.205-.195.103-.21.103-.451 0-.66-.048-.083-.118-.15-.205-.196-.09-.047-.189-.078-.291-.093-.11-.017-.223-.026-.335-.025h-.749v1.288zM65.606 58.698c-.002.118.028.234.085.339.056.1.132.19.224.263.096.073.205.13.321.17.122.04.25.06.379.059.162.004.321-.037.46-.117.135-.084.255-.19.355-.31l.428.313c-.315.39-.809.607-1.323.583-.219.003-.435-.036-.638-.113-.183-.072-.348-.18-.485-.316-.134-.138-.238-.3-.305-.476-.073-.19-.109-.391-.107-.594-.002-.202.037-.403.116-.591.074-.177.183-.34.321-.477.14-.135.305-.242.488-.315.196-.078.407-.117.619-.115.231-.007.461.04.67.134.176.08.33.195.452.339.118.142.205.306.256.481.052.177.079.36.078.544v.199h-2.394zm1.792-.434c-.004-.113-.024-.224-.06-.33-.035-.098-.09-.188-.162-.264-.076-.074-.167-.132-.268-.17-.12-.043-.247-.064-.375-.062-.131-.001-.262.024-.382.075-.11.047-.21.114-.293.196-.076.078-.136.17-.178.268-.043.092-.066.191-.067.292l1.785-.005zM69.56 57.791c-.058-.082-.13-.15-.21-.202-.093-.055-.197-.083-.301-.08-.105-.005-.209.023-.3.08-.08.045-.13.137-.127.238-.003.076.023.15.072.203.05.054.108.097.171.127.068.032.139.057.21.073l.193.04c.099.027.196.062.29.104.086.036.166.089.236.155.064.066.115.146.15.236.04.107.059.223.056.339.004.144-.028.287-.092.413-.059.112-.139.207-.234.28-.1.073-.211.126-.328.155-.122.032-.246.048-.37.048-.19.004-.377-.033-.552-.109-.173-.083-.32-.22-.424-.396l.362-.339c.079.09.167.169.261.236.107.07.229.106.352.101.062 0 .124-.007.185-.02.057-.014.113-.036.165-.066.046-.029.086-.068.117-.115.03-.046.046-.102.045-.16.002-.073-.022-.144-.066-.198-.045-.053-.1-.095-.16-.123-.064-.031-.13-.055-.197-.072l-.185-.045c-.102-.027-.2-.061-.293-.097-.088-.033-.17-.082-.245-.144-.072-.06-.13-.139-.171-.228-.045-.106-.066-.222-.063-.34-.004-.134.025-.268.082-.387.054-.109.128-.203.218-.274.094-.076.199-.133.31-.17.114-.035.231-.054.35-.054.168 0 .334.037.49.108.155.073.286.199.374.361l-.372.322zM71.609 58.698c-.002.118.028.234.085.339.056.1.132.19.224.263.096.074.205.13.321.17.122.04.25.06.378.059.162.003.322-.037.46-.117.135-.084.255-.19.355-.31l.43.313c-.316.39-.81.607-1.325.583-.218.003-.436-.035-.639-.113-.183-.071-.348-.179-.484-.316-.135-.138-.239-.3-.307-.476-.073-.19-.109-.391-.107-.594-.002-.202.038-.403.117-.591.074-.178.183-.34.322-.477.138-.135.304-.243.488-.315.195-.078.405-.117.617-.115.232-.007.462.04.671.134.175.08.328.196.451.339.118.142.204.306.254.481.053.177.08.36.08.544v.199h-2.391zm1.79-.434c-.003-.113-.024-.224-.061-.33-.066-.201-.223-.362-.428-.438-.12-.044-.247-.065-.374-.063-.132-.001-.262.024-.382.075-.11.047-.21.114-.293.196-.078.078-.142.169-.186.268-.043.092-.065.191-.066.292h1.79zM74.183 57.423c.184-.141.402-.249.638-.316.232-.07.477-.106.724-.107.22-.003.437.024.646.08.165.044.317.115.446.21.111.085.199.189.257.304.055.114.083.235.084.358V59.688c0 .084.012.17.022.24h-.575c-.014-.144-.022-.29-.022-.434h-.014c-.123.169-.302.305-.514.392-.216.079-.45.118-.687.114-.154 0-.308-.017-.456-.055-.138-.032-.267-.087-.38-.16-.108-.073-.196-.164-.256-.269-.145-.269-.125-.58.053-.834.104-.128.244-.232.407-.304.188-.084.391-.14.602-.17.242-.035.487-.052.733-.05h.477v-.121c0-.075-.017-.148-.05-.217-.035-.073-.086-.14-.152-.195-.071-.06-.157-.108-.252-.14-.116-.035-.24-.053-.363-.05-.11-.002-.22.009-.328.03-.088.018-.174.043-.257.075-.072.029-.14.064-.204.105l-.181.115-.398-.337zm1.835 1.131c-.159 0-.318.008-.475.022-.15.012-.298.04-.44.082-.124.034-.236.092-.326.17-.085.074-.13.173-.127.276-.014.14.064.277.204.356.163.079.35.116.538.109.157.004.313-.023.457-.077.117-.045.22-.111.303-.195.077-.078.133-.17.165-.268.034-.094.051-.193.051-.291v-.182l-.35-.002zM78 57.073h.658v.452h.014c.043-.079.102-.15.175-.212.072-.064.154-.119.244-.164.093-.046.193-.082.296-.107.104-.028.212-.042.321-.042.1 0 .198.013.292.038l-.029.598-.16-.031c-.054-.008-.108-.012-.162-.012-.273-.016-.54.068-.736.23-.19.2-.281.453-.255.708V60H78v-2.927zM82.516 57.823c-.105-.097-.228-.177-.365-.238-.14-.055-.294-.082-.448-.08-.156-.003-.31.025-.45.082-.126.052-.236.129-.321.224-.088.097-.155.207-.197.325-.043.125-.065.254-.064.384-.001.129.025.256.076.376.048.115.121.221.216.311.094.09.208.16.335.21.139.05.289.076.44.074.156.005.311-.023.452-.081.134-.059.253-.14.35-.238l.446.386c-.153.153-.348.27-.568.34-.22.068-.453.103-.688.102-.24.003-.478-.034-.702-.109-.204-.068-.39-.172-.546-.304-.156-.134-.277-.294-.356-.471-.087-.194-.13-.4-.126-.607-.003-.208.04-.415.126-.61.157-.36.482-.646.896-.787.226-.077.466-.115.708-.112.238 0 .473.037.694.112.22.074.417.19.576.34l-.484.371zM83 55h.64v2.35h.014c.088-.176.236-.319.421-.408.212-.106.45-.159.69-.155.159 0 .316.023.466.07.15.042.286.115.401.213.117.105.208.232.267.373.07.172.105.355.1.539V60h-.641v-1.852c.003-.127-.02-.254-.065-.373-.036-.095-.094-.18-.17-.252-.07-.064-.154-.112-.247-.14-.093-.028-.19-.042-.287-.042-.126-.001-.252.019-.371.06-.114.038-.217.102-.299.186-.091.094-.16.206-.2.328-.05.152-.074.31-.07.47v1.613h-.641L83 55zM36.025 27C30.737 27 27 31.102 27 36v.05c0 4.897 3.689 8.95 8.975 8.95S45 40.898 45 36v-.049C45 31.053 41.311 27 36.025 27zm5.801 9.043c0 3.38-2.384 6.14-5.801 6.14-3.417 0-5.853-2.81-5.853-6.19v-.05c0-3.381 2.384-6.14 5.803-6.14S41.819 32.62 41.819 36l.007.043zM48 28H51V45H48zM62.004 42.195c-3.351 0-5.776-2.786-5.776-6.191v-.05c0-3.405 2.425-6.14 5.776-6.14 2.002 0 3.5.87 4.902 2.162l1.976-2.263C67.206 28.123 65.256 27 62.03 27 56.726 27 53 31.053 53 36v.05c0 4.998 3.803 8.95 8.904 8.95 3.275 0 5.277-1.194 7.096-3.084l-1.974-1.99c-1.496 1.399-2.871 2.269-5.022 2.269zM81.55 38.566c2.31-.678 3.935-2.354 3.935-5.151v-.05c0-1.48-.495-2.742-1.372-3.666C83.051 28.639 81.425 28 79.349 28H72v17h2.9v-5.923h3.63L82.587 45H86l-4.45-6.434zm-6.65-2.135v-5.704h4.22c2.147 0 3.42.994 3.42 2.815v.05c0 1.723-1.321 2.84-3.395 2.84h-4.246z" transform="translate(-333 -2303) translate(0 93) translate(47 1925) translate(0 285) translate(286)"/></g></g></g></g></g></g></svg>