<svg xmlns="http://www.w3.org/2000/svg" xmlns:svg="http://www.w3.org/2000/svg" id="white_outlined" width="405.22" height="95.9" x="0" y="0" version="1.1" viewBox="0 0 405.22 95.9" xml:space="preserve"><metadata id="metadata55"/><style id="style2" type="text/css">.st0{fill:#7986cb}.st1{fill:#fff}.st2{fill:#c5cae9}</style><g id="g48" transform="translate(-8.08,-9.54)"><g id="g26"><polygon id="polygon4" points="8.08 28 58.16 9.54 58.16 105.44 8.08 86.98" class="st0" style="fill:#7986cb"/><polygon id="polygon6" points="62.85 9.54 147.39 31.43 147.39 83.55 62.85 105.44" class="st0" style="fill:#7986cb"/><path id="path8" d="M 38.48,64.23 C 37.89,64.19 37.31,64.22 36.76,64.3 L 31.3,42.38 c 2.17,-1.47 3.75,-4.46 3.76,-7.68 0.01,-4.29 -2.78,-6.98 -6.04,-6.06 -3.06,0.87 -5.41,4.64 -5.41,8.47 0,2.12 0.71,3.92 1.87,5.03 l -9.17,18.95 c -0.37,-0.24 -0.78,-0.39 -1.21,-0.41 -1.68,-0.07 -3,1.88 -3,4.34 0,2.46 1.31,4.65 2.99,4.9 1.19,0.17 2.25,-0.67 2.81,-2.05 l 10.86,5.05 c -0.12,0.73 -0.19,1.49 -0.19,2.28 -0.01,6.41 4.18,12.83 9.86,14.51 6.34,1.87 12.05,-2.78 12.07,-10.58 0.02,-7.81 -5.67,-14.5 -12.02,-14.9 z m -20.19,2.06 c 0.02,-0.22 0.04,-0.45 0.04,-0.68 0,-1.24 -0.32,-2.38 -0.84,-3.25 l 9.35,-19.32 c 0.66,0.27 1.39,0.38 2.17,0.27 0.28,-0.04 0.56,-0.11 0.83,-0.2 l 5.37,21.55 c -2.89,0.96 -5.08,3.43 -6.06,6.69 z" class="st1" style="fill:#fff"/><path id="path10" d="m 80.51,87.48 c -0.81,0 -1.46,-0.65 -1.46,-1.46 V 26.79 c 0,-0.81 0.66,-1.46 1.46,-1.46 0.8,0 1.46,0.65 1.46,1.46 v 59.23 c 0,0.81 -0.65,1.46 -1.46,1.46 z" class="st2" style="fill:#c5cae9"/><path id="path12" d="m 93.17,85.25 c -0.81,0 -1.46,-0.65 -1.46,-1.46 V 29.03 c 0,-0.81 0.66,-1.46 1.46,-1.46 0.81,0 1.46,0.65 1.46,1.46 v 54.75 c 0,0.81 -0.65,1.47 -1.46,1.47 z" class="st2" style="fill:#c5cae9"/><path id="path14" d="m 104.06,83.33 c -0.81,0 -1.46,-0.65 -1.46,-1.46 v -50.9 c 0,-0.81 0.66,-1.46 1.46,-1.46 0.8,0 1.46,0.65 1.46,1.46 v 50.9 c 0,0.81 -0.66,1.46 -1.46,1.46 z" class="st2" style="fill:#c5cae9"/><path id="path16" d="m 113.51,81.79 c -0.81,0 -1.46,-0.65 -1.46,-1.46 V 32.77 c 0,-0.81 0.66,-1.46 1.46,-1.46 0.8,0 1.46,0.65 1.46,1.46 v 47.56 c 0,0.81 -0.65,1.46 -1.46,1.46 z" class="st2" style="fill:#c5cae9"/><path id="path18" d="m 121.8,80.39 c -0.81,0 -1.46,-0.65 -1.46,-1.46 V 34.29 c 0,-0.81 0.66,-1.46 1.46,-1.46 0.8,0 1.46,0.65 1.46,1.46 v 44.63 c 0,0.81 -0.65,1.47 -1.46,1.47 z" class="st2" style="fill:#c5cae9"/><path id="path20" d="m 129.13,79.14 c -0.81,0 -1.46,-0.65 -1.46,-1.46 V 35.64 c 0,-0.81 0.66,-1.46 1.46,-1.46 0.81,0 1.46,0.65 1.46,1.46 v 42.04 c 0,0.81 -0.65,1.46 -1.46,1.46 z" class="st2" style="fill:#c5cae9"/><path id="path22" d="m 135.65,78.03 c -0.81,0 -1.46,-0.65 -1.46,-1.46 V 36.84 c 0,-0.81 0.66,-1.46 1.46,-1.46 0.81,0 1.46,0.65 1.46,1.46 v 39.73 c 0.01,0.81 -0.65,1.46 -1.46,1.46 z" class="st2" style="fill:#c5cae9"/><path id="path24" d="m 141.5,77.04 c -0.81,0 -1.46,-0.65 -1.46,-1.46 V 37.91 c 0,-0.81 0.66,-1.46 1.46,-1.46 0.81,0 1.46,0.65 1.46,1.46 v 37.67 c 0,0.81 -0.66,1.46 -1.46,1.46 z" class="st2" style="fill:#c5cae9"/></g><g id="g46"><path id="path28" d="m 160.7,40.21 h 13.65 c 11,0 18.6,7.55 18.6,17.4 v 0.1 c 0,9.85 -7.6,17.5 -18.6,17.5 H 160.7 Z m 13.65,28.05 c 6.3,0 10.55,-4.25 10.55,-10.45 v -0.1 c 0,-6.2 -4.25,-10.55 -10.55,-10.55 h -5.95 v 21.1 z" class="st1" style="fill:#fff"/><path id="path30" d="m 197.7,61.96 v -0.1 c 0,-7.7 6.2,-13.95 14.55,-13.95 8.3,0 14.45,6.15 14.45,13.85 v 0.1 c 0,7.7 -6.2,13.95 -14.55,13.95 -8.3,0 -14.45,-6.15 -14.45,-13.85 z m 21.5,0 v -0.1 c 0,-3.95 -2.85,-7.4 -7.05,-7.4 -4.35,0 -6.95,3.35 -6.95,7.3 v 0.1 c 0,3.95 2.85,7.4 7.05,7.4 4.35,0 6.95,-3.35 6.95,-7.3 z" class="st1" style="fill:#fff"/><path id="path32" d="m 230.9,61.96 v -0.1 c 0,-7.65 5.85,-13.95 14.05,-13.95 5.05,0 8.2,1.7 10.7,4.5 l -4.65,5 c -1.7,-1.8 -3.4,-2.95 -6.1,-2.95 -3.8,0 -6.5,3.35 -6.5,7.3 v 0.1 c 0,4.1 2.65,7.4 6.8,7.4 2.55,0 4.3,-1.1 6.15,-2.85 l 4.45,4.5 c -2.6,2.85 -5.6,4.9 -10.95,4.9 -8.05,0 -13.95,-6.2 -13.95,-13.85 z" class="st1" style="fill:#fff"/><path id="path34" d="m 260.75,38.71 h 7.6 v 19.45 l 8.9,-9.75 h 9.1 l -10.2,10.55 10.55,16.25 H 278 l -7,-10.95 -2.65,2.8 v 8.15 h -7.6 z" class="st1" style="fill:#fff"/><path id="path36" d="m 288.25,71.66 3.25,-5 c 2.9,2.1 5.95,3.2 8.45,3.2 2.2,0 3.2,-0.8 3.2,-2 v -0.1 c 0,-1.65 -2.6,-2.2 -5.55,-3.1 -3.75,-1.1 -8,-2.85 -8,-8.05 v -0.1 c 0,-5.45 4.4,-8.5 9.8,-8.5 3.4,0 7.1,1.15 10,3.1 l -2.9,5.25 c -2.65,-1.55 -5.3,-2.5 -7.25,-2.5 -1.85,0 -2.8,0.8 -2.8,1.85 v 0.1 c 0,1.5 2.55,2.2 5.45,3.2 3.75,1.25 8.1,3.05 8.1,7.95 v 0.1 c 0,5.95 -4.45,8.65 -10.25,8.65 -3.75,0 -7.95,-1.25 -11.5,-4.05 z" class="st1" style="fill:#fff"/><path id="path38" d="M 316.2,67.61 V 54.91 H 313 v -6.5 h 3.2 v -6.85 h 7.6 v 6.85 h 6.3 v 6.5 h -6.3 v 11.45 c 0,1.75 0.75,2.6 2.45,2.6 1.4,0 2.65,-0.35 3.75,-0.95 v 6.1 c -1.6,0.95 -3.45,1.55 -6,1.55 -4.65,0 -7.8,-1.85 -7.8,-8.05 z" class="st1" style="fill:#fff"/><path id="path40" d="m 333.65,61.96 v -0.1 c 0,-7.7 6.2,-13.95 14.55,-13.95 8.3,0 14.45,6.15 14.45,13.85 v 0.1 c 0,7.7 -6.2,13.95 -14.55,13.95 -8.3,0 -14.45,-6.15 -14.45,-13.85 z m 21.5,0 v -0.1 c 0,-3.95 -2.85,-7.4 -7.05,-7.4 -4.35,0 -6.95,3.35 -6.95,7.3 v 0.1 c 0,3.95 2.85,7.4 7.05,7.4 4.35,0 6.95,-3.35 6.95,-7.3 z" class="st1" style="fill:#fff"/><path id="path42" d="m 368.15,48.41 h 7.6 v 5.4 c 1.55,-3.7 4.05,-6.1 8.55,-5.9 v 7.95 h -0.4 c -5.05,0 -8.15,3.05 -8.15,9.45 v 9.9 h -7.6 z" class="st1" style="fill:#fff"/><path id="path44" d="m 387,61.96 v -0.1 c 0,-7.65 5.45,-13.95 13.25,-13.95 8.95,0 13.05,6.95 13.05,14.55 0,0.6 -0.05,1.3 -0.1,2 h -18.65 c 0.75,3.45 3.15,5.25 6.55,5.25 2.55,0 4.4,-0.8 6.5,-2.75 l 4.35,3.85 c -2.5,3.1 -6.1,5 -10.95,5 -8.05,0 -14,-5.65 -14,-13.85 z m 18.9,-2.25 c -0.45,-3.4 -2.45,-5.7 -5.65,-5.7 -3.15,0 -5.2,2.25 -5.8,5.7 z" class="st1" style="fill:#fff"/></g></g></svg>