<svg xmlns="http://www.w3.org/2000/svg" xmlns:xlink="http://www.w3.org/1999/xlink" id="white_outlined" x="0" y="0" version="1.1" viewBox="0 0 423.63 114.98" xml:space="preserve" style="enable-background:new 0 0 423.63 114.98"><style type="text/css">.st0{fill:#7986cb}.st1{fill:#fff}.st2{fill:#c5cae9}</style><g><g><polygon points="58.16 105.44 8.08 86.98 8.08 28 58.16 9.54" class="st0"/><polygon points="147.39 83.55 62.85 105.44 62.85 9.54 147.39 31.43" class="st0"/><path d="M38.48,64.23c-0.59-0.04-1.17-0.01-1.72,0.07L31.3,42.38c2.17-1.47,3.75-4.46,3.76-7.68 c0.01-4.29-2.78-6.98-6.04-6.06c-3.06,0.87-5.41,4.64-5.41,8.47c0,2.12,0.71,3.92,1.87,5.03l-9.17,18.95 c-0.37-0.24-0.78-0.39-1.21-0.41c-1.68-0.07-3,1.88-3,4.34c0,2.46,1.31,4.65,2.99,4.9c1.19,0.17,2.25-0.67,2.81-2.05l10.86,5.05 c-0.12,0.73-0.19,1.49-0.19,2.28c-0.01,6.41,4.18,12.83,9.86,14.51c6.34,1.87,12.05-2.78,12.07-10.58 C50.52,71.32,44.83,64.63,38.48,64.23z M18.29,66.29c0.02-0.22,0.04-0.45,0.04-0.68c0-1.24-0.32-2.38-0.84-3.25l9.35-19.32 c0.66,0.27,1.39,0.38,2.17,0.27c0.28-0.04,0.56-0.11,0.83-0.2l5.37,21.55c-2.89,0.96-5.08,3.43-6.06,6.69L18.29,66.29z" class="st1"/><path d="M80.51,87.48c-0.81,0-1.46-0.65-1.46-1.46V26.79c0-0.81,0.66-1.46,1.46-1.46s1.46,0.65,1.46,1.46v59.23 C81.97,86.83,81.32,87.48,80.51,87.48z" class="st2"/><path d="M93.17,85.25c-0.81,0-1.46-0.65-1.46-1.46V29.03c0-0.81,0.66-1.46,1.46-1.46c0.81,0,1.46,0.65,1.46,1.46 v54.75C94.63,84.59,93.98,85.25,93.17,85.25z" class="st2"/><path d="M104.06,83.33c-0.81,0-1.46-0.65-1.46-1.46v-50.9c0-0.81,0.66-1.46,1.46-1.46s1.46,0.65,1.46,1.46v50.9 C105.52,82.68,104.86,83.33,104.06,83.33z" class="st2"/><path d="M113.51,81.79c-0.81,0-1.46-0.65-1.46-1.46V32.77c0-0.81,0.66-1.46,1.46-1.46s1.46,0.65,1.46,1.46v47.56 C114.97,81.14,114.32,81.79,113.51,81.79z" class="st2"/><path d="M121.8,80.39c-0.81,0-1.46-0.65-1.46-1.46V34.29c0-0.81,0.66-1.46,1.46-1.46s1.46,0.65,1.46,1.46v44.63 C123.26,79.73,122.61,80.39,121.8,80.39z" class="st2"/><path d="M129.13,79.14c-0.81,0-1.46-0.65-1.46-1.46V35.64c0-0.81,0.66-1.46,1.46-1.46c0.81,0,1.46,0.65,1.46,1.46 v42.04C130.59,78.49,129.94,79.14,129.13,79.14z" class="st2"/><path d="M135.65,78.03c-0.81,0-1.46-0.65-1.46-1.46V36.84c0-0.81,0.66-1.46,1.46-1.46c0.81,0,1.46,0.65,1.46,1.46 v39.73C137.12,77.38,136.46,78.03,135.65,78.03z" class="st2"/><path d="M141.5,77.04c-0.81,0-1.46-0.65-1.46-1.46V37.91c0-0.81,0.66-1.46,1.46-1.46c0.81,0,1.46,0.65,1.46,1.46 v37.67C142.96,76.39,142.3,77.04,141.5,77.04z" class="st2"/></g><g><path d="M160.7,40.21h13.65c11,0,18.6,7.55,18.6,17.4v0.1c0,9.85-7.6,17.5-18.6,17.5H160.7V40.21z M174.35,68.26 c6.3,0,10.55-4.25,10.55-10.45v-0.1c0-6.2-4.25-10.55-10.55-10.55h-5.95v21.1H174.35z" class="st1"/><path d="M197.7,61.96v-0.1c0-7.7,6.2-13.95,14.55-13.95c8.3,0,14.45,6.15,14.45,13.85v0.1 c0,7.7-6.2,13.95-14.55,13.95C203.85,75.81,197.7,69.66,197.7,61.96z M219.2,61.96v-0.1c0-3.95-2.85-7.4-7.05-7.4 c-4.35,0-6.95,3.35-6.95,7.3v0.1c0,3.95,2.85,7.4,7.05,7.4C216.6,69.26,219.2,65.91,219.2,61.96z" class="st1"/><path d="M230.9,61.96v-0.1c0-7.65,5.85-13.95,14.05-13.95c5.05,0,8.2,1.7,10.7,4.5l-4.65,5 c-1.7-1.8-3.4-2.95-6.1-2.95c-3.8,0-6.5,3.35-6.5,7.3v0.1c0,4.1,2.65,7.4,6.8,7.4c2.55,0,4.3-1.1,6.15-2.85l4.45,4.5 c-2.6,2.85-5.6,4.9-10.95,4.9C236.8,75.81,230.9,69.61,230.9,61.96z" class="st1"/><path d="M260.75,38.71h7.6v19.45l8.9-9.75h9.1l-10.2,10.55l10.55,16.25H278l-7-10.95l-2.65,2.8v8.15h-7.6V38.71z" class="st1"/><path d="M288.25,71.66l3.25-5c2.9,2.1,5.95,3.2,8.45,3.2c2.2,0,3.2-0.8,3.2-2v-0.1c0-1.65-2.6-2.2-5.55-3.1 c-3.75-1.1-8-2.85-8-8.05v-0.1c0-5.45,4.4-8.5,9.8-8.5c3.4,0,7.1,1.15,10,3.1l-2.9,5.25c-2.65-1.55-5.3-2.5-7.25-2.5 c-1.85,0-2.8,0.8-2.8,1.85v0.1c0,1.5,2.55,2.2,5.45,3.2c3.75,1.25,8.1,3.05,8.1,7.95v0.1c0,5.95-4.45,8.65-10.25,8.65 C296,75.71,291.8,74.46,288.25,71.66z" class="st1"/><path d="M316.2,67.61v-12.7H313v-6.5h3.2v-6.85h7.6v6.85h6.3v6.5h-6.3v11.45c0,1.75,0.75,2.6,2.45,2.6 c1.4,0,2.65-0.35,3.75-0.95v6.1c-1.6,0.95-3.45,1.55-6,1.55C319.35,75.66,316.2,73.81,316.2,67.61z" class="st1"/><path d="M333.65,61.96v-0.1c0-7.7,6.2-13.95,14.55-13.95c8.3,0,14.45,6.15,14.45,13.85v0.1 c0,7.7-6.2,13.95-14.55,13.95C339.8,75.81,333.65,69.66,333.65,61.96z M355.15,61.96v-0.1c0-3.95-2.85-7.4-7.05-7.4 c-4.35,0-6.95,3.35-6.95,7.3v0.1c0,3.95,2.85,7.4,7.05,7.4C352.55,69.26,355.15,65.91,355.15,61.96z" class="st1"/><path d="M368.15,48.41h7.6v5.4c1.55-3.7,4.05-6.1,8.55-5.9v7.95h-0.4c-5.05,0-8.15,3.05-8.15,9.45v9.9h-7.6V48.41z" class="st1"/><path d="M387,61.96v-0.1c0-7.65,5.45-13.95,13.25-13.95c8.95,0,13.05,6.95,13.05,14.55c0,0.6-0.05,1.3-0.1,2h-18.65 c0.75,3.45,3.15,5.25,6.55,5.25c2.55,0,4.4-0.8,6.5-2.75l4.35,3.85c-2.5,3.1-6.1,5-10.95,5C392.95,75.81,387,70.16,387,61.96z M405.9,59.71c-0.45-3.4-2.45-5.7-5.65-5.7c-3.15,0-5.2,2.25-5.8,5.7H405.9z" class="st1"/></g></g></svg>