<svg xmlns="http://www.w3.org/2000/svg" width="13" height="12" fill="none" viewBox="0 0 13 12"><path fill="#3F51B5" fill-rule="evenodd" d="M11.8249 4.65375L10.9383 4.49156C10.4548 4.36969 10.1729 3.6825 10.4548 3.2775L10.9383 2.54906C11.0195 2.42719 11.0195 2.22563 10.8981 2.145L9.97134 1.21406C9.85 1.09219 9.68947 1.05187 9.52894 1.17375L8.84387 1.65937C8.40054 1.90219 7.71547 1.61906 7.6352 1.13344L7.47374 0.283125C7.4336 0.121875 7.27214 0 7.15174 0H5.82174C5.6612 0 5.53987 0.121875 5.49974 0.283125L5.33827 1.13344C5.21694 1.61906 4.5328 1.90219 4.1296 1.65844L3.4044 1.17375C3.28307 1.05187 3.0824 1.09219 3.00214 1.21406L2.07534 2.145C1.954 2.22563 1.91387 2.42813 2.0352 2.54906L2.51867 3.2775C2.7604 3.6825 2.47854 4.37063 1.99507 4.49156L1.14854 4.65375C0.988002 4.69406 0.866669 4.81594 0.866669 4.97719V6.31313C0.866669 6.435 0.988002 6.59625 1.14854 6.63656L1.99507 6.79875C2.47854 6.87937 2.7604 7.5675 2.51774 8.01281L2.0352 8.70094C1.91387 8.86219 1.954 9.02437 2.07534 9.14531L3.00214 10.0763C3.0824 10.1981 3.284 10.1981 3.4044 10.1166L4.1296 9.63094C4.5328 9.34781 5.21787 9.63094 5.33827 10.1166L5.49974 11.0072C5.53987 11.1694 5.6612 11.25 5.82174 11.25H7.15174C7.27307 11.25 7.4336 11.1694 7.47374 11.0072L7.6352 10.1166C7.71547 9.63094 8.40054 9.34781 8.84387 9.63094L9.52894 10.1166C9.68947 10.1981 9.85094 10.1981 9.97134 10.0763L10.8981 9.14531C11.0195 9.02344 11.0195 8.86219 10.9383 8.70094L10.4548 8.01281C10.1729 7.5675 10.4548 6.87937 10.9383 6.79875L11.8249 6.63656C11.9864 6.59625 12.0667 6.43406 12.0667 6.31313V4.97719C12.0667 4.81594 11.9864 4.69406 11.8249 4.65375ZM6.46667 3.11625C7.876 3.11625 9.00534 4.24875 9.00534 5.625C9.00534 7.04063 7.876 8.175 6.46667 8.175C5.09654 8.175 3.96907 7.04063 3.96907 5.625C3.96907 4.24875 5.09654 3.11625 6.46667 3.11625Z" clip-rule="evenodd"/></svg>