<svg xmlns="http://www.w3.org/2000/svg" width="14" height="14" viewBox="0 0 14 14"><g fill="none" fill-rule="evenodd"><g fill="#3F51B5"><g><g><g><g><g><g><g><g><path d="M5.878 13.666v-1.133c-1.801.401-2.184-.893-2.184-.893-.113-.398-.362-.743-.702-.975-.587-.412.045-.405.045-.405.42.062.787.316.994.686.347.67 1.169.93 1.837.583l.049-.027c.03-.336.175-.652.41-.893-1.44-.166-2.953-.74-2.953-3.29-.011-.659.227-1.298.667-1.787-.194-.575-.17-1.202.067-1.76 0 0 .544-.179 1.78.683 1.062-.3 2.186-.3 3.249 0 1.236-.862 1.78-.683 1.78-.683.239.558.261 1.186.063 1.76.44.49.678 1.128.667 1.787 0 2.558-1.517 3.12-2.96 3.286.314.33.473.78.439 1.235v1.826c0 .218.116.384.446.32 2.675-.945 4.455-3.49 4.428-6.333.042-3.631-2.86-6.61-6.485-6.653h-.032C3.857 1.046.956 4.028 1 7.66c-.027 2.845 1.756 5.39 4.434 6.333.324.046.443-.158.443-.327" transform="translate(-118 -795) translate(-2) translate(91) translate(12.526 301.699) translate(0 306) translate(1 179) translate(15 8)"/></g></g></g></g></g></g></g></g></g></g></svg>