<svg xmlns="http://www.w3.org/2000/svg" width="12" height="12" viewBox="0 0 12 12">
    <g fill="none" fill-rule="evenodd">
        <g fill="#3F51B5">
            <g>
                <g>
                    <g>
                        <g>
                            <g>
                                <g>
                                    <g>
                                        <g>
                                            <g>
                                                <g>
                                                    <g>
                                                        <g>
                                                            <g>
                                                                <path d="M11.741 4.964l-.95-.173c-.518-.13-.82-.863-.518-1.295l.518-.777c.087-.13.087-.345-.043-.431l-.993-.993c-.13-.13-.302-.173-.474-.043l-.734.518c-.475.259-1.209-.043-1.295-.561L7.079.302C7.036.13 6.863 0 6.734 0H5.309c-.172 0-.302.13-.345.302l-.173.907c-.13.518-.863.82-1.295.56l-.777-.517c-.13-.13-.345-.087-.431.043l-.993.993c-.13.086-.173.302-.043.431l.518.777c.259.432-.043 1.166-.561 1.295l-.907.173C.13 5.007 0 5.137 0 5.309v1.425c0 .13.13.302.302.345l.907.173c.518.086.82.82.56 1.295l-.517.734c-.13.172-.087.345.043.474l.993.993c.086.13.302.13.431.043l.777-.518c.432-.302 1.166 0 1.295.518l.173.95c.043.173.173.259.345.259h1.425c.13 0 .302-.086.345-.259l.173-.95c.086-.518.82-.82 1.295-.518l.734.518c.172.087.345.087.474-.043l.993-.993c.13-.13.13-.302.043-.474l-.518-.734c-.302-.475 0-1.209.518-1.295l.95-.173c.173-.043.259-.216.259-.345V5.309c0-.172-.086-.302-.259-.345zM6 3.324c1.51 0 2.72 1.208 2.72 2.676 0 1.51-1.21 2.72-2.72 2.72-1.468 0-2.676-1.21-2.676-2.72 0-1.468 1.208-2.676 2.676-2.676z" transform="translate(-1224 -523) translate(-2) translate(409 113) translate(2 70) translate(0 167) translate(0 64) translate(17 54) translate(788) translate(0 48) translate(10 7)"/>
                                                            </g>
                                                        </g>
                                                    </g>
                                                </g>
                                            </g>
                                        </g>
                                    </g>
                                </g>
                            </g>
                        </g>
                    </g>
                </g>
            </g>
        </g>
    </g>
</svg>
