<svg xmlns="http://www.w3.org/2000/svg" width="12" height="12" viewBox="0 0 12 12">
    <g fill="none" fill-rule="evenodd">
        <g fill="#3F51B5">
            <g>
                <g>
                    <g>
                        <g>
                            <g>
                                <g>
                                    <g>
                                        <g>
                                            <g>
                                                <g>
                                                    <g>
                                                        <path d="M10.8 7.188H7.2v3.624C7.2 11.465 6.66 12 6 12c-.66 0-1.2-.535-1.2-1.188V7.188H1.2C.54 7.188 0 6.653 0 6c0-.653.54-1.188 1.2-1.188h3.6V1.188C4.8.535 5.34 0 6 0c.66 0 1.2.535 1.2 1.188v3.624h3.6c.66 0 1.2.535 1.2 1.188 0 .653-.54 1.188-1.2 1.188" transform="translate(-1282 -605) translate(-2) translate(409 113) translate(1 70) translate(0 167) translate(0 64) translate(1) translate(16 112) translate(779 9) translate(78 69) translate(0 1)"/>
                                                    </g>
                                                </g>
                                            </g>
                                        </g>
                                    </g>
                                </g>
                            </g>
                        </g>
                    </g>
                </g>
            </g>
        </g>
    </g>
</svg>
