<svg xmlns="http://www.w3.org/2000/svg" width="12" height="12" viewBox="0 0 12 12">
    <g fill="none" fill-rule="evenodd">
        <g fill="#3F51B5">
            <g>
                <g>
                    <g>
                        <g>
                            <g>
                                <g>
                                    <g>
                                        <g>
                                            <g>
                                                <path d="M9.333 1h-8C.593 1 0 1.6 0 2.333v9.334C0 12.4.593 13 1.333 13h9.334C11.4 13 12 12.4 12 11.667v-8L9.333 1zM6 10.767c-1.107 0-2-.894-2-2 0-1.107.893-2 2-2s2 .893 2 2c0 1.106-.893 2-2 2zM8 4.1H1.333V1.433H8V4.1z" transform="translate(-550 -370) translate(-2) translate(409 113) translate(1 70) translate(3) translate(49 73) translate(0 107) translate(80) translate(10 6)"/>
                                            </g>
                                        </g>
                                    </g>
                                </g>
                            </g>
                        </g>
                    </g>
                </g>
            </g>
        </g>
    </g>
</svg>
