<svg xmlns="http://www.w3.org/2000/svg" width="10" height="10" viewBox="0 0 10 10">
    <g fill="none" fill-rule="evenodd">
        <g fill="#3F51B5">
            <g>
                <g>
                    <g>
                        <g>
                            <g>
                                <g>
                                    <g>
                                        <g>
                                            <g>
                                                <g>
                                                    <g>
                                                        <path d="M4.996 6.75l-2.87 2.87C.973 10.775-.769 9.02.372 7.88l2.882-2.883-2.882-2.87C-.768.973.973-.769 2.126.372l2.87 2.882L7.88.372c1.14-1.14 2.895.601 1.742 1.754l-2.87 2.87 2.87 2.883c1.153 1.14-.601 2.895-1.742 1.742L4.996 6.75z" transform="translate(-1204 -537) translate(-2) translate(409 113) translate(1 70) translate(0 167) translate(0 64) translate(1) translate(16 112) translate(779 9) translate(0 2)"/>
                                                    </g>
                                                </g>
                                            </g>
                                        </g>
                                    </g>
                                </g>
                            </g>
                        </g>
                    </g>
                </g>
            </g>
        </g>
    </g>
</svg>
