<svg xmlns="http://www.w3.org/2000/svg" width="12" height="12" viewBox="0 0 12 12"><g fill="none" fill-rule="evenodd"><g fill="#3F51B5"><g><g><g><g><g><g><g><g><path d="M10.785.431c-.576-.575-1.507-.575-2.083 0L1.125 7.977c-.03.03-.044.044-.06.073 0 0 0 .015-.014.015-.015.03-.03.044-.03.074v.015L.018 11.425c-.044.162 0 .324.104.442.088.089.192.133.31.133.044 0 .088 0 .133-.015l3.264-1.002h.015c.03-.015.059-.015.074-.03 0 0 .014 0 .014-.014.03-.015.06-.03.074-.059l7.563-7.546c.576-.574.576-1.503 0-2.078l-.783-.825z" transform="translate(-470 -308) translate(-2) translate(363 113) translate(0 70) translate(50) translate(49 78) translate(0 40) translate(10 7)"/></g></g></g></g></g></g></g></g></g></g></svg>