<svg width="40" height="40" viewBox="0 0 40 40" fill="none" xmlns="http://www.w3.org/2000/svg">
<g clip-path="url(#clip0_109_89)">
<path d="M20 40C31.0457 40 40 31.0457 40 20C40 8.9543 31.0457 0 20 0C8.9543 0 0 8.9543 0 20C0 31.0457 8.9543 40 20 40Z" fill="#3F51B5"/>
<mask id="mask0_109_89" style="mask-type:luminance" maskUnits="userSpaceOnUse" x="11" y="10" width="18" height="21">
<path d="M29 10H11V31H29V10Z" fill="white"/>
</mask>
<g mask="url(#mask0_109_89)">
<path d="M14.8571 10C12.7277 10 11 11.7637 11 13.9375V27.0625C11 29.2363 12.7277 31 14.8571 31H26.4286H27.7143C28.4254 31 29 30.4135 29 29.6875C29 28.9615 28.4254 28.375 27.7143 28.375V25.75C28.4254 25.75 29 25.1635 29 24.4375V11.3125C29 10.5865 28.4254 10 27.7143 10H26.4286H14.8571ZM14.8571 25.75H25.1429V28.375H14.8571C14.146 28.375 13.5714 27.7885 13.5714 27.0625C13.5714 26.3365 14.146 25.75 14.8571 25.75ZM16.1429 15.9062C16.1429 15.5453 16.4321 15.25 16.7857 15.25H24.5C24.8536 15.25 25.1429 15.5453 25.1429 15.9062C25.1429 16.2672 24.8536 16.5625 24.5 16.5625H16.7857C16.4321 16.5625 16.1429 16.2672 16.1429 15.9062ZM16.7857 17.875H24.5C24.8536 17.875 25.1429 18.1703 25.1429 18.5312C25.1429 18.8922 24.8536 19.1875 24.5 19.1875H16.7857C16.4321 19.1875 16.1429 18.8922 16.1429 18.5312C16.1429 18.1703 16.4321 17.875 16.7857 17.875Z" fill="white"/>
</g>
</g>
<defs>
<clipPath id="clip0_109_89">
<rect width="40" height="40" fill="white"/>
</clipPath>
</defs>
</svg>
