<svg xmlns="http://www.w3.org/2000/svg" width="51" height="50" viewBox="0 0 51 50">
    <g fill="none" fill-rule="evenodd">
        <g>
            <g>
                <g>
                    <g>
                        <g>
                            <g>
                                <g>
                                    <path fill="#3F51B5" d="M50 25c0 13.807-11.193 25-25 25S0 38.807 0 25 11.193 0 25 0s25 11.193 25 25" transform="translate(-1017 -694) translate(0 62) translate(115.187 140) translate(626 372) translate(123 120) translate(153)"/>
                                    <path fill="#FFF" d="M24.388 30.386v8.21l-3.475-1.58v-5.05l3.475-1.58zm.348 0l5.792 1.873v4.463l-5.792 1.874v-8.21zm12.633 0v8.21l-3.475-1.58v-5.05l3.475-1.58zm.348 0l5.792 1.873v4.463l-5.792 1.874v-8.21zm-26.31 0v8.21l-3.475-1.58v-5.05l3.476-1.58zm.348 0l5.793 1.873v4.463l-5.793 1.874v-8.21zm26.925-1.742h-1.52v-3.8h-11.4v3.8h-1.52v-3.8h-11.4v3.8h-1.52v-4.84c0-.265.215-.48.48-.48h12.44v-5.32h1.52v5.32H38.2c.265 0 .48.215.48.48v4.84zm-9.23-17.385c0 2.458-1.993 4.45-4.45 4.45-2.458 0-4.45-1.992-4.45-4.45 0-2.457 1.992-4.45 4.45-4.45 2.457 0 4.45 1.993 4.45 4.45z" transform="translate(-1017 -694) translate(0 62) translate(115.187 140) translate(626 372) translate(123 120) translate(153)"/>
                                </g>
                            </g>
                        </g>
                    </g>
                </g>
            </g>
        </g>
    </g>
</svg>
