<svg width="11" height="13" viewBox="0 0 11 13" fill="none" xmlns="http://www.w3.org/2000/svg">
<path fill-rule="evenodd" clip-rule="evenodd" d="M2.23882 10.9078C2.01106 10.7421 1.79753 10.559 1.59888 10.3604C0.610824 9.3723 0 8.00765 0 6.50001C0 4.99236 0.610824 3.62707 1.59888 2.63965C2.41612 1.82307 3.49088 1.26271 4.69118 1.09383V0.0294189L7.47677 1.96865L4.69118 3.90789V2.63189C3.91018 2.78589 3.21265 3.17024 2.67106 3.71183C1.958 4.42554 1.51671 5.41101 1.51671 6.50001C1.51671 7.58836 1.958 8.57448 2.67106 9.28883C2.73059 9.34707 2.79206 9.4053 2.85482 9.45965L2.23882 10.9078V10.9078ZM10.9191 6.50001C10.9191 8.00765 10.3083 9.37295 9.32024 10.3604C8.43506 11.2455 7.24706 11.8279 5.92512 11.9392V12.9706L3.13888 11.0314L5.92512 9.09212V10.416C6.82776 10.3099 7.63788 9.89836 8.24806 9.28818C8.96112 8.57448 9.40241 7.58836 9.40241 6.50001C9.40241 5.41101 8.96112 4.42554 8.24741 3.71118C8.18918 3.65295 8.12706 3.59471 8.06429 3.54036L8.68094 2.09224C8.90741 2.25789 9.12094 2.44101 9.32024 2.63965C10.3083 3.62771 10.9191 4.99236 10.9191 6.50001Z" fill="#3F51B5"/>
</svg>
