<svg xmlns="http://www.w3.org/2000/svg" width="11" height="13" viewBox="0 0 17 20"><g fill="none" fill-rule="evenodd"><g fill="#397A84"><path d="M5.46 16.812c-.352-.256-.682-.539-.989-.846C2.944 14.439 2 12.33 2 10s.944-4.44 2.471-5.966C5.734 2.772 7.395 1.906 9.25 1.645V0l4.305 2.997L9.25 5.994V4.022c-1.207.238-2.285.832-3.122 1.669C5.026 6.794 4.344 8.317 4.344 10c0 1.682.682 3.206 1.784 4.31.092.09.187.18.284.264l-.952 2.238zM18.875 10c0 2.33-.944 4.44-2.471 5.966-1.368 1.368-3.204 2.268-5.247 2.44V20l-4.306-2.997 4.306-2.997v2.046c1.395-.164 2.647-.8 3.59-1.743 1.102-1.103 1.784-2.627 1.784-4.309 0-1.683-.682-3.206-1.785-4.31-.09-.09-.186-.18-.283-.264l.953-2.238c.35.256.68.539.988.846C17.931 5.561 18.875 7.67 18.875 10z" transform="translate(-2)"/></g></g></svg>