<svg xmlns="http://www.w3.org/2000/svg" xmlns:xlink="http://www.w3.org/1999/xlink" width="51" height="50" viewBox="0 0 51 50">
    <defs>
        <path id="z3ixfz7mda" d="M0 0L50 0 50 50 0 50z"/>
        <path id="bejyqjc6wc" d="M0 50L50 50 50 0 0 0z"/>
    </defs>
    <g fill="none" fill-rule="evenodd">
        <g>
            <g>
                <g>
                    <g>
                        <g>
                            <g>
                                <g transform="translate(-1121 -326) translate(0 62) translate(115.187 140) translate(835) translate(48 124) translate(123)">
                                    <g>
                                        <mask id="qrlwgovs8b" fill="#fff">
                                            <use xlink:href="#z3ixfz7mda"/>
                                        </mask>
                                        <path fill="#FF6E40" d="M50 25c0 13.807-11.193 25-25 25S0 38.807 0 25 11.193 0 25 0s25 11.193 25 25" mask="url(#qrlwgovs8b)"/>
                                    </g>
                                    <path fill="#FFF" d="M27.849 34.463h-3.982c.25-.267.539-.5.753-.796.282-.474-.104-1.126-.656-1.106-.417-.008-.65.368-.924.617-.522.529-1.059 1.044-1.571 1.581-.254.316-.174.807.138 1.053.626.623 1.247 1.25 1.876 1.871.385.355 1.083.14 1.202-.369.108-.334-.08-.658-.33-.868l-.488-.488c1.413 0 2.827.004 4.24-.004.523-.022.863-.668.586-1.112-.16-.311-.52-.406-.844-.38M16.841 22.949c-.529-.522-1.044-1.058-1.581-1.571-.315-.253-.807-.174-1.052.139-.623.625-1.252 1.246-1.872 1.875-.355.385-.14 1.083.37 1.202.333.108.657-.08.867-.33l.489-.487c.001 1.413-.004 2.826.002 4.239.023.523.668.863 1.112.586.312-.16.407-.52.38-.844v-3.981c.266.25.5.539.794.753.475.281 1.127-.105 1.107-.656.01-.417-.367-.65-.616-.925M33.75 26.98c.528.521 1.044 1.058 1.58 1.57.316.254.807.174 1.053-.138.623-.626 1.251-1.247 1.871-1.876.355-.385.141-1.082-.368-1.202-.335-.108-.658.081-.869.33l-.488.488c-.002-1.413.004-2.827-.003-4.24-.022-.523-.667-.863-1.112-.586-.311.16-.406.521-.379.845v3.98c-.266-.248-.5-.538-.795-.752-.475-.282-1.127.105-1.107.657-.009.416.367.649.617.924M22.26 15.946h3.983c-.25.266-.54.5-.753.795-.283.475.104 1.127.656 1.107.416.009.65-.367.924-.617.522-.528 1.059-1.044 1.571-1.58.253-.316.174-.807-.139-1.053-.625-.623-1.246-1.251-1.875-1.871-.385-.356-1.083-.141-1.202.368-.108.335.081.658.33.869l.488.488c-1.413.002-2.827-.004-4.24.002-.523.023-.863.668-.586 1.113.16.31.52.406.844.379"/>
                                    <mask id="920f9zoqsd" fill="#fff">
                                        <use xlink:href="#bejyqjc6wc"/>
                                    </mask>
                                    <path fill="#FFF" d="M11.953 13.325h5.569v-1.108h-5.569v1.108zm0 2.217h5.569v-1.108h-5.569v1.108zm0 2.23h3.338v-1.109h-3.338v1.11zm6.116-7.785h-6.677c-.92 0-1.669.748-1.669 1.67v6.676c0 .921.748 1.67 1.67 1.67h6.676c.922 0 1.669-.749 1.669-1.67v-6.676c0-.922-.747-1.67-1.669-1.67zM32.492 13.325h5.568v-1.108h-5.568v1.108zm0 2.217h5.568v-1.108h-5.568v1.108zm0 2.23h3.338v-1.109h-3.338v1.11zm6.115-7.785h-6.676c-.921 0-1.67.748-1.67 1.67v6.676c0 .921.749 1.67 1.67 1.67h6.676c.922 0 1.67-.749 1.67-1.67v-6.676c0-.922-.748-1.67-1.67-1.67zM11.953 33.336h5.569v-1.109h-5.569v1.109zm0 2.217h5.569v-1.109h-5.569v1.109zm0 2.23h3.338v-1.109h-3.338v1.109zm6.116-7.785h-6.677c-.92 0-1.669.748-1.669 1.669v6.676c0 .922.748 1.67 1.67 1.67h6.676c.922 0 1.669-.748 1.669-1.67v-6.676c0-.921-.747-1.67-1.669-1.67zM32.492 33.336h5.568v-1.109h-5.568v1.109zm0 2.217h5.568v-1.109h-5.568v1.109zm0 2.23h3.338v-1.109h-3.338v1.109zm6.115-7.785h-6.676c-.921 0-1.67.748-1.67 1.669v6.676c0 .922.749 1.67 1.67 1.67h6.676c.922 0 1.67-.748 1.67-1.67v-6.676c0-.921-.748-1.67-1.67-1.67z" mask="url(#920f9zoqsd)"/>
                                </g>
                            </g>
                        </g>
                    </g>
                </g>
            </g>
        </g>
    </g>
</svg>
