<svg xmlns="http://www.w3.org/2000/svg" width="50" height="50" viewBox="0 0 50 50">
    <g fill="none" fill-rule="evenodd">
        <g>
            <g>
                <g>
                    <g>
                        <g>
                            <g>
                                <g>
                                    <path fill="#7986CB" d="M50 25c0 13.807-11.193 25-25 25S0 38.807 0 25 11.193 0 25 0s25 11.193 25 25" transform="translate(-393 -694) translate(0 62) translate(115.187 140) translate(.813 372) translate(102 120) translate(175)"/>
                                    <path fill="#FFF" d="M28.538 22L25.5 12 22.462 22 13 22 20.725 27.513 17.788 37 25.5 31.138 33.225 37 30.288 27.513 38 22z" transform="translate(-393 -694) translate(0 62) translate(115.187 140) translate(.813 372) translate(102 120) translate(175)"/>
                                </g>
                            </g>
                        </g>
                    </g>
                </g>
            </g>
        </g>
    </g>
</svg>
