<svg xmlns="http://www.w3.org/2000/svg" xmlns:xlink="http://www.w3.org/1999/xlink" width="40" height="40" viewBox="0 0 40 40">
    <defs>
        <path id="fj0srl1mga" d="M0 0L40 0 40 40 0 40z"/>
    </defs>
    <g fill="none" fill-rule="evenodd">
        <g>
            <g>
                <g>
                    <g>
                        <g>
                            <g>
                                <g>
                                    <g transform="translate(-50 -183) translate(0 64) translate(50 119)">
                                        <mask id="y699kplnqb" fill="#fff">
                                            <use xlink:href="#fj0srl1mga"/>
                                        </mask>
                                        <path fill="#29B6F6" d="M40 20c0 11.046-8.954 20-20 20S0 31.046 0 20 8.954 0 20 0s20 8.954 20 20" mask="url(#y699kplnqb)"/>
                                    </g>
                                    <path fill="#FFF" d="M32.38 21.545l-1.376-1.376.719-.719.657.658 1.675-1.675.719.719-2.394 2.393zm-18.297-4.35h9.36V15.33h-9.36v1.863zm0 3.725h9.36v-1.863h-9.36v1.863zm0 3.748h5.611v-1.863h-5.611v1.864zm18.9-8.536c-1.813 0-3.328 1.264-3.718 2.958h-2.097V14.39c0-1.549-1.257-2.806-2.805-2.806H13.14c-1.549 0-2.806 1.257-2.806 2.806v2.222c.061.046.123.091.177.145l2.07 2.07c.334.287.517.703.517 1.179 0 .414-.184.845-.492 1.153l-2.095 2.095c-.055.055-.116.1-.177.146v2.212c0 1.549 1.257 2.806 2.806 2.806h11.223c1.548 0 2.805-1.257 2.805-2.806v-4.768h2.106c.402 1.677 1.908 2.925 3.708 2.925 2.109 0 3.819-1.71 3.819-3.818 0-2.11-1.71-3.818-3.819-3.818z" transform="translate(-50 -183) translate(0 64) translate(50 119)"/>
                                    <path fill="#FFF" d="M12.267 20.005c0-.23-.076-.457-.267-.61L9.904 17.3c-.152-.153-.38-.267-.61-.267-.228 0-.456.076-.609.267-.304.267-.304.8 0 1.142l.648.648H4.076c-.457 0-.877.381-.877.877 0 .457.381.876.877.876h5.257l-.648.648c-.342.343-.342.876 0 1.219.343.342.877.342 1.22 0L12 20.614c.152-.152.267-.38.267-.61" transform="translate(-50 -183) translate(0 64) translate(50 119)"/>
                                </g>
                            </g>
                        </g>
                    </g>
                </g>
            </g>
        </g>
    </g>
</svg>
