<svg xmlns="http://www.w3.org/2000/svg" xmlns:xlink="http://www.w3.org/1999/xlink" width="40" height="40" viewBox="0 0 40 40"><defs><path id="a8m0konfoa" d="M0 0L40 0 40 40 0 40z"/></defs><g fill="none" fill-rule="evenodd"><g><g><g><g><g><g><g><g transform="translate(-50 -135) translate(0 64) translate(50 71)"><mask id="ekxy8y3xvb" fill="#fff"><use xlink:href="#a8m0konfoa"/></mask><path fill="#00BFA5" d="M40 20c0 11.046-8.954 20-20 20S0 31.046 0 20 8.954 0 20 0s20 8.954 20 20" mask="url(#ekxy8y3xvb)"/></g><path fill="#FFF" d="M24.904 25.337l-7.375-.091.018-1.468 7.375.092-.018 1.467zm-.037 2.936l-7.374-.09.018-1.47 7.375.092-.019 1.468zm-2.99 2.917l-4.42-.055.018-1.468 4.42.055-.018 1.468zM7.724 29.344l-1.41-1.41.736-.737.674.673 1.716-1.716.737.737-2.453 2.453zm9.9-19.112H25V8.765h-7.376v1.467zm0 2.936H25V11.7h-7.376v1.468zm0 2.954h4.422v-1.468h-4.422v1.468zm10.312-4.774V8.022c0-1.22-.99-2.211-2.21-2.211h-8.844c-1.22 0-2.21.99-2.21 2.21v2.77l.927.928c.225.18.315.45.315.721 0 .27-.135.54-.315.72l-.928.929v2.776c0 1.22.99 2.21 2.211 2.21h8.843c1.22 0 2.21-.99 2.21-2.21V13.15c3.447.449 6.1 3.42 6.1 6.95 0 3.564-2.708 6.562-6.216 6.963l.048-3.9c.015-1.221-.963-2.224-2.183-2.239l-8.843-.11c-1.22-.015-2.222.963-2.237 2.184l-.045 3.545h-2.486c-.514-1.653-2.086-2.822-3.897-2.745-2.16.09-3.836 1.915-3.745 4.075.091 2.16 1.916 3.835 4.075 3.744 1.79-.075 3.244-1.342 3.64-3.003h2.388l-.04 3.226c-.015 1.22.963 2.223 2.183 2.238l8.843.11c1.22.015 2.222-.963 2.237-2.183l.04-3.138c4.744-.547 8.065-4.065 8.065-8.767 0-4.658-3.257-8.154-7.926-8.753z" transform="translate(-50 -135) translate(0 64) translate(50 71)"/><path fill="#FFF" d="M5.174 13.413h6.214l-.765.765c-.406.406-.406 1.036 0 1.441.405.406 1.036.406 1.441 0l2.477-2.476c.18-.18.315-.45.315-.72 0-.27-.09-.54-.315-.721l-2.477-2.477c-.18-.18-.45-.315-.72-.315-.27 0-.54.09-.721.315-.36.316-.36.946 0 1.351l.765.765H5.174c-.54 0-1.035.45-1.035 1.037 0 .54.45 1.035 1.035 1.035" transform="translate(-50 -135) translate(0 64) translate(50 71)"/></g></g></g></g></g></g></g></g></svg>