<svg xmlns="http://www.w3.org/2000/svg" xmlns:xlink="http://www.w3.org/1999/xlink" width="27" height="54" viewBox="0 0 27 54">
    <defs>
        <path id="25pvlw2oda" d="M8.613.236c-.357 0-.646.283-.646.631v2.53c0 .348.289.63.645.63h.648v1.897c0 .35.29.632.646.632.357 0 .647.283.647.631 0 .35-.29.633-.646.633-.357.001-.646-.282-.647-.63H7.967c.001.46.176.902.49 1.244L.575 16.733v.004c-.222.104-.365.324-.366.564h21.333c-.001-.24-.144-.46-.368-.564v-.004l-9.819-8.299c.314-.342.49-.785.491-1.244 0-.805-.52-1.521-1.293-1.79V4.028h.646c.357 0 .647-.283.647-.632V.867c0-.348-.29-.631-.647-.631H8.613zm.647 2.528h1.292V1.5H9.26v1.264zm.646 6.39l9.775 8.147H2.144l7.762-8.147z"/>
        <path id="p6eubfrpyc" d="M5.742 11.941v13.504h6.763v-5.33c0-.488.407-.889.903-.889.495 0 .901.4.901.889v5.33h6.765V11.941c0-4.664-3.878-9.373-7.666-11.638C9.62 2.524 5.742 7.277 5.742 11.941zM9.8 9.898c0-1.955 1.623-3.554 3.608-3.554 1.984 0 3.607 1.6 3.607 3.554 0 1.955-1.623 3.554-3.607 3.554-1.985 0-3.608-1.555-3.608-3.554zm1.804 0c0 .977.812 1.776 1.804 1.776.991 0 1.803-.754 1.803-1.776 0-.977-.812-1.777-1.803-1.777-.992 0-1.804.8-1.804 1.777zm11.273 15.591h1.804c.992-.044 1.804-.799 1.804-1.82v-4.354c0-.578-.316-1.155-.812-1.466l-2.796-1.822v9.462zM1.142 17.85c-.496.311-.812.888-.812 1.466v4.353c0 1.022.812 1.777 1.804 1.821h1.803v-9.462L1.142 17.85z"/>
    </defs>
    <g fill="none" fill-rule="evenodd">
        <g>
            <g>
                <g>
                    <g>
                        <g>
                            <g>
                                <g transform="translate(-370 -634) translate(0 93) translate(48 452) translate(0 89) translate(320) translate(2) translate(3.76 25.52)">
                                    <mask id="b0e7egwofb" fill="#fff">
                                        <use xlink:href="#25pvlw2oda"/>
                                    </mask>
                                    <path fill="#21335B" d="M-4.984 22.495L26.736 22.495 26.736 -4.958 -4.984 -4.958z" mask="url(#b0e7egwofb)"/>
                                </g>
                                <g transform="translate(-370 -634) translate(0 93) translate(48 452) translate(0 89) translate(320) translate(2) translate(0 .229)">
                                    <mask id="uo259kr55d" fill="#fff">
                                        <use xlink:href="#p6eubfrpyc"/>
                                    </mask>
                                    <path fill="#00BFA5" d="M-4.864 30.683L31.679 30.683 31.679 -4.891 -4.864 -4.891z" mask="url(#uo259kr55d)"/>
                                </g>
                                <path fill="#7986CB" d="M12.087 53.849l13.122-3.415v-8.13L12.087 38.89v14.959zm-8.661-12.08v9.2l7.874 2.88v-14.96l-7.874 2.88z" transform="translate(-370 -634) translate(0 93) translate(48 452) translate(0 89) translate(320) translate(2)"/>
                            </g>
                        </g>
                    </g>
                </g>
            </g>
        </g>
    </g>
</svg>
