<svg xmlns="http://www.w3.org/2000/svg" width="48" height="48" viewBox="0 0 48 48"><g fill="none" fill-rule="evenodd"><g><g><g><g><g><g><path fill="#29B6F6" d="M39.438 19.75c0-5.262-2.05-10.2-5.763-13.925C29.963 2.112 25.013.062 19.75.062c-5.262 0-10.213 2.05-13.925 5.763C2.112 9.55.062 14.488.062 19.75c0 5.262 2.05 10.2 5.763 13.925 3.712 3.725 8.663 5.763 13.925 5.763 5.262 0 10.2-2.05 13.925-5.763 3.713-3.725 5.763-8.662 5.763-13.925zM19.75 33.813c-3.762 0-7.287-1.463-9.95-4.126-2.65-2.65-4.113-6.187-4.113-9.937 0-3.762 1.463-7.287 4.113-9.95 2.65-2.65 6.175-4.113 9.938-4.113 3.762 0 7.287 1.463 9.95 4.113 2.65 2.65 4.112 6.188 4.112 9.95 0 3.762-1.462 7.288-4.112 9.938-2.65 2.662-6.175 4.125-9.938 4.125z" transform="translate(-48 -636) translate(0 93) translate(48 452) translate(0 89) translate(0 2)"/><path fill="#00BFA5" d="M46.925 42.063l-8.175-8.175c-.35-.35-.825-.55-1.325-.55s-.975.2-1.325.55l-.15.15c-.35.075-.675.237-.95.512l-.438.438c-.274.275-.45.612-.512.962l-.15.15c-.737.737-.737 1.925 0 2.65l8.175 8.175c.65.65 1.512 1 2.425 1 .913 0 1.775-.35 2.438-1.012.65-.65 1-1.513 1-2.425 0-.913-.363-1.776-1.013-2.425z" transform="translate(-48 -636) translate(0 93) translate(48 452) translate(0 89) translate(0 2)"/><g fill="#7986CB"><g><path d="M7.229 0v13.735L0 11.09V2.644L7.229 0zm.723 0L20 3.135V10.6L7.952 13.735V0z" transform="translate(-48 -636) translate(0 93) translate(48 452) translate(0 89) translate(0 2) translate(10 10) translate(0 3)"/></g></g></g></g></g></g></g></g></g></svg>