<svg xmlns="http://www.w3.org/2000/svg" width="53" height="50" viewBox="0 0 53 50"><g fill="none" fill-rule="evenodd"><g><g><g><g><g><g><path fill="#29B6F6" d="M26.5 0l8.549 12.824H17.95L26.5 0z" transform="translate(-690 -636) translate(0 93) translate(48 452) translate(0 89) translate(641 2) translate(1 .12)"/><path fill="#00BFA5" d="M14.15 34.756v14.15H0v-14.15h14.15z" transform="translate(-690 -636) translate(0 93) translate(48 452) translate(0 89) translate(641 2) translate(1 .12)"/><path fill="#3F51B5" d="M45.925 34.726c-3.893 0-7.075 3.195-7.075 7.105 0 3.91 3.182 7.106 7.075 7.106C49.82 48.937 53 45.74 53 41.83c0-3.91-3.181-7.105-7.075-7.105z" transform="translate(-690 -636) translate(0 93) translate(48 452) translate(0 89) translate(641 2) translate(1 .12)"/><path fill="#21335B" d="M30.965 38.682c.308.01.6.137.814.358l2.855 2.854c.293.223.467.57.468.939.002.369-.168.717-.46.943h-.004l-2.859 2.858c-.298.302-.736.421-1.146.312-.41-.11-.731-.43-.84-.84-.11-.411.01-.849.312-1.147l.939-.94H19.1c-.428.007-.826-.217-1.041-.586-.216-.37-.216-.826 0-1.195.215-.37.613-.594 1.04-.587h11.944l-.938-.938c-.35-.34-.456-.86-.265-1.31.19-.45.637-.737 1.125-.723v.002zM38.34 16.499c1.438.286 2.92.749 4.37 1.138 1.55.395.925 2.722-.614 2.287l-1.283-.343 5.972 10.343c.85 1.383-1.277 2.61-2.05 1.185l-5.972-10.344-.343 1.283c-.41 1.525-2.698.912-2.29-.613l1.049-3.91c.078-.583.573-1.02 1.16-1.026zM15.743 16.5c.898.034 1.432 1.018.971 1.79l-5.972 10.343 1.283-.343c1.526-.409 2.139 1.88.613 2.289l-4.044 1.083c-.595.16-1.319-.345-1.45-.837L6.06 26.78c-.197-.737.322-1.47 1.084-1.506.562-.027 1.065.347 1.203.893l.344 1.282 5.972-10.343c.217-.39.635-.624 1.08-.606z" transform="translate(-690 -636) translate(0 93) translate(48 452) translate(0 89) translate(641 2) translate(1 .12)"/><g fill="#7986CB"><g><path d="M7.229 0v13.735L0 11.09V2.644L7.229 0zm.723 0L20 3.135V10.6L7.952 13.735V0z" transform="translate(-690 -636) translate(0 93) translate(48 452) translate(0 89) translate(641 2) translate(1 .12) translate(17 17) translate(0 4)"/></g></g></g></g></g></g></g></g></g></svg>