<svg xmlns="http://www.w3.org/2000/svg" width="51" height="52" viewBox="0 0 51 52">
    <g fill="none" fill-rule="evenodd">
        <g>
            <g>
                <g>
                    <g>
                        <g>
                            <g>
                                <path fill="#00BFA5" d="M38.677 13.76l-.115.135H38.5l-2.415 1.925 9.034 1.291 2.582-10.335-2.3 1.8-.157.073h-.229l-.135-.052-.208-.146c-.323-.374-.687-.76-1.041-1.134C39.066 2.739 32.866.166 26.401.166c-6.466 0-12.666 2.573-17.231 7.15-1.223 1.221-2.309 2.572-3.237 4.029l-.729 1.145 5.537-1.582h.146c.216.001.409.133.49.333l1.415 3.528.551-.687c.386-.472.796-.924 1.228-1.353 6.547-6.539 17.153-6.539 23.7 0l.375.396v.104l.062.104v.198l-.031.229z" transform="translate(-1010 -640) translate(0 93) translate(48 452) translate(0 89) translate(962 6)"/>
                                <path fill="#3F51B5" d="M22.367 44.276l2.363-3.018-.885-.135c-4.793-.725-9.037-3.493-11.63-7.59-2.595-4.095-3.284-9.114-1.89-13.757v-.125l.062-.084.073-.083.125-.083h.437l2.852 1.166-3.403-8.473L.3 15.01l2.697 1.04.135.104.073.084.073.093V16.737C.824 23.981 1.912 31.96 6.217 38.284c4.306 6.324 11.33 10.26 18.97 10.633l1.375.063-4.164-4.018c-.186-.186-.2-.484-.03-.687z" transform="translate(-1010 -640) translate(0 93) translate(48 452) translate(0 89) translate(962 6)"/>
                                <path fill="#29B6F6" d="M47.42 12.209l-1.406 5.61c-.06.232-.27.394-.51.395l-3.871-.52.322.833c1.764 4.518 1.479 9.578-.78 13.87-2.259 4.292-6.269 7.392-10.991 8.497h-.198c-.063-.006-.124-.027-.177-.063-.072-.035-.133-.089-.177-.156v-.146c.003-.038.003-.076 0-.114l-.49-3.05-5.64 7.182 7.66 7.4-.395-2.893v-.24l.052-.104.114-.104.219-.104c4.714-.939 9.043-3.257 12.437-6.661 7.426-7.52 9.211-18.946 4.434-28.373l-.603-1.26z" transform="translate(-1010 -640) translate(0 93) translate(48 452) translate(0 89) translate(962 6)"/>
                                <g fill="#7986CB">
                                    <g>
                                        <path d="M7.229 0v13.735L0 11.09V2.644L7.229 0zm.723 0L20 3.135V10.6L7.952 13.735V0z" transform="translate(-1010 -640) translate(0 93) translate(48 452) translate(0 89) translate(962 6) translate(16 15) translate(0 3)"/>
                                    </g>
                                </g>
                            </g>
                        </g>
                    </g>
                </g>
            </g>
        </g>
    </g>
</svg>
