<?xml version="1.0" encoding="UTF-8" standalone="no"?>
<svg
   xmlns:dc="http://purl.org/dc/elements/1.1/"
   xmlns:cc="http://creativecommons.org/ns#"
   xmlns:rdf="http://www.w3.org/1999/02/22-rdf-syntax-ns#"
   xmlns:svg="http://www.w3.org/2000/svg"
   xmlns="http://www.w3.org/2000/svg"
   xmlns:sodipodi="http://sodipodi.sourceforge.net/DTD/sodipodi-0.dtd"
   xmlns:inkscape="http://www.inkscape.org/namespaces/inkscape"
   id="Layer_1"
   data-name="Layer 1"
   viewBox="0 0 177.22 70.809995"
   version="1.1"
   sodipodi:docname="broad1.svg"
   width="177.22"
   height="70.809998"
   inkscape:version="1.0.2 (e86c8708, 2021-01-15)">
  <metadata
     id="metadata898">
    <rdf:RDF>
      <cc:Work
         rdf:about="">
        <dc:format>image/svg+xml</dc:format>
        <dc:type
           rdf:resource="http://purl.org/dc/dcmitype/StillImage" />
        <dc:title></dc:title>
      </cc:Work>
    </rdf:RDF>
  </metadata>
  <sodipodi:namedview
     pagecolor="#ffffff"
     bordercolor="#666666"
     borderopacity="1"
     objecttolerance="10"
     gridtolerance="10"
     guidetolerance="10"
     inkscape:pageopacity="0"
     inkscape:pageshadow="2"
     inkscape:window-width="1440"
     inkscape:window-height="900"
     id="namedview896"
     showgrid="false"
     units="mm"
     inkscape:zoom="4.0867868"
     inkscape:cx="87.11"
     inkscape:cy="21.905"
     inkscape:window-x="0"
     inkscape:window-y="0"
     inkscape:window-maximized="0"
     inkscape:current-layer="Layer_1" />
  <defs
     id="defs835">
    <style
       id="style833">.cls-1{fill:#fff;}</style>
  </defs>
  <polyline
     class="cls-1"
     points="53.29 43.63 49.28 43.63 49.28 43.03 50.37 43.03 50.37 34.78 49.28 34.78 49.28 34.18 53.29 34.18 53.29 34.78 52.21 34.78 52.21 43.03 53.29 43.03 53.29 43.63"
     id="polyline837"
     transform="translate(1.2234551,15.660224)" />
  <polyline
     class="cls-1"
     points="68.91 43.78 67.9 43.78 62.92 36.77 62.92 43.03 64.05 43.03 64.05 43.63 60.82 43.63 60.82 43.03 62.01 43.03 62.01 35.51 61.55 34.78 60.52 34.78 60.52 34.18 63.37 34.18 68 40.78 68 34.78 66.87 34.78 66.87 34.18 70.11 34.18 70.11 34.78 68.91 34.78 68.91 43.78"
     id="polyline839"
     transform="translate(1.2234551,15.660224)" />
  <path
     class="cls-1"
     d="m 79.953455,59.420224 h -0.79 v -2.58 h 0.79 v 1.06 a 2.66,2.66 0 0 0 1.83,0.7 1.37,1.37 0 0 0 1.53,-1.27 c 0,-0.65 -0.41,-1.11 -1.75,-2 a 6.76,6.76 0 0 1 -1.94,-1.46 2.42,2.42 0 0 1 -0.55,-1.61 2.62,2.62 0 0 1 2.91,-2.6 3.7,3.7 0 0 1 1.55,0.31 v -0.43 h 0.77 v 2.45 h -0.77 v -1 a 2.64,2.64 0 0 0 -1.52,-0.53 1.25,1.25 0 0 0 -1.32,1.2 c 0,0.58 0.33,0.94 1.71,1.81 l 1.23,0.8 a 3.12,3.12 0 0 1 0.87,0.93 2.74,2.74 0 0 1 0.4,1.48 2.7,2.7 0 0 1 -2.86,2.77 3.79,3.79 0 0 1 -2.09,-0.56 v 0.51"
     id="path841" />
  <polyline
     class="cls-1"
     points="97.44 43.63 92.83 43.63 92.83 43.03 94.22 43.03 94.22 35.02 91.74 35.02 91.74 36.21 90.95 36.21 90.95 33.78 91.74 33.78 91.74 34.18 98.53 34.18 98.53 33.78 99.31 33.78 99.31 36.21 98.53 36.21 98.53 35.02 96.06 35.02 96.06 43.03 97.44 43.03 97.44 43.63"
     id="polyline843"
     transform="translate(1.2234551,15.660224)" />
  <polyline
     class="cls-1"
     points="109.5 43.63 105.49 43.63 105.49 43.03 106.58 43.03 106.58 34.78 105.49 34.78 105.49 34.18 109.5 34.18 109.5 34.78 108.43 34.78 108.43 43.03 109.5 43.03 109.5 43.63"
     id="polyline845"
     transform="translate(1.2234551,15.660224)" />
  <polyline
     class="cls-1"
     points="121.89 43.63 117.28 43.63 117.28 43.03 118.67 43.03 118.67 35.02 116.2 35.02 116.2 36.21 115.41 36.21 115.41 33.78 116.2 33.78 116.2 34.18 122.98 34.18 122.98 33.78 123.77 33.78 123.77 36.21 122.98 36.21 122.98 35.02 120.52 35.02 120.52 43.03 121.89 43.03 121.89 43.63"
     id="polyline847"
     transform="translate(1.2234551,15.660224)" />
  <path
     class="cls-1"
     d="m 141.88345,50.440224 h -1.2 v 5.38 a 3.13,3.13 0 0 1 -1.78,3.21 5,5 0 0 1 -2.07,0.44 c -2.32,0 -3.82,-1.27 -3.82,-3.25 v -5.78 h -1.09 v -0.6 h 4 v 0.6 h -1.08 v 5.34 c 0,1.45 0.26,2.1 1,2.49 a 2.71,2.71 0 0 0 1.19,0.27 2.5,2.5 0 0 0 2.72,-2.76 v -5.33 h -1.19 v -0.61 h 3.32 v 0.6"
     id="path849" />
  <polyline
     class="cls-1"
     points="153.85 43.63 149.24 43.63 149.24 43.03 150.63 43.03 150.63 35.02 148.15 35.02 148.15 36.21 147.36 36.21 147.36 33.78 148.15 33.78 148.15 34.18 154.94 34.18 154.94 33.78 155.72 33.78 155.72 36.21 154.94 36.21 154.94 35.02 152.47 35.02 152.47 43.03 153.85 43.03 153.85 43.63"
     id="polyline851"
     transform="translate(1.2234551,15.660224)" />
  <polyline
     class="cls-1"
     points="169.47 43.63 162.65 43.63 162.65 43.03 163.74 43.03 163.74 34.78 162.65 34.78 162.65 34.18 168.55 34.18 168.55 33.78 169.32 33.78 169.32 36.05 168.57 36.05 168.57 35.02 165.59 35.02 165.59 38.4 167.88 38.4 167.88 37.43 168.65 37.41 168.65 40.23 167.88 40.25 167.88 39.25 165.59 39.25 165.59 42.78 168.69 42.78 168.69 41.72 169.47 41.72 169.47 43.63"
     id="polyline853"
     transform="translate(1.2234551,15.660224)" />
  <path
     class="cls-1"
     d="m 48.873455,42.730224 v -1.47 h 3 v -23.29 h -3 v -1.48 h 12.08 a 6.54,6.54 0 0 1 6.56,6.52 6.26,6.26 0 0 1 -5.84,5.89 8.37,8.37 0 0 1 3.22,0.83 6.63,6.63 0 0 1 3.89,6.16 6.79,6.79 0 0 1 -7.07,6.84 z m 6.48,-14.51 h 4 c 2.58,0 4.41,-2.11 4.41,-5.05 0,-2.78 -1.71,-4.85 -4.05,-4.85 h -4.36 z m 0,12.72 h 4.45 c 3.34,0 5.36,-2 5.36,-5.25 a 5.34,5.34 0 0 0 -5.36,-5.68 h -4.45 v 10.93"
     id="path855" />
  <path
     class="cls-1"
     d="m 95.813455,42.730224 h -3.38 c -2.34,0 -2.78,-0.24 -4.09,-2.35 l -5.93,-9.42 h -3.1 v 10.3 h 3 v 1.47 h -9.47 v -1.47 h 3 v -23.29 h -3 v -1.48 h 11 c 3.85,0 6,1.08 7.23,3.54 a 8.09,8.09 0 0 1 0.79,3.54 c 0,3.86 -2.14,6.32 -6,6.88 l 5.73,8.82 c 1,1.47 1.58,1.95 2.58,1.95 h 1.55 v 1.51 z m -16.5,-13.6 h 3.82 c 3,0 5.13,-2.22 5.13,-5.48 0,-3.42 -1.87,-5.33 -5.21,-5.33 h -3.74 v 10.81"
     id="path857" />
  <path
     class="cls-1"
     d="m 96.883455,29.660224 c 0,-7.47 5.799995,-13.63 12.839995,-13.63 7.04,0 12.72,6.19 12.72,13.63 0,7.44 -5.8,13.63 -12.72,13.63 -6.92,0 -12.839995,-6.25 -12.839995,-13.63 z m 3.939995,0 c 0,6.72 3.73,11.57 8.9,11.57 5.17,0 8.78,-4.89 8.78,-11.57 0,-6.68 -3.69,-11.52 -8.74,-11.52 -5.21,0 -8.94,4.76 -8.94,11.52"
     id="path859" />
  <path
     class="cls-1"
     d="m 148.22345,42.730224 h -9.06 v -1.47 h 3.18 l -2.78,-7.16 h -10.17 l -2.91,7.16 h 3.3 v 1.51 h -7.56 v -1.55 h 2 l 10.36,-25.56 h 1.43 l 9.94,25.56 h 2.27 z m -9.34,-10.54 -4.26,-11.16 -4.49,11.16 h 8.74"
     id="path861" />
  <path
     class="cls-1"
     d="m 150.72345,42.730224 v -1.47 h 3 v -23.29 h -3 v -1.48 h 11.72 a 13.07,13.07 0 0 1 13,13.08 13,13 0 0 1 -13,13.16 z m 6.48,-2 h 4.77 c 5.44,0 9.57,-4.81 9.53,-11.13 0,-6.12 -4.21,-11.09 -9.45,-11.09 h -4.83 v 22.23"
     id="path863" />
  <path
     class="cls-1"
     d="m 20.223455,32.380224 a 90.32,90.32 0 0 1 20.65,-8.93 v -7 0 a 95.89,95.89 0 0 0 -27.38,12 c 2.15,1.37 4.41,2.7 6.73,3.93 z"
     id="path865" />
  <path
     class="cls-1"
     d="m 40.873455,42.940224 a 91,91 0 0 1 -10.88,-4 c -2.8,1.1 -5.54,2.32 -8.2,3.67 a 95.72,95.72 0 0 0 19.08,7.24 z"
     id="path867" />
  <path
     class="cls-1"
     d="m 11.923455,37.890224 q -2.85,-2.13 -5.53,-4.47 -2.67,2.09 -5.1699999,4.36 v 0.12 c 1.6699999,1.53 3.4099999,3 5.1999999,4.41 1.8,-1.54 3.61,-3.02 5.5,-4.42 z"
     id="path869" />
  <path
     class="cls-1"
     d="m 6.753455,33.120224 q 2.86,2.22 5.91,4.23 3,-2.22 6.24,-4.18 -3.23,-2 -6.27,-4.21 c -2.01,1.32 -3.98,2.7 -5.88,4.16 z"
     id="path871" />
  <path
     class="cls-1"
     d="m 20.283455,43.460224 c -2.3,1.22 -4.56,2.52 -6.74,3.92 a 95.61,95.61 0 0 0 27.33,12 v -7 a 90,90 0 0 1 -20.59,-8.92 z"
     id="path873" />
  <path
     class="cls-1"
     d="m 13.503455,37.890224 c 2.19,1.41 4.45,2.74 6.77,4 q 3.61,-2.13 7.42,-3.92 -3.82,-1.82 -7.46,-4 c -2.3,1.23 -4.55,2.53 -6.73,3.92 z"
     id="path875" />
  <path
     class="cls-1"
     d="m 40.873455,40.450224 v -5 q -4.11,1.08 -8.06,2.49 3.94,1.43 8.06,2.51 z"
     id="path877" />
  <path
     class="cls-1"
     d="m 29.993455,36.890224 a 92.08,92.08 0 0 1 10.88,-3.94 v -7 a 96.49,96.49 0 0 0 -19.14,7.24 q 4.02,2.03 8.26,3.7 z"
     id="path879" />
  <path
     class="cls-1"
     d="m 1.2234551,19.080224 v 9.35 c 1.6699999,1.52 3.3799999,3 5.1599999,4.4 q 2.67,-2.33 5.5,-4.42 a 95.33,95.33 0 0 1 -10.6599999,-9.33 z"
     id="path881" />
  <path
     class="cls-1"
     d="m 12.713455,47.930224 a 93.1,93.1 0 0 0 -11.4899999,8.86 v 2.6 H 33.633455 a 91.65,91.65 0 0 1 -20.92,-11.46 z"
     id="path883" />
  <path
     class="cls-1"
     d="m 18.953455,42.660224 c -2.15,-1.31 -4.25,-2.72 -6.28,-4.21 -2,1.32 -4,2.7 -5.88,4.16 1.9,1.48 3.88,2.89 5.91,4.23 2.02,-1.49 4.11,-2.88 6.25,-4.18 z"
     id="path885" />
  <path
     class="cls-1"
     d="m 12.613455,27.860224 a 92.22,92.22 0 0 1 20.88,-11.42 H 1.2234551 v 2.54 a 92.21,92.21 0 0 0 11.3899999,8.88 z"
     id="path887" />
  <path
     class="cls-1"
     d="m 6.053455,33.120224 c -1.66,-1.46 -3.27,-3.01 -4.8299999,-4.59 v 9.13 c 1.5599999,-1.57 3.1699999,-3.09 4.8299999,-4.54 z"
     id="path889" />
  <path
     class="cls-1"
     d="m 11.953455,47.370224 q -2.85,-2.13 -5.53,-4.47 c -1.79,1.4 -3.52,2.87 -5.1999999,4.38 v 9.38 a 94.92,94.92 0 0 1 10.7299999,-9.29 z"
     id="path891" />
  <path
     class="cls-1"
     d="m 1.2234551,38.000224 v 9.18 q 2.3599999,-2.37 4.8599999,-4.58 c -1.67,-1.47 -3.29,-3.01 -4.8599999,-4.6 z"
     id="path893" />
</svg>
