<svg xmlns="http://www.w3.org/2000/svg" id="Layer_1" data-name="Layer 1" viewBox="0 0 439.72 176.01"><defs><style>.cls-1{fill:#fff}</style></defs><path d="M126.14,168.89v0a4.92,4.92,0,0,1,4.94-5.06,5.08,5.08,0,0,1,3.81,1.55l-.75.81a4.26,4.26,0,0,0-3.07-1.34,3.83,3.83,0,0,0-3.79,4v0a3.86,3.86,0,0,0,3.79,4,4.24,4.24,0,0,0,3.15-1.41l.73.71a5.08,5.08,0,0,1-3.91,1.72A4.88,4.88,0,0,1,126.14,168.89Z" class="cls-1"/><path d="M137.07,163.56h1.07v10.19h-1.07Z" class="cls-1"/><path d="M140.47,170.18v0a3.77,3.77,0,0,1,7.53,0v0a3.75,3.75,0,0,1-3.79,3.77A3.7,3.7,0,0,1,140.47,170.18Zm6.42,0v0a2.73,2.73,0,0,0-2.68-2.82,2.67,2.67,0,0,0-2.64,2.79v0a2.71,2.71,0,0,0,2.67,2.81A2.67,2.67,0,0,0,146.89,170.18Z" class="cls-1"/><path d="M150.1,171v-4.49h1.08v4.22a1.92,1.92,0,0,0,2,2.18,2.14,2.14,0,0,0,2.17-2.26v-4.14h1.06v7.22h-1.06V172.5a2.76,2.76,0,0,1-2.47,1.41A2.64,2.64,0,0,1,150.1,171Z" class="cls-1"/><path d="M158.67,170.16v0a3.55,3.55,0,0,1,3.45-3.76,3.24,3.24,0,0,1,2.76,1.54v-4.36H166v10.19h-1.08V172.3a3.22,3.22,0,0,1-2.76,1.61A3.53,3.53,0,0,1,158.67,170.16Zm6.26,0v0a2.68,2.68,0,0,0-2.61-2.78,2.56,2.56,0,0,0-2.55,2.78v0a2.6,2.6,0,0,0,2.55,2.79A2.69,2.69,0,0,0,164.93,170.15Z" class="cls-1"/><path d="M172.1,170.18v0a3.76,3.76,0,0,1,6.59-2.48l-.71.75a2.94,2.94,0,0,0-2.2-1.09,2.66,2.66,0,0,0-2.58,2.79v0a2.71,2.71,0,0,0,2.65,2.81,3,3,0,0,0,2.21-1.08l.68.64a3.73,3.73,0,0,1-6.64-2.34Z" class="cls-1"/><path d="M180.14,170.18v0a3.76,3.76,0,0,1,7.52,0v0a3.74,3.74,0,0,1-3.78,3.77A3.69,3.69,0,0,1,180.14,170.18Zm6.42,0v0a2.73,2.73,0,0,0-2.68-2.82,2.66,2.66,0,0,0-2.64,2.79v0a2.71,2.71,0,0,0,2.67,2.81A2.67,2.67,0,0,0,186.56,170.18Z" class="cls-1"/><path d="M189.88,166.53H191v1.22a2.65,2.65,0,0,1,2.33-1.37,2.45,2.45,0,0,1,2.32,1.44,2.88,2.88,0,0,1,2.54-1.44,2.59,2.59,0,0,1,2.68,2.9v4.47h-1.07v-4.21c0-1.4-.7-2.18-1.87-2.18a2,2,0,0,0-2,2.23v4.16h-1.06v-4.24c0-1.36-.71-2.15-1.86-2.15a2.09,2.09,0,0,0-2,2.27v4.12h-1.07Z" class="cls-1"/><path d="M203.43,166.53h1.08V168a3.22,3.22,0,0,1,2.76-1.61,3.52,3.52,0,0,1,3.45,3.74v0a3.54,3.54,0,0,1-3.45,3.76,3.24,3.24,0,0,1-2.76-1.54V176h-1.08Zm6.19,3.63v0a2.61,2.61,0,0,0-2.55-2.8,2.7,2.7,0,0,0-2.61,2.78v0a2.68,2.68,0,0,0,2.61,2.79A2.55,2.55,0,0,0,209.62,170.16Z" class="cls-1"/><path d="M212.86,171v-4.49h1.08v4.22a1.93,1.93,0,0,0,2,2.18,2.13,2.13,0,0,0,2.16-2.26v-4.14h1.06v7.22H218.1V172.5a2.76,2.76,0,0,1-2.47,1.41A2.64,2.64,0,0,1,212.86,171Z" class="cls-1"/><path d="M222.23,171.84v-4.36h-1v-.95h1v-2.17h1.07v2.17h2.29v.95H223.3v4.22a1.07,1.07,0,0,0,1.22,1.2,2.31,2.31,0,0,0,1-.25v.92a2.69,2.69,0,0,1-1.3.31A1.84,1.84,0,0,1,222.23,171.84Z" class="cls-1"/><path d="M227.8,163.77H229V165H227.8Zm.07,2.76h1.07v7.22h-1.07Z" class="cls-1"/><path d="M231.72,166.53h1.07v1.26a2.75,2.75,0,0,1,2.48-1.41,2.63,2.63,0,0,1,2.76,2.89v4.48H237v-4.21a1.93,1.93,0,0,0-2-2.18,2.13,2.13,0,0,0-2.17,2.26v4.13h-1.07Z" class="cls-1"/><path d="M240.51,175l.49-.84a4.62,4.62,0,0,0,2.78.92,2.38,2.38,0,0,0,2.63-2.57v-.85a3.42,3.42,0,0,1-2.84,1.52,3.33,3.33,0,0,1-3.39-3.38v0a3.35,3.35,0,0,1,3.39-3.41,3.4,3.4,0,0,1,2.82,1.45v-1.3h1.08v6a3.47,3.47,0,0,1-.93,2.55,3.79,3.79,0,0,1-2.75,1A5.67,5.67,0,0,1,240.51,175Zm5.92-5.21v0a2.52,2.52,0,0,0-2.65-2.44,2.39,2.39,0,0,0-2.5,2.43v0a2.44,2.44,0,0,0,2.5,2.45A2.54,2.54,0,0,0,246.43,169.8Z" class="cls-1"/><path d="M254.46,167.48h-1v-.93h1v-.63a2.59,2.59,0,0,1,.62-1.86,2.16,2.16,0,0,1,1.55-.56,3.16,3.16,0,0,1,1.19.19v.93a3.62,3.62,0,0,0-1.05-.18c-.83,0-1.25.5-1.25,1.54v.58h2.29v.92h-2.28v6.27h-1.07Z" class="cls-1"/><path d="M258.87,170.18v0a3.76,3.76,0,0,1,7.52,0v0a3.74,3.74,0,0,1-3.78,3.77A3.69,3.69,0,0,1,258.87,170.18Zm6.42,0v0a2.73,2.73,0,0,0-2.68-2.82,2.66,2.66,0,0,0-2.64,2.79v0a2.71,2.71,0,0,0,2.67,2.81A2.67,2.67,0,0,0,265.29,170.18Z" class="cls-1"/><path d="M268.61,166.53h1.07v1.89a3.09,3.09,0,0,1,2.95-2v1.16h-.09c-1.57,0-2.86,1.13-2.86,3.31v2.87h-1.07Z" class="cls-1"/><path d="M278,170.18v0a3.76,3.76,0,0,1,6.59-2.48l-.71.75a2.92,2.92,0,0,0-2.19-1.09,2.66,2.66,0,0,0-2.59,2.79v0a2.71,2.71,0,0,0,2.66,2.81,3,3,0,0,0,2.2-1.08l.69.64a3.73,3.73,0,0,1-6.65-2.34Z" class="cls-1"/><path d="M286,170.18v0a3.77,3.77,0,0,1,7.53,0v0a3.75,3.75,0,0,1-3.79,3.77A3.7,3.7,0,0,1,286,170.18Zm6.42,0v0a2.73,2.73,0,0,0-2.68-2.82,2.67,2.67,0,0,0-2.64,2.79v0a2.71,2.71,0,0,0,2.67,2.81A2.67,2.67,0,0,0,292.46,170.18Z" class="cls-1"/><path d="M295.88,163.56H297v10.19h-1.07Z" class="cls-1"/><path d="M299.83,163.56h1.07v10.19h-1.07Z" class="cls-1"/><path d="M303.14,171.66v0c0-1.55,1.25-2.36,3.08-2.36a7.63,7.63,0,0,1,2.21.31v-.23c0-1.28-.78-1.95-2.14-1.95a5,5,0,0,0-2.19.52l-.32-.88a5.79,5.79,0,0,1,2.62-.62,3.22,3.22,0,0,1,2.34.8,2.86,2.86,0,0,1,.75,2.12v4.41h-1.06v-1.07a3.18,3.18,0,0,1-2.6,1.23A2.42,2.42,0,0,1,303.14,171.66Zm5.3-.56v-.67a7.55,7.55,0,0,0-2.11-.31c-1.34,0-2.1.59-2.1,1.45v0c0,.91.83,1.44,1.81,1.44A2.16,2.16,0,0,0,308.44,171.1Z" class="cls-1"/><path d="M313.12,172.37v1.38H312V163.56h1.08V168a3.22,3.22,0,0,1,2.76-1.61,3.52,3.52,0,0,1,3.45,3.74v0a3.54,3.54,0,0,1-3.45,3.76A3.24,3.24,0,0,1,313.12,172.37Zm5.11-2.21v0a2.61,2.61,0,0,0-2.54-2.8,2.71,2.71,0,0,0-2.62,2.78v0a2.69,2.69,0,0,0,2.62,2.79A2.55,2.55,0,0,0,318.23,170.16Z" class="cls-1"/><path d="M321.14,170.18v0a3.77,3.77,0,0,1,7.53,0v0a3.75,3.75,0,0,1-3.79,3.77A3.7,3.7,0,0,1,321.14,170.18Zm6.42,0v0a2.73,2.73,0,0,0-2.68-2.82,2.67,2.67,0,0,0-2.64,2.79v0a2.71,2.71,0,0,0,2.67,2.81A2.67,2.67,0,0,0,327.56,170.18Z" class="cls-1"/><path d="M330.88,166.53H332v1.89a3.09,3.09,0,0,1,2.94-2v1.16h-.08c-1.58,0-2.86,1.13-2.86,3.31v2.87h-1.08Z" class="cls-1"/><path d="M335.92,171.66v0c0-1.55,1.26-2.36,3.09-2.36a7.56,7.56,0,0,1,2.2.31v-.23c0-1.28-.78-1.95-2.14-1.95a5,5,0,0,0-2.19.52l-.32-.88a5.86,5.86,0,0,1,2.63-.62,3.19,3.19,0,0,1,2.33.8,2.86,2.86,0,0,1,.75,2.12v4.41h-1.06v-1.07a3.18,3.18,0,0,1-2.6,1.23A2.42,2.42,0,0,1,335.92,171.66Zm5.31-.56v-.67a7.61,7.61,0,0,0-2.11-.31c-1.34,0-2.11.59-2.11,1.45v0c0,.91.84,1.44,1.81,1.44A2.17,2.17,0,0,0,341.23,171.1Z" class="cls-1"/><path d="M345.13,171.84v-4.36h-1v-.95h1v-2.17h1.08v2.17h2.29v.95h-2.29v4.22a1.07,1.07,0,0,0,1.21,1.2,2.31,2.31,0,0,0,1.05-.25v.92a2.66,2.66,0,0,1-1.3.31A1.84,1.84,0,0,1,345.13,171.84Z" class="cls-1"/><path d="M350.7,163.77h1.23V165H350.7Zm.07,2.76h1.08v7.22h-1.08Z" class="cls-1"/><path d="M353.91,166.53h1.19l2.43,6,2.44-6h1.16L358,173.81H357Z" class="cls-1"/><path d="M365.86,173a3,3,0,0,0,2.28-1l.67.6a3.74,3.74,0,0,1-3,1.35,3.78,3.78,0,0,1-.14-7.54c2.14,0,3.37,1.7,3.37,3.83a2.77,2.77,0,0,1,0,.37h-5.72A2.52,2.52,0,0,0,365.86,173Zm2.11-3.26a2.37,2.37,0,0,0-2.31-2.43,2.48,2.48,0,0,0-2.34,2.43Z" class="cls-1"/><path d="M375.13,166.53h1.07v1.89a3.09,3.09,0,0,1,2.95-2v1.16h-.09c-1.57,0-2.86,1.13-2.86,3.31v2.87h-1.07Z" class="cls-1"/><path d="M383.93,173a3,3,0,0,0,2.28-1l.67.6a3.73,3.73,0,0,1-3,1.35,3.78,3.78,0,0,1-.14-7.54c2.13,0,3.36,1.7,3.36,3.83,0,.09,0,.21,0,.37h-5.73A2.53,2.53,0,0,0,383.93,173Zm2.11-3.26a2.36,2.36,0,0,0-2.3-2.43,2.5,2.5,0,0,0-2.35,2.43Z" class="cls-1"/><path d="M388.69,172.83l.55-.77a4.17,4.17,0,0,0,2.49.92c.87,0,1.5-.44,1.5-1.14v0c0-.72-.85-1-1.8-1.27-1.13-.32-2.39-.71-2.39-2v0a2.18,2.18,0,0,1,2.46-2.07,5,5,0,0,1,2.59.79l-.48.81a4.1,4.1,0,0,0-2.14-.69c-.85,0-1.4.44-1.4,1v0c0,.69.9,1,1.86,1.24,1.12.34,2.32.77,2.32,2.07v0c0,1.37-1.13,2.16-2.57,2.16A5,5,0,0,1,388.69,172.83Z" class="cls-1"/><path d="M399.7,173a3,3,0,0,0,2.28-1l.67.6a3.73,3.73,0,0,1-3,1.35,3.78,3.78,0,0,1-.14-7.54c2.13,0,3.36,1.7,3.36,3.83,0,.09,0,.21,0,.37h-5.73A2.53,2.53,0,0,0,399.7,173Zm2.11-3.26a2.36,2.36,0,0,0-2.3-2.43,2.5,2.5,0,0,0-2.35,2.43Z" class="cls-1"/><path d="M404.52,171.66v0c0-1.55,1.26-2.36,3.08-2.36a7.58,7.58,0,0,1,2.21.31v-.23c0-1.28-.78-1.95-2.14-1.95a5,5,0,0,0-2.19.52l-.32-.88a5.82,5.82,0,0,1,2.62-.62,3.22,3.22,0,0,1,2.34.8,2.86,2.86,0,0,1,.75,2.12v4.41h-1.06v-1.07a3.18,3.18,0,0,1-2.6,1.23A2.42,2.42,0,0,1,404.52,171.66Zm5.3-.56v-.67a7.47,7.47,0,0,0-2.1-.31c-1.35,0-2.11.59-2.11,1.45v0c0,.91.84,1.44,1.81,1.44A2.16,2.16,0,0,0,409.82,171.1Z" class="cls-1"/><path d="M413.42,166.53h1.08v1.89a3.09,3.09,0,0,1,2.94-2v1.16h-.08c-1.58,0-2.86,1.13-2.86,3.31v2.87h-1.08Z" class="cls-1"/><path d="M418.6,170.18v0a3.76,3.76,0,0,1,6.59-2.48l-.71.75a2.92,2.92,0,0,0-2.19-1.09,2.66,2.66,0,0,0-2.59,2.79v0a2.71,2.71,0,0,0,2.66,2.81,3,3,0,0,0,2.2-1.08l.69.64a3.73,3.73,0,0,1-6.65-2.34Z" class="cls-1"/><path d="M427.3,163.56h1.07v4.23a2.74,2.74,0,0,1,2.47-1.41,2.64,2.64,0,0,1,2.77,2.89v4.48h-1.08v-4.21a1.92,1.92,0,0,0-2-2.18,2.13,2.13,0,0,0-2.17,2.26v4.13H427.3Z" class="cls-1"/><rect width="16.01" height="60.97" x="97.12" y="88.47" class="cls-1"/><path d="M124.86,101.3v-.07a12.75,12.75,0,0,1,13.08-12.89,12.14,12.14,0,0,1,10.52,5.17l-5.17,4a6.65,6.65,0,0,0-5.42-2.9c-3.48,0-5.92,2.94-5.92,6.55v.07c0,3.72,2.44,6.63,5.92,6.63,2.58,0,4.11-1.21,5.59-3l5.18,3.68a13.06,13.06,0,0,1-23.78-7.23Z" class="cls-1"/><path d="M149.52,108.14v-.07c0-4,3-6,7.51-6a14.75,14.75,0,0,1,4.61.74v-.32c0-2-1.24-3.11-3.83-3.11a13.56,13.56,0,0,0-5.28,1.06l-1.38-4.75a19.16,19.16,0,0,1,7.76-1.49c3.44,0,5.77.82,7.3,2.34s2,3.4,2,6.1v11H161.6v-2a7.24,7.24,0,0,1-5.63,2.41C152.32,114.06,149.52,112,149.52,108.14Zm12.19-1.45v-.89a7.11,7.11,0,0,0-2.62-.49c-2,0-3.09,1-3.09,2.37v.07a2.12,2.12,0,0,0,2.38,2.09A3.08,3.08,0,0,0,161.71,106.69Z" class="cls-1"/><path d="M171,94.47h6.73v2.69A7.09,7.09,0,0,1,183.46,94c4.08,0,6.52,2.69,6.52,7v12.54h-6.73V103.25c0-2.09-1.1-3.22-2.69-3.22s-2.84,1.13-2.84,3.22v10.38H171Z" class="cls-1"/><path d="M192,104.14v-.07a10,10,0,0,1,10.28-10,9.07,9.07,0,0,1,8.18,4.28l-4.57,3.41a4.12,4.12,0,0,0-3.58-2,4,4,0,0,0-3.75,4.25v.07c0,2.48,1.56,4.36,3.82,4.36a4.6,4.6,0,0,0,3.69-2l4.5,3.26a9.52,9.52,0,0,1-8.54,4.4A9.9,9.9,0,0,1,192,104.14Z" class="cls-1"/><path d="M210.88,104.14v-.07c0-5.6,4-10,9.67-10,6.63,0,9.68,4.85,9.68,10.49,0,.42,0,.92,0,1.38H217.37a4,4,0,0,0,4.14,3.15,5.76,5.76,0,0,0,4.25-2l3.72,3.09a10,10,0,0,1-8.32,3.9C215.13,114.1,210.88,110.09,210.88,104.14Zm13-1.67c-.25-2.12-1.49-3.47-3.33-3.47s-3,1.38-3.33,3.47Z" class="cls-1"/><path d="M232.39,94.47h6.73v3.86c1.1-2.62,2.87-4.32,6.06-4.18v7.08h-.57c-3.51,0-5.49,2-5.49,6.45v5.95h-6.73Z" class="cls-1"/><path d="M254.07,101.3v-.07c0-7.22,5.67-12.89,13.36-12.89A14.46,14.46,0,0,1,277.49,92l-4,4.85a8.77,8.77,0,0,0-6-2.33,6.51,6.51,0,0,0-6.34,6.8v.07a6.55,6.55,0,0,0,6.73,6.87,7,7,0,0,0,4-1v-3h-4.89v-5h11.41V110.3a16.71,16.71,0,0,1-10.77,3.83C259.85,114.13,254.07,108.82,254.07,101.3Z" class="cls-1"/><path d="M280.29,104.14v-.07c0-5.6,4-10,9.67-10,6.63,0,9.67,4.85,9.67,10.49,0,.42,0,.92,0,1.38H286.77a4,4,0,0,0,4.15,3.15,5.77,5.77,0,0,0,4.25-2l3.72,3.09a10,10,0,0,1-8.33,3.9C284.54,114.1,280.29,110.09,280.29,104.14Zm13-1.67c-.25-2.12-1.49-3.47-3.34-3.47s-3,1.38-3.33,3.47Z" class="cls-1"/><path d="M301.79,94.47h6.74v2.69A7.09,7.09,0,0,1,314.26,94c4.08,0,6.52,2.69,6.52,7v12.54h-6.73V103.25c0-2.09-1.1-3.22-2.69-3.22s-2.83,1.13-2.83,3.22v10.38h-6.74Z" class="cls-1"/><path d="M322.77,104.14v-.07c0-5.46,4.46-10,10.63-10S344,98.54,344,104v.07c0,5.45-4.46,10-10.63,10S322.77,109.6,322.77,104.14Zm14.63,0v-.07a4.15,4.15,0,0,0-4.08-4.32,4,4,0,0,0-4,4.25v.07a4.15,4.15,0,0,0,4.08,4.32A4,4,0,0,0,337.4,104.14Z" class="cls-1"/><path d="M345.37,94.47h6.73v2.62a7,7,0,0,1,5.71-3,5.85,5.85,0,0,1,5.52,3.12A8.09,8.09,0,0,1,369.75,94c4.07,0,6.55,2.55,6.55,7v12.57h-6.73V103.22c0-2.09-1-3.19-2.62-3.19s-2.77,1.1-2.77,3.19v10.41h-6.73V103.22c0-2.09-1-3.19-2.62-3.19s-2.73,1.1-2.73,3.19v10.41h-6.73Z" class="cls-1"/><path d="M378.28,104.14v-.07c0-5.6,4-10,9.67-10,6.63,0,9.68,4.85,9.68,10.49,0,.42,0,.92,0,1.38H384.77a4,4,0,0,0,4.14,3.15,5.76,5.76,0,0,0,4.25-2l3.72,3.09a10,10,0,0,1-8.32,3.9C382.53,114.1,378.28,110.09,378.28,104.14Zm13-1.67c-.25-2.12-1.49-3.47-3.33-3.47s-3,1.38-3.33,3.47Z" class="cls-1"/><path d="M124.86,136.09V136a12.75,12.75,0,0,1,13.08-12.9,12.17,12.17,0,0,1,10.52,5.17l-5.17,4a6.66,6.66,0,0,0-5.42-2.91c-3.48,0-5.92,2.94-5.92,6.56V136c0,3.72,2.44,6.62,5.92,6.62,2.58,0,4.11-1.2,5.59-3l5.18,3.69a13.06,13.06,0,0,1-23.78-7.23Z" class="cls-1"/><path d="M148.6,136.09V136c0-7.12,5.74-12.9,13.39-12.9s13.32,5.7,13.32,12.83V136c0,7.12-5.74,12.89-13.39,12.89S148.6,143.21,148.6,136.09Zm19.7,0V136a6.45,6.45,0,0,0-6.38-6.7,6.33,6.33,0,0,0-6.27,6.63V136a6.43,6.43,0,0,0,6.34,6.69A6.33,6.33,0,0,0,168.3,136.09Z" class="cls-1"/><path d="M177.47,123.62h6.88v18.77h12v6H177.47Z" class="cls-1"/><path d="M198.59,123.62h6.87v18.77h12v6H198.59Z" class="cls-1"/><path d="M227.57,123.44h6.63l10.55,25h-7.36L235.58,144H226l-1.77,4.43H217Zm6,15.2-2.76-7-2.8,7Z" class="cls-1"/><path d="M246.45,123.62h12.72c3.12,0,5.32.78,6.77,2.23a5.44,5.44,0,0,1,1.6,4v.07a5.75,5.75,0,0,1-3.83,5.53c3,1,4.92,2.69,4.92,6.06v.07c0,4.25-3.47,6.84-9.39,6.84H246.45Zm11,9.88c2.09,0,3.26-.71,3.26-2.16v-.07c0-1.35-1.06-2.13-3.12-2.13h-4.46v4.36Zm1,9.39c2.09,0,3.29-.81,3.29-2.27v-.07c0-1.34-1.06-2.23-3.37-2.23h-5.24v4.57Z" class="cls-1"/><path d="M269.52,136.09V136c0-7.12,5.74-12.9,13.39-12.9s13.32,5.7,13.32,12.83V136c0,7.12-5.74,12.89-13.39,12.89S269.52,143.21,269.52,136.09Zm19.7,0V136a6.45,6.45,0,0,0-6.38-6.7,6.32,6.32,0,0,0-6.27,6.63V136a6.43,6.43,0,0,0,6.34,6.69A6.33,6.33,0,0,0,289.22,136.09Z" class="cls-1"/><path d="M297.68,123.62h11.73c3.79,0,6.41,1,8.08,2.69a7.7,7.7,0,0,1,2.2,5.77v.08a7.83,7.83,0,0,1-5.11,7.61l5.92,8.65h-7.93l-5-7.51h-3v7.51h-6.88Zm11.41,11.9c2.34,0,3.69-1.13,3.69-2.94v-.07c0-1.95-1.42-2.94-3.72-2.94h-4.5v6Z" class="cls-1"/><path d="M329.85,123.44h6.63l10.56,25h-7.37L337.86,144h-9.57l-1.77,4.43h-7.23Zm6,15.2-2.77-7-2.8,7Z" class="cls-1"/><path d="M350.9,129.64h-7.44v-6h21.75v6h-7.44v18.78H350.9Z" class="cls-1"/><path d="M364.18,136.09V136c0-7.12,5.74-12.9,13.4-12.9s13.32,5.7,13.32,12.83V136c0,7.12-5.74,12.89-13.4,12.89S364.18,143.21,364.18,136.09Zm19.7,0V136a6.44,6.44,0,0,0-6.38-6.7,6.33,6.33,0,0,0-6.27,6.63V136a6.44,6.44,0,0,0,6.35,6.69A6.32,6.32,0,0,0,383.88,136.09Z" class="cls-1"/><path d="M393.06,123.62h11.72c3.8,0,6.42,1,8.08,2.69a7.66,7.66,0,0,1,2.2,5.77v.08a7.84,7.84,0,0,1-5.1,7.61l5.91,8.65h-7.93l-5-7.51h-3v7.51h-6.87Zm11.41,11.9c2.33,0,3.68-1.13,3.68-2.94v-.07c0-1.95-1.42-2.94-3.72-2.94h-4.5v6Z" class="cls-1"/><path d="M423.38,139.14,414,123.62h7.83l5.1,9,5.14-9h7.69L430.29,139v9.39h-6.91Z" class="cls-1"/><path d="M25.69,26A87,87,0,0,0,0,84.67H16A72.11,72.11,0,0,1,87.37,16.08V0A87.75,87.75,0,0,0,25.69,26Z" class="cls-1"/><path d="M37,138.8A71.2,71.2,0,0,1,16,92.18H0a87.94,87.94,0,0,0,87.35,83.74V159.81A71.38,71.38,0,0,1,37,138.8Z" class="cls-1"/><path d="M42.6,88A45.42,45.42,0,0,1,87.37,42.65v-16a61.31,61.31,0,0,0,0,122.61v-16A45.41,45.41,0,0,1,42.6,88Z" class="cls-1"/><path d="M69.73,92.18H53.51a34.82,34.82,0,0,0,33.86,30.59V106.6A18.4,18.4,0,0,1,69.73,92.18Z" class="cls-1"/><path d="M53.44,84.67H69.61A18.35,18.35,0,0,1,87.37,69.51v-16A34.66,34.66,0,0,0,53.44,84.67Z" class="cls-1"/></svg>