<svg xmlns="http://www.w3.org/2000/svg" xmlns:svg="http://www.w3.org/2000/svg" id="Layer_1" width="310.21" height="80.83" data-name="Layer 1" version="1.1" viewBox="0 0 310.21 80.83"><metadata id="metadata2682"/><defs id="defs2493"><style id="style2491">.cls-1{fill:#fff}</style></defs><path id="path2495" d="m 91.227938,35.49276 a 7.392,7.392 0 0 1 -7.72,-7.68 7.592,7.592 0 0 1 7.68,-7.72 8,8 0 0 1 5.727998,2 l -1.656,1.984 a 5.864,5.864 0 0 0 -4.175998,-1.6 c -2.744,0 -4.8,2.4 -4.8,5.28 0,3.08 2.016,5.336 5.064,5.336 a 6.096,6.096 0 0 0 3.591998,-1.128 v -2.768 h -3.807998 v -2.304 h 6.335998 v 6.256 a 9.464,9.464 0 0 1 -6.239998,2.344 z" class="cls-1" style="stroke-width:.8"/><path id="path2497" d="m 100.69194,35.23676 v -15.544 h 2.576 v 15.544 z" class="cls-1" style="stroke-width:.8"/><path id="path2499" d="m 111.96394,35.49276 a 5.808,5.808 0 0 1 -5.952,-5.824 5.992,5.992 0 1 1 5.952,5.824 z m 0,-9.464 a 3.376,3.376 0 0 0 -3.384,3.592 3.472,3.472 0 0 0 3.424,3.672 3.384,3.384 0 0 0 3.408,-3.592 3.472,3.472 0 0 0 -3.448,-3.672 z" class="cls-1" style="stroke-width:.8"/><path id="path2501" d="m 126.97994,35.46876 a 4.592,4.592 0 0 1 -3.808,-1.976 v 1.744 h -2.568 v -15.544 h 2.568 v 6.168 a 4.496,4.496 0 0 1 3.808,-2.104 c 2.664,0 5.232,2.104 5.232,5.848 0,3.744 -2.552,5.864 -5.232,5.864 z m -0.592,-9.464 a 3.384,3.384 0 0 0 -3.28,3.616 3.384,3.384 0 0 0 3.28,3.616 c 1.76,0 3.2,-1.384 3.2,-3.616 0,-2.232 -1.472,-3.616 -3.2,-3.616 z" class="cls-1" style="stroke-width:.8"/><path id="path2503" d="m 141.71594,35.23676 v -1.384 a 4.528,4.528 0 0 1 -3.64,1.6 c -2.128,0 -4,-1.208 -4,-3.464 v -0.04 c 0,-2.4 1.936,-3.616 4.552,-3.616 a 9.368,9.368 0 0 1 3.104,0.464 v -0.28 c 0,-1.552 -0.976,-2.4 -2.76,-2.4 a 7.872,7.872 0 0 0 -3.2,0.704 l -0.704,-2.064 a 9.68,9.68 0 0 1 4.248,-0.92 c 3.32,0 4.936,1.744 4.936,4.744 v 6.656 z m 0.064,-4.8 a 7.568,7.568 0 0 0 -2.576,-0.44 c -1.6,0 -2.576,0.656 -2.576,1.808 v 0.04 c 0,1.064 0.96,1.656 2.168,1.656 1.704,0 2.984,-0.952 2.984,-2.36 z" class="cls-1" style="stroke-width:.8"/><path id="path2505" d="m 147.48394,35.23676 v -15.544 h 2.576 v 15.544 z" class="cls-1" style="stroke-width:.8"/><path id="path2507" d="m 174.34794,35.23676 h -2.76 l -1.512,-3.592 h -7.04 l -1.536,3.592 h -2.68 l 6.552,-15 h 2.4 z m -7.832,-11.872 -2.528,5.928 h 5.128 z" class="cls-1" style="stroke-width:.8"/><path id="path2509" d="m 176.74794,35.23676 v -15.544 h 2.568 v 15.544 z" class="cls-1" style="stroke-width:.8"/><path id="path2511" d="m 182.83594,35.23676 v -15.544 h 2.576 v 15.544 z" class="cls-1" style="stroke-width:.8"/><path id="path2513" d="m 188.81194,22.28476 v -2.448 h 2.768 v 2.448 z m 0.104,12.952 v -11.2 h 2.576 v 11.2 z" class="cls-1" style="stroke-width:.8"/><path id="path2515" d="m 201.71594,35.23676 v -1.384 a 4.528,4.528 0 0 1 -3.64,1.6 c -2.128,0 -4,-1.208 -4,-3.464 v -0.04 c 0,-2.4 1.936,-3.616 4.552,-3.616 a 9.336,9.336 0 0 1 3.104,0.464 v -0.28 c 0,-1.552 -0.976,-2.4 -2.76,-2.4 a 7.872,7.872 0 0 0 -3.2,0.704 l -0.696,-2.064 a 9.6,9.6 0 0 1 4.24,-0.92 c 3.32,0 4.936,1.744 4.936,4.744 v 6.656 z m 0.064,-4.8 a 7.568,7.568 0 0 0 -2.576,-0.44 c -1.6,0 -2.576,0.656 -2.576,1.808 v 0.04 c 0,1.064 0.96,1.656 2.168,1.656 1.704,0 2.984,-0.952 2.984,-2.36 z" class="cls-1" style="stroke-width:.8"/><path id="path2517" d="m 209.90794,35.23676 h -2.592 v -11.2 h 2.568 v 1.744 a 4.048,4.048 0 0 1 3.512,-1.976 c 2.536,0 4,1.704 4,4.32 v 7.144 h -2.576 v -6.4 c 0,-1.744 -0.872,-2.744 -2.4,-2.744 -1.528,0 -2.536,1.048 -2.536,2.792 z" class="cls-1" style="stroke-width:.8"/><path id="path2519" d="m 225.71594,35.49276 a 5.736,5.736 0 0 1 -5.808,-5.824 5.792,5.792 0 0 1 5.808,-5.896 5.6,5.6 0 0 1 4.496,1.936 l -1.6,1.72 a 3.76,3.76 0 0 0 -2.896,-1.4 3.384,3.384 0 0 0 -3.2,3.592 3.424,3.424 0 0 0 3.328,3.672 3.952,3.952 0 0 0 2.912,-1.408 l 1.552,1.536 a 5.68,5.68 0 0 1 -4.592,2.072 z" class="cls-1" style="stroke-width:.8"/><path id="path2521" d="m 237.53994,33.38876 a 4.08,4.08 0 0 0 3.04,-1.344 l 1.512,1.344 a 5.704,5.704 0 0 1 -4.6,2.104 5.6,5.6 0 0 1 -5.76,-5.848 c 0,-3.2 2.272,-5.872 5.488,-5.872 3.576,0 5.384,2.808 5.384,6.064 0,0.232 0,0.44 -0.048,0.696 h -8.256 a 3.2,3.2 0 0 0 3.24,2.856 z m 2.504,-4.552 c -0.168,-1.664 -1.144,-2.96 -2.848,-2.96 -1.6,0 -2.68,1.216 -2.912,2.96 z" class="cls-1" style="stroke-width:.8"/><path id="path2523" d="m 89.171938,48.58876 v 1.288 h -3.2 v 8.752 h -1.504 v -8.752 h -1.36 v -1.304 h 1.384 v -0.88 c 0,-2.2 1.112,-3.368 3.04,-3.368 a 4.528,4.528 0 0 1 1.656,0.256 v 1.304 a 4.864,4.864 0 0 0 -1.464,-0.256 c -1.168,0 -1.752,0.704 -1.752,2.144 v 0.8 z" class="cls-1" style="stroke-width:.8"/><path id="path2525" d="m 95.483936,58.89276 a 5.264,5.264 0 1 1 5.280004,-5.288 5.24,5.24 0 0 1 -5.280004,5.288 z m 0,-9.208 a 3.696,3.696 0 0 0 -3.679998,3.92 3.792,3.792 0 0 0 3.719998,3.944 3.712,3.712 0 0 0 3.704,-3.904 3.808,3.808 0 0 0 -3.744,-3.984 z" class="cls-1" style="stroke-width:.8"/><path id="path2527" d="m 104.97994,58.62876 h -1.504 v -10.072 h 1.504 v 2.632 a 4.312,4.312 0 0 1 4.112,-2.808 v 1.6 h -0.112 c -2.208,0 -4,1.6 -4,4.616 z" class="cls-1" style="stroke-width:.8"/><path id="path2529" d="m 123.81194,58.89276 c -4.288,0 -6.944,-3.12 -6.944,-7.04 a 6.856,6.856 0 0 1 6.848,-7.072 7.2,7.2 0 0 1 5.088,1.808 l -1,1.176 a 5.776,5.776 0 0 0 -4.152,-1.6 c -3.016,0 -5.184,2.56 -5.184,5.6 0,3.272 2.088,5.696 5.4,5.696 a 6.4,6.4 0 0 0 3.936,-1.368 v -3.368 h -4.152 v -1.384 h 5.6 v 5.44 a 8.272,8.272 0 0 1 -5.44,2.112 z" class="cls-1" style="stroke-width:.8"/><path id="path2531" d="m 136.91594,57.55676 a 4.192,4.192 0 0 0 3.2,-1.416 l 0.936,0.8 a 5.208,5.208 0 0 1 -4.136,1.952 5.016,5.016 0 0 1 -5.024,-5.264 c 0,-2.928 2.048,-5.264 4.8,-5.264 2.984,0 4.696,2.4 4.696,5.344 0,0.136 0,0.288 0,0.464 h -8 a 3.528,3.528 0 0 0 3.528,3.384 z m 2.944,-4.52 c -0.152,-1.832 -1.208,-3.432 -3.2,-3.432 -1.752,0 -3.072,1.464 -3.272,3.432 z" class="cls-1" style="stroke-width:.8"/><path id="path2533" d="m 145.54794,58.62876 h -1.496 v -10.072 h 1.496 v 1.752 a 3.832,3.832 0 0 1 3.448,-1.968 c 2.44,0 3.864,1.6 3.864,4 v 6.256 h -1.504 v -5.856 c 0,-1.864 -1.016,-3.04 -2.784,-3.04 a 2.968,2.968 0 0 0 -3.024,3.2 z" class="cls-1" style="stroke-width:.8"/><path id="path2535" d="m 160.65994,58.89276 a 5.264,5.264 0 1 1 5.28,-5.288 5.24,5.24 0 0 1 -5.28,5.288 z m 0,-9.208 a 3.704,3.704 0 0 0 -3.688,3.92 3.792,3.792 0 0 0 3.728,3.944 3.72,3.72 0 0 0 3.704,-3.904 3.816,3.816 0 0 0 -3.744,-3.984 z" class="cls-1" style="stroke-width:.8"/><path id="path2537" d="m 180.18794,48.34076 c 2.32,0 3.744,1.56 3.744,4.056 v 6.232 h -1.496 v -5.888 c 0,-1.944 -0.976,-3.04 -2.616,-3.04 -1.52,0 -2.784,1.136 -2.784,3.12 v 5.808 h -1.488 v -5.92 c 0,-1.896 -0.992,-3.008 -2.592,-3.008 -1.6,0 -2.808,1.328 -2.808,3.2 v 5.744 h -1.496 v -10.088 h 1.496 v 1.696 a 3.688,3.688 0 0 1 3.256,-1.912 3.432,3.432 0 0 1 3.2,2.008 4,4 0 0 1 3.584,-2.008 z" class="cls-1" style="stroke-width:.8"/><path id="path2539" d="m 187.22794,46.34876 v -1.656 h 1.688 v 1.656 z m 0.088,12.28 v -10.072 h 1.504 v 10.072 z" class="cls-1" style="stroke-width:.8"/><path id="path2541" d="m 196.85994,58.89276 a 5.264,5.264 0 1 1 4,-8.736 l -0.992,1.056 a 4.072,4.072 0 0 0 -3.064,-1.528 3.72,3.72 0 0 0 -3.6,3.92 3.768,3.768 0 0 0 3.712,3.92 4.168,4.168 0 0 0 3.088,-1.504 l 0.952,0.896 a 5.208,5.208 0 0 1 -4.096,1.976 z" class="cls-1" style="stroke-width:.8"/><path id="path2543" d="m 206.77994,58.82876 a 6.944,6.944 0 0 1 -4.168,-1.48 l 0.76,-1.072 a 5.896,5.896 0 0 0 3.488,1.28 c 1.208,0 2.088,-0.624 2.088,-1.6 v 0 c 0,-1.016 -1.192,-1.408 -2.512,-1.776 -1.6,-0.448 -3.336,-0.992 -3.336,-2.848 v 0 c 0,-1.728 1.44,-2.88 3.432,-2.88 a 6.912,6.912 0 0 1 3.624,1.112 l -0.68,1.128 a 5.688,5.688 0 0 0 -2.96,-1.048 c -1.192,0 -1.952,0.624 -1.952,1.464 v 0 c 0,0.952 1.248,1.32 2.592,1.736 1.6,0.464 3.2,1.072 3.2,2.88 v 0 c 0.016,1.992 -1.568,3.104 -3.576,3.104 z" class="cls-1" style="stroke-width:.8"/><path id="path2545" d="m 240.21194,52.49276 v 6.136 h -1.536 v -13.64 h 1.536 v 6.056 h 7.904 v -6.056 h 1.536 v 13.64 h -1.536 v -6.136 z" class="cls-1" style="stroke-width:.8"/><path id="path2547" d="m 257.71594,57.55676 a 4.16,4.16 0 0 0 3.2,-1.416 l 0.936,0.8 a 5.192,5.192 0 0 1 -4.208,1.952 5.016,5.016 0 0 1 -5.032,-5.264 c 0,-2.928 2.048,-5.264 4.84,-5.264 2.976,0 4.696,2.4 4.696,5.344 a 3.272,3.272 0 0 1 0,0.464 h -8 a 3.528,3.528 0 0 0 3.568,3.384 z m 2.944,-4.52 c -0.16,-1.832 -1.208,-3.432 -3.2,-3.432 -1.76,0 -3.08,1.464 -3.28,3.432 z" class="cls-1" style="stroke-width:.8"/><path id="path2549" d="m 265.36394,50.48476 -0.448,-1.192 a 8.248,8.248 0 0 1 3.664,-0.84 c 2.752,0 4.288,1.4 4.288,4.048 v 6.16 h -1.44 v -1.52 a 4.416,4.416 0 0 1 -3.648,1.736 c -1.872,0 -3.76,-1.048 -3.76,-3.152 0,-2.104 1.752,-3.28 4.312,-3.28 a 10.608,10.608 0 0 1 3.096,0.432 v -0.384 c 0,-1.816 -1.112,-2.752 -3,-2.752 a 6.984,6.984 0 0 0 -3.064,0.744 z m 0.176,5.144 c 0,1.288 1.168,2.032 2.536,2.032 1.848,0 3.368,-1.136 3.368,-2.736 v -0.968 a 10.4,10.4 0 0 0 -2.96,-0.432 c -1.888,0 -2.944,0.816 -2.944,2.104 z" class="cls-1" style="stroke-width:.8"/><path id="path2551" d="m 276.20394,58.62876 v -14.224 h 1.512 v 14.224 z" class="cls-1" style="stroke-width:.8"/><path id="path2553" d="m 283.21994,55.76476 a 1.488,1.488 0 0 0 1.696,1.68 3.144,3.144 0 0 0 1.464,-0.352 v 1.288 a 3.808,3.808 0 0 1 -1.816,0.424 2.568,2.568 0 0 1 -2.848,-2.848 v -6.08 h -1.4 v -1.32 h 1.4 v -3.04 h 1.504 v 3.04 h 3.2 v 1.32 h -3.2 z" class="cls-1" style="stroke-width:.8"/><path id="path2555" d="m 290.57194,58.62876 h -1.504 v -14.224 h 1.504 v 5.904 a 3.816,3.816 0 0 1 3.448,-1.968 c 2.44,0 3.864,1.6 3.864,4 v 6.256 h -1.504 v -5.856 c 0,-1.864 -1.016,-3.04 -2.792,-3.04 a 2.968,2.968 0 0 0 -3.016,3.2 z" class="cls-1" style="stroke-width:.8"/><path id="path2557" d="m 227.82794,51.58876 v -1.664 h -1.488 v 1.664 h -2.4 c -2.128,0 -2.352,-1.416 -2.352,-2.024 a 2.016,2.016 0 0 1 2.264,-1.976 5,5 0 0 1 0.856,0.096 l 0.368,-1.192 a 7.728,7.728 0 0 0 -1.368,-0.16 c -2.224,0 -3.656,1.2 -3.656,3.056 a 2.608,2.608 0 0 0 1.544,2.592 l 0.392,0.112 -0.392,0.112 a 3.2,3.2 0 0 0 -2.088,3.048 c 0,2.088 1.712,3.544 4.152,3.544 2.592,0 4.136,-1.6 4.136,-4.192 v -1.72 h 1.6 v -1.296 z m -1.664,2.984 c 0,1.8 -0.872,2.752 -2.528,2.752 a 2.24,2.24 0 0 1 -2.472,-2.112 c 0,-1.368 0.984,-2.152 2.68,-2.168 h 2.336 z" class="cls-1" style="stroke-width:.8"/><path id="path2559" d="m 36.611935,21.46876 a 42.296,42.296 0 0 0 3.504,2.856 41.24,41.24 0 0 0 4.496,-0.8 c -0.048,-0.192 -0.104,-0.376 -0.16,-0.568 a 57.6,57.6 0 0 1 -5.6,-3.912 c -0.736,0.856 -1.472,1.656 -2.24,2.424 z" class="cls-1" style="stroke-width:.8"/><path id="path2561" d="m 21.659935,59.25276 q -2.168,-1.096 -4.432,-1.96 a 43.088,43.088 0 0 1 -2.4,5.064 42.064,42.064 0 0 1 6.832,-3.104 z" class="cls-1" style="stroke-width:.8"/><path id="path2563" d="m 43.931935,20.79676 a 42.152,42.152 0 0 1 -0.8,-7.728 42.4,42.4 0 0 1 -3.28,4.8 q 1.968,1.552 4.08,2.928 z" class="cls-1" style="stroke-width:.8"/><path id="path2565" d="m 24.115935,58.47676 0.48,-0.128 a 41.16,41.16 0 0 0 -1.544,-4.112 42.632,42.632 0 0 0 -4.304,-1.6 q -0.424,1.6 -0.96,3.144 a 56.064,56.064 0 0 1 6.008,2.792 z" class="cls-1" style="stroke-width:.8"/><path id="path2567" d="m 20.691935,49.63676 c -0.32,-0.536 -0.656,-1.064 -1,-1.6 -0.16,1.032 -0.344,2.048 -0.568,3.056 0.984,0.304 1.952,0.632 2.912,1 -0.424,-0.816 -0.864,-1.64 -1.344,-2.456 z" class="cls-1" style="stroke-width:.8"/><path id="path2569" d="m 13.299935,44.77276 a 41.984,41.984 0 0 1 -6.1360003,4.448 42.784,42.784 0 0 1 5.6480003,0.448 c 0.232,-1.616 0.4,-3.248 0.488,-4.896 z" class="cls-1" style="stroke-width:.8"/><path id="path2571" d="m 17.211935,52.19676 c -1.016,-0.272 -2.04,-0.504 -3.08,-0.696 -0.168,0.944 -0.36,1.888 -0.568,2.824 0.912,0.272 1.824,0.576 2.728,0.904 0.352,-0.992 0.624,-2.008 0.92,-3.032 z" class="cls-1" style="stroke-width:.8"/><path id="path2573" d="m 19.083935,32.11676 c 0.224,0.968 0.416,1.944 0.568,2.928 a 40.52,40.52 0 0 0 2.264,-3.92 c -0.928,0.36 -1.872,0.696 -2.832,0.992 z" class="cls-1" style="stroke-width:.8"/><path id="path2575" d="m 37.715935,24.49276 c -0.8,-0.624 -1.536,-1.264 -2.272,-1.944 -0.72,0.672 -1.456,1.32 -2.224,1.944 a 42.144,42.144 0 0 0 4.496,0 z" class="cls-1" style="stroke-width:.8"/><path id="path2577" d="m 49.291935,23.86876 q 2.224,1.104 4.52,2.008 a 43.896,43.896 0 0 1 2.4,-5.12 41.552,41.552 0 0 1 -6.92,3.112 z" class="cls-1" style="stroke-width:.8"/><path id="path2579" d="m 17.163935,25.95676 c 1.6,-0.624 3.088,-1.312 4.576,-2.072 a 42.4,42.4 0 0 1 -7.064,-3.136 40.872,40.872 0 0 1 2.488,5.208 z" class="cls-1" style="stroke-width:.8"/><path id="path2581" d="m 35.427935,16.16476 q -1.032,0.976 -2.112,1.928 c 0.688,0.8 1.408,1.6 2.152,2.304 0.736,-0.768 1.448,-1.504 2.12,-2.304 -0.736,-0.64 -1.472,-1.272 -2.16,-1.928 z" class="cls-1" style="stroke-width:.8"/><path id="path2583" d="m 34.323935,21.46876 q -1.16,-1.152 -2.232,-2.4 a 55.304,55.304 0 0 1 -5.448,3.824 c -0.048,0.216 -0.104,0.432 -0.16,0.648 a 41.648,41.648 0 0 0 4.432,0.744 40.144,40.144 0 0 0 3.408,-2.816 z" class="cls-1" style="stroke-width:.8"/><path id="path2585" d="m 33.227935,58.54876 c 0.8,0.64 1.6,1.304 2.336,1.992 0.752,-0.688 1.52,-1.36 2.312,-2 a 40.952,40.952 0 0 0 -4.648,0.008 z" class="cls-1" style="stroke-width:.8"/><path id="path2587" d="m 27.315935,62.49276 a 42.064,42.064 0 0 1 0.76,7.36 41.28,41.28 0 0 1 3.104,-4.56 c -1.264,-0.976 -2.56,-1.92 -3.864,-2.8 z" class="cls-1" style="stroke-width:.8"/><path id="path2589" d="m 35.555935,66.97276 c 0.704,-0.656 1.416,-1.304 2.152,-1.928 -0.688,-0.8 -1.4,-1.552 -2.144,-2.288 -0.744,0.744 -1.464,1.52 -2.144,2.328 0.72,0.608 1.44,1.24 2.136,1.888 z" class="cls-1" style="stroke-width:.8"/><path id="path2591" d="m 34.419935,61.65276 a 40.8,40.8 0 0 0 -3.544,-2.896 39.84,39.84 0 0 0 -4.296,0.736 c 0.072,0.272 0.152,0.536 0.216,0.8 a 56.704,56.704 0 0 1 5.392,3.776 q 1.064,-1.24 2.232,-2.416 z" class="cls-1" style="stroke-width:.8"/><path id="path2593" d="m 57.451935,28.82876 c -0.904,-0.28 -1.8,-0.576 -2.696,-0.896 -0.344,0.992 -0.648,1.992 -0.912,2.992 1.008,0.272 2.016,0.504 3.048,0.696 0.16,-0.936 0.352,-1.872 0.56,-2.792 z" class="cls-1" style="stroke-width:.8"/><path id="path2595" d="m 58.451935,31.87676 a 40.384,40.384 0 0 0 8.12,0.368 c -0.16,-0.52 -0.336,-1.04 -0.52,-1.552 a 55.2,55.2 0 0 1 -7.064,-1.4 c -0.2,0.84 -0.376,1.712 -0.536,2.584 z" class="cls-1" style="stroke-width:.8"/><path id="path2597" d="m 63.995935,49.09276 a 41.776,41.776 0 0 1 -6.28,-4.552 c 0.096,1.68 0.264,3.36 0.52,5.024 a 42.048,42.048 0 0 1 5.76,-0.472 z" class="cls-1" style="stroke-width:.8"/><path id="path2599" d="m 7.3159347,34.02076 a 42,42 0 0 1 6.0000003,4.328 c -0.104,-1.6 -0.272,-3.2 -0.512,-4.8 a 41.96,41.96 0 0 1 -5.4880003,0.472 z" class="cls-1" style="stroke-width:.8"/><path id="path2601" d="m 56.051935,39.93276 a 57.816,57.816 0 0 1 0.584,-6.744 c -1.064,-0.2 -2.128,-0.44 -3.2,-0.72 a 40.264,40.264 0 0 0 -0.72,4.36 37.984,37.984 0 0 0 2.912,3.504 c 0.168,-0.128 0.288,-0.264 0.424,-0.4 z" class="cls-1" style="stroke-width:.8"/><path id="path2603" d="m 53.883935,57.14876 c -1.528,0.608 -3.024,1.288 -4.48,2.024 a 43.112,43.112 0 0 1 6.88,3.032 42.264,42.264 0 0 1 -2.4,-5.056 z" class="cls-1" style="stroke-width:.8"/><path id="path2605" d="m 36.707935,61.65276 c 0.8,0.8 1.512,1.6 2.224,2.4 a 58.136,58.136 0 0 1 5.6,-3.936 c 0.056,-0.2 0.104,-0.416 0.16,-0.616 a 41.432,41.432 0 0 0 -4.456,-0.752 43.592,43.592 0 0 0 -3.528,2.904 z" class="cls-1" style="stroke-width:.8"/><path id="path2607" d="m 18.331935,46.09276 a 41.528,41.528 0 0 0 -2.832,-3.408 c -0.184,0.184 -0.36,0.376 -0.544,0.552 a 57.864,57.864 0 0 1 -0.576,6.68 c 1.08,0.2 2.152,0.44 3.2,0.728 a 41.2,41.2 0 0 0 0.752,-4.552 z" class="cls-1" style="stroke-width:.8"/><path id="path2609" d="m 51.411935,48.13276 a 41.28,41.28 0 0 0 -2.2,3.832 c 0.904,-0.352 1.832,-0.672 2.768,-0.968 -0.216,-0.952 -0.416,-1.904 -0.568,-2.864 z" class="cls-1" style="stroke-width:.8"/><path id="path2611" d="m 53.323935,55.69276 c -0.36,-1.032 -0.68,-2.08 -0.968,-3.128 a 40.8,40.8 0 0 0 -4.144,1.528 41.512,41.512 0 0 0 -1.6,4.248 c 0.208,0.048 0.408,0.104 0.616,0.168 a 55.072,55.072 0 0 1 6.096,-2.816 z" class="cls-1" style="stroke-width:.8"/><path id="path2613" d="m 24.499935,24.71676 -0.624,-0.168 a 53.992,53.992 0 0 1 -6.16,2.896 c 0.368,1.032 0.696,2.072 0.984,3.128 a 40.416,40.416 0 0 0 4.216,-1.6 39.384,39.384 0 0 0 1.584,-4.256 z" class="cls-1" style="stroke-width:.8"/><path id="path2615" d="m 43.235935,70.00476 a 42.568,42.568 0 0 1 0.8,-7.704 q -2.12,1.392 -4.08,2.992 a 42.056,42.056 0 0 1 3.28,4.712 z" class="cls-1" style="stroke-width:.8"/><path id="path2617" d="m 13.379935,41.02076 c 0,-0.16 0,-0.312 0,-0.464 a 40.68,40.68 0 0 0 -9.1760003,-6.4 32.16,32.16 0 0 0 0,14.912 40.68,40.68 0 0 0 9.1920003,-6.504 c -0.008,-0.528 -0.008,-1.032 -0.016,-1.544 z" class="cls-1" style="stroke-width:.8"/><path id="path2619" d="m 36.707935,68.06876 a 57.152,57.152 0 0 1 4.76,5.344 c 0.544,-0.096 1.088,-0.208 1.6,-0.344 a 40.264,40.264 0 0 0 -4.376,-6.8 c -0.656,0.576 -1.328,1.184 -1.984,1.8 z" class="cls-1" style="stroke-width:.8"/><path id="path2621" d="m 23.619935,60.28476 a 40.864,40.864 0 0 0 -10.224,4.8 32.544,32.544 0 0 0 13.008,7.52 40.496,40.496 0 0 0 -1.008,-11.312 c -0.584,-0.336 -1.176,-0.68 -1.776,-1.008 z" class="cls-1" style="stroke-width:.8"/><path id="path2623" d="m 31.515935,73.69276 a 32.632,32.632 0 0 0 8.144,0 52.432,52.432 0 0 0 -4.096,-4.52 52.864,52.864 0 0 0 -4.048,4.52 z" class="cls-1" style="stroke-width:.8"/><path id="path2625" d="m 13.179935,55.86876 a 53.896,53.896 0 0 1 -2.2,6.648 c 0.368,0.432 0.744,0.848 1.128,1.256 a 40.296,40.296 0 0 0 3.632,-7.056 c -0.848,-0.304 -1.696,-0.592 -2.56,-0.848 z" class="cls-1" style="stroke-width:.8"/><path id="path2627" d="m 12.563935,51.24476 a 40.472,40.472 0 0 0 -7.8880003,-0.352 c 0.16,0.544 0.344,1.088 0.536,1.6 a 55.944,55.944 0 0 1 6.8160003,1.4 c 0.2,-0.888 0.376,-1.768 0.536,-2.648 z" class="cls-1" style="stroke-width:.8"/><path id="path2629" d="m 5.8679347,54.18876 a 32,32 0 0 0 4,6.904 54.192,54.192 0 0 0 1.8080003,-5.664 54.264,54.264 0 0 0 -5.8080003,-1.24 z" class="cls-1" style="stroke-width:.8"/><path id="path2631" d="m 32.411935,66.30876 a 41.48,41.48 0 0 0 -4.296,6.744 c 0.544,0.128 1.088,0.248 1.6,0.344 a 58.048,58.048 0 0 1 4.688,-5.32 c -0.64,-0.6 -1.312,-1.184 -1.992,-1.768 z" class="cls-1" style="stroke-width:.8"/><path id="path2633" d="m 45.883935,61.11676 a 40.656,40.656 0 0 0 -0.968,11.472 32.08,32.08 0 0 0 13.04,-7.552 41.072,41.072 0 0 0 -10.48,-4.8 c -0.56,0.256 -1.08,0.568 -1.592,0.88 z" class="cls-1" style="stroke-width:.8"/><path id="path2635" d="m 67.043935,33.95676 a 40.6,40.6 0 0 0 -9.416,6.68 c 0,0.56 0,1.128 0,1.696 a 40.624,40.624 0 0 0 9.488,6.656 32.16,32.16 0 0 0 -0.072,-15.032 z" class="cls-1" style="stroke-width:.8"/><path id="path2637" d="m 61.347935,61.22076 a 32.752,32.752 0 0 0 4.152,-7.2 52.712,52.712 0 0 0 -6.08,1.304 52.672,52.672 0 0 0 1.928,5.896 z" class="cls-1" style="stroke-width:.8"/><path id="path2639" d="m 58.515935,51.13276 c 0.16,0.88 0.336,1.752 0.544,2.624 a 55.52,55.52 0 0 1 7.112,-1.464 c 0.184,-0.512 0.352,-1.024 0.504,-1.544 a 40.336,40.336 0 0 0 -8.16,0.384 z" class="cls-1" style="stroke-width:.8"/><path id="path2641" d="m 56.915935,51.39676 c -1.016,0.192 -2.032,0.432 -3.04,0.704 0.272,1.008 0.576,2.008 0.928,3 0.888,-0.32 1.784,-0.616 2.696,-0.896 -0.208,-0.912 -0.408,-1.872 -0.584,-2.808 z" class="cls-1" style="stroke-width:.8"/><path id="path2643" d="m 55.371935,56.58876 a 40.8,40.8 0 0 0 3.76,7.248 c 0.36,-0.392 0.72,-0.8 1.072,-1.192 a 54.952,54.952 0 0 1 -2.312,-6.896 q -1.272,0.4 -2.52,0.84 z" class="cls-1" style="stroke-width:.8"/><path id="path2645" d="m 56.667935,49.82876 a 55.464,55.464 0 0 1 -0.608,-6.808 l -0.4,-0.392 a 41.04,41.04 0 0 0 -2.904,3.552 40.656,40.656 0 0 0 0.752,4.376 c 1.008,-0.288 2.096,-0.528 3.16,-0.728 z" class="cls-1" style="stroke-width:.8"/><path id="path2647" d="m 34.275935,15.06076 a 56.328,56.328 0 0 1 -4.64,-5.2000002 c -0.544,0.104 -1.08,0.2240002 -1.6,0.3520002 a 40.432,40.432 0 0 0 4.28,6.624 c 0.656,-0.576 1.312,-1.144 1.96,-1.776 z" class="cls-1" style="stroke-width:.8"/><path id="path2649" d="m 57.835935,27.27676 a 55.152,55.152 0 0 1 2.28,-6.784 c -0.36,-0.408 -0.72,-0.8 -1.096,-1.208 a 40.688,40.688 0 0 0 -3.696,7.2 c 0.792,0.256 1.656,0.536 2.512,0.792 z" class="cls-1" style="stroke-width:.8"/><path id="path2651" d="m 47.315935,22.83676 a 40.472,40.472 0 0 0 10.4,-4.8 32.472,32.472 0 0 0 -12.968,-7.432 40.8,40.8 0 0 0 1.08,11.368 c 0.496,0.296 0.992,0.584 1.488,0.864 z" class="cls-1" style="stroke-width:.8"/><path id="path2653" d="m 65.395935,28.99676 a 32.128,32.128 0 0 0 -4.16,-7.12 52.712,52.712 0 0 0 -1.872,5.816 52.8,52.8 0 0 0 6.032,1.304 z" class="cls-1" style="stroke-width:.8"/><path id="path2655" d="m 12.515935,31.99676 c -0.16,-0.88 -0.336,-1.76 -0.536,-2.624 a 56.6,56.6 0 0 1 -6.7920003,1.424 c -0.184,0.528 -0.36,1.056 -0.52,1.6 a 40.856,40.856 0 0 0 7.8480003,-0.4 z" class="cls-1" style="stroke-width:.8"/><path id="path2657" d="m 57.715935,38.40476 a 41.96,41.96 0 0 1 6.16,-4.504 41.704,41.704 0 0 1 -5.664,-0.456 q -0.368,2.472 -0.496,4.96 z" class="cls-1" style="stroke-width:.8"/><path id="path2659" d="m 39.419935,9.5167601 a 31.768,31.768 0 0 0 -8,0.056 53.056,53.056 0 0 0 4,4.3839999 55.344,55.344 0 0 0 4,-4.4399999 z" class="cls-1" style="stroke-width:.8"/><path id="path2661" d="m 49.203935,31.10076 a 42.4,42.4 0 0 0 2.192,3.792 c 0.152,-0.96 0.328,-1.912 0.536,-2.864 -0.92,-0.28 -1.832,-0.584 -2.728,-0.928 z" class="cls-1" style="stroke-width:.8"/><path id="path2663" d="m 38.595935,16.84476 a 40.8,40.8 0 0 0 4.312,-6.752 c -0.552,-0.1040002 -1.12,-0.2240002 -1.68,-0.3200002 a 56.184,56.184 0 0 1 -4.656,5.2800002 c 0.656,0.64 1.336,1.216 2.024,1.792 z" class="cls-1" style="stroke-width:.8"/><path id="path2665" d="m 15.683935,26.51676 a 40.344,40.344 0 0 0 -3.632,-7 c -0.384,0.408 -0.76,0.8 -1.12,1.264 a 54.064,54.064 0 0 1 2.192,6.6 c 0.864,-0.272 1.712,-0.552 2.56,-0.864 z" class="cls-1" style="stroke-width:.8"/><path id="path2667" d="m 18.307935,36.98076 a 40.376,40.376 0 0 0 -0.752,-4.416 c -1.064,0.28 -2.136,0.528 -3.2,0.728 a 56.104,56.104 0 0 1 0.6,6.576 c 0.192,0.176 0.384,0.352 0.568,0.536 a 40.8,40.8 0 0 0 2.784,-3.424 z" class="cls-1" style="stroke-width:.8"/><path id="path2669" d="m 9.7879347,22.22876 a 32.328,32.328 0 0 0 -3.928,6.848 54.872,54.872 0 0 0 5.7440003,-1.248 53.792,53.792 0 0 0 -1.8160003,-5.6 z" class="cls-1" style="stroke-width:.8"/><path id="path2671" d="m 25.267935,21.91676 a 40.696,40.696 0 0 0 1,-11.2 32.176,32.176 0 0 0 -12.8,7.448 41,41 0 0 0 10.256,4.696 c 0.496,-0.32 1.024,-0.632 1.544,-0.944 z" class="cls-1" style="stroke-width:.8"/><path id="path2673" d="m 27.907935,13.29276 a 41.6,41.6 0 0 1 -0.8,7.424 c 1.352,-0.896 2.664,-1.856 3.928,-2.864 a 42.4,42.4 0 0 1 -3.128,-4.56 z" class="cls-1" style="stroke-width:.8"/><path id="path2675" d="m 14.083935,31.69276 c 1.04,-0.192 2.072,-0.432 3.096,-0.712 -0.272,-1.016 -0.592,-2.016 -0.944,-3 -0.896,0.32 -1.808,0.632 -2.728,0.912 0.208,0.96 0.408,1.896 0.576,2.8 z" class="cls-1" style="stroke-width:.8"/><path id="path2677" d="m 47.043935,24.58076 -0.472,0.12 a 44.08,44.08 0 0 0 1.6,4.264 39.32,39.32 0 0 0 4.136,1.52 c 0.272,-1.048 0.592,-2.08 0.944,-3.112 a 57.224,57.224 0 0 1 -6.12,-2.824 z" class="cls-1" style="stroke-width:.8"/></svg>