<svg id="Layer_1" data-name="Layer 1" xmlns="http://www.w3.org/2000/svg" viewBox="0 0 368.21 80.83"><defs><style>.cls-1{fill:#fff;}</style></defs><path class="cls-1" d="M109.89,32.75a9.24,9.24,0,0,1-9.65-9.6,9.49,9.49,0,0,1,9.6-9.65A10,10,0,0,1,117,16l-2.07,2.48a7.33,7.33,0,0,0-5.22-2c-3.43,0-6,3-6,6.6,0,3.85,2.52,6.67,6.33,6.67a7.62,7.62,0,0,0,4.49-1.41V24.88h-4.76V22h7.92v7.82A11.83,11.83,0,0,1,109.89,32.75Z"/><path class="cls-1" d="M121.72,32.43V13h3.22V32.43Z"/><path class="cls-1" d="M135.81,32.75a7.26,7.26,0,0,1-7.44-7.28,7.49,7.49,0,1,1,7.44,7.28Zm0-11.83a4.22,4.22,0,0,0-4.23,4.49A4.34,4.34,0,0,0,135.86,30a4.23,4.23,0,0,0,4.26-4.49A4.34,4.34,0,0,0,135.81,20.92Z"/><path class="cls-1" d="M154.58,32.72a5.74,5.74,0,0,1-4.76-2.47v2.18h-3.21V13h3.21v7.71a5.62,5.62,0,0,1,4.76-2.63c3.33,0,6.54,2.63,6.54,7.31S157.93,32.72,154.58,32.72Zm-.74-11.83a4.23,4.23,0,0,0-4.1,4.52,4.23,4.23,0,0,0,4.1,4.52c2.2,0,4-1.73,4-4.52S156,20.89,153.84,20.89Z"/><path class="cls-1" d="M173,32.43V30.7a5.66,5.66,0,0,1-4.55,2c-2.66,0-5-1.51-5-4.33v-.05c0-3,2.42-4.52,5.69-4.52a11.71,11.71,0,0,1,3.88.58v-.35c0-1.94-1.22-3-3.45-3a9.84,9.84,0,0,0-4,.88l-.88-2.58A12.1,12.1,0,0,1,170,18.18c4.15,0,6.17,2.18,6.17,5.93v8.32Zm.08-6a9.46,9.46,0,0,0-3.22-.55c-2,0-3.22.82-3.22,2.26v.05c0,1.33,1.2,2.07,2.71,2.07,2.13,0,3.73-1.19,3.73-2.95Z"/><path class="cls-1" d="M180.21,32.43V13h3.22V32.43Z"/><path class="cls-1" d="M213.79,32.43h-3.45l-1.89-4.49h-8.8l-1.92,4.49h-3.35l8.19-18.75h3ZM204,17.59,200.84,25h6.41Z"/><path class="cls-1" d="M216.79,32.43V13H220V32.43Z"/><path class="cls-1" d="M224.4,32.43V13h3.22V32.43Z"/><path class="cls-1" d="M231.87,16.24V13.18h3.46v3.06ZM232,32.43v-14h3.22v14Z"/><path class="cls-1" d="M248,32.43V30.7a5.66,5.66,0,0,1-4.55,2c-2.66,0-5-1.51-5-4.33v-.05c0-3,2.42-4.52,5.69-4.52a11.67,11.67,0,0,1,3.88.58v-.35c0-1.94-1.22-3-3.45-3a9.84,9.84,0,0,0-4,.88l-.87-2.58A12,12,0,0,1,245,18.18c4.15,0,6.17,2.18,6.17,5.93v8.32Zm.08-6a9.46,9.46,0,0,0-3.22-.55c-2,0-3.22.82-3.22,2.26v.05c0,1.33,1.2,2.07,2.71,2.07,2.13,0,3.73-1.19,3.73-2.95Z"/><path class="cls-1" d="M258.24,32.43H255v-14h3.21v2.18a5.06,5.06,0,0,1,4.39-2.47c3.17,0,5,2.13,5,5.4v8.93h-3.22v-8c0-2.18-1.09-3.43-3-3.43s-3.17,1.31-3.17,3.49Z"/><path class="cls-1" d="M278,32.75a7.17,7.17,0,0,1-7.26-7.28A7.24,7.24,0,0,1,278,18.1a7,7,0,0,1,5.62,2.42l-2,2.15A4.7,4.7,0,0,0,278,20.92,4.23,4.23,0,0,0,274,25.41,4.28,4.28,0,0,0,278.16,30a4.94,4.94,0,0,0,3.64-1.76l1.94,1.92A7.1,7.1,0,0,1,278,32.75Z"/><path class="cls-1" d="M292.78,30.12a5.1,5.1,0,0,0,3.8-1.68l1.89,1.68a7.13,7.13,0,0,1-5.75,2.63,7,7,0,0,1-7.2-7.31c0-4,2.84-7.34,6.86-7.34,4.47,0,6.73,3.51,6.73,7.58,0,.29,0,.55-.06.87H288.73A4,4,0,0,0,292.78,30.12Zm3.13-5.69c-.21-2.08-1.43-3.7-3.56-3.7-2,0-3.35,1.52-3.64,3.7Z"/><path class="cls-1" d="M107.32,49.12v1.61h-4V61.67h-1.88V50.73H99.74V49.1h1.73V48c0-2.75,1.39-4.21,3.8-4.21a5.66,5.66,0,0,1,2.07.32v1.63a6.08,6.08,0,0,0-1.83-.32c-1.46,0-2.19.88-2.19,2.68v1Z"/><path class="cls-1" d="M115.21,62a6.58,6.58,0,1,1,6.6-6.61A6.55,6.55,0,0,1,115.21,62Zm0-11.51a4.62,4.62,0,0,0-4.6,4.9,4.74,4.74,0,0,0,4.65,4.93,4.64,4.64,0,0,0,4.63-4.88A4.76,4.76,0,0,0,115.21,50.46Z"/><path class="cls-1" d="M127.08,61.67H125.2V49.08h1.88v3.29a5.39,5.39,0,0,1,5.14-3.51v2h-.14c-2.76,0-5,2-5,5.77Z"/><path class="cls-1" d="M150.62,62c-5.36,0-8.68-3.9-8.68-8.8a8.57,8.57,0,0,1,8.56-8.84,9,9,0,0,1,6.36,2.26l-1.25,1.47a7.22,7.22,0,0,0-5.19-2c-3.77,0-6.48,3.2-6.48,7,0,4.09,2.61,7.12,6.75,7.12a8,8,0,0,0,4.92-1.71V54.29h-5.19V52.56h7v6.8A10.34,10.34,0,0,1,150.62,62Z"/><path class="cls-1" d="M167,60.33a5.24,5.24,0,0,0,4-1.77l1.17,1A6.51,6.51,0,0,1,167,62a6.27,6.27,0,0,1-6.28-6.58c0-3.66,2.56-6.58,6-6.58,3.73,0,5.87,3,5.87,6.68,0,.17,0,.36,0,.58h-10A4.41,4.41,0,0,0,167,60.33Zm3.68-5.65c-.19-2.29-1.51-4.29-4-4.29-2.19,0-3.84,1.83-4.09,4.29Z"/><path class="cls-1" d="M177.79,61.67h-1.87V49.08h1.87v2.19a4.79,4.79,0,0,1,4.31-2.46c3.05,0,4.83,2,4.83,5v7.82h-1.88V54.31c0-2.33-1.27-3.8-3.48-3.8a3.71,3.71,0,0,0-3.78,4Z"/><path class="cls-1" d="M196.68,62a6.58,6.58,0,1,1,6.6-6.61A6.55,6.55,0,0,1,196.68,62Zm0-11.51a4.63,4.63,0,0,0-4.61,4.9,4.74,4.74,0,0,0,4.66,4.93,4.65,4.65,0,0,0,4.63-4.88A4.77,4.77,0,0,0,196.68,50.46Z"/><path class="cls-1" d="M221.09,48.81c2.9,0,4.68,1.95,4.68,5.07v7.79H223.9V54.31c0-2.43-1.22-3.8-3.27-3.8-1.9,0-3.48,1.42-3.48,3.9v7.26h-1.86v-7.4c0-2.37-1.24-3.76-3.24-3.76s-3.51,1.66-3.51,4v7.18h-1.87V49.08h1.87V51.2a4.61,4.61,0,0,1,4.07-2.39,4.29,4.29,0,0,1,4,2.51A5,5,0,0,1,221.09,48.81Z"/><path class="cls-1" d="M229.89,46.32V44.25H232v2.07ZM230,61.67V49.08h1.88V61.67Z"/><path class="cls-1" d="M241.93,62a6.58,6.58,0,1,1,5-10.92l-1.24,1.32a5.09,5.09,0,0,0-3.83-1.91,4.65,4.65,0,0,0-4.5,4.9A4.71,4.71,0,0,0,242,60.29a5.21,5.21,0,0,0,3.86-1.88l1.19,1.12A6.51,6.51,0,0,1,241.93,62Z"/><path class="cls-1" d="M254.33,61.92a8.68,8.68,0,0,1-5.21-1.85l.95-1.34a7.37,7.37,0,0,0,4.36,1.6c1.51,0,2.61-.78,2.61-2v0c0-1.27-1.49-1.76-3.14-2.22-2-.56-4.17-1.24-4.17-3.56v0c0-2.16,1.8-3.6,4.29-3.6a8.64,8.64,0,0,1,4.53,1.39l-.85,1.41A7.11,7.11,0,0,0,254,50.44c-1.49,0-2.44.78-2.44,1.83v0c0,1.19,1.56,1.65,3.24,2.17,2,.58,4,1.34,4,3.6v0C258.82,60.53,256.84,61.92,254.33,61.92Z"/><path class="cls-1" d="M296.12,54v7.67H294.2V44.62h1.92v7.57H306V44.62h1.92V61.67H306V54Z"/><path class="cls-1" d="M318,60.33a5.2,5.2,0,0,0,4-1.77l1.17,1A6.49,6.49,0,0,1,317.91,62a6.27,6.27,0,0,1-6.29-6.58c0-3.66,2.56-6.58,6.05-6.58,3.72,0,5.87,3,5.87,6.68a4.09,4.09,0,0,1,0,.58h-10A4.41,4.41,0,0,0,318,60.33Zm3.68-5.65c-.2-2.29-1.51-4.29-4-4.29-2.2,0-3.85,1.83-4.1,4.29Z"/><path class="cls-1" d="M327.56,51.49,327,50a10.31,10.31,0,0,1,4.58-1.05c3.44,0,5.36,1.75,5.36,5.06v7.7h-1.8v-1.9a5.52,5.52,0,0,1-4.56,2.17c-2.34,0-4.7-1.31-4.7-3.94s2.19-4.1,5.39-4.1a13.26,13.26,0,0,1,3.87.54V54c0-2.27-1.39-3.44-3.75-3.44A8.73,8.73,0,0,0,327.56,51.49Zm.22,6.43c0,1.61,1.46,2.54,3.17,2.54,2.31,0,4.21-1.42,4.21-3.42V55.83a13,13,0,0,0-3.7-.54C329.1,55.29,327.78,56.31,327.78,57.92Z"/><path class="cls-1" d="M341.11,61.67V43.89H343V61.67Z"/><path class="cls-1" d="M349.88,58.09a1.86,1.86,0,0,0,2.12,2.1,3.93,3.93,0,0,0,1.83-.44v1.61a4.76,4.76,0,0,1-2.27.53A3.21,3.21,0,0,1,348,58.33v-7.6h-1.75V49.08H348v-3.8h1.88v3.8h4v1.65h-4Z"/><path class="cls-1" d="M359.07,61.67h-1.88V43.89h1.88v7.38a4.77,4.77,0,0,1,4.31-2.46c3.05,0,4.83,2,4.83,5v7.82h-1.88V54.31c0-2.33-1.27-3.8-3.49-3.8a3.71,3.71,0,0,0-3.77,4Z"/><path class="cls-1" d="M280.64,52.87V50.79h-1.86v2.08h-3c-2.66,0-2.94-1.77-2.94-2.53a2.52,2.52,0,0,1,2.83-2.47,6.25,6.25,0,0,1,1.07.12l.46-1.49a9.66,9.66,0,0,0-1.71-.2c-2.78,0-4.57,1.5-4.57,3.82a3.26,3.26,0,0,0,1.93,3.24l.49.14-.49.14a4,4,0,0,0-2.61,3.81c0,2.61,2.14,4.43,5.19,4.43,3.24,0,5.17-2,5.17-5.24V54.49h2V52.87Zm-2.08,3.73c0,2.25-1.09,3.44-3.16,3.44a2.8,2.8,0,0,1-3.09-2.64c0-1.71,1.23-2.69,3.35-2.71h2.92Z"/><path class="cls-1" d="M41.62,15.22A52.87,52.87,0,0,0,46,18.79a51.55,51.55,0,0,0,5.62-1c-.06-.24-.13-.47-.2-.71a72,72,0,0,1-7-4.89C43.5,13.26,42.58,14.26,41.62,15.22Z"/><path class="cls-1" d="M22.93,62.45Q20.22,61.08,17.39,60a53.86,53.86,0,0,1-3,6.33A52.58,52.58,0,0,1,22.93,62.45Z"/><path class="cls-1" d="M50.77,14.38a52.69,52.69,0,0,1-1-9.66,53,53,0,0,1-4.1,6Q48.13,12.66,50.77,14.38Z"/><path class="cls-1" d="M26,61.48l.6-.16a51.45,51.45,0,0,0-1.93-5.14,53.29,53.29,0,0,0-5.38-2q-.53,2-1.2,3.93A70.08,70.08,0,0,1,25.6,61.6Z"/><path class="cls-1" d="M21.72,50.43c-.4-.67-.82-1.33-1.25-2-.2,1.29-.43,2.56-.71,3.82,1.23.38,2.44.79,3.64,1.25C22.87,52.48,22.32,51.45,21.72,50.43Z"/><path class="cls-1" d="M12.48,44.35a52.48,52.48,0,0,1-7.67,5.56,53.48,53.48,0,0,1,7.06.56C12.16,48.45,12.37,46.41,12.48,44.35Z"/><path class="cls-1" d="M17.37,53.63c-1.27-.34-2.55-.63-3.85-.87-.21,1.18-.45,2.36-.71,3.53,1.14.34,2.28.72,3.41,1.13C16.66,56.18,17,54.91,17.37,53.63Z"/><path class="cls-1" d="M19.71,28.53c.28,1.21.52,2.43.71,3.66a50.65,50.65,0,0,0,2.83-4.9C22.09,27.74,20.91,28.16,19.71,28.53Z"/><path class="cls-1" d="M43,19c-1-.78-1.92-1.58-2.84-2.43-.9.84-1.82,1.65-2.78,2.43A52.68,52.68,0,0,0,43,19Z"/><path class="cls-1" d="M57.47,18.22q2.78,1.38,5.65,2.51a54.87,54.87,0,0,1,3-6.4A51.94,51.94,0,0,1,57.47,18.22Z"/><path class="cls-1" d="M17.31,20.83c2-.78,3.86-1.64,5.72-2.59a53,53,0,0,1-8.83-3.92A51.09,51.09,0,0,1,17.31,20.83Z"/><path class="cls-1" d="M40.14,8.59Q38.85,9.81,37.5,11c.86,1,1.76,2,2.69,2.88C41.11,12.92,42,12,42.84,11,41.92,10.2,41,9.41,40.14,8.59Z"/><path class="cls-1" d="M38.76,15.22q-1.45-1.44-2.79-3A69.13,69.13,0,0,1,29.16,17c-.06.27-.13.54-.2.81a52.06,52.06,0,0,0,5.54.93A50.18,50.18,0,0,0,38.76,15.22Z"/><path class="cls-1" d="M37.39,61.57c1,.8,2,1.63,2.92,2.49.94-.86,1.9-1.7,2.89-2.5A51.19,51.19,0,0,0,37.39,61.57Z"/><path class="cls-1" d="M30,66.5a52.58,52.58,0,0,1,.95,9.2A51.6,51.6,0,0,1,34.83,70C33.25,68.78,31.63,67.6,30,66.5Z"/><path class="cls-1" d="M40.3,72.1c.88-.82,1.77-1.63,2.69-2.41-.86-1-1.75-1.94-2.68-2.86-.93.93-1.83,1.9-2.68,2.91C38.53,70.5,39.43,71.29,40.3,72.1Z"/><path class="cls-1" d="M38.88,65.45a51,51,0,0,0-4.43-3.62,49.8,49.8,0,0,0-5.37.92c.09.34.19.67.27,1a70.88,70.88,0,0,1,6.74,4.72Q37.42,66.92,38.88,65.45Z"/><path class="cls-1" d="M67.67,24.42c-1.13-.35-2.25-.72-3.37-1.12-.43,1.24-.81,2.49-1.14,3.74,1.26.34,2.52.63,3.81.87C67.17,26.74,67.41,25.57,67.67,24.42Z"/><path class="cls-1" d="M68.92,28.23a50.48,50.48,0,0,0,10.15.46c-.2-.65-.42-1.3-.65-1.94A69,69,0,0,1,69.59,25C69.34,26.05,69.12,27.14,68.92,28.23Z"/><path class="cls-1" d="M75.85,49.75A52.22,52.22,0,0,1,68,44.06c.12,2.1.33,4.2.65,6.28A52.56,52.56,0,0,1,75.85,49.75Z"/><path class="cls-1" d="M5,30.91a52.5,52.5,0,0,1,7.5,5.41c-.13-2-.34-4-.64-6A52.45,52.45,0,0,1,5,30.91Z"/><path class="cls-1" d="M65.92,38.3a72.27,72.27,0,0,1,.73-8.43c-1.33-.25-2.66-.55-4-.9a50.33,50.33,0,0,0-.9,5.45,47.48,47.48,0,0,0,3.64,4.38C65.6,38.64,65.75,38.47,65.92,38.3Z"/><path class="cls-1" d="M63.21,59.82c-1.91.76-3.78,1.61-5.6,2.53a53.89,53.89,0,0,1,8.6,3.79A52.83,52.83,0,0,1,63.21,59.82Z"/><path class="cls-1" d="M41.74,65.45c1,1,1.89,2,2.78,3a72.67,72.67,0,0,1,7-4.92c.07-.25.13-.52.2-.77a51.79,51.79,0,0,0-5.57-.94A54.49,54.49,0,0,0,41.74,65.45Z"/><path class="cls-1" d="M18.77,46a51.91,51.91,0,0,0-3.54-4.26c-.23.23-.45.47-.68.69a72.33,72.33,0,0,1-.72,8.35c1.35.25,2.69.55,4,.91A51.5,51.5,0,0,0,18.77,46Z"/><path class="cls-1" d="M60.12,48.55a51.6,51.6,0,0,0-2.75,4.79c1.13-.44,2.29-.84,3.46-1.21C60.56,50.94,60.31,49.75,60.12,48.55Z"/><path class="cls-1" d="M62.51,58c-.45-1.29-.85-2.6-1.21-3.91A51,51,0,0,0,56.12,56a51.89,51.89,0,0,0-2,5.31c.26.06.51.13.77.21A68.84,68.84,0,0,1,62.51,58Z"/><path class="cls-1" d="M26.48,19.28l-.78-.21A67.49,67.49,0,0,1,18,22.69c.46,1.29.87,2.59,1.23,3.91a50.52,50.52,0,0,0,5.27-2A49.23,49.23,0,0,0,26.48,19.28Z"/><path class="cls-1" d="M49.9,75.89a53.21,53.21,0,0,1,1-9.63Q48.25,68,45.8,70A52.57,52.57,0,0,1,49.9,75.89Z"/><path class="cls-1" d="M12.58,39.66c0-.2,0-.39,0-.58a50.85,50.85,0,0,0-11.47-8,40.2,40.2,0,0,0,0,18.64,50.85,50.85,0,0,0,11.49-8.13C12.59,40.93,12.59,40.3,12.58,39.66Z"/><path class="cls-1" d="M41.74,73.47a71.44,71.44,0,0,1,5.95,6.68c.68-.12,1.36-.26,2-.43a50.33,50.33,0,0,0-5.47-8.5C43.4,71.94,42.56,72.7,41.74,73.47Z"/><path class="cls-1" d="M25.38,63.74a51.08,51.08,0,0,0-12.78,6,40.68,40.68,0,0,0,16.26,9.4A50.62,50.62,0,0,0,27.6,65C26.87,64.58,26.13,64.15,25.38,63.74Z"/><path class="cls-1" d="M35.25,80.5a40.79,40.79,0,0,0,10.18,0,65.54,65.54,0,0,0-5.12-5.65A66.08,66.08,0,0,0,35.25,80.5Z"/><path class="cls-1" d="M12.33,58.22a67.37,67.37,0,0,1-2.75,8.31c.46.54.93,1.06,1.41,1.57a50.37,50.37,0,0,0,4.54-8.82C14.47,58.9,13.41,58.54,12.33,58.22Z"/><path class="cls-1" d="M11.56,52.44A50.59,50.59,0,0,0,1.7,52c.2.68.43,1.36.67,2a69.93,69.93,0,0,1,8.52,1.75C11.14,54.64,11.36,53.54,11.56,52.44Z"/><path class="cls-1" d="M3.19,56.12a40,40,0,0,0,5,8.63,67.74,67.74,0,0,0,2.26-7.08A67.83,67.83,0,0,0,3.19,56.12Z"/><path class="cls-1" d="M36.37,71.27A51.85,51.85,0,0,0,31,79.7c.68.16,1.36.31,2,.43a72.56,72.56,0,0,1,5.86-6.65C38.06,72.73,37.22,72,36.37,71.27Z"/><path class="cls-1" d="M53.21,64.78A50.82,50.82,0,0,0,52,79.12a40.1,40.1,0,0,0,16.3-9.44,51.34,51.34,0,0,0-13.1-6C54.5,64,53.85,64.39,53.21,64.78Z"/><path class="cls-1" d="M79.66,30.83a50.75,50.75,0,0,0-11.77,8.35c0,.7,0,1.41,0,2.12a50.78,50.78,0,0,0,11.86,8.32A40.2,40.2,0,0,0,79.66,30.83Z"/><path class="cls-1" d="M72.54,64.91a40.94,40.94,0,0,0,5.19-9,65.89,65.89,0,0,0-7.6,1.63A65.84,65.84,0,0,0,72.54,64.91Z"/><path class="cls-1" d="M69,52.3c.2,1.1.42,2.19.68,3.28a69.4,69.4,0,0,1,8.89-1.83c.23-.64.44-1.28.63-1.93A50.42,50.42,0,0,0,69,52.3Z"/><path class="cls-1" d="M67,52.63c-1.27.24-2.54.54-3.8.88.34,1.26.72,2.51,1.16,3.75,1.11-.4,2.23-.77,3.37-1.12C67.47,55,67.22,53.8,67,52.63Z"/><path class="cls-1" d="M65.07,59.12a51,51,0,0,0,4.7,9.06c.45-.49.9-1,1.34-1.49a68.69,68.69,0,0,1-2.89-8.62Q66.63,58.57,65.07,59.12Z"/><path class="cls-1" d="M66.69,50.67a69.33,69.33,0,0,1-.76-8.51l-.5-.49a51.3,51.3,0,0,0-3.63,4.44,50.82,50.82,0,0,0,.94,5.47C64,51.22,65.36,50.92,66.69,50.67Z"/><path class="cls-1" d="M38.7,7.21A70.41,70.41,0,0,1,32.9.71c-.68.13-1.35.28-2,.44a50.54,50.54,0,0,0,5.35,8.28C37.07,8.71,37.89,8,38.7,7.21Z"/><path class="cls-1" d="M68.15,22.48A68.94,68.94,0,0,1,71,14c-.45-.51-.9-1-1.37-1.51a50.86,50.86,0,0,0-4.62,9C66,21.81,67.08,22.16,68.15,22.48Z"/><path class="cls-1" d="M55,16.93a50.59,50.59,0,0,0,13-6A40.59,40.59,0,0,0,51.79,1.64a51,51,0,0,0,1.35,14.21C53.76,16.22,54.38,16.58,55,16.93Z"/><path class="cls-1" d="M77.6,24.63a40.16,40.16,0,0,0-5.2-8.9A65.89,65.89,0,0,0,70.06,23,66,66,0,0,0,77.6,24.63Z"/><path class="cls-1" d="M11.5,28.38c-.2-1.1-.42-2.2-.67-3.28a70.75,70.75,0,0,1-8.49,1.78c-.23.66-.45,1.32-.65,2A51.07,51.07,0,0,0,11.5,28.38Z"/><path class="cls-1" d="M68,36.39a52.45,52.45,0,0,1,7.7-5.63,52.13,52.13,0,0,1-7.08-.57Q68.16,33.28,68,36.39Z"/><path class="cls-1" d="M45.13.28a39.71,39.71,0,0,0-10,.07,66.32,66.32,0,0,0,5,5.48A69.18,69.18,0,0,0,45.13.28Z"/><path class="cls-1" d="M57.36,27.26A53,53,0,0,0,60.1,32c.19-1.2.41-2.39.67-3.58C59.62,28.07,58.48,27.69,57.36,27.26Z"/><path class="cls-1" d="M44.1,9.44A51,51,0,0,0,49.49,1C48.8.87,48.09.72,47.39.6a70.23,70.23,0,0,1-5.82,6.6C42.39,8,43.24,8.72,44.1,9.44Z"/><path class="cls-1" d="M15.46,21.53a50.43,50.43,0,0,0-4.54-8.75c-.48.51-.95,1-1.4,1.58a67.58,67.58,0,0,1,2.74,8.25C13.34,22.27,14.4,21.92,15.46,21.53Z"/><path class="cls-1" d="M18.74,34.61a50.47,50.47,0,0,0-.94-5.52c-1.33.35-2.67.66-4,.91a70.13,70.13,0,0,1,.75,8.22c.24.22.48.44.71.67A51,51,0,0,0,18.74,34.61Z"/><path class="cls-1" d="M8.09,16.17a40.41,40.41,0,0,0-4.91,8.56,68.59,68.59,0,0,0,7.18-1.56A67.24,67.24,0,0,0,8.09,16.17Z"/><path class="cls-1" d="M27.44,15.78a50.87,50.87,0,0,0,1.25-14,40.22,40.22,0,0,0-16,9.31,51.25,51.25,0,0,0,12.82,5.87C26.13,16.56,26.79,16.17,27.44,15.78Z"/><path class="cls-1" d="M30.74,5a52,52,0,0,1-1,9.28c1.69-1.12,3.33-2.32,4.91-3.58A53,53,0,0,1,30.74,5Z"/><path class="cls-1" d="M13.46,28c1.3-.24,2.59-.54,3.87-.89-.34-1.27-.74-2.52-1.18-3.75-1.12.4-2.26.79-3.41,1.14C13,25.7,13.25,26.87,13.46,28Z"/><path class="cls-1" d="M54.66,19.11l-.59.15a55.1,55.1,0,0,0,2,5.33,49.15,49.15,0,0,0,5.17,1.9c.34-1.31.74-2.6,1.18-3.89a71.53,71.53,0,0,1-7.65-3.53Z"/></svg>