<svg xmlns="http://www.w3.org/2000/svg" id="Layer_1" data-name="Layer 1" viewBox="0 0 485.04 351.85"><defs><style>.cls-1{fill:#b1b3b6}.cls-2{fill:#fff}</style></defs><path d="M206.8,38.3l0-38.29h-.58a207.53,207.53,0,0,0-26.9,1.75l4.95,38a169.24,169.24,0,0,1,22.19-1.46Z" class="cls-1"/><path d="M78.6,189.21,116,194.1a88.65,88.65,0,0,1,6-22.78L87.16,156.85,51.48,142a165,165,0,0,0-7,20.7L7,152.69a206.1,206.1,0,0,0-5.25,26.44l38.5,5.05Z" class="cls-1"/><path d="M260.16,7.15l-10,36.93a166.73,166.73,0,0,1,20.75,7.08l14.75-35.28A202.76,202.76,0,0,0,260.16,7.15Z" class="cls-1"/><path d="M127.92,308.11A130.53,130.53,0,0,1,115.21,297L87.88,324.26a167.49,167.49,0,0,0,16.46,14.45Z" class="cls-1"/><path d="M81.93,239.42l36.45-9.71A92.68,92.68,0,0,1,115.21,206l-37.71,0A129.35,129.35,0,0,0,78.66,223l-38.33,5a169.4,169.4,0,0,1-1.45-21.85L0,206.11v.08a208.92,208.92,0,0,0,1.72,26.75,206.19,206.19,0,0,0,5.22,26.45l37.66-10Z" class="cls-1"/><path d="M134,261.34a92.52,92.52,0,0,1-6.61-9.89,89.89,89.89,0,0,1-5.25-10.59L87.32,255.28a128.71,128.71,0,0,0,7.45,15L61.3,289.63,27.5,309.14a208.12,208.12,0,0,0,32.75,42.71l27.63-27.59A168.51,168.51,0,0,1,73.46,307.8l30.66-23.51Z" class="cls-1"/><path d="M230.24,117.79a89.79,89.79,0,0,1,11.22,3.82L256,86.8a128.13,128.13,0,0,0-15.93-5.42Z" class="cls-1"/><path d="M189.25,78.09l-5-38.33a168,168,0,0,0-21.5,4.3L152.85,7a203.65,203.65,0,0,0-25.55,8.67L142,51.14,156.8,86.83a128.22,128.22,0,0,0-15.07,7.51L160.62,127a89.17,89.17,0,0,1,21.84-9.14,88.33,88.33,0,0,1,11.67-2.36,91,91,0,0,1,12.31-.85h.4l0-37.72h-.38A130,130,0,0,0,189.25,78.09Z" class="cls-1"/><path d="M206.82,76.92a130.1,130.1,0,0,1,16.74,1.16l5.11-38.31A169.7,169.7,0,0,0,206.8,38.3Z" class="cls-1"/><path d="M104.17,73.14,80.71,42.59A205.17,205.17,0,0,0,60.43,60.36L87.7,87.64,115,115a131.07,131.07,0,0,1,26.73-20.61L122.38,60.89A166.5,166.5,0,0,0,104.17,73.14Z" class="cls-1"/><path d="M133.79,150.7a92.05,92.05,0,0,1,7.88-9.08L115,115a129.68,129.68,0,0,0-11.11,12.76Z" class="cls-1"/><path d="M42.65,80.63a206.52,206.52,0,0,0-15,22.38l33.48,19.38,33.45,19.38a127.76,127.76,0,0,1,9.32-14.06L73.27,104.17Z" class="cls-1"/><path d="M309.79,27.88l-19.24,33-19.44,33.4a128.61,128.61,0,0,1,14.05,9.44l23.62-30.57,23.36-30.25A206.55,206.55,0,0,0,309.79,27.88Z" class="cls-1"/><path d="M290.55,60.92a166.82,166.82,0,0,0-19.63-9.76L256,86.8a127.92,127.92,0,0,1,15.1,7.52Z" class="cls-2"/><path d="M223.56,78.08l-5,37.38a89.92,89.92,0,0,1,11.67,2.33l9.84-36.41A126.75,126.75,0,0,0,223.56,78.08Z" class="cls-2"/><path d="M206.44,38.3a169.24,169.24,0,0,0-22.19,1.46l5,38.33a130,130,0,0,1,17.19-1.18h.38l0-38.62Z" class="cls-2"/><path d="M51.48,142l35.68,14.82a127.72,127.72,0,0,1,7.41-15.08L61.12,122.39A167,167,0,0,0,51.48,142Z" class="cls-2"/><path d="M87.88,324.26,115.21,297a130.11,130.11,0,0,1-11.09-12.7L73.46,307.8A168.51,168.51,0,0,0,87.88,324.26Z" class="cls-2"/><path d="M94.57,141.77l32.64,18.89a89.78,89.78,0,0,1,6.58-10l-29.9-23A127.76,127.76,0,0,0,94.57,141.77Z" class="cls-2"/><path d="M77.49,205.86c0,.07,0,.13,0,.2l37.71,0v-.18A91.33,91.33,0,0,1,116,194.1L78.6,189.21A130.54,130.54,0,0,0,77.49,205.86Z" class="cls-2"/><path d="M51.62,270l35.7-14.76a128.1,128.1,0,0,1-5.39-15.86L44.6,249.36A167.1,167.1,0,0,0,51.62,270Z" class="cls-2"/><path d="M127.7,103.78l23,29.9a92.07,92.07,0,0,1,10-6.7L141.73,94.34A128.35,128.35,0,0,0,127.7,103.78Z" class="cls-2"/><path d="M173.31,299.36a13.48,13.48,0,0,1-5.29-1,12.38,12.38,0,0,1-4.13-2.78,12.9,12.9,0,0,1-2.7-4.19,14.39,14.39,0,0,1,0-10.44,12.8,12.8,0,0,1,2.7-4.19A12.55,12.55,0,0,1,168,274a14.36,14.36,0,0,1,10.58,0,12.49,12.49,0,0,1,4.14,2.79,12.8,12.8,0,0,1,2.7,4.19,14.53,14.53,0,0,1,0,10.44,12.9,12.9,0,0,1-2.7,4.19,12.32,12.32,0,0,1-4.14,2.78A13.44,13.44,0,0,1,173.31,299.36Zm0-3.19a9.13,9.13,0,0,0,6.89-2.95,9.52,9.52,0,0,0,1.92-3.17,11.63,11.63,0,0,0,0-7.78,9.46,9.46,0,0,0-1.92-3.18,9.34,9.34,0,0,0-3-2.14,9.93,9.93,0,0,0-7.81,0,9.34,9.34,0,0,0-3,2.14,9.46,9.46,0,0,0-1.92,3.18,11.63,11.63,0,0,0,0,7.78,9.52,9.52,0,0,0,1.92,3.17,9.12,9.12,0,0,0,6.88,2.95Z" class="cls-2"/><path d="M190.71,281.9h3.19v2.59H194a4.69,4.69,0,0,1,2.1-2.18,6.88,6.88,0,0,1,3.44-.84,7.29,7.29,0,0,1,2.33.38,5.2,5.2,0,0,1,1.95,1.15,5.52,5.52,0,0,1,1.33,2,7.75,7.75,0,0,1,.5,2.9v10.83h-3.2v-9.94a5.47,5.47,0,0,0-.32-2,3.51,3.51,0,0,0-.85-1.35,3.13,3.13,0,0,0-1.22-.74,4.35,4.35,0,0,0-1.44-.24,5.33,5.33,0,0,0-1.85.32,3.86,3.86,0,0,0-1.49,1,4.72,4.72,0,0,0-1,1.75,7.89,7.89,0,0,0-.36,2.52v8.67h-3.19Z" class="cls-2"/><path d="M219.59,284.67H215v7.63c0,.47,0,.94,0,1.4a3.75,3.75,0,0,0,.27,1.25,2,2,0,0,0,.71.88,2.39,2.39,0,0,0,1.4.34,6.8,6.8,0,0,0,1.17-.11,3.27,3.27,0,0,0,1.1-.39v2.91a4.18,4.18,0,0,1-1.47.45,11.38,11.38,0,0,1-1.4.12,6.48,6.48,0,0,1-2.86-.51,3.61,3.61,0,0,1-1.49-1.33,4.37,4.37,0,0,1-.57-1.83q-.09-1-.09-2v-8.77h-3.69V281.9h3.69v-4.72H215v4.72h4.58Z" class="cls-2"/><path d="M223.66,284a9,9,0,0,1,3.12-1.87,10.84,10.84,0,0,1,3.55-.62,10,10,0,0,1,3.18.46,6.21,6.21,0,0,1,2.18,1.25A4.8,4.8,0,0,1,237,285a5.43,5.43,0,0,1,.41,2.11v8.59c0,.59,0,1.14,0,1.64s.06,1,.1,1.42h-2.84c-.07-.86-.1-1.71-.1-2.56h-.07a6.12,6.12,0,0,1-2.52,2.31,8,8,0,0,1-3.38.67,7.81,7.81,0,0,1-2.23-.32,5.35,5.35,0,0,1-1.87-1,4.55,4.55,0,0,1-1.26-1.58,5.44,5.44,0,0,1,.27-4.91,5.51,5.51,0,0,1,2-1.8,9.6,9.6,0,0,1,2.94-1,20.68,20.68,0,0,1,3.61-.3h2.34v-.71a3.43,3.43,0,0,0-.25-1.28,3.45,3.45,0,0,0-2-2,4.72,4.72,0,0,0-1.77-.3,6.46,6.46,0,0,0-1.62.18,7.16,7.16,0,0,0-1.26.44,6.12,6.12,0,0,0-1,.62l-.88.68Zm9,6.67a20.6,20.6,0,0,0-2.33.13,9,9,0,0,0-2.17.48,4,4,0,0,0-1.59,1,2.22,2.22,0,0,0-.62,1.63,2.33,2.33,0,0,0,1,2.1,4.83,4.83,0,0,0,2.65.64,5,5,0,0,0,2.23-.45,4.05,4.05,0,0,0,1.49-1.15,4.5,4.5,0,0,0,.82-1.58,6.12,6.12,0,0,0,.25-1.72v-1.07Z" class="cls-2"/><path d="M242.11,281.9h3.2v2.59h.07a4.46,4.46,0,0,1,.85-1.22,6.06,6.06,0,0,1,1.19-.95,6.66,6.66,0,0,1,1.44-.62,5.61,5.61,0,0,1,1.56-.23,4.23,4.23,0,0,1,1.42.22l-.14,3.44-.78-.18a4.11,4.11,0,0,0-.78-.07,4.74,4.74,0,0,0-3.59,1.31,5.79,5.79,0,0,0-1.24,4.09v8.45h-3.2Z" class="cls-2"/><path d="M254.42,275.86a2.34,2.34,0,1,1,4,1.65,2.29,2.29,0,0,1-3.3,0A2.25,2.25,0,0,1,254.42,275.86Zm.74,6h3.2v16.83h-3.2Z" class="cls-2"/><path d="M262.35,290.31a8.56,8.56,0,0,1,.69-3.44,8.86,8.86,0,0,1,4.74-4.71,9.3,9.3,0,0,1,7,0,8.86,8.86,0,0,1,4.74,4.71,8.56,8.56,0,0,1,.69,3.44,8.76,8.76,0,0,1-2.59,6.27,9.08,9.08,0,0,1-2.84,1.88,9.3,9.3,0,0,1-7,0,9.08,9.08,0,0,1-2.84-1.88,8.76,8.76,0,0,1-2.59-6.27Zm3.41,0a6.91,6.91,0,0,0,.39,2.36,5.17,5.17,0,0,0,1.1,1.85,5.08,5.08,0,0,0,1.74,1.21,6.26,6.26,0,0,0,4.61,0,5.08,5.08,0,0,0,1.74-1.21,5.17,5.17,0,0,0,1.1-1.85,7.34,7.34,0,0,0,0-4.72,5.13,5.13,0,0,0-1.1-1.84,4.94,4.94,0,0,0-1.74-1.21,6.13,6.13,0,0,0-4.61,0,4.94,4.94,0,0,0-1.74,1.21,5.13,5.13,0,0,0-1.1,1.84A6.91,6.91,0,0,0,265.76,290.31Z" class="cls-2"/><path d="M295.29,273.59h3.41v25.14h-3.41Z" class="cls-2"/><path d="M304.21,281.9h3.2v2.59h.07a4.64,4.64,0,0,1,2.1-2.18,6.88,6.88,0,0,1,3.44-.84,7.23,7.23,0,0,1,2.32.38,5.16,5.16,0,0,1,2,1.15,5.79,5.79,0,0,1,1.33,2,7.76,7.76,0,0,1,.49,2.9v10.83h-3.19v-9.94a5.69,5.69,0,0,0-.32-2,3.63,3.63,0,0,0-.85-1.35,3.24,3.24,0,0,0-1.23-.74,4.34,4.34,0,0,0-1.43-.24,5.28,5.28,0,0,0-1.85.32,3.79,3.79,0,0,0-1.49,1,4.73,4.73,0,0,0-1,1.75,8.2,8.2,0,0,0-.35,2.52v8.67h-3.2Z" class="cls-2"/><path d="M332.87,286.12a5.06,5.06,0,0,0-1.4-1.19,4.05,4.05,0,0,0-2-.48,3.86,3.86,0,0,0-2,.48,1.53,1.53,0,0,0-.84,1.41,1.58,1.58,0,0,0,.48,1.2,3.76,3.76,0,0,0,1.14.75,6.16,6.16,0,0,0,1.4.42l1.28.25a15,15,0,0,1,1.93.61,5,5,0,0,1,1.56.92,3.91,3.91,0,0,1,1,1.38,4.77,4.77,0,0,1,.38,2,4.57,4.57,0,0,1-.61,2.43,4.93,4.93,0,0,1-1.56,1.65,6.57,6.57,0,0,1-2.18.93,10.88,10.88,0,0,1-2.47.28,9.63,9.63,0,0,1-3.67-.64,6.52,6.52,0,0,1-2.83-2.34l2.42-2a10.31,10.31,0,0,0,1.74,1.39,4.33,4.33,0,0,0,2.34.6,5.69,5.69,0,0,0,1.22-.13,3.92,3.92,0,0,0,1.11-.38,2.57,2.57,0,0,0,.78-.68,1.55,1.55,0,0,0,.3-.94,1.61,1.61,0,0,0-.45-1.17,3.19,3.19,0,0,0-1.06-.73,7.73,7.73,0,0,0-1.31-.43l-1.23-.26q-1-.26-1.95-.57a5.85,5.85,0,0,1-1.63-.85,3.92,3.92,0,0,1-1.14-1.35,4.4,4.4,0,0,1-.43-2,4.65,4.65,0,0,1,.55-2.29,4.94,4.94,0,0,1,1.46-1.62,6.4,6.4,0,0,1,2.06-1,8.77,8.77,0,0,1,2.32-.32,8.66,8.66,0,0,1,3.27.64,5.19,5.19,0,0,1,2.48,2.13Z" class="cls-2"/><path d="M349.3,284.67h-4.58v7.63c0,.47,0,.94,0,1.4A3.75,3.75,0,0,0,345,295a2.12,2.12,0,0,0,.71.88,2.41,2.41,0,0,0,1.41.34,6.89,6.89,0,0,0,1.17-.11,3.35,3.35,0,0,0,1.1-.39v2.91a4.18,4.18,0,0,1-1.47.45,11.66,11.66,0,0,1-1.41.12,6.43,6.43,0,0,1-2.85-.51,3.58,3.58,0,0,1-1.5-1.33,4.35,4.35,0,0,1-.56-1.83q-.09-1-.09-2v-8.77h-3.69V281.9h3.69v-4.72h3.19v4.72h4.58Z" class="cls-2"/><path d="M352.29,275.87a2.36,2.36,0,1,1,.69,1.65A2.29,2.29,0,0,1,352.29,275.87Zm.75,6h3.19v16.83H353Z" class="cls-2"/><path d="M370.52,284.67h-4.58v7.63c0,.47,0,.94,0,1.4a3.75,3.75,0,0,0,.26,1.25,2,2,0,0,0,.71.88,2.39,2.39,0,0,0,1.4.34,7,7,0,0,0,1.18-.11,3.43,3.43,0,0,0,1.1-.39v2.91a4.17,4.17,0,0,1-1.48.45,11.38,11.38,0,0,1-1.4.12,6.51,6.51,0,0,1-2.86-.51,3.61,3.61,0,0,1-1.49-1.33,4.37,4.37,0,0,1-.57-1.83c-.06-.68-.08-1.36-.08-2v-8.77h-3.7V281.9h3.7v-4.72h3.19v4.72h4.58Z" class="cls-2"/><path d="M389,298.73h-3.2v-2.6h-.07a4.73,4.73,0,0,1-2.09,2.19,7,7,0,0,1-3.45.83,7.17,7.17,0,0,1-2.34-.37,5.25,5.25,0,0,1-1.93-1.15,5.71,5.71,0,0,1-1.34-2,7.71,7.71,0,0,1-.49-2.89V281.9h3.19v9.94a5.63,5.63,0,0,0,.32,2,3.63,3.63,0,0,0,.85,1.35,3.15,3.15,0,0,0,1.23.75,4.62,4.62,0,0,0,1.44.23,5.27,5.27,0,0,0,1.84-.32,3.76,3.76,0,0,0,1.49-1,4.78,4.78,0,0,0,1-1.76,8.2,8.2,0,0,0,.35-2.52V281.9H389Z" class="cls-2"/><path d="M403.18,284.67H398.6v7.63c0,.47,0,.94,0,1.4a4,4,0,0,0,.27,1.25,2,2,0,0,0,.71.88,2.39,2.39,0,0,0,1.4.34,6.8,6.8,0,0,0,1.17-.11,3.35,3.35,0,0,0,1.1-.39v2.91a4.18,4.18,0,0,1-1.47.45,11.38,11.38,0,0,1-1.4.12,6.48,6.48,0,0,1-2.86-.51,3.61,3.61,0,0,1-1.49-1.33,4.37,4.37,0,0,1-.57-1.83q-.09-1-.09-2v-8.77h-3.69V281.9h3.69v-4.72h3.2v4.72h4.58Z" class="cls-2"/><path d="M409.07,291.48a4.2,4.2,0,0,0,.48,2,5,5,0,0,0,1.26,1.54,5.89,5.89,0,0,0,1.81,1,6.7,6.7,0,0,0,2.13.35,4.75,4.75,0,0,0,2.59-.69,8.26,8.26,0,0,0,2-1.83l2.41,1.85a8.89,8.89,0,0,1-7.45,3.44,9.29,9.29,0,0,1-3.61-.67,7.86,7.86,0,0,1-2.73-1.87,8.23,8.23,0,0,1-1.72-2.8,10,10,0,0,1-.6-3.5,9.11,9.11,0,0,1,.65-3.49,8.65,8.65,0,0,1,1.81-2.81,8.36,8.36,0,0,1,2.75-1.86,8.89,8.89,0,0,1,3.48-.68,8.32,8.32,0,0,1,3.78.78,7.56,7.56,0,0,1,2.54,2,8.2,8.2,0,0,1,1.44,2.84,11.74,11.74,0,0,1,.44,3.22v1.13Zm10.09-2.55a7.11,7.11,0,0,0-.34-2,4.34,4.34,0,0,0-.91-1.54,4.09,4.09,0,0,0-1.51-1,5.45,5.45,0,0,0-2.11-.37,5.16,5.16,0,0,0-3.8,1.6,5.1,5.1,0,0,0-1,1.58,4.32,4.32,0,0,0-.38,1.72Z" class="cls-2"/><path d="M166.57,323.17H163V320.4h3.62v-3.76a8,8,0,0,1,1.3-5c.86-1.1,2.35-1.65,4.45-1.65.36,0,.73,0,1.12,0a6.13,6.13,0,0,1,1.26.21l-.35,2.84a4.81,4.81,0,0,0-.89-.25,6.61,6.61,0,0,0-.92-.07,3.12,3.12,0,0,0-1.42.27,2,2,0,0,0-.84.76,3,3,0,0,0-.39,1.19,12.37,12.37,0,0,0-.09,1.58v3.87h3.8v2.77h-3.83v14.06h-3.2Z" class="cls-2"/><path d="M175.66,328.81a8.43,8.43,0,0,1,.7-3.44,9,9,0,0,1,11.76-4.7,8.69,8.69,0,0,1,2.84,1.9,8.84,8.84,0,0,1,1.9,2.8,8.6,8.6,0,0,1,.7,3.44,8.78,8.78,0,0,1-.7,3.47,8.62,8.62,0,0,1-1.9,2.8,9.19,9.19,0,0,1-9.87,1.88,9.19,9.19,0,0,1-2.84-1.88,8.76,8.76,0,0,1-1.89-2.8A8.61,8.61,0,0,1,175.66,328.81Zm3.41,0a6.87,6.87,0,0,0,.39,2.36,5,5,0,0,0,2.84,3.06,6.28,6.28,0,0,0,4.62,0,5,5,0,0,0,2.84-3.06,6.87,6.87,0,0,0,.39-2.36,7,7,0,0,0-.39-2.36,5.37,5.37,0,0,0-1.1-1.84,5.28,5.28,0,0,0-1.74-1.21,6.28,6.28,0,0,0-4.62,0,5.28,5.28,0,0,0-1.74,1.21,5.37,5.37,0,0,0-1.1,1.84A7,7,0,0,0,179.07,328.81Z" class="cls-2"/><path d="M197.55,320.4h3.19V323h.07a4.5,4.5,0,0,1,.86-1.22,5.42,5.42,0,0,1,1.19-.94,6,6,0,0,1,1.43-.62,5.3,5.3,0,0,1,1.57-.24,4.55,4.55,0,0,1,1.42.22l-.15,3.44-.78-.18a5.14,5.14,0,0,0-.78-.07A4.67,4.67,0,0,0,202,324.7a5.74,5.74,0,0,0-1.25,4.08v8.45h-3.19Z" class="cls-2"/><path d="M239.23,317.53a6.9,6.9,0,0,0-2.7-2.13,8,8,0,0,0-3.37-.75,9.13,9.13,0,0,0-3.86.8,8.85,8.85,0,0,0-2.94,2.18,9.91,9.91,0,0,0-1.9,3.25,11.61,11.61,0,0,0-.68,4,11.22,11.22,0,0,0,.64,3.77,9.42,9.42,0,0,0,1.85,3.12,8.56,8.56,0,0,0,2.94,2.13,9.57,9.57,0,0,0,3.95.78,7.72,7.72,0,0,0,3.79-.89,8.19,8.19,0,0,0,2.77-2.48l2.88,2.16a9.54,9.54,0,0,1-1,1.12,9.91,9.91,0,0,1-1.88,1.46,13.75,13.75,0,0,1-2.82,1.28,13.35,13.35,0,0,1-9.19-.59,13.17,13.17,0,0,1-7.55-11.86,14.65,14.65,0,0,1,1-5.37,12.6,12.6,0,0,1,2.68-4.26,11.92,11.92,0,0,1,4.14-2.79,13.89,13.89,0,0,1,5.32-1,13,13,0,0,1,4.88,1,9.11,9.11,0,0,1,3.93,2.95Z" class="cls-2"/><path d="M246.27,322.46a8.77,8.77,0,0,1,3.13-1.86A10.51,10.51,0,0,1,253,320a9.58,9.58,0,0,1,3.17.47,6.1,6.1,0,0,1,2.19,1.24,5.12,5.12,0,0,1,1.26,1.79,5.66,5.66,0,0,1,.41,2.11v8.59c0,.6,0,1.14,0,1.64s.06,1,.11,1.42h-2.84c-.07-.85-.11-1.71-.11-2.56h-.07a6.12,6.12,0,0,1-2.52,2.31,8,8,0,0,1-3.37.67,7.54,7.54,0,0,1-2.24-.32,5.46,5.46,0,0,1-1.86-.95,4.5,4.5,0,0,1-1.26-1.58,5.41,5.41,0,0,1,.26-4.92,5.57,5.57,0,0,1,2-1.79,9.57,9.57,0,0,1,3-1,20.48,20.48,0,0,1,3.6-.3H257v-.71a3.62,3.62,0,0,0-.24-1.28,3.57,3.57,0,0,0-.75-1.15,3.63,3.63,0,0,0-1.24-.82,4.77,4.77,0,0,0-1.78-.3,6.44,6.44,0,0,0-1.61.18,6.89,6.89,0,0,0-1.26.44,5.74,5.74,0,0,0-1,.62l-.89.68Zm9,6.67a20.73,20.73,0,0,0-2.33.13,8.77,8.77,0,0,0-2.16.48,4,4,0,0,0-1.6,1,2.27,2.27,0,0,0-.62,1.63,2.32,2.32,0,0,0,1,2.1,4.82,4.82,0,0,0,2.64.64,5.08,5.08,0,0,0,2.24-.45,4.22,4.22,0,0,0,1.49-1.15,4.5,4.5,0,0,0,.82-1.58,6.43,6.43,0,0,0,.24-1.72v-1.07Z" class="cls-2"/><path d="M264.73,320.4h3.19V323H268a4.67,4.67,0,0,1,2.09-2.18,6.88,6.88,0,0,1,3.44-.84,7.29,7.29,0,0,1,2.33.38,5.33,5.33,0,0,1,1.95,1.15,5.48,5.48,0,0,1,1.33,2,7.66,7.66,0,0,1,.5,2.89v10.83h-3.2v-9.94a5.51,5.51,0,0,0-.32-2,3.67,3.67,0,0,0-.85-1.35,3.13,3.13,0,0,0-1.22-.74,4.34,4.34,0,0,0-1.44-.23,5.1,5.1,0,0,0-1.85.32,3.91,3.91,0,0,0-1.49,1,4.8,4.8,0,0,0-1,1.75,8,8,0,0,0-.36,2.53v8.66h-3.19Z" class="cls-2"/><path d="M296.44,324.87a6.79,6.79,0,0,0-1.86-1.4,5.24,5.24,0,0,0-2.33-.48,5.15,5.15,0,0,0-2.29.48,4.66,4.66,0,0,0-1.63,1.32,5.9,5.9,0,0,0-1,1.91A7.67,7.67,0,0,0,287,329a6.23,6.23,0,0,0,.39,2.21,5.45,5.45,0,0,0,1.1,1.83,5.12,5.12,0,0,0,1.7,1.23,5.53,5.53,0,0,0,2.24.44,5.12,5.12,0,0,0,2.31-.48,5.76,5.76,0,0,0,1.77-1.4l2.27,2.27a7,7,0,0,1-2.89,2,10.18,10.18,0,0,1-3.5.6,9.48,9.48,0,0,1-3.56-.64,8.11,8.11,0,0,1-2.79-1.79,8,8,0,0,1-1.81-2.77,9.49,9.49,0,0,1-.64-3.57,9.66,9.66,0,0,1,.64-3.58,8.2,8.2,0,0,1,1.79-2.8,8,8,0,0,1,2.77-1.83,9.46,9.46,0,0,1,3.6-.66,9.67,9.67,0,0,1,3.54.66,7.71,7.71,0,0,1,2.92,2Z" class="cls-2"/><path d="M303.85,330a4.08,4.08,0,0,0,.48,2,4.94,4.94,0,0,0,1.25,1.55,6.14,6.14,0,0,0,1.82,1,6.35,6.35,0,0,0,2.13.35,4.8,4.8,0,0,0,2.59-.69,8.41,8.41,0,0,0,2-1.83l2.41,1.85a8.86,8.86,0,0,1-7.45,3.44,9.2,9.2,0,0,1-3.6-.67,7.92,7.92,0,0,1-2.74-1.86,8.38,8.38,0,0,1-1.72-2.81,10,10,0,0,1-.6-3.5,9.3,9.3,0,0,1,.65-3.49,8.78,8.78,0,0,1,1.82-2.81,8.15,8.15,0,0,1,2.75-1.86,8.82,8.82,0,0,1,3.48-.68,8.32,8.32,0,0,1,3.78.79,7.4,7.4,0,0,1,2.53,2,7.79,7.79,0,0,1,1.44,2.84,11.63,11.63,0,0,1,.45,3.21V330Zm10.08-2.56a7,7,0,0,0-.34-1.95,4.09,4.09,0,0,0-2.41-2.58,5.73,5.73,0,0,0-2.12-.37,5.16,5.16,0,0,0-3.79,1.6,5.32,5.32,0,0,0-1,1.58,4.3,4.3,0,0,0-.37,1.72Z" class="cls-2"/><path d="M321.26,320.4h3.2V323h.07a4.46,4.46,0,0,1,.85-1.22,5.67,5.67,0,0,1,1.19-.94,6.2,6.2,0,0,1,1.44-.62,5.28,5.28,0,0,1,1.56-.24,4.55,4.55,0,0,1,1.42.22l-.14,3.44-.78-.18a5.14,5.14,0,0,0-.78-.07,4.69,4.69,0,0,0-3.59,1.32,5.74,5.74,0,0,0-1.24,4.08v8.45h-3.2Z" class="cls-2"/><path d="M345.44,312.09h8.84a10.25,10.25,0,0,1,4,.66,6.72,6.72,0,0,1,2.47,1.67,5.73,5.73,0,0,1,1.26,2.27,8.83,8.83,0,0,1,.36,2.43,6.59,6.59,0,0,1-.43,2.33,6.38,6.38,0,0,1-1.23,2,6.93,6.93,0,0,1-1.95,1.53,6.81,6.81,0,0,1-2.57.76l7.13,11.47H359l-6.39-11.08h-3.79v11.08h-3.41Zm3.41,11.08h4.47a11.81,11.81,0,0,0,2-.16,5.26,5.26,0,0,0,1.74-.59,3.11,3.11,0,0,0,1.22-1.22,4.91,4.91,0,0,0,0-4.15,3.14,3.14,0,0,0-1.22-1.23,5.25,5.25,0,0,0-1.74-.58,11.81,11.81,0,0,0-2-.16h-4.47Z" class="cls-2"/><path d="M368.36,330a4.19,4.19,0,0,0,.48,2,5.12,5.12,0,0,0,1.26,1.55,6.09,6.09,0,0,0,1.81,1,6.43,6.43,0,0,0,2.13.35,4.75,4.75,0,0,0,2.59-.69,8.26,8.26,0,0,0,2-1.83l2.41,1.85a8.86,8.86,0,0,1-7.45,3.44A9.29,9.29,0,0,1,370,337a8,8,0,0,1-2.73-1.86,8.38,8.38,0,0,1-1.72-2.81,10,10,0,0,1-.6-3.5,9.11,9.11,0,0,1,.65-3.49,8.76,8.76,0,0,1,1.81-2.81,8.36,8.36,0,0,1,2.75-1.86,8.89,8.89,0,0,1,3.48-.68,8.32,8.32,0,0,1,3.78.79,7.44,7.44,0,0,1,2.54,2,8.11,8.11,0,0,1,1.44,2.84,11.62,11.62,0,0,1,.44,3.21V330Zm10.09-2.56a7,7,0,0,0-.34-1.95,4.38,4.38,0,0,0-.91-1.55,4.22,4.22,0,0,0-1.51-1,5.64,5.64,0,0,0-2.11-.37,5.23,5.23,0,0,0-2.15.44,5.38,5.38,0,0,0-1.65,1.16,5.1,5.1,0,0,0-1,1.58,4.32,4.32,0,0,0-.38,1.72Z" class="cls-2"/><path d="M394.59,324.63a4.62,4.62,0,0,0-1.4-1.19,4.05,4.05,0,0,0-2-.48,3.86,3.86,0,0,0-2,.48,1.51,1.51,0,0,0-.84,1.4,1.57,1.57,0,0,0,.48,1.2,3.76,3.76,0,0,0,1.14.75,6.92,6.92,0,0,0,1.4.43l1.28.24a14.56,14.56,0,0,1,1.93.61,5.37,5.37,0,0,1,1.57.92,4.1,4.1,0,0,1,1,1.39,4.86,4.86,0,0,1,.37,2,4.63,4.63,0,0,1-.61,2.44,5.13,5.13,0,0,1-1.56,1.65,6.67,6.67,0,0,1-2.18.92,10.88,10.88,0,0,1-2.47.28,9.66,9.66,0,0,1-3.67-.64,6.44,6.44,0,0,1-2.82-2.34l2.41-2a9.83,9.83,0,0,0,1.74,1.39,4.33,4.33,0,0,0,2.34.6,6.57,6.57,0,0,0,1.23-.12,4.32,4.32,0,0,0,1.1-.39,2.46,2.46,0,0,0,.78-.68,1.53,1.53,0,0,0,.3-.94,1.65,1.65,0,0,0-.44-1.17,3.23,3.23,0,0,0-1.07-.73,6.91,6.91,0,0,0-1.31-.42l-1.23-.27c-.68-.16-1.33-.36-1.95-.57a5.85,5.85,0,0,1-1.63-.85,3.94,3.94,0,0,1-1.14-1.35,4.38,4.38,0,0,1-.42-2,4.54,4.54,0,0,1,.55-2.29,4.9,4.9,0,0,1,1.45-1.62,6.85,6.85,0,0,1,2.06-1,8.79,8.79,0,0,1,2.33-.32,8.65,8.65,0,0,1,3.26.64,5.25,5.25,0,0,1,2.49,2.13Z" class="cls-2"/><path d="M403.78,330a4.19,4.19,0,0,0,.48,2,5.12,5.12,0,0,0,1.26,1.55,6,6,0,0,0,1.81,1,6.35,6.35,0,0,0,2.13.35,4.77,4.77,0,0,0,2.59-.69,8.22,8.22,0,0,0,2-1.83l2.42,1.85a8.88,8.88,0,0,1-7.46,3.44,9.27,9.27,0,0,1-3.6-.67,7.79,7.79,0,0,1-2.73-1.86,8.4,8.4,0,0,1-1.73-2.81,10,10,0,0,1-.6-3.5,9.11,9.11,0,0,1,.66-3.49,8.59,8.59,0,0,1,1.81-2.81,8.25,8.25,0,0,1,2.75-1.86,8.82,8.82,0,0,1,3.48-.68,8.32,8.32,0,0,1,3.78.79,7.54,7.54,0,0,1,2.54,2,7.93,7.93,0,0,1,1.43,2.84,11.63,11.63,0,0,1,.45,3.21V330Zm10.08-2.56a6.63,6.63,0,0,0-.34-1.95,4.09,4.09,0,0,0-2.41-2.58,5.68,5.68,0,0,0-2.11-.37,5.23,5.23,0,0,0-2.15.44,5.38,5.38,0,0,0-1.65,1.16,5.32,5.32,0,0,0-1.05,1.58,4.3,4.3,0,0,0-.37,1.72Z" class="cls-2"/><path d="M421,322.46a8.77,8.77,0,0,1,3.13-1.86,10.51,10.51,0,0,1,3.55-.63,9.58,9.58,0,0,1,3.17.47,6.1,6.1,0,0,1,2.19,1.24,5.12,5.12,0,0,1,1.26,1.79,5.66,5.66,0,0,1,.41,2.11v8.59c0,.6,0,1.14,0,1.64s.06,1,.11,1.42H432c-.07-.85-.11-1.71-.11-2.56h-.07a6.12,6.12,0,0,1-2.52,2.31,8,8,0,0,1-3.37.67,7.54,7.54,0,0,1-2.24-.32,5.46,5.46,0,0,1-1.86-.95,4.5,4.5,0,0,1-1.26-1.58,5.41,5.41,0,0,1,.26-4.92,5.57,5.57,0,0,1,2-1.79,9.57,9.57,0,0,1,2.95-1,20.48,20.48,0,0,1,3.6-.3h2.34v-.71a3.43,3.43,0,0,0-.25-1.28,3.38,3.38,0,0,0-.74-1.15,3.63,3.63,0,0,0-1.24-.82,4.77,4.77,0,0,0-1.78-.3,6.44,6.44,0,0,0-1.61.18,6.89,6.89,0,0,0-1.26.44,5.74,5.74,0,0,0-1,.62l-.89.68Zm9,6.67a20.73,20.73,0,0,0-2.33.13,8.77,8.77,0,0,0-2.16.48,4,4,0,0,0-1.6,1,2.27,2.27,0,0,0-.62,1.63,2.3,2.3,0,0,0,1,2.1,4.82,4.82,0,0,0,2.64.64,5.08,5.08,0,0,0,2.24-.45,4.22,4.22,0,0,0,1.49-1.15,4.32,4.32,0,0,0,.81-1.58,6.07,6.07,0,0,0,.25-1.72v-1.07Z" class="cls-2"/><path d="M440.07,320.4h3.2V323h.07a4.26,4.26,0,0,1,.85-1.22,5.42,5.42,0,0,1,1.19-.94,6.2,6.2,0,0,1,1.44-.62,5.28,5.28,0,0,1,1.56-.24,4.55,4.55,0,0,1,1.42.22l-.14,3.44-.78-.18a5.39,5.39,0,0,0-.79-.07,4.68,4.68,0,0,0-3.58,1.32,5.74,5.74,0,0,0-1.24,4.08v8.45h-3.2Z" class="cls-2"/><path d="M464.14,324.87a6.79,6.79,0,0,0-1.86-1.4A5.27,5.27,0,0,0,460,323a5.12,5.12,0,0,0-2.29.48,4.57,4.57,0,0,0-1.63,1.32,5.9,5.9,0,0,0-1,1.91,7.67,7.67,0,0,0-.33,2.26,6.23,6.23,0,0,0,.39,2.21,5.45,5.45,0,0,0,1.1,1.83,5.12,5.12,0,0,0,1.7,1.23,5.53,5.53,0,0,0,2.24.44,5,5,0,0,0,2.3-.48,5.79,5.79,0,0,0,1.78-1.4l2.27,2.27a7.07,7.07,0,0,1-2.89,2,10.18,10.18,0,0,1-3.5.6,9.57,9.57,0,0,1-3.57-.64,8.16,8.16,0,0,1-2.78-1.79,7.84,7.84,0,0,1-1.81-2.77,9.49,9.49,0,0,1-.64-3.57,9.66,9.66,0,0,1,.64-3.58,8,8,0,0,1,4.56-4.63,9.46,9.46,0,0,1,3.6-.66,9.58,9.58,0,0,1,3.53.66,7.74,7.74,0,0,1,2.93,2Z" class="cls-2"/><path d="M469.54,310.39h3.19V323h.07a4.71,4.71,0,0,1,2.1-2.19,7,7,0,0,1,3.44-.83,7.23,7.23,0,0,1,2.32.37,5.29,5.29,0,0,1,2,1.15,5.6,5.6,0,0,1,1.33,2,7.7,7.7,0,0,1,.5,2.89v10.83h-3.2v-9.94a5.63,5.63,0,0,0-.32-2,3.63,3.63,0,0,0-.85-1.35,3.08,3.08,0,0,0-1.23-.75,4.6,4.6,0,0,0-1.43-.23,5.28,5.28,0,0,0-1.85.32,3.76,3.76,0,0,0-1.49,1,4.78,4.78,0,0,0-1,1.76,8.2,8.2,0,0,0-.35,2.52v8.66h-3.19Z" class="cls-2"/><path d="M205.61,154.73c-29.56,0-50.45,22.68-50.45,49.76v.28c0,27.07,20.62,49.48,50.17,49.48s50.45-22.68,50.45-49.76v-.27C255.78,177.14,235.16,154.73,205.61,154.73Zm32.43,50c0,18.69-13.33,33.95-32.43,33.95s-32.72-15.54-32.72-34.23v-.27c0-18.7,13.33-33.95,32.44-33.95S238,185.8,238,204.49Z" class="cls-2"/><rect width="16.91" height="96.21" x="270.34" y="156.38" class="cls-2"/><path d="M351.3,238.72c-18.42,0-31.75-15.4-31.75-34.23v-.27c0-18.83,13.33-33.95,31.75-33.95,11,0,19.24,4.81,26.94,11.95l10.86-12.51c-9.21-8.79-19.93-15-37.66-15-29.15,0-49.63,22.41-49.63,49.76v.28c0,27.63,20.9,49.48,48.94,49.48,18,0,29-6.6,39-17.05l-10.85-11C370.68,233.91,363.12,238.72,351.3,238.72Z" class="cls-2"/><path d="M459.06,216.17C472.53,212.33,482,202.84,482,187v-.28c0-8.38-2.89-15.53-8-20.76-6.19-6-15.67-9.62-27.77-9.62H403.39V252.6h16.9V219.06h21.17L465.1,252.6H485Zm-38.77-12.09v-32.3H444.9c12.51,0,19.93,5.63,19.93,15.94V188c0,9.76-7.7,16.08-19.79,16.08Z" class="cls-2"/></svg>