<?xml version="1.0" encoding="utf-8"?>
<!-- Generator: Adobe Illustrator 26.0.3, SVG Export Plug-In . SVG Version: 6.00 Build 0)  -->
<svg version="1.1" id="Layer_1" xmlns="http://www.w3.org/2000/svg" xmlns:xlink="http://www.w3.org/1999/xlink" x="0px" y="0px"
	 viewBox="0 0 376.56 63.81" style="enable-background:new 0 0 376.56 63.81;" xml:space="preserve">
<style type="text/css">
	.st0{fill:#FFFFFF;stroke:#FFFFFF;stroke-miterlimit:10;}
	.st1{fill:#FFFFFF;}
	.st2{stroke:#020202;stroke-miterlimit:10;}
	.st3{fill:#00467F;stroke:#00467F;stroke-miterlimit:10;}
	.st4{fill:#00467F;}
</style>
<g>
	<line class="st0" x1="239.82" y1="9.21" x2="239.82" y2="54.44"/>
	<g>
		<path class="st1" d="M262.84,26.8c-0.57,0.82-1.47,1.45-2.69,1.91c-1.22,0.46-2.59,0.69-4.11,0.69c-1.53,0-2.89-0.37-4.09-1.1
			c-1.19-0.73-2.11-1.77-2.77-3.12c-0.65-1.34-0.99-2.88-0.99-4.62v-2.47c0-2.71,0.69-4.86,2.06-6.43c1.37-1.57,3.21-2.36,5.52-2.36
			c2.02,0,3.64,0.51,4.87,1.54c1.23,1.03,1.96,2.44,2.19,4.24h-1.65c-0.24-1.44-0.83-2.53-1.75-3.27c-0.93-0.74-2.14-1.11-3.64-1.11
			c-1.83,0-3.27,0.65-4.34,1.95c-1.07,1.3-1.6,3.13-1.6,5.5v2.31c0,1.49,0.25,2.8,0.76,3.95c0.51,1.14,1.23,2.03,2.18,2.66
			c0.95,0.63,2.03,0.94,3.26,0.94c1.43,0,2.65-0.22,3.67-0.67c0.66-0.3,1.16-0.64,1.48-1.04v-5.05h-5.25v-1.4h6.91V26.8z"/>
		<path class="st1" d="M272.79,29.39c-1.24,0-2.35-0.3-3.35-0.91c-1-0.61-1.78-1.46-2.33-2.55c-0.56-1.09-0.83-2.31-0.83-3.66v-0.58
			c0-1.4,0.27-2.66,0.81-3.78c0.54-1.12,1.3-2,2.26-2.64c0.97-0.64,2.02-0.96,3.14-0.96c1.76,0,3.16,0.6,4.2,1.81
			c1.03,1.21,1.55,2.85,1.55,4.94v0.9h-10.37v0.31c0,1.65,0.47,3.02,1.42,4.12c0.94,1.1,2.13,1.65,3.57,1.65
			c0.86,0,1.62-0.16,2.28-0.47c0.66-0.31,1.26-0.81,1.79-1.51l1.01,0.77C276.75,28.54,275.04,29.39,272.79,29.39z M272.49,15.68
			c-1.21,0-2.23,0.44-3.06,1.33c-0.83,0.89-1.33,2.08-1.51,3.57h8.72v-0.18c-0.04-1.4-0.44-2.53-1.2-3.41
			C274.7,16.12,273.71,15.68,272.49,15.68z"/>
		<path class="st1" d="M282.91,14.58l0.05,2.49c0.55-0.9,1.23-1.58,2.04-2.05c0.81-0.47,1.72-0.71,2.7-0.71
			c1.56,0,2.72,0.44,3.48,1.32c0.76,0.88,1.15,2.2,1.16,3.95v9.54h-1.6v-9.56c-0.01-1.3-0.28-2.27-0.83-2.9
			c-0.54-0.64-1.41-0.95-2.6-0.95c-0.99,0-1.87,0.31-2.64,0.93c-0.77,0.62-1.33,1.46-1.7,2.52v9.96h-1.6V14.58H282.91z"/>
		<path class="st1" d="M295.61,21.64c0-1.4,0.27-2.66,0.81-3.78c0.54-1.12,1.31-1.99,2.3-2.61c0.99-0.62,2.11-0.93,3.37-0.93
			c1.94,0,3.5,0.68,4.7,2.04c1.2,1.36,1.8,3.16,1.8,5.4v0.34c0,1.41-0.27,2.67-0.81,3.8c-0.54,1.12-1.31,1.99-2.29,2.6
			c-0.99,0.61-2.11,0.91-3.37,0.91c-1.93,0-3.49-0.68-4.7-2.04c-1.21-1.36-1.81-3.16-1.81-5.4V21.64z M297.22,22.08
			c0,1.74,0.45,3.16,1.35,4.28c0.9,1.12,2.08,1.67,3.54,1.67c1.45,0,2.63-0.56,3.53-1.67c0.9-1.12,1.35-2.59,1.35-4.41v-0.31
			c0-1.11-0.21-2.13-0.62-3.05s-0.99-1.64-1.73-2.14c-0.74-0.51-1.6-0.76-2.55-0.76c-1.43,0-2.6,0.56-3.51,1.69
			c-0.9,1.12-1.36,2.6-1.36,4.41V22.08z"/>
		<path class="st1" d="M313.37,14.58l0.05,2.37c0.54-0.88,1.21-1.54,2.02-1.98c0.81-0.44,1.7-0.66,2.69-0.66
			c2.29,0,3.75,0.94,4.37,2.82c0.52-0.9,1.21-1.6,2.08-2.09c0.87-0.49,1.83-0.73,2.88-0.73c3.12,0,4.71,1.7,4.77,5.11v9.7h-1.61
			v-9.58c-0.01-1.3-0.29-2.26-0.84-2.89c-0.55-0.63-1.45-0.94-2.69-0.94c-1.16,0.02-2.13,0.39-2.93,1.12
			c-0.8,0.73-1.24,1.62-1.33,2.67v9.62h-1.61v-9.7c-0.01-1.25-0.3-2.17-0.88-2.79c-0.58-0.61-1.47-0.92-2.67-0.92
			c-1.01,0-1.88,0.29-2.61,0.87c-0.73,0.58-1.26,1.44-1.61,2.57v9.97h-1.61V14.58H313.37z"/>
		<path class="st1" d="M336.2,10.38c0-0.3,0.1-0.56,0.3-0.77c0.2-0.21,0.47-0.31,0.81-0.31c0.34,0,0.61,0.1,0.81,0.31
			c0.2,0.21,0.3,0.46,0.3,0.77c0,0.3-0.1,0.56-0.3,0.76c-0.2,0.21-0.47,0.31-0.81,0.31c-0.34,0-0.61-0.1-0.81-0.31
			C336.3,10.94,336.2,10.68,336.2,10.38z M338.1,29.12h-1.61V14.58h1.61V29.12z"/>
		<path class="st1" d="M347.84,28.03c1.12,0,2.06-0.32,2.82-0.95c0.76-0.63,1.17-1.45,1.23-2.45h1.55c-0.04,0.89-0.32,1.7-0.83,2.43
			c-0.51,0.73-1.19,1.3-2.04,1.71c-0.85,0.41-1.75,0.62-2.72,0.62c-1.91,0-3.42-0.66-4.54-1.99c-1.12-1.33-1.67-3.11-1.67-5.35
			v-0.48c0-1.43,0.25-2.7,0.75-3.8c0.5-1.1,1.22-1.95,2.16-2.55c0.94-0.6,2.03-0.9,3.29-0.9c1.59,0,2.91,0.48,3.94,1.42
			c1.03,0.95,1.59,2.2,1.66,3.75h-1.55c-0.07-1.14-0.48-2.06-1.23-2.75c-0.75-0.7-1.69-1.05-2.83-1.05c-1.45,0-2.58,0.52-3.38,1.57
			s-1.2,2.52-1.2,4.41v0.47c0,1.85,0.4,3.3,1.2,4.34C345.25,27.51,346.38,28.03,347.84,28.03z"/>
		<path class="st1" d="M365.35,25.43c0-0.8-0.32-1.44-0.96-1.92c-0.64-0.48-1.61-0.86-2.9-1.14c-1.29-0.27-2.29-0.59-3-0.94
			c-0.71-0.35-1.24-0.79-1.59-1.3c-0.35-0.51-0.52-1.13-0.52-1.85c0-1.15,0.48-2.09,1.44-2.84c0.96-0.75,2.19-1.12,3.68-1.12
			c1.62,0,2.92,0.4,3.9,1.2c0.98,0.8,1.47,1.85,1.47,3.14h-1.61c0-0.85-0.36-1.56-1.07-2.12c-0.71-0.56-1.61-0.85-2.69-0.85
			c-1.06,0-1.91,0.24-2.55,0.71c-0.64,0.47-0.96,1.08-0.96,1.83c0,0.73,0.27,1.29,0.8,1.69c0.53,0.4,1.51,0.76,2.92,1.1
			c1.41,0.33,2.47,0.69,3.17,1.06c0.7,0.38,1.23,0.83,1.57,1.36c0.34,0.53,0.51,1.17,0.51,1.92c0,1.23-0.5,2.21-1.49,2.94
			c-0.99,0.73-2.28,1.1-3.88,1.1c-1.69,0-3.07-0.41-4.12-1.23s-1.58-1.86-1.58-3.11h1.61c0.06,0.94,0.46,1.67,1.19,2.2
			c0.73,0.52,1.7,0.79,2.9,0.79c1.12,0,2.02-0.25,2.71-0.74C365.01,26.8,365.35,26.18,365.35,25.43z"/>
		<path class="st1" d="M250.74,54.35h-1.65V34.78h1.65V54.35z"/>
		<path class="st1" d="M257.2,39.81l0.05,2.49c0.55-0.9,1.23-1.58,2.04-2.05c0.81-0.47,1.72-0.71,2.7-0.71
			c1.56,0,2.72,0.44,3.48,1.32c0.76,0.88,1.15,2.2,1.16,3.95v9.54h-1.6V44.8c-0.01-1.3-0.28-2.27-0.83-2.9
			c-0.54-0.64-1.41-0.95-2.6-0.95c-0.99,0-1.87,0.31-2.64,0.93c-0.77,0.62-1.33,1.46-1.7,2.52v9.96h-1.6V39.81H257.2z"/>
		<path class="st1" d="M279.49,50.65c0-0.8-0.32-1.44-0.96-1.92c-0.64-0.48-1.61-0.86-2.9-1.14c-1.29-0.27-2.29-0.59-3-0.94
			c-0.71-0.35-1.24-0.79-1.59-1.3c-0.35-0.51-0.52-1.13-0.52-1.85c0-1.15,0.48-2.09,1.44-2.84c0.96-0.75,2.19-1.12,3.68-1.12
			c1.62,0,2.92,0.4,3.9,1.2c0.98,0.8,1.47,1.85,1.47,3.14h-1.61c0-0.85-0.36-1.56-1.07-2.12c-0.71-0.56-1.61-0.85-2.69-0.85
			c-1.06,0-1.91,0.24-2.55,0.71c-0.64,0.47-0.96,1.08-0.96,1.83c0,0.73,0.27,1.29,0.8,1.69c0.53,0.4,1.51,0.76,2.92,1.1
			c1.41,0.33,2.47,0.69,3.17,1.06c0.7,0.38,1.23,0.83,1.57,1.36c0.34,0.53,0.51,1.17,0.51,1.92c0,1.23-0.5,2.21-1.49,2.94
			c-0.99,0.73-2.28,1.1-3.88,1.1c-1.69,0-3.07-0.41-4.12-1.23s-1.58-1.86-1.58-3.11h1.61c0.06,0.94,0.46,1.67,1.19,2.2
			c0.73,0.52,1.7,0.79,2.9,0.79c1.12,0,2.02-0.25,2.71-0.74C279.15,52.03,279.49,51.41,279.49,50.65z"/>
		<path class="st1" d="M287.22,36.09v3.72h3.01v1.32h-3.01v9.7c0,0.81,0.15,1.41,0.44,1.8c0.29,0.39,0.78,0.59,1.46,0.59
			c0.27,0,0.7-0.04,1.3-0.13l0.07,1.31c-0.42,0.15-0.99,0.23-1.72,0.23c-1.1,0-1.9-0.32-2.41-0.96c-0.5-0.64-0.75-1.58-0.75-2.83
			v-9.7h-2.67v-1.32h2.67v-3.72H287.22z"/>
		<path class="st1" d="M293.47,35.61c0-0.3,0.1-0.56,0.3-0.77c0.2-0.21,0.47-0.31,0.81-0.31c0.34,0,0.61,0.1,0.81,0.31
			c0.2,0.21,0.3,0.46,0.3,0.77c0,0.3-0.1,0.56-0.3,0.76c-0.2,0.21-0.47,0.31-0.81,0.31c-0.34,0-0.61-0.1-0.81-0.31
			C293.57,36.17,293.47,35.91,293.47,35.61z M295.36,54.35h-1.61V39.81h1.61V54.35z"/>
		<path class="st1" d="M302.23,36.09v3.72h3.01v1.32h-3.01v9.7c0,0.81,0.15,1.41,0.44,1.8c0.29,0.39,0.78,0.59,1.46,0.59
			c0.27,0,0.7-0.04,1.3-0.13l0.07,1.31c-0.42,0.15-0.99,0.23-1.72,0.23c-1.1,0-1.9-0.32-2.41-0.96c-0.5-0.64-0.75-1.58-0.75-2.83
			v-9.7h-2.67v-1.32h2.67v-3.72H302.23z"/>
		<path class="st1" d="M317.93,52.51c-0.97,1.41-2.51,2.11-4.64,2.11c-1.55,0-2.73-0.45-3.53-1.35c-0.81-0.9-1.22-2.23-1.24-4v-9.46
			h1.6v9.26c0,2.77,1.12,4.15,3.36,4.15c2.33,0,3.8-0.96,4.42-2.89V39.81h1.61v14.54h-1.56L317.93,52.51z"/>
		<path class="st1" d="M326.19,36.09v3.72h3.01v1.32h-3.01v9.7c0,0.81,0.15,1.41,0.44,1.8c0.29,0.39,0.78,0.59,1.46,0.59
			c0.27,0,0.7-0.04,1.3-0.13l0.07,1.31c-0.42,0.15-0.99,0.23-1.72,0.23c-1.1,0-1.9-0.32-2.41-0.96c-0.5-0.64-0.75-1.58-0.75-2.83
			v-9.7h-2.67v-1.32h2.67v-3.72H326.19z"/>
		<path class="st1" d="M338.17,54.62c-1.24,0-2.35-0.3-3.35-0.91c-1-0.61-1.78-1.46-2.33-2.55c-0.56-1.09-0.83-2.31-0.83-3.66v-0.58
			c0-1.4,0.27-2.66,0.81-3.78c0.54-1.12,1.3-2,2.26-2.64c0.97-0.64,2.02-0.96,3.14-0.96c1.76,0,3.16,0.6,4.2,1.81
			c1.03,1.21,1.55,2.85,1.55,4.94v0.9h-10.37v0.31c0,1.65,0.47,3.02,1.42,4.12c0.94,1.1,2.13,1.65,3.57,1.65
			c0.86,0,1.62-0.16,2.28-0.47c0.66-0.31,1.26-0.81,1.79-1.51l1.01,0.77C342.13,53.76,340.41,54.62,338.17,54.62z M337.87,40.91
			c-1.21,0-2.23,0.44-3.06,1.33c-0.83,0.89-1.33,2.08-1.51,3.57h8.72v-0.18c-0.04-1.4-0.44-2.53-1.2-3.41
			C340.07,41.35,339.09,40.91,337.87,40.91z"/>
	</g>
	<g>
		<path class="st1" d="M19.16,51.12c0,0.51-0.23,0.95-0.69,1.34c-0.47,0.39-1.15,0.59-2.03,0.59c-0.94,0-1.66-0.19-2.13-0.57
			c-0.46-0.37-0.68-0.8-0.68-1.31V9.5H9.6v40.52c0,0.63,0.12,1.23,0.36,1.8c0.24,0.58,0.65,1.09,1.21,1.51
			c0.55,0.41,1.26,0.74,2.13,0.98c0.86,0.24,1.92,0.36,3.16,0.36c1.27,0,2.35-0.11,3.2-0.33c0.87-0.22,1.57-0.55,2.09-0.97
			c0.52-0.42,0.9-0.92,1.13-1.48c0,0,0,0,0,0c0,0,0,0,0,0c0.22-0.55,0.33-1.15,0.33-1.77V9.5h-4.03V51.12z"/>
		<path class="st1" d="M38.69,51.17c0,0.51-0.2,0.93-0.62,1.29c-0.43,0.36-1.16,0.56-2.14,0.59c-0.86,0-1.56-0.2-2.07-0.6
			c-0.5-0.39-0.74-0.82-0.74-1.33V13.37c0-0.33,0.03-0.67,0.1-0.99c0.06-0.31,0.19-0.58,0.39-0.83c0.19-0.24,0.48-0.43,0.85-0.57
			c0.39-0.15,0.9-0.22,1.53-0.22c0.69,0,1.23,0.09,1.61,0.26c0.37,0.17,0.65,0.37,0.81,0.59c0.17,0.23,0.27,0.49,0.32,0.8
			c0.05,0.33,0.08,0.65,0.08,0.95v10.04h4.03v-8.63c0-0.67-0.05-1.34-0.16-2c-0.11-0.69-0.41-1.32-0.89-1.86
			c-0.48-0.54-1.18-0.98-2.08-1.3c-0.89-0.32-2.13-0.48-3.67-0.48c-1.58,0-2.84,0.15-3.77,0.46c-0.94,0.31-1.65,0.74-2.12,1.28
			c-0.46,0.54-0.76,1.17-0.89,1.88c-0.12,0.68-0.19,1.36-0.19,2.04v35.28c0,1.3,0.54,2.4,1.61,3.27c1.07,0.87,2.83,1.31,5.4,1.34
			c1.24,0,2.3-0.12,3.16-0.36c0.86-0.24,1.58-0.57,2.13-0.98c0.56-0.42,0.96-0.93,1.21-1.51l0,0c0.24-0.57,0.36-1.18,0.36-1.8V39.61
			h-4.24V51.17z"/>
		<path class="st1" d="M72.8,37.87c-0.11-0.39-0.23-0.78-0.38-1.17c-0.14-0.39-0.32-0.83-0.53-1.32c-0.39-0.95-0.86-1.85-1.39-2.68
			c-0.53-0.82-0.98-1.53-1.37-2.12l-3.31-5.07c-0.52-0.79-0.94-1.5-1.25-2.12c-0.31-0.61-0.56-1.35-0.77-2.2
			c-0.27-0.98-0.42-1.85-0.44-2.57c-0.02-0.73-0.03-1.59-0.03-2.63v-2.61c0-0.3,0.03-0.62,0.08-0.95c0.04-0.3,0.16-0.56,0.34-0.79
			c0.18-0.23,0.47-0.43,0.85-0.6c0.39-0.18,0.93-0.26,1.63-0.26c0.63,0,1.14,0.07,1.51,0.22c0.36,0.14,0.63,0.33,0.81,0.57
			c0.19,0.25,0.31,0.53,0.37,0.83c0.07,0.33,0.1,0.66,0.1,0.99v9.94h4.03v-8.47c0-0.67-0.05-1.35-0.16-2.03
			c-0.11-0.71-0.41-1.35-0.9-1.89c-0.48-0.54-1.19-0.98-2.12-1.3c-0.91-0.32-2.18-0.48-3.76-0.48c-1.55,0-2.79,0.15-3.68,0.46
			c-0.91,0.31-1.61,0.74-2.09,1.28c-0.48,0.54-0.79,1.17-0.9,1.86c-0.11,0.65-0.16,1.33-0.16,2v2.14c0,0.94,0.02,1.76,0.05,2.44
			c0.04,0.69,0.18,1.53,0.42,2.48c0.24,0.95,0.5,1.77,0.76,2.44c0.27,0.68,0.7,1.47,1.3,2.35l3.43,5.28
			c0.35,0.52,0.66,0.99,0.94,1.39c0.27,0.39,0.53,0.79,0.77,1.19c0.23,0.39,0.45,0.8,0.63,1.22c0.19,0.43,0.37,0.9,0.54,1.41
			c0.21,0.7,0.4,1.31,0.57,1.84c0.16,0.5,0.25,1.1,0.25,1.8v9.67c0,0.3-0.03,0.62-0.08,0.95c-0.05,0.31-0.15,0.58-0.32,0.83
			c-0.16,0.24-0.43,0.45-0.78,0.62c-0.36,0.17-0.88,0.26-1.53,0.26c-0.66,0-1.18-0.08-1.54-0.24c-0.36-0.16-0.66-0.36-0.87-0.61
			c-0.22-0.25-0.35-0.51-0.41-0.82c-0.07-0.33-0.1-0.66-0.1-0.99V39.45l-4.03,0.06v9.46c0,0.68,0.06,1.35,0.19,2.01
			c0.13,0.69,0.43,1.32,0.89,1.88c0.46,0.56,1.18,1.01,2.13,1.34c0.93,0.32,2.21,0.48,3.8,0.48c1.56,0,2.8-0.16,3.7-0.49
			c0.91-0.33,1.61-0.77,2.07-1.3c0.47-0.54,0.76-1.16,0.87-1.83c0.11-0.64,0.16-1.3,0.16-1.98v-8.42c0-0.56-0.03-1.07-0.08-1.52
			C72.99,38.7,72.91,38.27,72.8,37.87z"/>
		<path class="st1" d="M91.39,10.9c-0.45-0.52-1.14-0.95-2.05-1.28c-0.9-0.32-2.14-0.49-3.7-0.49c-1.59,0-2.87,0.15-3.79,0.46
			c-0.95,0.31-1.67,0.74-2.13,1.28c-0.46,0.54-0.77,1.17-0.9,1.88c-0.12,0.67-0.19,1.36-0.19,2.04v39.57h4.03V31.62h5.69v22.74h4.03
			V14.74c0-0.67-0.05-1.35-0.16-2.01C92.12,12.04,91.84,11.43,91.39,10.9z M88.36,13.38v15.93h-5.69V13.38c0-0.33,0.03-0.67,0.1-1
			c0.06-0.31,0.19-0.58,0.39-0.83c0.19-0.24,0.48-0.43,0.85-0.57c0.39-0.15,0.9-0.22,1.53-0.22c0.69,0,1.23,0.09,1.61,0.26
			c0.37,0.17,0.65,0.37,0.81,0.6c0.17,0.23,0.27,0.5,0.32,0.8C88.34,12.76,88.36,13.08,88.36,13.38z"/>
		<polygon class="st1" points="108.1,34.3 102.09,9.39 98.48,9.39 98.48,54.36 102.51,54.36 102.51,23.86 108.05,45.66 
			108.05,54.36 112.13,54.36 112.13,9.39 108.1,9.39 		"/>
		<polygon class="st1" points="115.04,11.6 120.06,11.6 120.06,54.36 124.1,54.36 124.1,11.6 129.33,11.6 129.33,9.45 115.04,9.45 
					"/>
		<path class="st1" d="M145.37,10.9c-0.45-0.52-1.14-0.95-2.05-1.28c-0.9-0.32-2.14-0.49-3.7-0.49c-1.59,0-2.87,0.15-3.79,0.46
			c-0.95,0.31-1.67,0.74-2.13,1.28c-0.46,0.54-0.77,1.17-0.9,1.88c-0.12,0.67-0.19,1.36-0.19,2.04v39.57h4.03V31.62h5.69v22.74h4.03
			V14.74c0-0.67-0.05-1.35-0.16-2.01C146.1,12.04,145.82,11.43,145.37,10.9z M142.34,13.38v15.93h-5.69V13.38
			c0-0.33,0.03-0.67,0.1-1c0.06-0.31,0.19-0.58,0.39-0.83c0.19-0.24,0.48-0.43,0.85-0.57c0.39-0.15,0.9-0.22,1.53-0.22
			c0.69,0,1.23,0.09,1.61,0.26c0.37,0.17,0.65,0.37,0.81,0.6c0.17,0.23,0.27,0.5,0.32,0.8C142.32,12.76,142.34,13.08,142.34,13.38z"
			/>
		<path class="st1" d="M171.69,51.17c0,0.51-0.2,0.93-0.62,1.29c-0.43,0.36-1.16,0.56-2.14,0.59c-0.86,0-1.56-0.2-2.07-0.6
			c-0.5-0.39-0.74-0.82-0.74-1.33V13.37c0-0.33,0.03-0.66,0.1-0.99c0.06-0.31,0.19-0.58,0.39-0.83c0.2-0.24,0.48-0.43,0.85-0.57
			c0.39-0.15,0.9-0.22,1.53-0.22c0.69,0,1.23,0.09,1.61,0.26c0.37,0.17,0.65,0.37,0.81,0.59c0.17,0.23,0.27,0.49,0.32,0.8
			c0.05,0.33,0.08,0.66,0.08,0.95v10.04h4.03v-8.63c0-0.67-0.05-1.34-0.16-2c-0.11-0.69-0.41-1.32-0.89-1.86
			c-0.48-0.54-1.18-0.98-2.08-1.3c-0.89-0.32-2.12-0.48-3.67-0.48c-1.58,0-2.84,0.15-3.77,0.46c-0.94,0.31-1.65,0.74-2.12,1.28
			c-0.46,0.54-0.76,1.17-0.89,1.88c-0.12,0.68-0.19,1.36-0.19,2.04v35.28c0,1.3,0.54,2.4,1.61,3.27c1.07,0.87,2.83,1.31,5.4,1.34
			c1.24,0,2.3-0.12,3.16-0.36c0.86-0.24,1.58-0.57,2.13-0.98c0.56-0.42,0.96-0.93,1.21-1.51v0c0.24-0.57,0.36-1.18,0.36-1.8V39.61
			h-4.24V51.17z"/>
		<path class="st1" d="M194.7,33.79c-0.13-0.65-0.51-1.35-1.13-2.08c-0.19-0.23-0.44-0.44-0.74-0.63c-0.29-0.18-0.57-0.33-0.84-0.46
			c-0.13-0.06-0.26-0.12-0.37-0.16c0.19-0.09,0.4-0.18,0.61-0.29c0.32-0.16,0.64-0.34,0.94-0.54c0.32-0.2,0.57-0.42,0.75-0.63
			c0.42-0.42,0.68-0.79,0.8-1.14c0.11-0.34,0.17-0.73,0.17-1.18V15.23c0-0.87-0.05-1.69-0.16-2.43c-0.12-0.81-0.67-1.52-1.64-2.12
			c-0.54-0.32-1.15-0.56-1.8-0.71c-0.63-0.14-1.24-0.24-1.83-0.29c-0.58-0.05-1.09-0.08-1.51-0.08h-6.72v44.81h4.03v-22.9h1.29
			c0.6,0,1.14,0.05,1.6,0.15c0.46,0.1,0.96,0.28,1.48,0.55c0.49,0.28,0.8,0.68,0.94,1.22c0.15,0.59,0.23,1.19,0.23,1.79v19.19h4.14
			l-0.05-18.46C194.89,35.14,194.82,34.41,194.7,33.79z M190.85,13.95v11.87c0,0.57-0.07,1.15-0.2,1.72
			c-0.13,0.54-0.3,0.92-0.49,1.12c-0.32,0.29-0.81,0.54-1.45,0.76c-0.65,0.22-1.33,0.33-2.03,0.33h-1.41v-18.5h1.88
			c0.97,0,1.84,0.14,2.59,0.41c0.48,0.15,0.77,0.4,0.9,0.75C190.78,12.79,190.85,13.32,190.85,13.95z"/>
		<path class="st1" d="M209.95,51.12c0,0.51-0.23,0.95-0.69,1.34c-0.47,0.39-1.15,0.59-2.03,0.59c-0.94,0-1.66-0.19-2.13-0.57
			c-0.46-0.37-0.68-0.8-0.68-1.31V9.5h-4.03v40.52c0,0.63,0.12,1.23,0.36,1.8c0.24,0.58,0.65,1.09,1.21,1.51
			c0.55,0.41,1.26,0.74,2.13,0.98c0.86,0.24,1.92,0.36,3.16,0.36c1.27,0,2.35-0.11,3.2-0.33c0.87-0.22,1.57-0.55,2.09-0.97
			c0.52-0.42,0.9-0.92,1.13-1.48c0.22-0.55,0.33-1.15,0.33-1.77V9.5h-4.03V51.12z"/>
		<polygon class="st1" points="223.11,52.05 231.37,9.29 218.86,9.29 218.86,11.6 226.39,11.6 218.18,54.36 231.78,54.36 
			231.78,52.05 		"/>
	</g>
</g>
</svg>
