<?xml version="1.0" encoding="UTF-8" standalone="no"?>
<!-- Generator: Adobe Illustrator 23.1.1, SVG Export Plug-In . SVG Version: 6.00 Build 0)  -->

<svg
   xmlns:dc="http://purl.org/dc/elements/1.1/"
   xmlns:cc="http://creativecommons.org/ns#"
   xmlns:rdf="http://www.w3.org/1999/02/22-rdf-syntax-ns#"
   xmlns:svg="http://www.w3.org/2000/svg"
   xmlns="http://www.w3.org/2000/svg"
   xmlns:sodipodi="http://sodipodi.sourceforge.net/DTD/sodipodi-0.dtd"
   xmlns:inkscape="http://www.inkscape.org/namespaces/inkscape"
   version="1.1"
   id="Layer_1"
   x="0px"
   y="0px"
   viewBox="0 0 726.50001 138.8"
   xml:space="preserve"
   sodipodi:docname="bdc-logo.svg"
   width="726.5"
   height="138.8"
   inkscape:version="0.92.3 (2405546, 2018-03-11)"><metadata
   id="metadata332"><rdf:RDF><cc:Work
       rdf:about=""><dc:format>image/svg+xml</dc:format><dc:type
         rdf:resource="http://purl.org/dc/dcmitype/StillImage" /><dc:title></dc:title></cc:Work></rdf:RDF></metadata><defs
   id="defs330" /><sodipodi:namedview
   pagecolor="#ffffff"
   bordercolor="#666666"
   borderopacity="1"
   objecttolerance="10"
   gridtolerance="10"
   guidetolerance="10"
   inkscape:pageopacity="0"
   inkscape:pageshadow="2"
   inkscape:window-width="1877"
   inkscape:window-height="1025"
   id="namedview328"
   showgrid="false"
   inkscape:zoom="1.0759259"
   inkscape:cx="390.35864"
   inkscape:cy="142.50511"
   inkscape:window-x="43"
   inkscape:window-y="27"
   inkscape:window-maximized="1"
   inkscape:current-layer="Layer_1"
   fit-margin-top="0"
   fit-margin-left="0"
   fit-margin-right="0"
   fit-margin-bottom="0" />
<style
   type="text/css"
   id="style191">
	.st0{fill:#616365;}
	.st1{fill:#C11F3E;}
	.st2{fill:none;stroke:#C11F3E;stroke-width:2.1768;stroke-miterlimit:10;}
</style>
<g
   id="g325"
   transform="translate(-116.3,-200.7)">
	<g
   id="g273">
		<path
   class="st0"
   d="m 298.7,319.4 c -0.8,0.7 -1.6,1.3 -2.4,2 -0.2,-0.1 -0.3,-0.2 -0.5,-0.3 0.4,-0.9 0.9,-1.9 1.3,-2.9 -0.5,-0.1 -0.9,-0.2 -1.4,-0.2 0,-0.8 0,-1.6 0,-2.4 1,0 1.9,-0.1 2.9,-0.1 0.1,1.2 0.1,2.6 0.1,3.9 z"
   id="path193"
   inkscape:connector-curvature="0"
   style="fill:#616365" />
		<g
   id="g271">
			<path
   class="st0"
   d="m 241.4,202.2 c 1.7,3.3 3.5,6.6 5.2,9.8 2,3.7 4.1,7.3 6.2,11 3.2,5.8 6.5,11.7 9.7,17.5 0.9,1.6 1.9,3.3 2.7,4.9 0.2,0.3 0,0.9 -0.1,1.2 -2.6,4.7 -5.2,9.4 -7.8,14.1 -1.4,2.5 -2.8,5.1 -4.2,7.6 -3.3,6 -6.7,12.1 -10,18.1 -0.5,0.9 -1,1.9 -1.5,2.8 -0.2,0.3 -0.7,0.5 -1,0.6 -0.2,0.1 -0.5,0 -0.8,0 -29.3,0 -58.6,0 -87.9,0 -3.9,0 -7.7,-3.1 -7.9,-7.2 -0.1,-2 -0.3,-4 -0.3,-5.9 0,-21.7 0,-43.4 0,-65.2 0,-3.4 0.8,-6.4 4,-8.3 0.7,-0.4 1.5,-0.7 2.2,-1.1 30.5,0.1 61,0.1 91.5,0.1 z m -83.9,24.5 c 0,13.1 0,26.1 0,39 2.1,0 4.1,0 6.3,0 0,-9.6 0,-19.2 0,-29.1 0.4,0.5 0.6,0.6 0.7,0.8 2,3.2 4,6.4 6,9.5 3.7,6 7.4,12 11.1,17.9 0.2,0.3 0.6,0.8 0.9,0.8 2.2,0.1 4.3,0 6.5,0 0,-13.1 0,-26.1 0,-39 -2.1,0 -4.2,0 -6.3,0 0,9.6 0,19.2 0,29.1 -0.9,-1.4 -1.5,-2.5 -2.2,-3.6 -5.1,-8.2 -10.2,-16.5 -15.4,-24.7 -0.2,-0.4 -0.8,-0.9 -1.2,-0.9 -2.1,0.1 -4.2,0.2 -6.4,0.2 z m 83.7,39 c 0,-13.1 0,-26 0,-39 -2.2,0 -4.3,0 -6.6,0 0,5.2 0,10.3 0,15.4 -6.1,0 -12,0 -18.1,0 0,-5.2 0,-10.3 0,-15.4 -2.3,0 -4.4,0 -6.5,0 0,13 0,26 0,38.9 2.2,0 4.3,0 6.6,0 0,-5.9 0,-11.7 0,-17.5 6.1,0 12.1,0 18.1,0 0,5.9 0,11.7 0,17.6 2.1,0 4.2,0 6.5,0 z m -45,-39 c 0,13.1 0,26 0,38.9 2.2,0 4.4,0 6.5,0 0,-13 0,-26 0,-38.9 -2.2,0 -4.3,0 -6.5,0 z"
   id="path195"
   inkscape:connector-curvature="0"
   style="fill:#616365" />
			<path
   class="st1"
   d="m 255.4,202.2 c 2.1,0.9 4.3,1.6 5.7,3.5 0.9,1.2 1.7,2.5 2.5,3.8 4.1,7.3 8.1,14.7 12.2,22.1 2.5,4.6 5.1,9.1 7.6,13.7 0.2,0.4 0.2,1.2 -0.1,1.6 -2.7,5 -5.5,9.9 -8.2,14.9 -2,3.6 -3.9,7.1 -5.9,10.7 -2.4,4.3 -4.6,8.6 -7.1,12.7 -1.9,3.1 -4.9,4.8 -8.7,4.8 -2,0 -4,0 -6.3,0 0.9,-1.8 1.8,-3.4 2.6,-5 1.7,-3.1 3.4,-6.2 5.2,-9.2 3.6,-6.4 7.2,-12.9 10.8,-19.3 1.8,-3.2 3.6,-6.5 5.4,-9.7 0.2,-0.3 0.1,-1 -0.1,-1.4 -2,-3.7 -4.1,-7.5 -6.1,-11.2 -1.7,-3 -3.4,-6.1 -5.1,-9.1 -3.6,-6.4 -7.2,-12.9 -10.8,-19.3 -0.6,-1.1 -1.2,-2.3 -1.8,-3.4 2.7,-0.2 5.4,-0.2 8.2,-0.2 z"
   id="path197"
   inkscape:connector-curvature="0"
   style="fill:#c11f3e" />
			<path
   class="st0"
   d="m 116.3,303.9 c 2.7,-0.6 3.8,1.2 4.9,3.2 1.3,2.2 2.7,4.4 4.3,6.5 0,-3.2 0,-6.3 0,-9.6 0.8,0 1.5,0 2.3,0 0,4.6 0,9.2 0,13.8 -2.4,0.5 -2.6,0.3 -3.9,-1.8 -1.5,-2.5 -3.1,-5 -4.9,-7.4 0,3.1 0,6.2 0,9.3 -1,0.1 -1.9,0.1 -2.7,0.1 0,-4.6 0,-9.4 0,-14.1 z"
   id="path199"
   inkscape:connector-curvature="0"
   style="fill:#616365" />
			<path
   class="st0"
   d="m 150.1,339.3 c -0.9,-0.7 -2.1,-1.3 -2.7,-2.2 -1.3,-2.1 -1.2,-4.5 -0.2,-6.6 1.1,-2.2 3.5,-2.8 5.7,-1.8 0.4,0.2 0.9,0.4 1.5,0.8 0,-1.6 0,-3.2 0,-4.8 0.8,0 1.5,0 2.3,0 0,4.7 0,9.4 0,14.1 -1.8,0.3 -1.9,0.3 -2.4,-0.6 -0.6,0.4 -1.2,0.7 -1.8,1.1 -0.8,0 -1.6,0 -2.4,0 z m 1.7,-2.1 c 1.5,0 2.8,-1.5 2.8,-3.5 0,-1.9 -1.2,-3.5 -2.8,-3.5 -1.6,0 -2.8,1.5 -2.8,3.6 0,2.2 1,3.4 2.8,3.4 z"
   id="path201"
   inkscape:connector-curvature="0"
   style="fill:#616365" />
			<path
   class="st0"
   d="m 207.4,339.3 c -1.6,-0.8 -3,-1.8 -3.3,-3.8 -0.3,-1.9 -0.4,-3.8 0.9,-5.5 1.7,-2.2 4.4,-2.1 6.9,-0.5 0,-0.9 0,-1.6 0,-2.3 0,-0.8 0,-1.5 0,-2.4 0.8,0 1.5,0 2.2,0 0,4.7 0,9.4 0,14.1 -1.8,0.3 -1.9,0.3 -2.5,-0.6 -0.6,0.4 -1.2,0.7 -1.8,1.1 -0.8,-0.1 -1.6,-0.1 -2.4,-0.1 z m 4.4,-5.6 c 0,-0.2 0,-0.5 0,-0.7 -0.2,-1.2 -1.3,-2.5 -2.3,-2.7 -1.2,-0.2 -2.2,0.3 -2.7,1.4 -0.7,1.4 -0.9,2.9 0,4.2 0.4,0.6 1.3,1.2 2,1.3 1.9,0.2 3,-1.2 3,-3.5 z"
   id="path203"
   inkscape:connector-curvature="0"
   style="fill:#616365" />
			<path
   class="st0"
   d="m 127.5,339.3 c -0.3,-0.2 -0.5,-0.4 -0.8,-0.5 -1.5,-0.7 -1.6,-2 -1.5,-3.4 0.1,-1.2 0.8,-1.8 1.9,-2.1 1.3,-0.3 2.6,-0.5 3.9,-0.8 0.4,-0.1 0.9,-0.7 0.9,-1 0,-0.4 -0.6,-1.1 -0.9,-1.1 -0.9,0 -2.2,0 -2.6,0.5 -0.9,1.2 -1.9,0.9 -3,0.9 0,-1.4 0.6,-2.3 1.7,-2.9 1.9,-1 3.8,-0.9 5.6,-0.1 0.7,0.3 1.3,1.5 1.4,2.4 0.2,1.6 0,3.2 0.1,4.8 0,0.5 0.4,1 0.7,1.5 0.2,0 0.4,-0.1 0.6,-0.1 -0.2,0.6 -0.4,1.2 -0.6,1.9 -2.5,0 -5,0 -7.4,0 z m 4.2,-5.2 c -1.1,0.2 -2.3,0.3 -3.3,0.7 -0.4,0.1 -0.8,0.8 -0.9,1.3 0,0.3 0.5,0.9 0.9,1.1 2.2,0.7 3.8,-0.8 3.3,-3.1 z"
   id="path205"
   inkscape:connector-curvature="0"
   style="fill:#616365" />
			<path
   class="st0"
   d="m 284,339.3 c -1.4,-0.8 -3,-1.6 -3.3,-3.5 -0.5,-2.7 -0.3,-5.5 2.2,-6.9 2.8,-1.5 6.6,-0.3 7.3,3.5 0.3,1.9 0.2,1.9 -1.7,1.9 -1.8,0 -3.6,0 -5.5,0 -0.4,1.4 0.5,2.3 1.4,2.7 0.8,0.4 2.2,0.7 2.8,-0.4 0.8,-1.3 1.8,-1 2.9,-1 -0.2,1.5 -1,2.6 -2.4,3.1 -0.3,0.1 -0.6,0.4 -1,0.6 -0.9,0 -1.8,0 -2.7,0 z m 3.8,-6.5 c -0.6,-2 -1.4,-2.7 -2.8,-2.5 -1.2,0.2 -2.1,1.2 -2,2.5 1.6,0 3.1,0 4.8,0 z"
   id="path207"
   inkscape:connector-curvature="0"
   style="fill:#616365" />
			<path
   class="st0"
   d="m 185,339.3 c -1.6,-0.9 -3.2,-1.7 -3.6,-3.8 -0.7,-4.4 0.8,-7.1 5,-7.2 3.8,-0.2 5.8,2.9 5.2,6.5 -0.3,2.3 -1.8,3.7 -3.9,4.5 -0.9,0 -1.8,0 -2.7,0 z m 4.2,-5.6 c 0,-2.6 -1.8,-4.2 -3.8,-3.1 -0.8,0.5 -1.4,1.7 -1.7,2.7 -0.6,2.1 1.2,4.1 3.2,3.9 1.4,-0.1 2.3,-1.4 2.3,-3.5 z"
   id="path209"
   inkscape:connector-curvature="0"
   style="fill:#616365" />
			<path
   class="st0"
   d="m 196.5,339.3 c -0.9,-0.6 -2,-1.1 -2.7,-1.9 -2,-2.2 -1.6,-7.2 1.5,-8.6 3.3,-1.5 7.7,0.1 7.7,4.7 0,2.9 -1.4,4.6 -3.8,5.8 -0.9,0 -1.8,0 -2.7,0 z m -1.6,-5.6 c 0.1,0 0.1,0 0.2,0.1 0,0.3 0,0.5 0,0.8 0.2,1.6 1,2.5 2.2,2.7 1.5,0.2 2.5,-0.3 3,-1.8 0.3,-0.9 0.4,-2.2 0,-3.1 -0.3,-0.8 -1.2,-1.6 -2.1,-2 -1.1,-0.4 -2,0.3 -2.6,1.2 -0.4,0.6 -0.5,1.4 -0.7,2.1 z"
   id="path211"
   inkscape:connector-curvature="0"
   style="fill:#616365" />
			<path
   class="st0"
   d="m 239.8,339.3 c -0.4,-0.2 -0.7,-0.3 -1.1,-0.5 -1.3,-0.6 -2,-1.6 -2.1,-3.1 1.2,-0.1 2.2,-0.6 2.9,1 0.4,0.9 3.1,0.8 3.7,0 0.4,-0.6 -0.1,-1.5 -1.1,-1.7 -1,-0.3 -2.1,-0.5 -3.1,-0.8 -1.7,-0.5 -2.2,-1.3 -2.1,-3.2 0,-1 1.2,-2.2 2.4,-2.3 1.3,-0.1 2.7,0 4,0.2 1.3,0.3 1.9,1.3 2.2,2.7 -1.3,0.1 -2.3,0.3 -3.3,-0.8 -0.4,-0.5 -1.9,-0.4 -2.6,0 -0.8,0.4 -0.1,1.1 0.4,1.4 1,0.3 2,0.5 3,0.8 1.8,0.5 3,1.1 2.8,3.3 -0.1,1.4 -0.9,2.3 -2.5,2.8 -0.3,0.1 -0.5,0.2 -0.8,0.4 -0.9,-0.2 -1.8,-0.2 -2.7,-0.2 z"
   id="path213"
   inkscape:connector-curvature="0"
   style="fill:#616365" />
			<path
   class="st0"
   d="m 266.3,339.3 c -2.1,-0.9 -2.6,-2.5 -2.4,-4.6 0.1,-2 0,-4 0,-6.1 0.8,0 1.5,0 2.3,0 0,2.1 0,4.1 0,6.2 0,1.8 0.5,2.4 2,2.4 1.4,0 2.2,-0.8 2.3,-2.4 0,-2 0,-4.1 0,-6.2 0.8,0 1.5,0 2.2,0 0,3.4 0,6.9 0,10.5 -0.9,-0.1 -1.7,-0.3 -2.5,-0.4 0,-0.1 0,-0.3 0,-0.4 -0.5,0.4 -1,0.7 -1.4,1.1 -0.9,-0.1 -1.7,-0.1 -2.5,-0.1 z"
   id="path215"
   inkscape:connector-curvature="0"
   style="fill:#616365" />
			<path
   class="st0"
   d="m 173.8,331.3 c 1.8,1 2.6,2.8 2.1,4.7 -0.3,1.6 -1.9,2.9 -4.1,3 -2.5,0.1 -5.1,0 -7.7,0 0,-4.8 0,-9.5 0,-14.3 2.7,0 5.4,-0.2 8,0.1 3.3,0.3 4.6,3.9 1.7,6.5 z m -7.1,5.8 c 1.7,-0.1 3.3,-0.2 4.9,-0.4 1.1,-0.1 1.7,-0.8 1.7,-1.9 0,-1.1 -0.4,-1.9 -1.5,-2 -1.7,-0.2 -3.4,-0.3 -5.1,-0.4 0,1.6 0,3 0,4.7 z m 0.1,-6.4 c 1.5,0 2.8,0.1 4.2,0 1.1,-0.1 1.9,-0.8 1.8,-1.9 -0.1,-0.6 -0.8,-1.5 -1.4,-1.6 -1.5,-0.2 -3,-0.1 -4.6,-0.1 0,1.2 0,2.3 0,3.6 z"
   id="path217"
   inkscape:connector-curvature="0"
   style="fill:#616365" />
			<path
   class="st0"
   d="m 291.3,317 c -2.2,1.6 -4.8,1.4 -6.3,-0.3 -1.5,-1.7 -1.7,-5.7 0,-7.6 1.7,-1.9 4.1,-2.1 5.7,-0.9 1.3,-0.2 2.2,-0.3 3,-0.4 0,3.8 0.1,7.5 0,11.1 0,1.7 -1.2,2.8 -2.9,3.1 -2.1,0.4 -4.1,0.7 -5.8,-1.1 -0.4,-0.4 -0.6,-1 -1,-1.7 1.4,-0.1 2.3,-0.4 3.3,0.7 0.5,0.5 2,0.4 3,0.2 1.4,-0.5 1.2,-1.8 1,-3.1 z m 0.1,-4.3 c 0.2,-2.5 -1.4,-3.4 -2.7,-3.2 -1.2,0.2 -2.2,1.2 -2.3,2.4 -0.2,2.2 0.5,3.8 1.8,4.3 0.4,0.1 0.8,0.1 1.2,0 1.4,-0.4 2,-1.4 2,-3.5 z"
   id="path219"
   inkscape:connector-curvature="0"
   style="fill:#616365" />
			<path
   class="st0"
   d="m 205.3,318 c -0.8,0 -1.6,0 -2.5,0 0,-2 0,-4 0,-6.1 -2.2,0 -4.2,0 -6.4,0 0,2 0,4 0,6.1 -0.9,0 -1.7,0 -2.6,0 0,-4.6 0,-9.2 0,-13.8 0.8,0 1.5,0 2.5,0 0,1.7 0,3.4 0,5.2 2.2,0 4.2,0 6.4,0 0,-1.7 0,-3.4 0,-5.2 0.9,0 1.7,0 2.6,0 0,4.4 0,9 0,13.8 z"
   id="path221"
   inkscape:connector-curvature="0"
   style="fill:#616365" />
			<path
   class="st0"
   d="m 230.7,307.8 c 0.1,0.4 0.1,0.8 0.2,1.3 1.3,-1.7 2.9,-2 4.9,-1.3 0,-1.1 0,-2 0,-3 0.8,0 1.5,0 2.3,0 0,0.9 0,1.8 0,2.8 0.8,0.1 1.4,0.1 2.1,0.1 0,0.5 0,1 0,1.6 -0.6,0 -1.2,0.1 -1.9,0.1 0,2.2 0,4.3 0,6.6 0.7,0 1.3,0.1 1.8,0.1 0.4,1.9 0.2,2.1 -1.7,2 -1.9,-0.1 -2.7,-0.9 -2.7,-2.7 0,-1.9 0,-3.9 0,-5.8 -3.6,-0.1 -4.8,0.9 -4.8,3.8 0,1.1 0,2.2 0,3.3 0,0.4 0,0.7 0,1.2 -0.8,0 -1.5,0 -2.2,0 0,-3.3 0,-6.7 0,-10.1 0.7,0 1.3,0 2,0 z"
   id="path223"
   inkscape:connector-curvature="0"
   style="fill:#616365" />
			<path
   class="st0"
   d="m 139.9,318.3 c -1.2,-0.2 -2.4,0.6 -3.1,-0.5 -1.6,0.2 -3,0.4 -4.4,0.5 -1.5,0 -2.9,-1.3 -2.8,-2.7 0.1,-1.6 0.6,-2.7 2.4,-3.1 1,-0.3 2.1,-0.3 3.1,-0.6 0.6,-0.2 1.4,-0.7 1.5,-1.1 0.1,-1 -0.7,-1.1 -1.6,-1.2 -1.1,-0.1 -1.9,0.2 -2.6,1 -0.4,0.4 -1.4,0.3 -2.1,0.5 -0.2,-1.9 0.8,-3.2 3,-3.4 1.2,-0.2 2.6,0.1 3.8,0.4 1.3,0.3 1.8,1.3 1.8,2.7 0,1.6 0,3.2 0,4.8 0,0.3 0,0.8 0.2,1 0.8,0.6 0.9,0.6 0.8,1.7 z m -3.5,-5.1 c -0.9,0.1 -1.8,0.2 -2.7,0.4 -0.9,0.2 -1.8,0.6 -1.5,1.6 0.2,0.5 1.1,1.1 1.7,1.2 1.7,0.2 2.8,-1.2 2.5,-3.2 z"
   id="path225"
   inkscape:connector-curvature="0"
   style="fill:#616365" />
			<path
   class="st0"
   d="m 227.9,318.5 c -1.4,-0.2 -2.4,-0.4 -4,-0.7 -1.3,0.6 -3.1,0.9 -5,0.1 -1.6,-0.7 -1.4,-2.1 -1.3,-3.4 0.1,-1.1 0.9,-1.8 2,-2.1 1.1,-0.2 2.2,-0.4 3.3,-0.6 0.7,-0.1 1.5,-0.2 1.5,-1.2 -0.1,-0.9 -0.7,-1.1 -1.6,-1.1 -1,0 -1.9,0.1 -2.6,1 -0.3,0.4 -1.5,0.3 -2.3,0.4 0.1,-1.8 0.9,-2.8 2.4,-3.2 1.9,-0.5 3.8,-0.6 5.4,0.6 0.5,0.4 0.9,1.2 1,1.9 0.1,1.4 0,2.9 0.1,4.4 0,0.7 -0.4,1.7 0.9,2 0,0.1 0,1 0.2,1.9 z m -3.7,-5.2 c -0.9,0.1 -1.9,0.1 -2.8,0.4 -0.6,0.2 -1,0.9 -1.5,1.4 0.5,0.5 1,1.2 1.6,1.3 2,0.5 3.1,-1 2.7,-3.1 z"
   id="path227"
   inkscape:connector-curvature="0"
   style="fill:#616365" />
			<path
   class="st0"
   d="m 173.3,311 c 0.2,-1.3 0.5,-2.3 1.6,-2.8 1.8,-0.9 3.6,-0.9 5.5,-0.2 1.3,0.5 1.8,1.4 1.8,2.7 0,1.4 0,2.7 0,4.1 0,0.7 -0.3,1.6 0.9,1.9 0.2,0.1 0.2,1 0.3,1.8 -1.3,-0.2 -2.5,-0.4 -3.6,-0.5 0,-0.2 0,-0.3 0,-0.5 -1.7,1.1 -3.6,1.2 -5.4,0.5 -1.6,-0.6 -1.5,-2 -1.4,-3.3 0.1,-1.2 0.9,-1.9 2.1,-2.2 1.1,-0.2 2.2,-0.3 3.3,-0.6 0.5,-0.2 1.3,-0.7 1.4,-1.1 0.1,-0.9 -0.6,-1.1 -1.4,-1.2 -1.1,0 -2,0 -2.7,1.1 -0.3,0.4 -1.5,0.2 -2.4,0.3 z m 6.5,2.3 c -1,0.1 -2,0.1 -2.8,0.5 -0.6,0.2 -1,0.9 -1.6,1.4 0.5,0.5 1,1.2 1.6,1.3 1.8,0.4 3,-1 2.8,-3.2 z"
   id="path229"
   inkscape:connector-curvature="0"
   style="fill:#616365" />
			<path
   class="st0"
   d="m 216.7,313.6 c -2.4,0 -4.8,0 -7.3,0 0,1.4 0.7,2.4 1.9,2.8 1.2,0.4 2,-0.2 2.9,-1 0.6,-0.5 1.5,-0.5 2.2,-0.8 0.2,1.8 -1.6,3.6 -3.4,3.6 -4.2,0.1 -6.3,-1.7 -6.1,-5.5 0.2,-3.6 2.2,-5.6 5.8,-5.3 2.6,0.4 4.7,3.3 4,6.2 z m -2.5,-1.8 c -0.3,-1.7 -1,-2.3 -2.4,-2.2 -1.4,0 -2,0.7 -2.2,2.2 1.5,0 3,0 4.6,0 z"
   id="path231"
   inkscape:connector-curvature="0"
   style="fill:#616365" />
			<path
   class="st0"
   d="m 155.9,318.3 c -3.1,0.5 -5.2,-2.4 -5.1,-5.2 0.1,-3.4 1.7,-5.6 5.3,-5.6 3.3,0 5.2,2 5.2,5.6 -0.1,3.2 -2.1,5.2 -5.4,5.2 z m 0.3,-8.7 c -1.8,0 -3.1,1.2 -3.1,3.3 -0.1,1.8 1.3,3.6 2.8,3.7 1.5,0 2.9,-1.6 3,-3.4 0.1,-1.9 -1.2,-3.6 -2.7,-3.6 z"
   id="path233"
   inkscape:connector-curvature="0"
   style="fill:#616365" />
			<path
   class="st0"
   d="m 136.1,328.6 c 0.8,0 1.4,0 2.2,0 0.1,0.4 0.1,0.8 0.2,1.3 1.6,-1.5 3.4,-2 5.3,-0.9 0.6,0.4 1.3,1.3 1.4,1.9 0.2,2.7 0.1,5.3 0.1,8.1 -0.8,0 -1.4,0 -2.3,0 0,-2.2 0,-4.4 0,-6.6 0,-1.5 -1.2,-2.5 -2.4,-2 -1.1,0.5 -1.8,1.3 -1.8,2.6 0,1.9 0,3.9 0,5.9 -0.9,0 -1.7,0 -2.5,0 -0.2,-3.4 -0.2,-6.8 -0.2,-10.3 z"
   id="path235"
   inkscape:connector-curvature="0"
   style="fill:#616365" />
			<path
   class="st0"
   d="m 165,318 c -0.9,0 -1.7,0 -2.5,0 0,-3.4 0,-6.7 0,-10.1 0.9,0.2 2,-0.8 2.4,1 1.6,-1.4 3.3,-1.9 5.2,-0.7 0.7,0.4 1.4,1.3 1.4,2.1 0.2,2.6 0.1,5.1 0.1,7.8 -0.8,0 -1.4,0 -2.3,0 0,-2.1 0.1,-4.2 0,-6.3 0,-0.7 -0.5,-1.8 -1,-1.9 -0.7,-0.2 -1.8,0.1 -2.5,0.5 -0.4,0.3 -0.6,1.2 -0.6,1.8 -0.2,1.8 -0.2,3.7 -0.2,5.8 z"
   id="path237"
   inkscape:connector-curvature="0"
   style="fill:#616365" />
			<path
   class="st0"
   d="m 271.6,318.1 c -0.9,-0.1 -1.7,-0.3 -2.7,-0.4 -1,0.2 -2.1,0.5 -3.4,0.6 -1.6,0.1 -3,-1.1 -3,-2.6 -0.1,-2.6 0,-5.2 0,-7.8 0.8,0 1.5,0 2.3,0 0,2 0,4 0,5.9 0,1.7 0.7,2.7 1.9,2.7 1.5,0 2.3,-0.9 2.3,-2.7 0,-1.9 0,-3.9 0,-5.9 0.9,0 1.6,0 2.5,0 0.1,3.3 0.1,6.7 0.1,10.2 z"
   id="path239"
   inkscape:connector-curvature="0"
   style="fill:#616365" />
			<path
   class="st0"
   d="m 228.6,338.9 c -0.9,0 -1.5,0 -2.3,0 0,-3.5 0,-6.8 0,-10.4 0.9,0.1 2.1,-0.8 2.4,1 1.2,-1 2.4,-1.5 3.9,-1.1 1.6,0.4 2.6,1.3 2.7,3 0.1,2.1 0,4.2 0,6.3 0,0.4 0,0.7 0,1.2 -0.8,0 -1.5,0 -2.3,0 0,-1.7 0,-3.4 0,-5.1 0,-0.8 0,-1.7 -0.3,-2.4 -0.2,-0.5 -0.9,-1 -1.5,-1.2 -1.1,-0.2 -1.9,0.4 -2.4,1.4 -0.2,0.5 -0.3,1.1 -0.3,1.7 0,1.9 0.1,3.7 0.1,5.6 z"
   id="path241"
   inkscape:connector-curvature="0"
   style="fill:#616365" />
			<path
   class="st0"
   d="m 273.5,317.9 c 0,-3.4 0,-6.7 0,-10.2 0.9,0.3 2.2,-0.9 2.4,1 1.3,-1.3 2.7,-1.6 4.4,-1.1 1.4,0.4 2.2,1.4 2.3,2.8 0.1,2.4 0,4.9 0,7.4 -0.8,0 -1.5,0 -2.3,0 0,-1.8 0,-3.5 0,-5.3 0,-0.5 -0.1,-1 -0.2,-1.5 -0.2,-0.8 -0.4,-1.6 -1.6,-1.6 -1.3,0 -2.1,0.5 -2.4,1.7 -0.2,1 -0.3,2 -0.3,3.1 0,1.2 0,2.4 0,3.7 -0.9,0 -1.5,0 -2.3,0 z"
   id="path243"
   inkscape:connector-curvature="0"
   style="fill:#616365" />
			<path
   class="st0"
   d="m 251.9,317.9 c 0,-4.6 0,-9.2 0,-13.9 0.8,0 1.6,0 2.5,0 0,3.9 0,7.8 0,11.8 2.4,0 4.7,0 7,0 0,0.8 0,1.4 0,2 -3.1,0.1 -6.2,0.1 -9.5,0.1 z"
   id="path245"
   inkscape:connector-curvature="0"
   style="fill:#616365" />
			<path
   class="st0"
   d="m 258.1,330.6 c -0.6,-0.1 -1,-0.1 -1.5,-0.1 0,-0.6 0,-1.2 0,-1.9 0.4,-0.1 0.9,-0.1 1.5,-0.2 0,-0.9 0,-1.8 0,-2.8 0.9,0 1.7,0 2.6,0 0,0.9 0,1.8 0,2.8 0.7,0.1 1.2,0.1 1.9,0.2 0,0.6 0,1.2 0,1.9 -0.5,0.1 -1.1,0.1 -1.8,0.2 0,1.9 -0.1,3.8 0.1,5.7 0,0.4 1,0.8 1.5,1.2 0.1,-0.1 0.2,-0.2 0.3,-0.3 0,0.5 0,1.1 0,1.7 -0.9,0 -1.7,0.1 -2.6,0 -1.3,-0.1 -1.8,-0.9 -1.9,-2.8 -0.1,-1.8 -0.1,-3.7 -0.1,-5.6 z"
   id="path247"
   inkscape:connector-curvature="0"
   style="fill:#616365" />
			<path
   class="st0"
   d="m 273.8,328.6 c 0.5,0 0.9,-0.1 1.5,-0.1 0,-0.9 0,-1.9 0,-2.9 0.8,0 1.5,0 2.3,0 0,0.9 0,1.8 0,2.8 0.8,0.1 1.4,0.1 2.1,0.1 0,0.6 0,1.2 0,1.9 -0.6,0 -1.3,0.1 -2.1,0.2 0,1.8 -0.1,3.6 0,5.3 0.1,1 0.5,1.2 2.1,1.3 0,0.5 0,1 0,1.7 -0.9,0 -1.8,0.1 -2.6,0 -1.2,-0.1 -1.8,-1 -1.8,-2.5 0,-1.9 0,-3.9 0,-5.8 -0.6,-0.1 -1,-0.1 -1.6,-0.1 0.1,-0.7 0.1,-1.3 0.1,-1.9 z"
   id="path249"
   inkscape:connector-curvature="0"
   style="fill:#616365" />
			<path
   class="st0"
   d="m 252,337.3 c 0,0.5 0,1 0,1.7 -0.9,0 -1.9,0.1 -2.8,0 -1,-0.2 -1.4,-0.9 -1.4,-2 0,-2.1 0,-4.2 0,-6.3 -0.7,-0.1 -1.2,-0.1 -1.8,-0.2 0,-0.6 0,-1.2 0,-1.9 0.6,-0.1 1.1,-0.1 1.8,-0.2 0,-0.9 0,-1.8 0,-2.8 0.8,0 1.5,0 2.4,0 0,0.9 0,1.8 0,2.8 0.7,0 1.2,0.1 1.8,0.1 0,0.7 0,1.3 0,1.9 -0.6,0 -1.1,0.1 -1.8,0.1 0,1.9 -0.1,3.7 0.1,5.5 0.1,0.5 1,0.9 1.5,1.4 0,0.1 0.1,0 0.2,-0.1 z"
   id="path251"
   inkscape:connector-curvature="0"
   style="fill:#616365" />
			<path
   class="st0"
   d="m 141.4,304.8 c 0.8,0 1.5,0 2.3,0 0,0.9 0.1,1.9 0.1,2.9 0.6,0 1.1,0.1 1.7,0.1 0,0.5 0,1.1 0,1.6 -0.5,0 -1.1,0.1 -1.8,0.2 0,1.9 -0.1,3.9 0.1,5.9 0,0.4 1,0.7 1.7,1.1 -0.1,0.4 0.7,1.5 -0.8,1.6 -2.1,0.2 -3.2,-0.5 -3.3,-2 -0.1,-1.7 0,-3.4 0,-5 0,-0.5 0,-1 0,-1.6 -0.7,-0.1 -1.2,-0.1 -1.8,-0.2 0,-0.5 0,-1 0,-1.6 0.5,-0.1 1.1,-0.1 1.8,-0.2 0,-0.9 0,-1.8 0,-2.8 z"
   id="path253"
   inkscape:connector-curvature="0"
   style="fill:#616365" />
			<path
   class="st0"
   d="m 223.9,338.9 c -0.8,0 -1.6,0 -2.4,0 0,-4.7 0,-9.4 0,-14.2 0.8,0 1.6,0 2.4,0 0,4.8 0,9.5 0,14.2 z"
   id="path255"
   inkscape:connector-curvature="0"
   style="fill:#616365" />
			<path
   class="st0"
   d="m 179.7,338.9 c -0.7,0 -1.4,0 -2.2,0 0,-4.7 0,-9.4 0,-14.2 0.7,0 1.4,0 2.2,0 0,4.8 0,9.5 0,14.2 z"
   id="path257"
   inkscape:connector-curvature="0"
   style="fill:#616365" />
			<path
   class="st0"
   d="m 184.3,317.9 c 0,-4.7 0,-9.2 0,-13.9 0.7,0 1.4,0 2.2,0 0,4.6 0,9.2 0,13.9 -0.7,0 -1.4,0 -2.2,0 z"
   id="path259"
   inkscape:connector-curvature="0"
   style="fill:#616365" />
			<path
   class="st0"
   d="m 255.5,328.6 c 0,3.4 0,6.9 0,10.3 -0.7,0 -1.4,0 -2.2,0 0,-3.4 0,-6.8 0,-10.3 0.7,0 1.4,0 2.2,0 z"
   id="path261"
   inkscape:connector-curvature="0"
   style="fill:#616365" />
			<path
   class="st0"
   d="m 147,317.9 c 0,-3.4 0,-6.7 0,-10 0.7,0 1.4,0 2.2,0 0,3.3 0,6.6 0,10 -0.7,0 -1.4,0 -2.2,0 z"
   id="path263"
   inkscape:connector-curvature="0"
   style="fill:#616365" />
			<path
   class="st0"
   d="m 241.3,321 c 0.5,-0.9 1,-1.8 1.6,-2.8 -0.5,-0.1 -0.9,-0.2 -1.3,-0.2 0,-0.8 0,-1.5 0,-2.4 0.9,0 1.7,0 2.6,0 0.6,3.2 0.1,5.1 -2.9,5.4 z"
   id="path265"
   inkscape:connector-curvature="0"
   style="fill:#616365" />
			<path
   class="st0"
   d="m 255.5,324.8 c 0,0.7 0,1.4 0,2.1 -0.7,0 -1.4,0 -2.2,0 0,-0.7 0,-1.4 0,-2.1 0.7,0 1.4,0 2.2,0 z"
   id="path267"
   inkscape:connector-curvature="0"
   style="fill:#616365" />
			<path
   class="st0"
   d="m 149.1,306.3 c -0.7,0 -1.4,0 -2.1,0 0,-0.7 0,-1.4 0,-2.2 0.7,0 1.4,0 2.1,0 0,0.7 0,1.4 0,2.2 z"
   id="path269"
   inkscape:connector-curvature="0"
   style="fill:#616365" />
		</g>
	</g>
	<path
   class="st0"
   d="m 508.8,222.2 c 0,3.8 -0.7,7.1 -2.1,9.8 -1.4,2.8 -3.3,5 -5.6,6.8 -2.3,1.8 -4.9,3.1 -7.8,3.9 -2.9,0.8 -5.8,1.3 -8.8,1.3 h -16.1 v -43.3 h 15.7 c 3.1,0 6.1,0.4 9.1,1.1 3,0.7 5.6,1.9 8,3.5 2.4,1.6 4.2,3.9 5.6,6.6 1.3,2.8 2,6.3 2,10.3 m -10.8,0 c 0,-2.4 -0.4,-4.5 -1.2,-6.1 -0.8,-1.6 -1.9,-2.9 -3.2,-3.9 -1.3,-1 -2.8,-1.6 -4.5,-2.1 -1.7,-0.4 -3.4,-0.6 -5.2,-0.6 h -5.2 V 235 h 5 c 1.9,0 3.7,-0.2 5.4,-0.6 1.7,-0.4 3.3,-1.1 4.6,-2.1 1.3,-1 2.4,-2.3 3.2,-3.9 0.7,-1.7 1.1,-3.7 1.1,-6.2"
   id="path275"
   inkscape:connector-curvature="0"
   style="fill:#616365" />
	<path
   class="st0"
   d="m 514.8,217.7 c 1.8,-1.7 3.9,-3 6.3,-3.9 2.4,-0.9 4.8,-1.3 7.3,-1.3 2.6,0 4.7,0.3 6.5,0.9 1.8,0.6 3.2,1.6 4.3,2.9 1.1,1.3 1.9,3 2.4,5 0.5,2 0.8,4.4 0.8,7.2 V 244 h -9.2 v -3.2 H 533 c -0.8,1.3 -1.9,2.2 -3.5,2.9 -1.6,0.7 -3.3,1 -5.1,1 -1.2,0 -2.5,-0.2 -3.8,-0.5 -1.3,-0.3 -2.5,-0.9 -3.6,-1.6 -1.1,-0.7 -2,-1.7 -2.7,-2.9 -0.7,-1.2 -1,-2.7 -1,-4.5 0,-2.2 0.6,-4 1.8,-5.3 1.2,-1.3 2.8,-2.4 4.6,-3.1 1.9,-0.7 4,-1.2 6.3,-1.5 2.3,-0.2 4.6,-0.4 6.8,-0.4 v -0.5 c 0,-1.5 -0.5,-2.6 -1.6,-3.3 -1.1,-0.7 -2.4,-1.1 -3.9,-1.1 -1.4,0 -2.8,0.3 -4.1,0.9 -1.3,0.6 -2.5,1.3 -3.4,2.2 z m 18.4,13.1 h -1.3 c -1.1,0 -2.2,0.1 -3.3,0.2 -1.1,0.1 -2.1,0.3 -3,0.6 -0.9,0.3 -1.6,0.7 -2.2,1.3 -0.6,0.6 -0.9,1.3 -0.9,2.2 0,0.6 0.1,1.1 0.4,1.5 0.3,0.4 0.6,0.7 1,1 0.4,0.2 0.9,0.4 1.4,0.5 0.5,0.1 1,0.2 1.5,0.2 2,0 3.6,-0.6 4.7,-1.7 1.1,-1.1 1.6,-2.6 1.6,-4.6 v -1.2 z"
   id="path277"
   inkscape:connector-curvature="0"
   style="fill:#616365" />
	<path
   class="st0"
   d="m 560.1,221 v 11.7 c 0,1.4 0.3,2.5 0.8,3.2 0.5,0.7 1.5,1.1 3,1.1 0.5,0 1,0 1.6,-0.1 0.6,-0.1 1,-0.2 1.4,-0.4 l 0.1,7.3 c -0.7,0.2 -1.6,0.5 -2.6,0.6 -1.1,0.2 -2.1,0.3 -3.2,0.3 -2,0 -3.8,-0.3 -5.1,-0.8 -1.4,-0.5 -2.5,-1.2 -3.3,-2.2 -0.8,-1 -1.4,-2.1 -1.8,-3.4 -0.4,-1.3 -0.5,-2.8 -0.5,-4.4 V 221 h -4.9 v -7.5 h 4.8 v -8 h 9.8 v 8 h 7.2 v 7.5 z"
   id="path279"
   inkscape:connector-curvature="0"
   style="fill:#616365" />
	<path
   class="st0"
   d="m 571.5,217.7 c 1.8,-1.7 3.9,-3 6.3,-3.9 2.4,-0.9 4.8,-1.3 7.3,-1.3 2.6,0 4.7,0.3 6.5,0.9 1.8,0.6 3.2,1.6 4.3,2.9 1.1,1.3 1.9,3 2.4,5 0.5,2 0.8,4.4 0.8,7.2 V 244 H 590 v -3.2 h -0.2 c -0.8,1.3 -1.9,2.2 -3.5,2.9 -1.6,0.7 -3.3,1 -5.1,1 -1.2,0 -2.5,-0.2 -3.8,-0.5 -1.3,-0.3 -2.5,-0.9 -3.6,-1.6 -1.1,-0.7 -2,-1.7 -2.7,-2.9 -0.7,-1.2 -1,-2.7 -1,-4.5 0,-2.2 0.6,-4 1.8,-5.3 1.2,-1.3 2.8,-2.4 4.6,-3.1 1.9,-0.7 4,-1.2 6.3,-1.5 2.3,-0.2 4.6,-0.4 6.8,-0.4 v -0.5 c 0,-1.5 -0.5,-2.6 -1.6,-3.3 -1.1,-0.7 -2.4,-1.1 -3.9,-1.1 -1.4,0 -2.8,0.3 -4.1,0.9 -1.3,0.6 -2.5,1.3 -3.4,2.2 z m 18.5,13.1 h -1.3 c -1.1,0 -2.2,0.1 -3.3,0.2 -1.1,0.1 -2.1,0.3 -3,0.6 -0.9,0.3 -1.6,0.7 -2.2,1.3 -0.6,0.6 -0.9,1.3 -0.9,2.2 0,0.6 0.1,1.1 0.4,1.5 0.3,0.4 0.6,0.7 1,1 0.4,0.2 0.9,0.4 1.4,0.5 0.5,0.1 1,0.2 1.5,0.2 2,0 3.6,-0.6 4.7,-1.7 1.1,-1.1 1.6,-2.6 1.6,-4.6 v -1.2 z"
   id="path281"
   inkscape:connector-curvature="0"
   style="fill:#616365" />
	<path
   class="st0"
   d="m 379.3,200.7 h 14.9 c 1.6,0 3.3,0.2 4.9,0.6 1.6,0.4 3.1,1 4.4,1.8 1.3,0.9 2.3,2 3.1,3.4 0.8,1.4 1.2,3.1 1.2,5.2 0,2.4 -0.7,4.4 -2.1,6.1 -1.4,1.6 -3.2,2.8 -5.5,3.4 v 0.1 c 1.4,0.2 2.7,0.5 3.9,1.1 1.2,0.6 2.2,1.3 3.1,2.2 0.9,0.9 1.5,2 2,3.2 0.5,1.2 0.7,2.6 0.7,4.1 0,2.1 -0.4,3.9 -1.3,5.4 -0.9,1.6 -2,2.8 -3.5,3.8 -1.5,1 -3.2,1.8 -5.2,2.3 -2,0.5 -4.1,0.8 -6.3,0.8 h -14.3 z m 6,18.3 h 7.9 c 1.1,0 2.2,-0.1 3.3,-0.4 1,-0.3 1.9,-0.7 2.7,-1.2 0.8,-0.6 1.4,-1.2 1.8,-2.1 0.5,-0.8 0.7,-1.8 0.7,-3 0,-2.3 -0.9,-4 -2.6,-5 -1.7,-1 -4,-1.5 -6.9,-1.5 h -6.9 z m 0,19.9 h 7.6 c 1.3,0 2.5,-0.1 3.8,-0.3 1.3,-0.2 2.4,-0.6 3.5,-1.2 1,-0.6 1.9,-1.3 2.5,-2.3 0.6,-1 0.9,-2.2 0.9,-3.6 0,-2.6 -0.9,-4.4 -2.6,-5.6 -1.8,-1.1 -4.3,-1.7 -7.6,-1.7 h -8.1 z"
   id="path283"
   inkscape:connector-curvature="0"
   style="fill:#616365" />
	<path
   class="st0"
   d="m 425,204.6 c 0,1.1 -0.4,1.9 -1.1,2.6 -0.7,0.7 -1.6,1 -2.7,1 -1.1,0 -1.9,-0.4 -2.7,-1.1 -0.7,-0.7 -1.1,-1.6 -1.1,-2.6 0,-1.1 0.4,-1.9 1.1,-2.7 0.7,-0.7 1.6,-1.1 2.7,-1.1 1.1,0 2,0.4 2.7,1.1 0.7,0.8 1.1,1.7 1.1,2.8 m -0.9,39.4 h -5.8 v -29 h 5.8 z"
   id="path285"
   inkscape:connector-curvature="0"
   style="fill:#616365" />
	<path
   class="st0"
   d="m 463.4,229.5 c 0,2.2 -0.4,4.3 -1.2,6.2 -0.8,1.9 -1.9,3.5 -3.3,4.9 -1.4,1.4 -3.1,2.4 -5,3.2 -1.9,0.8 -4,1.1 -6.2,1.1 -2.2,0 -4.3,-0.4 -6.2,-1.1 -1.9,-0.8 -3.6,-1.8 -5,-3.2 -1.4,-1.4 -2.5,-3 -3.3,-4.9 -0.8,-1.9 -1.2,-3.9 -1.2,-6.2 0,-2.2 0.4,-4.3 1.2,-6.1 0.8,-1.9 1.9,-3.5 3.3,-4.8 1.4,-1.3 3,-2.4 5,-3.2 1.9,-0.8 4,-1.1 6.2,-1.1 2.2,0 4.3,0.4 6.2,1.1 1.9,0.8 3.6,1.8 5,3.2 1.4,1.3 2.5,2.9 3.3,4.8 0.9,1.8 1.2,3.8 1.2,6.1 m -5.9,0 c 0,-1.4 -0.2,-2.7 -0.6,-4 -0.4,-1.3 -1.1,-2.4 -1.9,-3.3 -0.8,-1 -1.8,-1.7 -3,-2.3 -1.2,-0.6 -2.6,-0.9 -4.1,-0.9 -1.6,0 -2.9,0.3 -4.1,0.9 -1.2,0.6 -2.2,1.3 -3,2.3 -0.8,1 -1.4,2.1 -1.9,3.3 -0.4,1.3 -0.6,2.6 -0.6,4 0,1.4 0.2,2.7 0.6,4 0.4,1.3 1.1,2.4 1.9,3.4 0.8,1 1.8,1.7 3,2.3 1.2,0.6 2.6,0.9 4.1,0.9 1.6,0 2.9,-0.3 4.1,-0.9 1.2,-0.6 2.2,-1.3 3,-2.3 0.8,-1 1.4,-2.1 1.9,-3.4 0.3,-1.3 0.6,-2.6 0.6,-4"
   id="path287"
   inkscape:connector-curvature="0"
   style="fill:#616365" />
	<line
   class="st2"
   x1="339"
   y1="200.7"
   x2="339"
   y2="338.39999"
   id="line289"
   style="fill:none;stroke:#c11f3e;stroke-width:2.17680001;stroke-miterlimit:10" />
	<g
   id="g299">
		<polygon
   class="st1"
   points="483.5,286.8 478.6,302.1 488.4,302.1 "
   id="polygon291"
   style="fill:#c11f3e" />
		<path
   class="st1"
   d="m 379.3,253.8 v 84.6 h 429 l 34.5,-42.3 -34.5,-42.3 z m 54.4,69.4 c -13.4,0 -23.8,-10.2 -23.8,-26.5 v -0.9 c 0,-16.1 10.5,-26.7 24.3,-26.7 8.2,0 13.8,3.2 18.1,8.2 l -8.7,9.2 c -2.2,-2.7 -5.1,-4.9 -9.2,-4.9 -6.1,0 -10.7,5.5 -10.7,14.4 v 0.3 c 0,9.3 4.6,14.5 10.7,14.5 4.5,0 7.2,-2.4 9.6,-5.2 l 8.5,8.7 c -4.2,5.1 -10,8.9 -18.8,8.9 m 61.1,-0.9 -3.1,-9.4 h -16.4 l -3,9.4 h -13.8 l 18.4,-52.6 h 13.6 l 18.5,52.6 z m 54.4,-40.2 h -12.9 v 40.2 H 522.8 V 282.1 H 509.9 V 270 h 39.3 z m 37.4,40.2 -3.1,-9.4 h -16.4 l -3,9.4 h -13.8 l 18.4,-52.6 h 13.6 l 18.5,52.6 z m 57,0 h -34 V 270 h 13.5 v 40.2 h 20.6 v 12.1 z m 28.2,-19.8 v 19.7 H 658.3 V 302.6 L 641.5,270 h 14.9 l 8.7,18.9 8.9,-18.9 h 14.7 z m 59.7,4.1 c 0,10.2 -7.8,16.4 -19.1,16.4 -7.8,0 -15.2,-2.4 -21.3,-7.7 l 7.2,-9.8 c 4.3,3.5 9.1,5.9 14.2,5.9 3.6,0 5.5,-1.6 5.5,-3.8 v -0.1 c 0,-2.1 -1.6,-3.4 -7.7,-5.5 -9.9,-3.4 -16.8,-7 -16.8,-16.4 v -0.2 c 0,-9.5 7.2,-16.1 18.7,-16.1 7,0 13.2,1.9 18.7,6.4 l -6.8,10 c -3.6,-2.8 -7.9,-4.8 -12.2,-4.8 -3.1,0 -4.8,1.5 -4.8,3.4 v 0.1 c 0,2.3 1.6,3.5 8.3,6 9.9,3.2 16.1,7.2 16.1,16.1 z m 46.1,-24.5 h -12.9 v 40.2 H 751.2 V 282.1 H 738.3 V 270 h 39.3 z"
   id="path293"
   inkscape:connector-curvature="0"
   style="fill:#c11f3e" />
		<polygon
   class="st1"
   points="575.3,286.8 570.4,302.1 580.2,302.1 "
   id="polygon295"
   style="fill:#c11f3e" />
		<path
   class="st1"
   d="m 379.3,253.8 v 84.6 h 429 l 34.5,-42.3 -34.5,-42.3 z m 54.4,69.4 c -13.4,0 -23.8,-10.2 -23.8,-26.5 v -0.9 c 0,-16.1 10.5,-26.7 24.3,-26.7 8.2,0 13.8,3.2 18.1,8.2 l -8.7,9.2 c -2.2,-2.7 -5.1,-4.9 -9.2,-4.9 -6.1,0 -10.7,5.5 -10.7,14.4 v 0.3 c 0,9.3 4.6,14.5 10.7,14.5 4.5,0 7.2,-2.4 9.6,-5.2 l 8.5,8.7 c -4.2,5.1 -10,8.9 -18.8,8.9 m 61.1,-0.9 -3.1,-9.4 h -16.4 l -3,9.4 h -13.8 l 18.4,-52.6 h 13.6 l 18.5,52.6 z m 54.4,-40.2 h -12.9 v 40.2 H 522.8 V 282.1 H 509.9 V 270 h 39.3 z m 37.4,40.2 -3.1,-9.4 h -16.4 l -3,9.4 h -13.8 l 18.4,-52.6 h 13.6 l 18.5,52.6 z m 57,0 h -34 V 270 h 13.5 v 40.2 h 20.6 v 12.1 z m 28.2,-19.8 v 19.7 H 658.3 V 302.6 L 641.5,270 h 14.9 l 8.7,18.9 8.9,-18.9 h 14.7 z m 59.7,4.1 c 0,10.2 -7.8,16.4 -19.1,16.4 -7.8,0 -15.2,-2.4 -21.3,-7.7 l 7.2,-9.8 c 4.3,3.5 9.1,5.9 14.2,5.9 3.6,0 5.5,-1.6 5.5,-3.8 v -0.1 c 0,-2.1 -1.6,-3.4 -7.7,-5.5 -9.9,-3.4 -16.8,-7 -16.8,-16.4 v -0.2 c 0,-9.5 7.2,-16.1 18.7,-16.1 7,0 13.2,1.9 18.7,6.4 l -6.8,10 c -3.6,-2.8 -7.9,-4.8 -12.2,-4.8 -3.1,0 -4.8,1.5 -4.8,3.4 v 0.1 c 0,2.3 1.6,3.5 8.3,6 9.9,3.2 16.1,7.2 16.1,16.1 z m 46.1,-24.5 h -12.9 v 40.2 H 751.2 V 282.1 H 738.3 V 270 h 39.3 z"
   id="path297"
   inkscape:connector-curvature="0"
   style="fill:#c11f3e" />
	</g>
	<path
   class="st0"
   d="m 508.8,222.2 c 0,3.8 -0.7,7.1 -2.1,9.8 -1.4,2.8 -3.3,5 -5.6,6.8 -2.3,1.8 -4.9,3.1 -7.8,3.9 -2.9,0.8 -5.8,1.3 -8.8,1.3 h -16.1 v -43.3 h 15.7 c 3.1,0 6.1,0.4 9.1,1.1 3,0.7 5.6,1.9 8,3.5 2.4,1.6 4.2,3.9 5.6,6.6 1.3,2.8 2,6.3 2,10.3 m -10.8,0 c 0,-2.4 -0.4,-4.5 -1.2,-6.1 -0.8,-1.6 -1.9,-2.9 -3.2,-3.9 -1.3,-1 -2.8,-1.6 -4.5,-2.1 -1.7,-0.4 -3.4,-0.6 -5.2,-0.6 h -5.2 V 235 h 5 c 1.9,0 3.7,-0.2 5.4,-0.6 1.7,-0.4 3.3,-1.1 4.6,-2.1 1.3,-1 2.4,-2.3 3.2,-3.9 0.7,-1.7 1.1,-3.7 1.1,-6.2"
   id="path301"
   inkscape:connector-curvature="0"
   style="fill:#616365" />
	<path
   class="st0"
   d="m 514.8,217.7 c 1.8,-1.7 3.9,-3 6.3,-3.9 2.4,-0.9 4.8,-1.3 7.3,-1.3 2.6,0 4.7,0.3 6.5,0.9 1.8,0.6 3.2,1.6 4.3,2.9 1.1,1.3 1.9,3 2.4,5 0.5,2 0.8,4.4 0.8,7.2 V 244 h -9.2 v -3.2 H 533 c -0.8,1.3 -1.9,2.2 -3.5,2.9 -1.6,0.7 -3.3,1 -5.1,1 -1.2,0 -2.5,-0.2 -3.8,-0.5 -1.3,-0.3 -2.5,-0.9 -3.6,-1.6 -1.1,-0.7 -2,-1.7 -2.7,-2.9 -0.7,-1.2 -1,-2.7 -1,-4.5 0,-2.2 0.6,-4 1.8,-5.3 1.2,-1.3 2.8,-2.4 4.6,-3.1 1.9,-0.7 4,-1.2 6.3,-1.5 2.3,-0.2 4.6,-0.4 6.8,-0.4 v -0.5 c 0,-1.5 -0.5,-2.6 -1.6,-3.3 -1.1,-0.7 -2.4,-1.1 -3.9,-1.1 -1.4,0 -2.8,0.3 -4.1,0.9 -1.3,0.6 -2.5,1.3 -3.4,2.2 z m 18.4,13.1 h -1.3 c -1.1,0 -2.2,0.1 -3.3,0.2 -1.1,0.1 -2.1,0.3 -3,0.6 -0.9,0.3 -1.6,0.7 -2.2,1.3 -0.6,0.6 -0.9,1.3 -0.9,2.2 0,0.6 0.1,1.1 0.4,1.5 0.3,0.4 0.6,0.7 1,1 0.4,0.2 0.9,0.4 1.4,0.5 0.5,0.1 1,0.2 1.5,0.2 2,0 3.6,-0.6 4.7,-1.7 1.1,-1.1 1.6,-2.6 1.6,-4.6 v -1.2 z"
   id="path303"
   inkscape:connector-curvature="0"
   style="fill:#616365" />
	<path
   class="st0"
   d="m 560.1,221 v 11.7 c 0,1.4 0.3,2.5 0.8,3.2 0.5,0.7 1.5,1.1 3,1.1 0.5,0 1,0 1.6,-0.1 0.6,-0.1 1,-0.2 1.4,-0.4 l 0.1,7.3 c -0.7,0.2 -1.6,0.5 -2.6,0.6 -1.1,0.2 -2.1,0.3 -3.2,0.3 -2,0 -3.8,-0.3 -5.1,-0.8 -1.4,-0.5 -2.5,-1.2 -3.3,-2.2 -0.8,-1 -1.4,-2.1 -1.8,-3.4 -0.4,-1.3 -0.5,-2.8 -0.5,-4.4 V 221 h -4.9 v -7.5 h 4.8 v -8 h 9.8 v 8 h 7.2 v 7.5 z"
   id="path305"
   inkscape:connector-curvature="0"
   style="fill:#616365" />
	<path
   class="st0"
   d="m 571.5,217.7 c 1.8,-1.7 3.9,-3 6.3,-3.9 2.4,-0.9 4.8,-1.3 7.3,-1.3 2.6,0 4.7,0.3 6.5,0.9 1.8,0.6 3.2,1.6 4.3,2.9 1.1,1.3 1.9,3 2.4,5 0.5,2 0.8,4.4 0.8,7.2 V 244 H 590 v -3.2 h -0.2 c -0.8,1.3 -1.9,2.2 -3.5,2.9 -1.6,0.7 -3.3,1 -5.1,1 -1.2,0 -2.5,-0.2 -3.8,-0.5 -1.3,-0.3 -2.5,-0.9 -3.6,-1.6 -1.1,-0.7 -2,-1.7 -2.7,-2.9 -0.7,-1.2 -1,-2.7 -1,-4.5 0,-2.2 0.6,-4 1.8,-5.3 1.2,-1.3 2.8,-2.4 4.6,-3.1 1.9,-0.7 4,-1.2 6.3,-1.5 2.3,-0.2 4.6,-0.4 6.8,-0.4 v -0.5 c 0,-1.5 -0.5,-2.6 -1.6,-3.3 -1.1,-0.7 -2.4,-1.1 -3.9,-1.1 -1.4,0 -2.8,0.3 -4.1,0.9 -1.3,0.6 -2.5,1.3 -3.4,2.2 z m 18.5,13.1 h -1.3 c -1.1,0 -2.2,0.1 -3.3,0.2 -1.1,0.1 -2.1,0.3 -3,0.6 -0.9,0.3 -1.6,0.7 -2.2,1.3 -0.6,0.6 -0.9,1.3 -0.9,2.2 0,0.6 0.1,1.1 0.4,1.5 0.3,0.4 0.6,0.7 1,1 0.4,0.2 0.9,0.4 1.4,0.5 0.5,0.1 1,0.2 1.5,0.2 2,0 3.6,-0.6 4.7,-1.7 1.1,-1.1 1.6,-2.6 1.6,-4.6 v -1.2 z"
   id="path307"
   inkscape:connector-curvature="0"
   style="fill:#616365" />
	<path
   class="st0"
   d="m 379.3,200.7 h 14.9 c 1.6,0 3.3,0.2 4.9,0.6 1.6,0.4 3.1,1 4.4,1.8 1.3,0.9 2.3,2 3.1,3.4 0.8,1.4 1.2,3.1 1.2,5.2 0,2.4 -0.7,4.4 -2.1,6.1 -1.4,1.6 -3.2,2.8 -5.5,3.4 v 0.1 c 1.4,0.2 2.7,0.5 3.9,1.1 1.2,0.6 2.2,1.3 3.1,2.2 0.9,0.9 1.5,2 2,3.2 0.5,1.2 0.7,2.6 0.7,4.1 0,2.1 -0.4,3.9 -1.3,5.4 -0.9,1.6 -2,2.8 -3.5,3.8 -1.5,1 -3.2,1.8 -5.2,2.3 -2,0.5 -4.1,0.8 -6.3,0.8 h -14.3 z m 6,18.3 h 7.9 c 1.1,0 2.2,-0.1 3.3,-0.4 1,-0.3 1.9,-0.7 2.7,-1.2 0.8,-0.6 1.4,-1.2 1.8,-2.1 0.5,-0.8 0.7,-1.8 0.7,-3 0,-2.3 -0.9,-4 -2.6,-5 -1.7,-1 -4,-1.5 -6.9,-1.5 h -6.9 z m 0,19.9 h 7.6 c 1.3,0 2.5,-0.1 3.8,-0.3 1.3,-0.2 2.4,-0.6 3.5,-1.2 1,-0.6 1.9,-1.3 2.5,-2.3 0.6,-1 0.9,-2.2 0.9,-3.6 0,-2.6 -0.9,-4.4 -2.6,-5.6 -1.8,-1.1 -4.3,-1.7 -7.6,-1.7 h -8.1 z"
   id="path309"
   inkscape:connector-curvature="0"
   style="fill:#616365" />
	<path
   class="st0"
   d="m 425,204.6 c 0,1.1 -0.4,1.9 -1.1,2.6 -0.7,0.7 -1.6,1 -2.7,1 -1.1,0 -1.9,-0.4 -2.7,-1.1 -0.7,-0.7 -1.1,-1.6 -1.1,-2.6 0,-1.1 0.4,-1.9 1.1,-2.7 0.7,-0.7 1.6,-1.1 2.7,-1.1 1.1,0 2,0.4 2.7,1.1 0.7,0.8 1.1,1.7 1.1,2.8 m -0.9,39.4 h -5.8 v -29 h 5.8 z"
   id="path311"
   inkscape:connector-curvature="0"
   style="fill:#616365" />
	<path
   class="st0"
   d="m 463.4,229.5 c 0,2.2 -0.4,4.3 -1.2,6.2 -0.8,1.9 -1.9,3.5 -3.3,4.9 -1.4,1.4 -3.1,2.4 -5,3.2 -1.9,0.8 -4,1.1 -6.2,1.1 -2.2,0 -4.3,-0.4 -6.2,-1.1 -1.9,-0.8 -3.6,-1.8 -5,-3.2 -1.4,-1.4 -2.5,-3 -3.3,-4.9 -0.8,-1.9 -1.2,-3.9 -1.2,-6.2 0,-2.2 0.4,-4.3 1.2,-6.1 0.8,-1.9 1.9,-3.5 3.3,-4.8 1.4,-1.3 3,-2.4 5,-3.2 1.9,-0.8 4,-1.1 6.2,-1.1 2.2,0 4.3,0.4 6.2,1.1 1.9,0.8 3.6,1.8 5,3.2 1.4,1.3 2.5,2.9 3.3,4.8 0.9,1.8 1.2,3.8 1.2,6.1 m -5.9,0 c 0,-1.4 -0.2,-2.7 -0.6,-4 -0.4,-1.3 -1.1,-2.4 -1.9,-3.3 -0.8,-1 -1.8,-1.7 -3,-2.3 -1.2,-0.6 -2.6,-0.9 -4.1,-0.9 -1.6,0 -2.9,0.3 -4.1,0.9 -1.2,0.6 -2.2,1.3 -3,2.3 -0.8,1 -1.4,2.1 -1.9,3.3 -0.4,1.3 -0.6,2.6 -0.6,4 0,1.4 0.2,2.7 0.6,4 0.4,1.3 1.1,2.4 1.9,3.4 0.8,1 1.8,1.7 3,2.3 1.2,0.6 2.6,0.9 4.1,0.9 1.6,0 2.9,-0.3 4.1,-0.9 1.2,-0.6 2.2,-1.3 3,-2.3 0.8,-1 1.4,-2.1 1.9,-3.4 0.3,-1.3 0.6,-2.6 0.6,-4"
   id="path313"
   inkscape:connector-curvature="0"
   style="fill:#616365" />
	<g
   id="g323">
		<polygon
   class="st1"
   points="483.5,286.8 478.6,302.1 488.4,302.1 "
   id="polygon315"
   style="fill:#c11f3e" />
		<path
   class="st1"
   d="m 379.3,253.8 v 84.6 h 429 l 34.5,-42.3 -34.5,-42.3 z m 54.4,69.4 c -13.4,0 -23.8,-10.2 -23.8,-26.5 v -0.9 c 0,-16.1 10.5,-26.7 24.3,-26.7 8.2,0 13.8,3.2 18.1,8.2 l -8.7,9.2 c -2.2,-2.7 -5.1,-4.9 -9.2,-4.9 -6.1,0 -10.7,5.5 -10.7,14.4 v 0.3 c 0,9.3 4.6,14.5 10.7,14.5 4.5,0 7.2,-2.4 9.6,-5.2 l 8.5,8.7 c -4.2,5.1 -10,8.9 -18.8,8.9 m 61.1,-0.9 -3.1,-9.4 h -16.4 l -3,9.4 h -13.8 l 18.4,-52.6 h 13.6 l 18.5,52.6 z m 54.4,-40.2 h -12.9 v 40.2 H 522.8 V 282.1 H 509.9 V 270 h 39.3 z m 37.4,40.2 -3.1,-9.4 h -16.4 l -3,9.4 h -13.8 l 18.4,-52.6 h 13.6 l 18.5,52.6 z m 57,0 h -34 V 270 h 13.5 v 40.2 h 20.6 v 12.1 z m 28.2,-19.8 v 19.7 H 658.3 V 302.6 L 641.5,270 h 14.9 l 8.7,18.9 8.9,-18.9 h 14.7 z m 59.7,4.1 c 0,10.2 -7.8,16.4 -19.1,16.4 -7.8,0 -15.2,-2.4 -21.3,-7.7 l 7.2,-9.8 c 4.3,3.5 9.1,5.9 14.2,5.9 3.6,0 5.5,-1.6 5.5,-3.8 v -0.1 c 0,-2.1 -1.6,-3.4 -7.7,-5.5 -9.9,-3.4 -16.8,-7 -16.8,-16.4 v -0.2 c 0,-9.5 7.2,-16.1 18.7,-16.1 7,0 13.2,1.9 18.7,6.4 l -6.8,10 c -3.6,-2.8 -7.9,-4.8 -12.2,-4.8 -3.1,0 -4.8,1.5 -4.8,3.4 v 0.1 c 0,2.3 1.6,3.5 8.3,6 9.9,3.2 16.1,7.2 16.1,16.1 z m 46.1,-24.5 h -12.9 v 40.2 H 751.2 V 282.1 H 738.3 V 270 h 39.3 z"
   id="path317"
   inkscape:connector-curvature="0"
   style="fill:#c11f3e" />
		<polygon
   class="st1"
   points="575.3,286.8 570.4,302.1 580.2,302.1 "
   id="polygon319"
   style="fill:#c11f3e" />
		<path
   class="st1"
   d="m 379.3,253.8 v 84.6 h 429 l 34.5,-42.3 -34.5,-42.3 z m 54.4,69.4 c -13.4,0 -23.8,-10.2 -23.8,-26.5 v -0.9 c 0,-16.1 10.5,-26.7 24.3,-26.7 8.2,0 13.8,3.2 18.1,8.2 l -8.7,9.2 c -2.2,-2.7 -5.1,-4.9 -9.2,-4.9 -6.1,0 -10.7,5.5 -10.7,14.4 v 0.3 c 0,9.3 4.6,14.5 10.7,14.5 4.5,0 7.2,-2.4 9.6,-5.2 l 8.5,8.7 c -4.2,5.1 -10,8.9 -18.8,8.9 m 61.1,-0.9 -3.1,-9.4 h -16.4 l -3,9.4 h -13.8 l 18.4,-52.6 h 13.6 l 18.5,52.6 z m 54.4,-40.2 h -12.9 v 40.2 H 522.8 V 282.1 H 509.9 V 270 h 39.3 z m 37.4,40.2 -3.1,-9.4 h -16.4 l -3,9.4 h -13.8 l 18.4,-52.6 h 13.6 l 18.5,52.6 z m 57,0 h -34 V 270 h 13.5 v 40.2 h 20.6 v 12.1 z m 28.2,-19.8 v 19.7 H 658.3 V 302.6 L 641.5,270 h 14.9 l 8.7,18.9 8.9,-18.9 h 14.7 z m 59.7,4.1 c 0,10.2 -7.8,16.4 -19.1,16.4 -7.8,0 -15.2,-2.4 -21.3,-7.7 l 7.2,-9.8 c 4.3,3.5 9.1,5.9 14.2,5.9 3.6,0 5.5,-1.6 5.5,-3.8 v -0.1 c 0,-2.1 -1.6,-3.4 -7.7,-5.5 -9.9,-3.4 -16.8,-7 -16.8,-16.4 v -0.2 c 0,-9.5 7.2,-16.1 18.7,-16.1 7,0 13.2,1.9 18.7,6.4 l -6.8,10 c -3.6,-2.8 -7.9,-4.8 -12.2,-4.8 -3.1,0 -4.8,1.5 -4.8,3.4 v 0.1 c 0,2.3 1.6,3.5 8.3,6 9.9,3.2 16.1,7.2 16.1,16.1 z m 46.1,-24.5 h -12.9 v 40.2 H 751.2 V 282.1 H 738.3 V 270 h 39.3 z"
   id="path321"
   inkscape:connector-curvature="0"
   style="fill:#c11f3e" />
	</g>
</g>
</svg>