<?xml version="1.0" encoding="UTF-8"?>
<svg width="12px" height="12px" viewBox="0 0 12 12" version="1.1" xmlns="http://www.w3.org/2000/svg" xmlns:xlink="http://www.w3.org/1999/xlink">
    <!-- Generator: Sketch 54.1 (76490) - https://sketchapp.com -->
    <title>icons/forms/asterisk</title>
    <desc>Created with Sketch.</desc>
    <g id="icons/forms/asterisk" stroke="none" stroke-width="1" fill="none" fill-rule="evenodd">
        <g id="asterisk" fill="#7986CB">
            <path d="M10.0215045,7.55364 L7.36379259,6.00004 L10.0216362,4.44644 C10.5217844,4.15404 10.6932412,3.50644 10.4041877,3.00004 C10.1156609,2.49350667 9.47566091,2.32017333 8.97577613,2.61230667 L6.3180642,4.16617333 L6.3180642,1.05884 C6.3180642,0.474173333 5.84991605,4e-05 5.2723358,4e-05 C4.69462387,4e-05 4.22660741,0.474173333 4.22660741,1.05884 L4.22660741,4.16604 L1.56876379,2.61230667 C1.06861564,2.32004 0.4290107,2.49350667 0.140220576,3.00004 C-0.148569547,3.50644 0.0228872428,4.15390667 0.523167078,4.44644 L3.18087901,6.00004 L0.523167078,7.55364 C0.02301893,7.84590667 -0.148569547,8.49364 0.140220576,9.00004 C0.334064198,9.33977333 0.685405761,9.52950667 1.04688724,9.52950667 C1.22440165,9.52950667 1.40415473,9.48377333 1.56876379,9.38764 L4.22673909,7.83390667 L4.22673909,10.9411067 C4.22673909,11.52604 4.69488724,12.00004 5.2723358,12.00004 C5.84978436,12.00004 6.3180642,11.52604 6.3180642,10.9411067 L6.3180642,7.83390667 L8.97577613,9.38750667 C9.14051687,9.48377333 9.32026996,9.52937333 9.49752099,9.52937333 C9.85900247,9.52937333 10.2106074,9.33964 10.4041877,8.99990667 C10.6931095,8.49364 10.5216527,7.84604 10.0215045,7.55364" id="Fill-1"></path>
        </g>
    </g>
</svg>